<?xml version="1.0" encoding="UTF-8"?>
<svg id="Layer_2" data-name="Layer 2" xmlns="http://www.w3.org/2000/svg" xmlns:xlink="http://www.w3.org/1999/xlink" viewBox="0 0 193.33 161.49">
  <defs>
    <style>
      .cls-1 {
        clip-path: url(#clippath);
      }

      .cls-2, .cls-3, .cls-4, .cls-5, .cls-6 {
        fill: none;
      }

      .cls-2, .cls-7, .cls-8, .cls-9, .cls-10, .cls-11, .cls-12, .cls-13 {
        stroke-width: 0px;
      }

      .cls-3 {
        stroke: #ffb846;
      }

      .cls-3, .cls-4 {
        stroke-miterlimit: 10;
      }

      .cls-3, .cls-4, .cls-5, .cls-6 {
        stroke-linecap: round;
      }

      .cls-14 {
        clip-path: url(#clippath-1);
      }

      .cls-15 {
        clip-path: url(#clippath-4);
      }

      .cls-16 {
        clip-path: url(#clippath-2);
      }

      .cls-4 {
        stroke: #c2b4a1;
      }

      .cls-4, .cls-5, .cls-6 {
        stroke-width: .5px;
      }

      .cls-5 {
        stroke: #000;
      }

      .cls-5, .cls-6 {
        stroke-linejoin: round;
      }

      .cls-6 {
        stroke: #d19e88;
      }

      .cls-8 {
        fill: #9c5e4f;
      }

      .cls-9 {
        fill: #cc8f73;
      }

      .cls-10 {
        fill: #ad8b50;
      }

      .cls-11 {
        fill: #915858;
      }

      .cls-12 {
        fill: #84a186;
      }

      .cls-13 {
        fill: #ede6dc;
      }
    </style>
    <clipPath id="clippath">
      <path class="cls-2" d="m92.3,90.96c.04-3.04-.03-6.09.96-9.01.31-.92.83-1.9,1.77-2.15.44-.11.9-.05,1.34.02,5.25.81,10.57,1.64,15.44,3.78,10.42,4.59,13.96,16.16,17.29,26.27,3.72,11.31,5.81,23.09,9.68,34.35,1.15,3.35,2.48,6.77,2.3,10.31-.03.63-.13,1.3-.56,1.75-.33.34-.79.51-1.25.65-2.47.73-4.81.3-7.33.5-2.86.23-5.73.46-8.6.64-5.9.36-11.82.56-17.73.58-11.82.04-23.65-.64-35.37-2.22,1.06.14,8.24-20.91,9.02-23.01,2.96-7.87,5.8-15.79,8.52-23.74,1.55-4.53,3.44-9.14,4.19-13.88.25-1.59.3-3.21.32-4.83Z"/>
    </clipPath>
    <clipPath id="clippath-1">
      <path class="cls-2" d="m87.82,70c-.03,1.29-.02,2.58.02,3.87,0,.17.01.35.02.52.03.86.12,1.8.75,2.4.16.15.37.31.37.53,0,.13-.08.25-.15.36-.52.77-.92,1.79-1.59,2.41-.82.77-1.96,1.27-2.99,1.69-5.54,2.09-12.31-.16-15.48-5.15,1.39-1.31,1.47-3.45,1.47-5.35,0-4.06,0-8.08.28-12.14,1.49-2.58,5.44-4.39,8.05-4.92,3.9-.79,7.54,1.11,9.13,4.75.36.83.67,1.76.75,2.67.1,1.15-.27,2.43-.38,3.6-.14,1.59-.23,3.18-.26,4.77Z"/>
    </clipPath>
    <clipPath id="clippath-2">
      <path class="cls-2" d="m69.81,69.59c-.06,3.99-.84,8.14-3.26,11.3,8.22,3.62,17.97,3.52,26.11-.27-3.46-2.64-4.59-7.46-4.25-11.82.14-1.75.47-3.49.47-5.24,0-3.6-2.73-8.11-6.27-9.28-1.45-.48-3.02-.37-4.52-.07-2.27.46-4.51,1.41-6.14,3.07-3.25,3.32-2.08,8.15-2.14,12.31Z"/>
    </clipPath>
    <clipPath id="clippath-4">
      <path class="cls-2" d="m27.31,138.88c.5,5.7,1.05,11.69,3.54,16.93.81,1.7,1.48,2.91,2.5,3.79h50.48c2.03-.39,4.06-.8,6.07-1.27,4.09-.95,8.26-2.14,11.58-4.72,4.74-3.7,6.9-9.51,9.38-14.77,3.14-6.66,6.39-9.46,12.2-13.62,2.47-1.77,5.65-2.34,6.63-5.66.34-1.17.27-2.43.04-3.62-.67-3.46-2.59-6.52-4.23-9.63-2.47-4.69-4.39-9.7-7.49-14-3.24-4.5-7.75-8.06-12.85-10.24-5.2-2.22-10.91-2.44-16.03-4.75-5.53-2.49-12.04-7.14-17.87-2.75-1.88,1.42-2.85,2.81-5.23,3.55-3.14.97-6.47,1.19-9.71,1.59-6.25.77-12.42,2.22-18.36,4.32-7.28,2.57-13.08,5.46-14.38,13.47-1.06,6.53,1.22,12.62,1.78,19.03.65,7.45,1.3,14.9,1.95,22.36Z"/>
    </clipPath>
  </defs>
  <g id="OBJECTS">
    <g>
      <g>
        <path class="cls-13" d="m7.14,132.34c3.11,7,7.29,13.48,12.7,18.91,2.45,2.46,6.06,6.37,9.47,7.4,4.37,1.31,11.12.02,15.7.02h112.13c8.28,0,18.58,3.2,24.97-3.74,7.98-8.67,13.3-22.79,10.42-34.57-2.04-8.34-10.14-13.03-12.35-21.15-2.68-9.83-1.39-20.18-1.8-30.23-1.31-32.21-23.93-79.24-64.35-67-11.95,3.62-20.8,13.39-30.84,20.81-16.21,11.97-36.01,18.01-53.18,28.56C9.31,64.09-2.34,82.39.39,106.74c.98,8.69,3.14,17.49,6.75,25.6Z"/>
        <path class="cls-12" d="m152.65,131.05c2.95.31,5.91.58,8.83,1.11,3.89.71,7.75,1.91,11.02,4.14,6.03,4.11,8.63,11.46,5.67,18.29-.47,1.09-1.08,2.13-1.94,2.94-1.88,1.76-4.65,2.13-7.22,2.18-3.35.07-6.69-.26-10.03-.42-3.06-.15-6.17.23-9.18-.01-6.83-.55-13.78-.3-20.64-.61-3.92-.18-7.99-.44-11.46-2.28-2.73,0-5.26-4.08-5.38-6.4-.19-3.67.48-7.61,1.47-11.13,1.47-5.24,4.6-10.61,9.82-12.17,4.13-1.23,8.51.2,12.66,1.35,4.41,1.21,8.9,2.11,13.43,2.68.98.12,1.95.23,2.93.33Z"/>
        <path class="cls-12" d="m27.31,138.88c.5,5.7,1.05,11.69,3.54,16.93.81,1.7,1.48,2.91,2.5,3.79h50.48c2.03-.39,4.06-.8,6.07-1.27,4.09-.95,8.26-2.14,11.58-4.72,4.74-3.7,6.9-9.51,9.38-14.77,3.14-6.66,6.39-9.46,12.2-13.62,2.47-1.77,5.65-2.34,6.63-5.66.34-1.17.27-2.43.04-3.62-.67-3.46-2.59-6.52-4.23-9.63-2.47-4.69-4.39-9.7-7.49-14-3.24-4.5-7.75-8.06-12.85-10.24-5.2-2.22-10.91-2.44-16.03-4.75-5.53-2.49-12.04-7.14-17.87-2.75-1.88,1.42-2.85,2.81-5.23,3.55-3.14.97-6.47,1.19-9.71,1.59-6.25.77-12.42,2.22-18.36,4.32-7.28,2.57-13.08,5.46-14.38,13.47-1.06,6.53,1.22,12.62,1.78,19.03.65,7.45,1.3,14.9,1.95,22.36Z"/>
        <path class="cls-12" d="m92.3,90.96c.04-3.04-.03-6.09.96-9.01.31-.92.83-1.9,1.77-2.15.44-.11.9-.05,1.34.02,5.25.81,10.57,1.64,15.44,3.78,10.42,4.59,13.96,16.16,17.29,26.27,3.72,11.31,5.81,23.09,9.68,34.35,1.15,3.35,2.48,6.77,2.3,10.31-.03.63-.13,1.3-.56,1.75-.33.34-.79.51-1.25.65-2.47.73-4.81.3-7.33.5-2.86.23-5.73.46-8.6.64-5.9.36-11.82.56-17.73.58-11.82.04-23.65-.64-35.37-2.22,1.06.14,8.24-20.91,9.02-23.01,2.96-7.87,5.8-15.79,8.52-23.74,1.55-4.53,3.44-9.14,4.19-13.88.25-1.59.3-3.21.32-4.83Z"/>
        <g class="cls-1">
          <path class="cls-10" d="m142.19,102.06c-.63-.21-1.33-.29-2.11-.15-11.02,1.96-22.49,2.13-33.51.77-.6,3.24,2.13,6.75,1.73,10.06,2.84.15,2.41-.02,4.34.02,10.47.22,20.89-1.24,31.23-2.74,5.04-.73,3.13-8.13-1.68-7.96Z"/>
          <path class="cls-10" d="m138.78,118.89c-.12-.27-.27-.53-.45-.76-2.08-2.68-6.46-1.16-9.22-.83-3.9.47-7.83.81-11.75,1.04-7.92.48-15.87.57-23.8.58-4.56,0-5.69,7-1.09,8.08,7.82,1.84,16.55,1.09,24.51.58,5.63-.36,11.49-.91,16.96-2.36,1.98-.52,4.11-1.44,4.9-3.34.39-.95.36-2.06-.05-3Z"/>
        </g>
        <path class="cls-3" d="m161.07,140.11c2.25-.7,4.07-2.63,4.64-4.92.57-2.29-.14-4.85-1.8-6.52-1.87-1.88-4.71-2.53-7.34-2.23-2.73.31-5.36,1.58-7.18,3.63s-2.78,4.88-2.43,7.6c.14,1.07.48,2.14,1.17,2.98,1.53,1.89,4.55,2.12,6.63.86,2.6-1.58,3.66-5.27,2.3-7.99-1.07-2.13-3.35-3.49-5.71-3.8-2.36-.32-4.77.3-6.91,1.35-2.44,1.2-4.75,3.19-5.23,5.87-.48,2.68,1.76,5.81,4.44,5.38,1.73-.28,3.02-1.91,3.33-3.64.31-1.73-.19-3.5-.93-5.09-.74-1.6-1.78-3.13-3.3-4.01-2.1-1.22-4.75-1-7.06-.28-2.63.83-5.19,2.39-6.43,4.86-1.24,2.46-.75,5.91,1.59,7.38,1.19.75,2.69.91,4.08.69,2.26-.35,4.41-1.72,5.41-3.78,1-2.05.69-4.76-.96-6.34-2.3-2.2-6.51-1.44-8.31,1.19-1.8,2.62-1.3,6.41.71,8.87,2.01,2.47,5.24,3.72,8.41,3.9,3.18.18,6.33-.62,9.34-1.64"/>
        <g>
          <path class="cls-7" d="m59.15,52.61c-.23-.42-.41-.88-.52-1.38-.54-2.4.44-4.99,2.18-6.73.95-.95,2.1-1.69,3.04-2.65,1.19-1.22,1.99-2.75,2.98-4.13,3.84-5.42,14.73-3.91,19.62-.47,3.62,2.54,7.21,4.32,5,9.29-.8,1.79-2.12,3.31-3.6,4.6-3.63,3.17-8.27,5.1-13.04,5.64-4.26.48-13.16.41-15.66-4.16Z"/>
          <path class="cls-9" d="m87.82,70c-.03,1.29-.02,2.58.02,3.87,0,.17.01.35.02.52.02.49.07.99.22,1.46.19.58.52.84.89,1.27.23.26.21.22.01.59-.16.3-.33.58-.52.86-1.06,1.59-2.43,2.54-4.21,3.21-5.54,2.09-12.31-.16-15.48-5.15,1.39-1.31,1.47-3.45,1.47-5.35,0-4.06,0-8.08.28-12.14,1.49-2.58,5.44-4.39,8.05-4.92,3.9-.79,7.54,1.11,9.13,4.75.36.83.67,1.76.75,2.67.1,1.15-.27,2.43-.38,3.6-.14,1.59-.23,3.18-.26,4.77Z"/>
          <g class="cls-14">
            <g class="cls-16">
              <path class="cls-8" d="m87.97,66.83c.19.12.23.39.25.62.06.92.8,3.85.22,4.62-.65.87-3.75.8-4.86.96-1.29.19-2.88.38-4.14-.07-1.21-.43-1.57-1.02-3-1.12-2.38-.17-4.42-1.75-6.03-3.51-.56-.61-1.11-1.33-1.09-2.16,0-.3.15-.64.44-.69.24-.04.46.13.64.3,1.13,1.03,2.12,2.17,3.59,2.69,1.04.37,2.05.99,3.16,1.14,1.89.26,3.82-.08,5.67-.45,2.05-.39,3.58-.94,5.08-2.38.02,0,.04.02.06.03Z"/>
            </g>
          </g>
          <path class="cls-9" d="m92.45,56.11c-.22,2.88-.74,5.77-1.96,8.37-1.23,2.61-3.21,4.92-5.82,6.13-4.77,2.21-10.73.16-14.16-3.84-3.43-4-4.68-9.49-4.73-14.77-.03-3.73.53-7.6,2.54-10.73,2.07-3.22,5.63-5.42,9.42-5.81,3.89-.4,9.41,1.35,11.7,4.8,2.95,4.45,3.4,10.69,3,15.86Z"/>
          <path class="cls-9" d="m61.8,55.28c0,2.09,1.69,3.78,3.78,3.78s3.77-1.69,3.77-3.78c0-2.09-1.69-3.78-3.78-3.78s-3.77,1.69-3.77,3.78Z"/>
          <path class="cls-5" d="m64.37,53.17c.99-.29,2.09.38,2.5,1.33.42.95.25,2.08-.21,3"/>
          <path class="cls-7" d="m74.57,47.56c-2.09,1.26-4.38,2.17-6.66,3.06-1.22.48-3.51,1.32-4.82.71-1.66-.77-1.07-3.02-.25-4.18,1.44-2.04,2.63-4.25,4.07-6.29,1.44-2.04,3.19-3.94,5.42-5.04.97-.48,3.16-1.41,4.23-1.31.85.08,1.66.41,2.51.48.77.06,1.55-.11,2.33-.1,2.69.03,5.8,2.41,7.86,3.97,2.27,1.71,4.53,3.54,6,5.96.71,1.17,1.87,3.2-.37,3.55-2.69.41-5.29-1.62-7.64-2.58-2.77-1.14-4.68-3.21-6.48-5.65-.74,2.78-2.76,5.08-5.12,6.73-.35.25-.72.48-1.08.7Z"/>
          <path class="cls-5" d="m74.26,50.82c1.33-1.22,3.33-1.65,5.04-1.09"/>
          <path class="cls-5" d="m91.64,50.66c-1.18-1.09-3.06-1.31-4.45-.53"/>
          <path class="cls-5" d="m84,51.72c.03,1.98.75,4.1,1.71,5.81.24.42.5.91.28,1.34-.14.28-.46.43-.77.46-.31.02-.62-.06-.92-.15"/>
          <path class="cls-7" d="m77.85,52.41c1.39,0,1.39,2.16,0,2.16s-1.39-2.16,0-2.16Z"/>
          <path class="cls-7" d="m89.9,51.94c1.38,0,1.39,2.15,0,2.15s-1.39-2.15,0-2.15Z"/>
        </g>
        <path class="cls-7" d="m67.93,24.82c.7-1.19,1.81-2.09,2.99-2.81,2.03-1.26,4.47-2.1,6.8-1.58,2.27.5,4.11,2.25,5.23,4.28,2.61,4.72.48,12.39-5.87,11.54-5.11-.68-12.87-5.12-9.15-11.42Z"/>
        <path class="cls-12" d="m24.31,109.44c3,13,6.63,26.32,14.97,36.73,7.83,9.77,27.5,21.1,37.96,8.3,3.39-4.15,4.43-9.85,3.86-15.18s-2.57-10.39-4.72-15.3c-5.27-12.03-11.66-23.85-21.15-32.92-7.1-6.79-17.76-9.76-25.99-3.09-6.45,5.23-6.66,13.96-4.93,21.47Z"/>
        <path class="cls-12" d="m59.12,139.66c3.75-6.79,9-12.61,14.32-18.25,7.28-7.71,15.99-17.63,27.94-16.67,5.41.43,10.35,2.25,12.3,7.32,1.12,2.92,1.78,7.74.99,10.81-.8,3.07-3.53,6.47-5.26,9.09-3.87,5.83-8.48,11.2-13.9,15.65-8.2,6.73-19.43,11.98-30.18,12.56-11.96.65-10.37-12.96-6.2-20.5Z"/>
        <g>
          <path class="cls-7" d="m104.73,75.66l38.07,33.42c.35.29-.11.87-.48.56,0,0-38.89-32.46-38.89-32.46-1-.84.29-2.39,1.3-1.52h0Z"/>
          <path class="cls-3" d="m129.85,138.67c2.24-2.01,5.03-3.29,7.49-5.03,2.04-1.45,4.82-3.06,5.48-5.6.34-1.33.3-2.73.22-4.1-.04-.66-.09-1.32-.35-1.93-.26-.6-.76-1.14-1.4-1.27-.9-.18-1.81.52-2.07,1.4s.02,1.84.51,2.61c1.47,2.29,5.98,3.66,6.5.15.41-2.79-.72-5.92-1.71-8.48-.99-2.54-2.21-5-2.91-7.63-.26-.97-.43-2.03-.07-2.97.65-1.69,2.73-1.79,3.79-.56.83.96.93,2.91.81,4.1-.35,3.78-.54,8.91,4.7,8.23.96-.12,1.95-.27,2.87.03.91.31,1.7,1.23,1.49,2.17-.19.85-1.06,1.33-1.73,1.89-.65.54-1.18,1.25-1.52,2.03-.11.26-.21.55-.17.83.09.66.86,1.04,1.52.97.66-.07,1.25-.44,1.84-.74,1.93-.97,5.65-2.1,7.47-.4.57.54.84,1.32.95,2.1.69,4.77-4.47,10.44-8.18,12.77"/>
          <path class="cls-7" d="m110.68,67.82l32.2,39.11c.29.35-.25.84-.56.47,0,0-33.17-38.29-33.17-38.29-.85-.99.67-2.32,1.53-1.29h0Z"/>
        </g>
        <path class="cls-11" d="m121.29,132.48c2.01,11.94,12.39,21.03,24.9,21.03s22.89-9.09,24.9-21.03h-49.81Z"/>
        <rect class="cls-11" x="135" y="148.96" width="22.4" height="8.62"/>
        <line class="cls-6" x1="134.43" y1="150.78" x2="158.05" y2="150.78"/>
        <line class="cls-6" x1="134.43" y1="154.94" x2="158.05" y2="154.94"/>
        <line class="cls-6" x1="134.43" y1="153.58" x2="158.05" y2="153.58"/>
        <path class="cls-6" d="m164.95,137.87c-.57.41-1.14.82-1.71,1.23"/>
        <path class="cls-6" d="m130.67,138.36c1.04.32,2.01.83,2.87,1.49"/>
        <path class="cls-6" d="m145.93,135.82c.15,1,.23,2,.24,3.01"/>
        <path class="cls-6" d="m139.96,146.61c1.2-.11,2.41-.16,3.62-.14"/>
        <path class="cls-6" d="m153.63,138.21c.48.9.93,1.81,1.35,2.74"/>
        <path class="cls-5" d="m159.07,145.11c-1.03.82-2.12,1.55-3.27,2.2"/>
        <path class="cls-6" d="m147.68,142.57c1.05.27,2.09.55,3.14.82"/>
        <path class="cls-6" d="m138.59,134.32c-.12.65-.19,1.32-.2,1.98"/>
        <path class="cls-6" d="m126.18,134.19c-.52.82-1.05,1.64-1.57,2.46"/>
        <path class="cls-6" d="m132.24,146.4c.88-.77,1.82-1.48,2.81-2.11"/>
        <path class="cls-5" d="m110.35,131.13c1.78,7.28,2.66,22.73,1.24,27.53"/>
        <path class="cls-6" d="m140.18,139.38c-.12.57-.23,1.14-.35,1.71"/>
        <path class="cls-6" d="m157.24,135.2c1.18-.14,2.36-.3,3.54-.48"/>
        <path class="cls-6" d="m149.88,146.68c.25.87.5,1.73.75,2.6"/>
        <path class="cls-5" d="m102.19,141.24c4.09-4.34,7.6-9.22,10.41-14.48,1.01-1.9,1.95-3.88,2.35-5.99.41-2.12-.06-5.95-1.13-7.82"/>
        <path class="cls-5" d="m100.9,142.65c-6.5,5.17-13.29,9.99-20.31,14.42"/>
        <path class="cls-5" d="m78.14,61.12c.53.97,1.43,1.72,2.48,2.07"/>
        <rect class="cls-7" x="23.63" y="157.12" width="159.19" height="4.12"/>
        <g>
          <path class="cls-9" d="m164.91,141.83c-1.68.42-3.34.91-4.95,1.54-1.39.54-4.3,1.34-4.69,2.96-.2.85.49,1.93,1.35,1.75-.85.3-1.76.65-2.23,1.41-.48.76-.17,2.03.72,2.14-.83.01-1.45.98-1.23,1.78.23.8,1.12,1.3,1.95,1.21-1.25.14-.28,2.12.43,2.38.92.33,2.2.16,3.17.23,3.02.21,6.05.38,9.09.35,2.4-.03,6.04-.63,5.97-3.79,0-.22-.03-.44.04-.65.05-.17.17-.31.27-.46.53-.75.83-1.86.21-2.54-.11-.12-.24-.23-.3-.38-.06-.18,0-.38.06-.57.4-1.42-.17-3.06-1.37-3.92-.14-.1-.3-.2-.38-.36-.08-.16-.07-.34-.07-.52,0-2-1.52-2.98-3.33-3.17-1.32-.14-2.64.13-3.93.43-.26.06-.52.12-.77.19Z"/>
          <path class="cls-5" d="m155.4,154.78c5.01-.07,10.02-.31,15.01-.72"/>
          <path class="cls-5" d="m154.73,151.55c5.13-.42,10.26-.85,15.39-1.27"/>
          <path class="cls-5" d="m156.06,148.13c4.72-.51,9.44-1.02,14.16-1.53"/>
        </g>
        <g>
          <path class="cls-4" d="m159.32,97.19c-.93,1.07-1.86,2.14-2.79,3.21"/>
          <path class="cls-4" d="m172.98,122.44c-.93,1.07-1.86,2.14-2.79,3.21"/>
          <path class="cls-4" d="m145.81,97.18c-.36,1.28-.71,2.57-1.07,3.85"/>
          <path class="cls-4" d="m165.11,115.82c-.57,1.14-1.15,2.28-1.72,3.42"/>
          <path class="cls-4" d="m147.73,122.45c1.24.46,2.54.75,3.85.86"/>
          <path class="cls-4" d="m149.79,110.31c1.3,1.69,2.8,3.29,4.46,4.74"/>
          <path class="cls-4" d="m171.48,98.91c.79.92,1.58,1.85,2.37,2.77"/>
          <path class="cls-4" d="m164.44,83.47c-.71,1.14-1.43,2.28-2.14,3.43"/>
          <path class="cls-4" d="m162.3,108.51l5.35-.45"/>
          <path class="cls-4" d="m146.66,87.93h6.21"/>
        </g>
        <g class="cls-15">
          <path class="cls-10" d="m53.74,104.51c-12.69,4.8-24.36,11.65-34.85,20.4-1.67,1.39-1.54,3.42-.55,4.95-2.72,3.52,2.67,8.49,6.4,5.19,9.96-8.81,21.29-15.78,33.61-20.71-1.53-3.29-2.26-7.1-4.62-9.84Z"/>
          <path class="cls-10" d="m60.6,120.85c-.24-.38-.56-.43-1.34-.18-1.61.52-3.15,1.31-4.66,2.06-3.75,1.88-7.39,3.97-11.01,6.1-.72.42-2.55,2.04-3.39,2.04-3.5,2.17-6.88,4.53-10.14,7.05-2.65,2.05-6.21,3.73-7.8,6.8-1.23,2.37-.71,5.87,1.75,6.92,1.08.47,2.33.38,3.48.12,3.33-.76,6.17-2.86,8.95-4.84,4.9-3.48,9.95-6.75,15.15-9.78,3.46-2.02,6.97-3.74,10.53-5.53.27-.14.55-.28.75-.51.4-.44.45-1.1.39-1.69-.08-.79-.33-1.55-.57-2.31-.57-1.76-1.13-3.51-1.7-5.27-.14-.45-.25-.77-.38-.99Z"/>
        </g>
        <path class="cls-5" d="m63.46,129.86c-2.84-11.57-7.36-22.72-13.37-32.99"/>
        <path class="cls-5" d="m108.96,107.44c-2.27-2.87-6.66-2.68-10.21-1.78-8.14,2.07-15.54,6.46-22.06,11.75s-12.24,11.48-17.94,17.66"/>
        <g>
          <path class="cls-9" d="m120.73,108.55c-1.27.56-2.76.88-3.9.16-1.88-1.19-.98-3.13.09-4.48,1.21-1.53,3.13-2.32,4.99-2.72.86-.18,1.82-.11,2.53.41.43.31.75.76,1.01,1.22.25.43.47.92.39,1.41-.08.54-.5.95-.91,1.31-1.17,1.02-2.48,1.88-3.88,2.55-.1.05-.21.1-.31.14Z"/>
          <path class="cls-9" d="m110.81,103.3l1.92-3c1.37-2.14,2.74-4.28,4.36-6.24,1.84-2.23,4.01-4.98,7.27-4.22,1.32.31,2.5,1.04,3.64,1.77,2.76,1.74,5.52,3.48,8.28,5.22,1.17.74,2.34,1.48,3.35,2.42.49.46.96,1.22.54,1.75-.32.41-.94.36-1.45.27.41.18.62.71.45,1.13-.2.49-.87.7-1.28.36.3.52.26,1.21-.14,1.67-.56.64-1.64.54-2.36.34.02.59-.32,1.11-.86,1.34-.54.23-1.15.18-1.73.12-3.48-.36-6.92-1.16-10.22-2.35-.93,1.37-1.95,2.68-3.06,3.92-1.87,2.1-4.3,3.58-6.47,5.37-.15.12-.31.25-.5.29-.15.03-.31,0-.46-.02-1.06-.2-2.08-.59-3.01-1.13-.66-.39-1.3-.9-1.59-1.61-.49-1.24.25-2.58.9-3.61l2.42-3.78Z"/>
          <path class="cls-5" d="m135.64,104.69c-3.93-.97-7.77-2.29-11.47-3.93"/>
          <path class="cls-5" d="m137.87,102.92c-1.69-1.3-3.13-1.94-5.15-2.6-2.81-.9-5.24-2.8-8.1-3.54"/>
          <path class="cls-5" d="m118.17,109.25c1.41-1.21,3.42-3.7,4.36-5.3,1.06.56,2.13.9,3.3,1.17"/>
          <path class="cls-5" d="m139.05,101.48c-2.06-1.97-4.42-3.62-6.98-4.87-1.2-.59-2.44-1.09-3.63-1.71-.76-.4-1.49-.85-2.19-1.35"/>
        </g>
        <path class="cls-5" d="m113.82,112.83c-1.33.66-2.97.66-4.31,0s-2.34-1.95-2.64-3.4"/>
      </g>
      <path class="cls-5" d="m85.88,161.24l-.92-6.4"/>
    </g>
  </g>
</svg>