<svg width="491" height="171" viewBox="0 0 491 171" fill="none" xmlns="http://www.w3.org/2000/svg">
<path d="M92.4306 76.8551H100.238L83.7488 122.072H75.9413L81.3975 107L70.5454 76.8551H78.5941L85.0752 96.9316L92.4306 76.8551ZM116.514 107.784C113.741 107.784 111.208 107.07 108.917 105.643C106.647 104.217 104.828 102.297 103.461 99.8858C102.115 97.4742 101.442 94.8114 101.442 91.8974C101.442 89.7069 101.833 87.657 102.617 85.7479C103.401 83.8186 104.476 82.1305 105.843 80.6835C107.229 79.2165 108.837 78.071 110.666 77.247C112.495 76.423 114.444 76.0111 116.514 76.0111C118.865 76.0111 121.016 76.5135 122.965 77.5183C124.934 78.503 126.602 79.8596 127.969 81.5879C129.336 83.3162 130.33 85.2856 130.953 87.4963C131.576 89.7069 131.717 92.018 131.375 94.4296H109.339C109.621 95.555 110.083 96.5699 110.726 97.4742C111.369 98.3585 112.183 99.0719 113.168 99.6145C114.153 100.137 115.268 100.408 116.514 100.428C117.8 100.449 118.966 100.147 120.011 99.5241C121.076 98.881 121.96 98.0168 122.664 96.9316L130.17 98.68C128.944 101.353 127.115 103.543 124.683 105.252C122.252 106.94 119.528 107.784 116.514 107.784ZM109.098 88.9131H123.93C123.709 87.7073 123.236 86.6221 122.513 85.6574C121.809 84.6727 120.935 83.8889 119.89 83.3061C118.845 82.7233 117.72 82.4319 116.514 82.4319C115.308 82.4319 114.193 82.7233 113.168 83.3061C112.143 83.8688 111.269 84.6425 110.545 85.6273C109.842 86.5919 109.36 87.6872 109.098 88.9131ZM135.192 110.376L137.061 100.187H144.416L140.106 110.376H135.192Z" fill="#F9F9F9"/>
<path d="M30.4605 122.293L11.8168 62.5792L33.5698 55.7876C36.7261 54.8021 39.7738 54.5683 42.713 55.0862C45.6717 55.5668 48.2676 56.7847 50.5009 58.7401C52.7537 60.6581 54.3906 63.2522 55.4116 66.5222C55.8644 67.9724 56.1083 69.5034 56.1434 71.1152C56.1785 72.727 55.9418 74.2677 55.4332 75.7372C54.9157 77.1783 54.0491 78.4007 52.8333 79.4044C54.8236 79.2823 56.5882 79.6364 58.1269 80.4666C59.6656 81.2969 61.015 82.4204 62.175 83.837C63.3262 85.2252 64.2775 86.7226 65.0287 88.3293C65.7996 89.8986 66.4069 91.3942 66.8508 92.8159C67.8363 95.9722 67.9332 99.0315 67.1417 101.994C66.3501 104.956 64.8585 107.575 62.6668 109.851C60.5035 112.118 57.8295 113.748 54.6448 114.743L30.4605 122.293ZM38.0846 110.13L50.7952 106.161C52.5013 105.628 53.9081 104.737 55.0155 103.486C56.123 102.235 56.8626 100.756 57.2344 99.0483C57.6063 97.3406 57.5037 95.5626 56.9266 93.7143C56.4294 92.122 55.5466 90.7436 54.2781 89.5793C53.0096 88.415 51.5552 87.6052 49.9151 87.1498C48.275 86.6945 46.6019 86.7332 44.8958 87.2658L32.1852 91.2343L38.0846 110.13ZM29.4419 82.4478L39.5933 79.2783C41.6975 78.6214 43.2848 77.408 44.355 75.6384C45.4537 73.8598 45.6657 71.89 44.9909 69.7289C44.2718 67.4257 42.9767 65.9264 41.1057 65.2311C39.2542 64.4984 37.2763 64.4606 35.1721 65.1176L25.0207 68.287L29.4419 82.4478Z" fill="#F9F9F9"/>
<path d="M352.244 106.83V64.6273H367.618C369.849 64.6273 371.859 65.0895 373.647 66.014C375.456 66.9183 376.883 68.2246 377.928 69.9328C378.993 71.6209 379.525 73.6205 379.525 75.9316C379.525 76.9566 379.375 77.9915 379.073 79.0366C378.772 80.0816 378.31 81.0261 377.687 81.8702C377.064 82.6941 376.26 83.3071 375.275 83.709C376.581 84.0306 377.646 84.6134 378.47 85.4574C379.294 86.3015 379.937 87.2963 380.4 88.4418C380.862 89.5672 381.173 90.7227 381.334 91.9084C381.515 93.074 381.605 94.1592 381.605 95.1641C381.605 97.3948 381.053 99.3844 379.947 101.133C378.842 102.881 377.355 104.268 375.486 105.293C373.637 106.318 371.587 106.83 369.336 106.83H352.244ZM359.6 100.53H368.583C369.789 100.53 370.874 100.238 371.839 99.6557C372.803 99.0729 373.577 98.269 374.16 97.2441C374.742 96.2191 375.034 95.0535 375.034 93.7473C375.034 92.6219 374.742 91.5567 374.16 90.5519C373.577 89.5471 372.803 88.7332 371.839 88.1102C370.874 87.4872 369.789 87.1757 368.583 87.1757H359.6V100.53ZM359.6 80.9658H366.774C368.261 80.9658 369.527 80.5036 370.572 79.5792C371.638 78.6547 372.17 77.4288 372.17 75.9015C372.17 74.2737 371.638 73.0478 370.572 72.2238C369.527 71.3798 368.261 70.9577 366.774 70.9577H359.6V80.9658ZM399.303 107.614C396.53 107.614 393.998 106.9 391.707 105.474C389.436 104.047 387.617 102.128 386.251 99.7159C384.904 97.3044 384.231 94.6416 384.231 91.7276C384.231 89.537 384.623 87.4872 385.407 85.578C386.19 83.6487 387.265 81.9606 388.632 80.5137C390.019 79.0466 391.626 77.9011 393.455 77.0771C395.284 76.2532 397.233 75.8412 399.303 75.8412C401.655 75.8412 403.805 76.3436 405.754 77.3484C407.724 78.3332 409.392 79.6897 410.758 81.418C412.125 83.1463 413.12 85.1158 413.743 87.3264C414.366 89.537 414.506 91.8481 414.165 94.2597H392.129C392.41 95.3851 392.872 96.4 393.516 97.3044C394.159 98.1886 394.973 98.902 395.957 99.4446C396.942 99.9672 398.057 100.238 399.303 100.259C400.59 100.279 401.755 99.9772 402.8 99.3542C403.865 98.7111 404.75 97.847 405.453 96.7617L412.959 98.5102C411.733 101.183 409.904 103.374 407.473 105.082C405.041 106.77 402.318 107.614 399.303 107.614ZM391.888 88.7432H406.719C406.498 87.5374 406.026 86.4522 405.302 85.4876C404.599 84.5028 403.725 83.7191 402.68 83.1363C401.635 82.5535 400.509 82.2621 399.303 82.2621C398.098 82.2621 396.982 82.5535 395.957 83.1363C394.932 83.699 394.058 84.4727 393.335 85.4574C392.631 86.4221 392.149 87.5173 391.888 88.7432ZM418.598 106.83V61.6128H425.954V106.83H418.598ZM433.2 106.83V61.6128H440.555V106.83H433.2ZM466.42 76.6853H474.227L457.738 121.903H449.931L455.387 106.83L444.535 76.6853H452.583L459.065 96.7617L466.42 76.6853ZM479.7 94.1693V64.6273H485.91V94.1693H479.7ZM482.835 107.614C481.77 107.614 480.865 107.242 480.122 106.499C479.398 105.755 479.037 104.851 479.037 103.786C479.037 102.74 479.398 101.856 480.122 101.133C480.865 100.409 481.77 100.048 482.835 100.048C483.86 100.048 484.734 100.409 485.457 101.133C486.181 101.856 486.543 102.74 486.543 103.786C486.543 104.851 486.181 105.755 485.457 106.499C484.734 107.242 483.86 107.614 482.835 107.614Z" fill="#F9F9F9"/>
<path d="M232.766 150.399C270.981 150.399 301.961 119.419 301.961 81.2037C301.961 42.9882 270.981 12.0084 232.766 12.0084C194.55 12.0084 163.57 42.9882 163.57 81.2037C163.57 119.419 194.55 150.399 232.766 150.399Z" fill="white"/>
<g opacity="0.5">
<path d="M333.84 170.779C333.84 170.779 307.676 142.55 301.893 142.206C296.109 141.861 266.159 160.245 261.408 160.589C256.658 160.933 228.429 146.337 221.957 146.681C215.485 147.025 194.416 159.969 189.666 160.933C184.915 161.966 171.627 155.838 166.876 156.182C162.125 156.527 150.902 170.779 150.902 170.779H333.84Z" fill="#F5F6FF"/>
</g>
<path d="M342.997 170.641H147.46C147.253 170.641 147.047 170.435 147.047 170.228C147.047 170.022 147.253 169.815 147.46 169.815H342.997C343.204 169.815 343.41 170.022 343.41 170.228C343.41 170.504 343.204 170.641 342.997 170.641Z" fill="#372E3E"/>
<path d="M259.895 170.435C259.757 170.435 259.619 170.366 259.55 170.229L254.661 161.897C254.524 161.691 254.593 161.484 254.799 161.346C255.006 161.209 255.212 161.277 255.35 161.484L260.239 169.816C260.377 170.022 260.308 170.229 260.101 170.366C260.032 170.435 259.963 170.435 259.895 170.435Z" fill="#372E3E"/>
<path d="M230.701 170.504C230.563 170.504 230.425 170.436 230.356 170.298L225.054 160.383C224.986 160.176 225.054 159.969 225.192 159.832C225.399 159.694 225.605 159.832 225.743 159.969L231.045 169.885C231.114 170.091 231.045 170.298 230.907 170.435C230.769 170.504 230.769 170.504 230.701 170.504Z" fill="#372E3E"/>
<path d="M204.95 170.435C204.812 170.435 204.675 170.367 204.606 170.229L198.684 158.661C198.615 158.455 198.684 158.248 198.822 158.11C199.029 158.041 199.235 158.11 199.373 158.248L205.294 169.816C205.363 170.022 205.294 170.229 205.157 170.367C205.019 170.435 205.019 170.435 204.95 170.435Z" fill="#372E3E"/>
<path d="M214.794 15.864C213.073 15.864 211.283 15.864 209.424 15.7951C207.427 15.7951 205.362 15.7263 203.227 15.7263C192.555 15.7263 182.365 15.4509 180.231 13.6607C178.923 12.4903 178.647 10.2182 179.611 7.73955C180.851 4.5724 184.224 0.923298 189.595 1.061C192.968 1.12985 195.034 2.71343 196.135 4.0216C196.824 4.84781 197.237 5.67402 197.512 6.15598C199.027 4.4347 203.916 -0.591426 208.804 0.716744C213.073 1.88721 213.83 5.60517 213.899 7.3953C216.928 4.4347 221.886 2.02492 226.843 2.85113C229.804 3.33309 232.213 5.39862 232.833 7.94611C233.315 9.94279 232.489 11.8706 230.63 13.2476C227.6 15.5197 222.023 15.864 214.794 15.864ZM189.319 1.81836C184.431 1.81836 181.47 5.12321 180.369 8.01496C179.542 10.1493 179.68 12.146 180.782 13.1099C182.985 15.0378 197.237 15.0378 203.296 15.0378C205.43 15.0378 207.496 15.0378 209.493 15.1066C218.719 15.2443 226.705 15.3132 230.286 12.628C231.869 11.4575 232.558 9.87394 232.145 8.15266C231.594 5.94943 229.391 4.09045 226.774 3.67734C221.748 2.85113 216.584 5.67402 213.83 8.70347C213.692 8.84117 213.555 8.84117 213.348 8.77232C213.211 8.70347 213.073 8.56577 213.142 8.35922C213.142 8.15266 213.692 2.85113 208.598 1.47411C203.434 0.0970848 197.788 7.05105 197.719 7.1199C197.65 7.2576 197.444 7.2576 197.306 7.2576C197.168 7.2576 197.031 7.1199 197.031 6.98219C196.962 6.77564 195.516 1.95606 189.595 1.81836C189.526 1.81836 189.388 1.81836 189.319 1.81836Z" fill="#F5F6FF"/>
<path d="M332.326 109.846C330.261 109.846 328.402 109.777 326.818 109.777C325.648 109.777 324.684 109.708 323.926 109.708C318.418 109.708 306.438 109.433 306.3 109.433C306.094 109.433 305.956 109.295 305.887 109.088C305.887 108.882 305.543 104.407 308.228 101.515C309.605 100.138 311.327 99.7247 313.048 100.413C314.356 100.964 315.389 102.066 315.802 103.236C316.077 102.754 316.559 102.203 317.041 101.584C318.694 99.8624 320.622 99.1739 322.687 99.5181C326.405 100.138 327.851 103.098 328.333 104.613C328.677 104.2 329.159 103.649 329.848 103.098C331.569 101.79 333.359 101.446 335.149 102.134C337.215 102.961 339.074 105.095 338.729 107.298C338.454 108.813 337.146 109.708 335.149 109.777C334.185 109.846 333.221 109.846 332.326 109.846ZM306.645 108.606C308.71 108.675 318.9 108.882 323.858 108.882C324.684 108.882 325.648 108.882 326.818 108.951C329.09 109.02 331.982 109.088 335.149 109.02C336.733 109.02 337.765 108.331 337.972 107.229C338.247 105.852 337.146 103.856 334.874 102.961C333.359 102.341 331.844 102.616 330.33 103.787C329.159 104.682 328.471 105.715 328.471 105.784C328.402 105.921 328.195 105.99 328.057 105.99C327.92 105.99 327.782 105.852 327.713 105.646C327.713 105.439 326.818 101.102 322.481 100.413C318.143 99.6558 315.871 104.613 315.871 104.682C315.802 104.889 315.595 104.957 315.389 104.889C315.182 104.82 315.045 104.682 315.113 104.475C315.182 103.236 314.081 101.79 312.704 101.239C311.877 100.895 310.294 100.551 308.779 102.134C306.782 104.2 306.645 107.574 306.645 108.606Z" fill="#CED5FF"/>
<path d="M198.616 159.005C196.894 159.005 194.898 158.386 192.832 157.078C190.009 155.356 187.049 152.533 184.777 149.366C180.646 143.583 179.613 138.625 182.16 136.698C183.193 135.94 184.639 135.94 186.085 136.766C187.531 137.593 189.045 139.245 189.183 141.242C190.629 140.553 193.176 140.209 195.173 142.688C196.894 144.891 196.206 147.232 195.586 148.471C197.17 148.265 200.475 148.196 202.816 150.674C203.78 151.707 204.262 153.153 203.986 154.599C203.78 156.182 202.816 157.56 201.576 158.248C200.75 158.73 199.717 159.005 198.616 159.005ZM183.95 136.904C183.468 136.904 182.987 137.042 182.642 137.317C180.852 138.625 181.059 142.757 185.465 148.884C189.803 154.943 196.826 160.038 201.232 157.56C202.265 156.94 203.091 155.769 203.298 154.461C203.504 153.222 203.16 152.051 202.334 151.225C199.58 148.265 195.104 149.435 195.035 149.435C194.898 149.504 194.691 149.435 194.622 149.297C194.554 149.16 194.554 148.953 194.622 148.815C194.691 148.678 196.688 145.786 194.622 143.238C192.213 140.209 189.252 142.206 189.114 142.343C188.977 142.412 188.839 142.412 188.701 142.343C188.563 142.275 188.495 142.137 188.495 141.999C188.632 140.071 187.186 138.35 185.809 137.524C185.121 137.111 184.501 136.904 183.95 136.904Z" fill="#F5F6FF"/>
<path d="M225.262 160.658C222.301 160.658 219.134 158.317 215.623 153.635C213.833 151.225 208.118 143.17 209.564 139.383C210.046 138.143 211.01 137.386 212.18 137.18C213.626 136.973 215.347 137.799 216.311 139.038C217.62 140.829 217.688 142.274 217.206 143.927C218.515 143.445 220.924 143.032 223.403 145.442C225.744 147.714 225.055 150.674 224.574 151.983C225.675 151.914 227.741 152.12 228.911 153.979C229.669 155.219 229.944 156.596 229.6 157.766C229.324 158.73 228.705 159.556 227.81 160.038C226.983 160.451 226.157 160.658 225.262 160.658ZM212.593 137.937C212.456 137.937 212.387 137.937 212.249 137.937C211.354 138.075 210.666 138.625 210.253 139.589C209.564 141.379 210.734 145.855 216.174 153.084C220.511 158.868 224.16 160.864 227.465 159.212C228.085 158.868 228.636 158.248 228.842 157.491C229.118 156.458 228.911 155.356 228.223 154.323C226.914 152.258 224.023 152.74 224.023 152.74C223.885 152.74 223.747 152.74 223.61 152.602C223.541 152.464 223.472 152.327 223.541 152.189C223.541 152.189 224.023 151.225 224.16 149.986C224.298 148.333 223.885 147.025 222.783 145.924C219.685 142.894 216.793 144.891 216.656 144.96C216.518 145.029 216.311 145.029 216.174 144.96C216.036 144.822 215.967 144.684 216.036 144.478C216.793 142.688 216.931 141.242 215.554 139.452C215.003 138.557 213.695 137.937 212.593 137.937Z" fill="#F5F6FF"/>
<path d="M254.523 162.035C254.454 162.035 254.454 162.035 254.385 162.035C251.356 162.035 248.533 160.796 246.33 158.455C244.677 156.733 243.369 154.392 242.75 152.258C242.13 149.917 242.612 147.507 243.989 146.337C244.884 145.58 245.986 145.373 247.156 145.855C248.327 146.337 249.084 147.025 249.428 147.989C249.91 149.366 249.497 150.881 249.084 151.776C249.704 151.638 250.667 151.432 251.769 151.363C254.454 151.156 256.658 151.707 258.241 152.947C260.238 154.461 261.064 156.802 260.444 158.799C259.756 160.864 257.553 162.035 254.523 162.035ZM245.848 146.406C245.366 146.406 244.884 146.612 244.471 146.957C243.369 147.92 242.956 150.055 243.507 152.052C244.058 154.117 245.297 156.32 246.881 157.904C248.946 160.038 251.563 161.209 254.385 161.209C257.139 161.278 259.067 160.245 259.687 158.524C260.238 156.871 259.48 154.874 257.759 153.566C254.248 150.881 248.464 152.74 248.464 152.74C248.327 152.809 248.12 152.74 248.051 152.602C247.913 152.465 247.913 152.327 247.982 152.189C247.982 152.189 249.222 149.986 248.602 148.265C248.327 147.507 247.707 146.957 246.812 146.612C246.468 146.475 246.192 146.406 245.848 146.406Z" fill="#F5F6FF"/>
<path d="M305.267 64.8172H291.427C291.22 64.8172 291.014 64.6107 291.014 64.4041C291.014 64.1975 291.22 63.991 291.427 63.991H305.267C305.473 63.991 305.68 64.1975 305.68 64.4041C305.68 64.6795 305.542 64.8172 305.267 64.8172Z" fill="#F5F6FF"/>
<path d="M302.79 47.2602H288.95C288.744 47.2602 288.537 47.0536 288.537 46.847C288.537 46.6405 288.744 46.4339 288.95 46.4339H302.79C302.997 46.4339 303.203 46.6405 303.203 46.847C303.203 47.0536 302.997 47.2602 302.79 47.2602Z" fill="#F5F6FF"/>
<path d="M298.45 37.69H284.61C284.404 37.69 284.197 37.4835 284.197 37.2769C284.197 37.0703 284.404 36.8638 284.61 36.8638H298.45C298.657 36.8638 298.864 37.0703 298.864 37.2769C298.864 37.4835 298.657 37.69 298.45 37.69Z" fill="#F5F6FF"/>
<path d="M293.495 51.3913H279.655C279.449 51.3913 279.242 51.1847 279.242 50.9781C279.242 50.7716 279.449 50.565 279.655 50.565H293.495C293.702 50.565 293.908 50.7716 293.908 50.9781C293.908 51.1847 293.702 51.3913 293.495 51.3913Z" fill="#F5F6FF"/>
<path d="M313.392 76.1087H299.552C299.345 76.1087 299.139 75.9022 299.139 75.6956C299.139 75.489 299.345 75.2825 299.552 75.2825H313.392C313.598 75.2825 313.805 75.489 313.805 75.6956C313.805 75.9022 313.598 76.1087 313.392 76.1087Z" fill="#F5F6FF"/>
<path d="M300.379 83.2006H286.539C286.333 83.2006 286.126 82.994 286.126 82.7875C286.126 82.5809 286.333 82.3743 286.539 82.3743H300.379C300.586 82.3743 300.792 82.5809 300.792 82.7875C300.792 82.994 300.586 83.2006 300.379 83.2006Z" fill="#F5F6FF"/>
<path d="M164.395 60.4798C164.188 60.5487 163.982 60.6175 163.775 60.6175C163.568 60.6175 163.293 60.6175 163.018 60.6175C162.742 60.6175 162.536 60.5487 162.26 60.5487C161.985 60.5487 161.778 60.4798 161.64 60.411C161.503 60.2044 161.503 59.9978 161.434 59.7913C161.434 59.5158 161.365 59.2404 161.434 58.965C161.434 58.6896 161.434 58.4141 161.503 58.1387C161.572 57.8633 161.572 57.6567 161.64 57.4502C161.847 57.3813 162.122 57.3124 162.398 57.3124C162.742 57.2436 163.018 57.2436 163.293 57.3124C163.568 57.3124 163.844 57.3813 164.05 57.519C164.257 57.6567 164.395 57.7944 164.464 58.001C164.464 58.483 164.464 58.8961 164.464 59.3093C164.532 59.7224 164.532 60.1355 164.395 60.4798ZM164.395 67.4343C164.188 67.5031 163.982 67.572 163.775 67.572C163.568 67.572 163.293 67.572 163.018 67.572C162.742 67.572 162.536 67.5031 162.26 67.5031C161.985 67.4343 161.778 67.4343 161.64 67.3654C161.503 67.2277 161.503 67.0211 161.434 66.7457C161.434 66.4703 161.365 66.2637 161.434 65.9883C161.434 65.7129 161.434 65.4374 161.503 65.2309C161.572 64.9554 161.572 64.7489 161.64 64.5423C161.847 64.4046 162.054 64.3357 162.398 64.2669C162.742 64.198 163.018 64.198 163.362 64.198C163.706 64.198 163.982 64.2669 164.188 64.4046C164.464 64.5423 164.601 64.68 164.601 64.8866C164.601 65.3686 164.601 65.7817 164.601 66.1948C164.532 66.6768 164.532 67.09 164.395 67.4343ZM162.329 66.3326C162.467 66.3326 162.467 66.3326 162.467 66.2637C162.536 66.0571 162.467 65.9194 162.467 65.9194C162.467 65.9194 162.467 65.9194 162.398 65.9194C162.329 65.9194 162.329 65.9883 162.26 66.0571C162.26 66.126 162.26 66.126 162.26 66.2637C162.329 66.2637 162.329 66.3326 162.329 66.3326ZM162.536 59.3781C162.604 59.3781 162.604 59.3781 162.604 59.3093V58.8961C162.604 58.5519 162.604 58.3453 162.604 58.2764H162.536C162.536 58.2764 162.536 58.2764 162.467 58.2764C162.467 58.2764 162.467 58.2764 162.398 58.2764V59.2404C162.398 59.3093 162.467 59.3781 162.536 59.3781ZM163.155 65.0932V65.4374V65.8506V66.0571C163.155 66.3326 163.155 66.4703 163.155 66.4703H163.224C163.224 66.4703 163.293 66.4703 163.293 66.4014C163.293 66.3326 163.293 66.3326 163.293 66.2637C163.293 66.1948 163.293 66.126 163.293 66.126V65.644V65.4374C163.293 65.162 163.293 65.0243 163.224 65.0243C163.224 65.0243 163.224 65.0243 163.155 65.0932ZM163.637 58.965C163.706 58.965 163.706 58.965 163.706 58.8273C163.706 58.6896 163.706 58.6207 163.637 58.5519H163.568C163.5 58.5519 163.5 58.6207 163.5 58.6896C163.5 58.7584 163.5 58.7584 163.5 58.8273C163.5 58.8273 163.568 58.8961 163.637 58.965C163.568 58.8961 163.568 58.8961 163.637 58.965Z" fill="#372E3E"/>
<path d="M170.868 62.0637C170.661 62.3391 170.455 62.6834 170.248 63.0276C170.041 63.3719 170.041 63.8539 170.11 64.4736C170.523 64.4736 170.937 64.5425 171.35 64.6113C171.763 64.6802 172.176 64.749 172.589 64.749C172.864 64.749 173.14 64.749 173.415 64.6802C173.691 64.6113 173.966 64.6113 174.242 64.6113C174.517 64.6113 174.724 64.6113 174.999 64.6113C175.274 64.6113 175.481 64.6802 175.619 64.8179C175.688 65.0245 175.756 65.2999 175.756 65.5753C175.825 65.8507 175.825 66.195 175.825 66.4704C175.825 66.7459 175.756 67.0213 175.619 67.2967C175.481 67.5033 175.343 67.641 175.137 67.7098C173.828 67.7098 172.589 67.641 171.35 67.5721C170.11 67.5033 168.871 67.5721 167.631 67.7098C167.287 67.5721 167.081 67.2278 167.012 66.8147C166.943 66.4016 166.943 65.9196 166.874 65.4376C166.874 64.8867 166.874 64.3359 166.874 63.7851C166.874 63.1653 166.943 62.6834 167.012 62.2702C167.081 61.9259 167.218 61.6505 167.425 61.3062C167.631 60.962 167.838 60.6177 168.113 60.3423C168.389 60.0668 168.664 59.7914 168.94 59.5848C169.215 59.3783 169.491 59.2406 169.766 59.1717C170.179 59.1029 170.592 59.034 171.074 59.1029C171.556 59.1717 172.038 59.1717 172.52 59.1029C172.658 58.8274 172.796 58.6209 173.002 58.3454C173.209 58.07 173.278 57.7946 173.278 57.5192C173.278 57.2438 173.209 57.0372 173.071 56.8306C172.933 56.624 172.796 56.4175 172.589 56.1421C171.9 56.2109 171.212 56.2798 170.455 56.2798C169.697 56.2798 169.009 56.3486 168.32 56.3486C168.113 56.2109 168.045 56.1421 167.976 56.0043C167.907 55.8666 167.838 55.6601 167.769 55.3846C167.7 55.1781 167.7 54.9715 167.631 54.6961C167.563 54.4207 167.563 54.2141 167.563 54.0075C167.631 53.7321 167.838 53.5255 168.113 53.4567C168.389 53.319 168.733 53.319 169.077 53.319C169.422 53.319 169.835 53.319 170.317 53.3878C170.73 53.4567 171.143 53.4567 171.487 53.4567C171.969 53.4567 172.382 53.4567 172.796 53.3878C173.209 53.319 173.553 53.319 173.828 53.3878C174.035 53.4567 174.242 53.5944 174.379 53.8698C174.586 54.1452 174.792 54.3518 174.93 54.6272C175.206 54.9715 175.412 55.2469 175.619 55.5224C175.825 55.7978 175.963 56.1421 176.101 56.624C176.17 56.8306 176.238 57.0372 176.238 57.2437C176.307 57.5192 176.307 57.7257 176.307 58.0012C176.307 58.2766 176.307 58.552 176.238 58.8274C176.17 59.1029 176.101 59.3783 176.032 59.5848C175.963 59.7914 175.825 59.998 175.688 60.2046C175.55 60.4111 175.412 60.6177 175.274 60.8242C175.068 61.1685 174.861 61.3751 174.655 61.5817C174.448 61.7882 174.242 61.9948 173.897 62.1325C173.346 62.1325 172.864 62.1325 172.382 62.1325C171.832 62.0637 171.35 62.0637 170.868 62.0637ZM169.422 61.9259C169.353 61.9948 169.353 61.9948 169.353 62.0637C169.353 62.1325 169.353 62.2014 169.353 62.4079C169.353 62.4079 169.353 62.4079 169.353 62.4768C169.353 62.4768 169.353 62.4768 169.353 62.5456C169.353 62.6145 169.422 62.6834 169.422 62.6834H169.491C169.491 62.6145 169.491 62.4768 169.491 62.2014V62.1325C169.491 61.9259 169.491 61.9259 169.422 61.9259ZM169.491 54.5584C169.559 54.6272 169.559 54.6272 169.628 54.6272C169.697 54.6272 169.766 54.6272 169.766 54.6961H169.835H170.592V54.6272C170.523 54.5584 170.455 54.5584 170.386 54.5584C170.317 54.5584 170.179 54.5584 170.11 54.5584C170.041 54.5584 169.904 54.5584 169.835 54.5584C169.766 54.5584 169.697 54.5584 169.628 54.4895C169.559 54.4895 169.491 54.4895 169.491 54.5584ZM170.041 60.2734C169.973 60.2046 169.904 60.1357 169.835 60.1357C169.766 60.1357 169.697 60.1357 169.628 60.1357C169.559 60.1357 169.491 60.2046 169.491 60.2734L169.559 60.3423C169.628 60.4111 169.697 60.4111 169.904 60.3423C169.973 60.3423 170.041 60.2734 170.041 60.2734ZM170.868 65.8507C170.799 65.7819 170.73 65.713 170.661 65.713H169.697C169.628 65.713 169.628 65.713 169.628 65.7819C169.628 65.8507 169.904 65.8507 170.248 65.8507C170.317 65.8507 170.455 65.8507 170.523 65.8507C170.592 65.8507 170.661 65.8507 170.73 65.8507C170.799 65.9196 170.799 65.9196 170.868 65.8507ZM170.937 60.7554C170.937 60.7554 170.799 60.7554 170.523 60.7554H170.317C170.248 60.8243 170.248 60.8243 170.248 60.8931C170.317 60.962 170.455 60.962 170.661 60.8931H170.868L170.937 60.7554C171.005 60.7554 171.005 60.7554 170.937 60.7554ZM171.005 53.8698C170.937 53.8698 170.868 53.8698 170.799 53.8698C170.73 53.8698 170.661 53.9387 170.661 54.0075V54.0764C170.73 54.1452 170.868 54.1452 171.074 54.0764C171.143 54.0764 171.212 54.0764 171.212 54.0075V53.9387C171.143 53.8698 171.074 53.8698 171.005 53.8698ZM172.451 66.7459C172.314 66.7459 172.176 66.7458 172.038 66.677C171.969 66.677 171.832 66.6081 171.763 66.6081C171.694 66.6081 171.556 66.6081 171.419 66.6081H171.35V66.677C171.419 66.7458 171.556 66.8147 171.694 66.8147C171.832 66.8147 172.038 66.8147 172.176 66.8147H172.382V66.7459C172.382 66.677 172.382 66.677 172.314 66.677C172.52 66.7458 172.451 66.7459 172.451 66.7459ZM171.9 60.2046C171.9 60.1357 171.9 60.0668 171.832 60.0668C171.763 60.0668 171.763 59.998 171.763 59.998C171.625 60.0668 171.625 60.0668 171.625 60.1357C171.625 60.1357 171.625 60.1357 171.625 60.2046C171.625 60.2046 171.625 60.2046 171.625 60.2734C171.694 60.2734 171.763 60.2734 171.9 60.2046C171.9 60.2734 171.9 60.2734 171.9 60.2046ZM172.658 66.0573L172.52 66.1262V66.195C172.52 66.195 172.658 66.195 172.933 66.195H173.14H173.553H173.897C173.966 66.195 173.966 66.1262 173.966 66.0573C173.897 65.9884 173.76 65.9884 173.553 65.9884C173.484 65.9884 173.415 65.9884 173.346 65.9884C173.209 65.9196 173.071 65.9196 172.933 65.9884H172.658V66.0573ZM174.379 55.9355C174.379 55.9355 174.31 55.9355 174.31 56.0043C174.242 56.0732 174.242 56.0732 174.242 56.1421C174.242 56.2109 174.242 56.2798 174.242 56.2798C174.242 56.3486 174.242 56.4175 174.242 56.4863V56.5552C174.31 56.5552 174.379 56.4863 174.448 56.4175C174.517 56.3486 174.517 56.2109 174.448 56.0732C174.448 56.0043 174.448 56.0043 174.448 56.0043C174.448 56.0043 174.448 56.0043 174.379 55.9355ZM174.861 57.2437C174.792 57.3126 174.792 57.3126 174.792 57.3815C174.792 57.4503 174.792 57.4503 174.792 57.4503V58.2077L174.861 58.2766H174.93C174.93 58.2077 174.999 58.07 174.93 57.7257V57.3126C174.93 57.3126 174.93 57.2437 174.861 57.2437Z" fill="#372E3E"/>
<path d="M184.983 60.3424C184.983 60.549 185.052 60.6867 185.121 60.8244C185.19 60.9621 185.328 61.0998 185.465 61.3064C185.603 61.4441 185.672 61.5818 185.81 61.7195C185.947 61.8572 186.016 61.9949 186.016 62.2015C186.016 62.2704 186.085 62.4081 186.085 62.6147C186.085 62.8212 186.085 63.0278 186.154 63.2344C186.154 63.4409 186.154 63.6475 186.154 63.8541C186.154 64.0606 186.154 64.1983 186.085 64.2672C186.016 64.5426 185.878 64.818 185.672 65.0246C185.465 65.3 185.259 65.5066 185.121 65.7132C184.983 65.9197 184.915 66.0574 184.777 66.264C184.639 66.4706 184.57 66.6083 184.433 66.8149C184.295 67.0214 184.157 67.1591 183.951 67.2968C183.744 67.4346 183.537 67.5034 183.331 67.5723C182.918 67.6411 182.436 67.71 181.885 67.71C181.334 67.71 180.783 67.71 180.232 67.6411C179.681 67.5723 179.131 67.5723 178.649 67.5034C178.098 67.4346 177.685 67.3657 177.272 67.3657C177.203 67.228 177.134 67.0214 177.134 66.746C177.065 66.4706 177.065 66.264 177.065 65.9886C177.065 65.7132 177.065 65.5066 177.134 65.2312C177.203 65.0246 177.272 64.818 177.34 64.6803C177.616 64.6115 177.96 64.5426 178.373 64.5426C178.786 64.5426 179.199 64.4738 179.681 64.4738C180.163 64.4738 180.577 64.4738 181.059 64.5426C181.541 64.6115 181.885 64.6115 182.229 64.4738C182.298 64.4738 182.367 64.4049 182.505 64.336C182.642 64.2672 182.711 64.1295 182.849 63.9918C182.987 63.8541 183.055 63.7163 183.124 63.6475C183.193 63.5098 183.262 63.4409 183.262 63.3032C183.262 63.1655 183.193 63.0278 183.124 62.8901C183.055 62.7524 182.987 62.6835 182.849 62.5458C182.78 62.4769 182.642 62.3392 182.505 62.2704C182.367 62.2015 182.298 62.0638 182.229 61.9261C181.954 61.8572 181.609 61.8572 181.334 61.8572C180.99 61.8572 180.714 61.8572 180.439 61.9261C180.163 61.9261 179.888 61.9261 179.613 61.9261C179.337 61.9261 179.131 61.7884 178.993 61.6507C178.855 61.513 178.786 61.3752 178.786 61.1687C178.786 60.9621 178.786 60.7555 178.855 60.549C178.924 60.3424 178.993 60.067 178.993 59.8604C179.062 59.585 179.062 59.3784 179.062 59.1719C179.337 59.0342 179.544 58.9653 179.819 58.9653C180.095 58.9653 180.37 58.9653 180.645 58.9653C180.921 58.9653 181.196 59.0341 181.472 59.0341C181.747 59.0341 181.954 59.0342 182.16 58.8964C182.367 58.8276 182.505 58.621 182.711 58.3456C182.918 58.0702 182.987 57.8636 182.987 57.657C182.987 57.5193 182.987 57.3816 182.918 57.2439C182.849 57.1062 182.78 57.0373 182.711 56.8996C182.642 56.7619 182.505 56.6931 182.436 56.6242C182.367 56.5553 182.298 56.4176 182.229 56.2799C181.472 56.2111 180.714 56.1422 179.957 56.1422C179.199 56.1422 178.511 56.2111 177.822 56.2799C177.616 56.2111 177.478 56.1422 177.34 56.0045C177.203 55.8668 177.134 55.7291 176.996 55.5914C176.996 55.3159 176.996 55.0405 177.065 54.7651C177.134 54.4897 177.134 54.2142 177.065 53.87C177.203 53.5945 177.409 53.4568 177.685 53.3191C177.96 53.1814 178.235 53.1814 178.649 53.1125C178.993 53.1125 179.406 53.1125 179.75 53.1125C180.163 53.1814 180.508 53.1814 180.921 53.2503C181.127 53.2503 181.403 53.2503 181.678 53.2503C181.954 53.2503 182.229 53.2503 182.436 53.1814C182.711 53.1814 182.918 53.1814 183.124 53.1814C183.331 53.1814 183.537 53.1814 183.675 53.2503C183.744 53.2503 183.813 53.3191 183.882 53.388C184.019 53.4568 184.088 53.5945 184.226 53.7323C184.364 53.87 184.433 54.0077 184.57 54.1454C184.708 54.2831 184.777 54.4208 184.846 54.4897C185.052 54.7651 185.328 55.1094 185.534 55.3848C185.81 55.6602 185.947 56.0045 186.016 56.3488C186.085 56.4865 186.085 56.6242 186.085 56.8308C186.085 57.0373 186.154 57.2439 186.154 57.3816C186.154 57.5882 186.154 57.7947 186.154 57.9325C186.154 58.139 186.154 58.2767 186.085 58.4144C186.016 58.5522 185.947 58.6899 185.878 58.8964C185.741 59.0342 185.672 59.1719 185.534 59.3096C185.397 59.4473 185.328 59.585 185.19 59.7916C185.121 60.067 185.052 60.2047 184.983 60.3424ZM178.649 66.6771L178.717 66.6083C178.649 66.4706 178.511 66.4017 178.373 66.4017C178.235 66.4017 178.167 66.4706 178.098 66.5394C178.098 66.6083 178.167 66.6771 178.304 66.6771H178.442C178.511 66.6771 178.511 66.6771 178.511 66.6771H178.58C178.58 66.6771 178.58 66.6771 178.649 66.6771ZM179.268 55.1782C179.337 55.1094 179.406 55.0405 179.406 54.9028C179.406 54.7651 179.406 54.6962 179.406 54.5585C179.406 54.4897 179.406 54.4208 179.406 54.352C179.406 54.2831 179.406 54.2142 179.406 54.2142V54.1454C179.268 54.2142 179.199 54.4208 179.199 54.6274C179.131 54.8339 179.131 55.0405 179.268 55.1782C179.199 55.1782 179.199 55.1782 179.268 55.1782ZM180.301 66.5394C180.37 66.5394 180.37 66.4706 180.439 66.4017C180.439 66.264 180.439 66.1952 180.439 66.1263C180.439 65.9197 180.37 65.8509 180.232 65.8509H180.163C180.095 65.9197 180.095 65.9886 180.163 66.0574C180.163 66.1263 180.163 66.1952 180.232 66.1952C180.232 66.3329 180.232 66.4017 180.301 66.5394ZM182.091 60.6867H182.023C181.954 60.6867 181.954 60.7555 181.954 60.7555V60.8244H182.16C182.367 60.8244 182.505 60.8244 182.642 60.8244C182.78 60.8244 182.918 60.7555 182.987 60.6867C182.987 60.6867 182.987 60.6867 182.987 60.6178H182.918C182.78 60.549 182.711 60.549 182.573 60.6178C182.505 60.6178 182.367 60.6867 182.298 60.6867C182.367 60.6867 182.229 60.6867 182.091 60.6867ZM183.675 56.4865C183.744 56.4176 183.744 56.2799 183.744 56.0734V55.8668C183.675 55.7979 183.675 55.7979 183.675 55.7979H183.606C183.537 55.8668 183.537 56.0045 183.606 56.2799V56.4865C183.675 56.4176 183.675 56.4865 183.675 56.4865ZM183.744 61.4441C183.813 61.3752 183.813 61.3064 183.813 61.2375C183.813 61.1687 183.813 61.0998 183.813 61.031C183.813 60.9621 183.744 60.8933 183.744 60.8933C183.675 60.8933 183.675 60.8933 183.675 60.8933C183.606 60.9621 183.606 61.0998 183.675 61.2375C183.675 61.4441 183.675 61.4441 183.744 61.4441ZM183.951 65.3689C184.019 65.3689 184.088 65.3689 184.088 65.3C184.088 65.2312 184.157 65.2312 184.157 65.1623C184.157 65.0246 184.088 65.0246 184.019 65.0246C183.951 65.0246 183.951 65.0246 183.951 65.0935C183.882 65.0935 183.882 65.1623 183.951 65.3689ZM184.364 58.139C184.295 58.2079 184.295 58.2079 184.295 58.2767C184.295 58.3456 184.295 58.4144 184.226 58.4144L184.157 58.4833V59.2407C184.157 59.3096 184.226 59.3096 184.226 59.2407C184.295 59.1719 184.364 59.103 184.364 59.0341C184.364 58.9653 184.364 58.8276 184.364 58.7587C184.364 58.6899 184.364 58.621 184.364 58.4833C184.364 58.4144 184.364 58.3456 184.433 58.2767C184.433 58.139 184.433 58.139 184.364 58.139ZM184.364 64.2672C184.364 64.2672 184.433 64.1295 184.364 63.8541V63.6475L184.295 63.5786C184.226 63.6475 184.226 63.7852 184.295 63.9918V64.1983C184.226 64.2672 184.226 64.2672 184.364 64.2672ZM184.57 55.3159C184.639 55.3159 184.708 55.3159 184.708 55.2471C184.708 55.1782 184.708 55.1782 184.708 55.1094C184.708 55.0405 184.708 55.0405 184.639 55.0405V54.9717C184.57 54.9717 184.501 54.9717 184.501 55.0405C184.501 55.1094 184.501 55.1094 184.501 55.1782V55.2471V55.3159H184.57Z" fill="#372E3E"/>
<path d="M169.011 36.313C169.148 36.1753 169.492 36.0376 169.974 35.9688C170.456 35.8999 171.076 35.8999 171.696 35.8999C172.178 35.8999 172.729 35.8999 173.211 35.9688C173.693 36.0376 174.106 36.1065 174.381 36.313C174.45 36.3819 174.588 36.5196 174.726 36.7262C174.863 36.9327 175.001 37.1393 175.139 37.3459C175.276 37.4836 175.345 37.6213 175.414 37.759C175.483 37.8967 175.552 38.0344 175.69 38.1033C175.758 38.241 175.827 38.3787 175.896 38.5164C175.965 38.6541 176.034 38.8607 176.103 39.0673C176.24 39.4804 176.309 39.8935 176.24 40.3067C176.172 40.7887 176.172 41.3395 176.172 41.8904C176.172 42.3723 176.172 42.8543 176.24 43.3363C176.309 43.8183 176.309 44.3692 176.309 44.8512C176.309 45.3331 176.309 45.8151 176.309 46.2971C176.24 46.7791 176.172 47.1923 176.034 47.6054C175.965 47.812 175.827 48.0185 175.69 48.1562C175.552 48.3628 175.414 48.5694 175.276 48.7071C175.001 49.0514 174.794 49.3956 174.588 49.6711C174.381 49.9465 174.037 50.1531 173.624 50.2219C173.28 50.2908 172.935 50.2908 172.591 50.2908C172.247 50.2219 171.834 50.2219 171.489 50.2219C171.214 50.2219 170.938 50.2908 170.525 50.2908C170.181 50.3596 169.837 50.2908 169.492 50.2219C169.286 50.1531 169.079 50.0153 168.942 49.7399C168.735 49.4645 168.529 49.1891 168.391 48.9825C168.253 48.7759 168.047 48.5694 167.771 48.2939C167.565 48.0185 167.358 47.812 167.289 47.6742C167.083 47.33 166.945 46.9168 166.945 46.4348C166.876 46.0217 166.876 45.5397 166.876 45.0577C166.876 44.5757 166.945 44.0249 167.014 43.5429C167.083 42.992 167.083 42.4412 167.083 41.8904C167.083 41.4772 167.014 40.9952 166.945 40.5132C166.876 40.0312 166.876 39.6181 166.945 39.2738C167.014 39.1361 167.014 38.9984 167.151 38.7918C167.22 38.6541 167.358 38.5164 167.496 38.3787C167.633 38.241 167.702 38.1033 167.84 37.9656C167.978 37.8279 168.047 37.6902 168.115 37.6213C168.391 37.277 168.529 37.0016 168.597 36.795C168.529 36.6573 168.735 36.4507 169.011 36.313ZM168.047 40.2378C168.047 40.3067 168.047 40.3755 168.047 40.3755C167.978 40.5132 167.978 40.5821 168.047 40.7198C168.115 40.7887 168.115 40.7887 168.184 40.7887C168.253 40.7887 168.253 40.7198 168.253 40.651V40.5132C168.253 40.4444 168.253 40.3755 168.253 40.3755C168.322 40.2378 168.322 40.1001 168.322 39.8935C168.322 39.687 168.322 39.5493 168.322 39.3427H168.253C168.184 39.3427 168.115 39.4115 168.115 39.4115C168.115 39.4804 168.115 39.4804 168.115 39.5493V39.687C168.115 39.7558 168.115 39.8247 168.115 39.8935C168.115 39.9624 168.115 40.0312 168.115 40.1001V40.2378H168.047ZM168.322 44.2315C168.253 44.3003 168.253 44.2315 168.322 44.2315C168.184 44.3003 168.184 44.3692 168.253 44.5069V44.5757C168.253 44.5757 168.253 44.5757 168.322 44.5757C168.391 44.5757 168.391 44.5757 168.391 44.5757C168.46 44.5069 168.46 44.3692 168.391 44.3003C168.391 44.3003 168.322 44.3003 168.322 44.2315ZM168.391 38.3787C168.597 38.3099 168.597 38.1721 168.597 37.9656H168.529C168.391 38.0344 168.322 38.1721 168.391 38.3787ZM168.666 42.6478C168.666 42.7166 168.666 42.7166 168.666 42.8543C168.804 42.8543 168.804 42.7855 168.873 42.7166C168.873 42.6478 168.873 42.5101 168.873 42.4412V42.2346C168.873 42.1658 168.873 42.1658 168.873 42.1658H168.804C168.735 42.2346 168.666 42.4412 168.666 42.6478ZM168.873 48.1562C168.942 48.294 168.942 48.2939 169.011 48.2939C169.079 48.2251 169.079 48.1562 169.148 47.9497C169.148 47.8808 169.148 47.812 169.148 47.812C169.148 47.7431 169.217 47.6054 169.217 47.3988C169.217 47.1923 169.217 46.9857 169.148 46.848H169.079C169.011 46.848 169.011 46.9168 169.011 46.9168C169.011 46.9857 169.011 46.9857 169.011 47.0545V47.1234C169.011 47.1923 169.011 47.1923 169.011 47.1923C169.011 47.2611 169.011 47.33 169.011 47.33C169.011 47.3988 169.011 47.4677 169.011 47.5365C169.011 47.6054 169.011 47.6742 169.011 47.7431C169.011 47.812 169.011 47.8808 169.011 47.9497C168.942 48.0185 168.942 48.0874 168.873 48.1562ZM170.663 39.0673C170.456 39.205 170.319 39.3427 170.112 39.5493C169.906 39.7558 169.837 39.9624 169.768 40.2378C169.699 40.5821 169.699 40.9952 169.699 41.5461C169.768 42.0281 169.837 42.5789 169.837 42.9921C169.906 43.5429 169.906 44.1626 169.906 44.6446C169.906 45.1954 169.837 45.6774 169.768 46.1594C169.906 46.366 170.043 46.5726 170.181 46.7791C170.319 46.9857 170.456 47.1923 170.663 47.33C171.007 47.33 171.283 47.33 171.489 47.2611C171.765 47.1923 172.04 47.1923 172.384 47.2611C172.66 47.0545 172.798 46.848 172.935 46.5037C173.073 46.2283 173.073 45.884 173.142 45.4709C173.142 45.1266 173.142 44.7134 173.142 44.2315C173.142 43.8183 173.142 43.3363 173.142 42.8543C173.142 42.6478 173.142 42.4412 173.211 42.1658C173.211 41.8904 173.28 41.6149 173.28 41.3395C173.28 41.0641 173.348 40.7887 173.348 40.5821C173.348 40.3755 173.348 40.169 173.348 40.1001C173.28 39.8247 173.142 39.6181 173.004 39.4804C172.866 39.3427 172.729 39.1361 172.522 38.8607C172.178 38.8607 171.902 38.8607 171.558 38.8607C171.283 38.9984 171.007 38.9984 170.663 39.0673ZM173.693 47.7431C173.624 47.7431 173.624 47.7431 173.693 47.7431C173.624 47.812 173.624 47.8808 173.624 47.9497C173.624 48.0185 173.624 48.0874 173.624 48.1562C173.624 48.2251 173.693 48.2939 173.762 48.2939C173.83 48.2939 173.83 48.2939 173.83 48.2939C173.899 48.2251 173.899 48.0874 173.83 47.9497C173.762 47.812 173.693 47.7431 173.693 47.7431ZM174.106 45.1266C174.037 45.1954 174.037 45.1954 174.037 45.3331V46.2283C174.037 46.2283 174.037 46.2283 174.106 46.2283C174.106 46.2283 174.106 46.2283 174.175 46.2283H174.244C174.312 46.1594 174.312 45.9528 174.244 45.6086V45.1954C174.175 45.1266 174.175 45.1266 174.106 45.1266ZM174.244 38.1033C174.244 38.1721 174.244 38.1721 174.175 38.3099C174.175 38.3787 174.175 38.4476 174.175 38.5164C174.175 38.5853 174.244 38.6541 174.312 38.6541C174.381 38.6541 174.381 38.6541 174.381 38.6541C174.45 38.5853 174.45 38.4476 174.381 38.3099C174.381 38.1033 174.381 38.1033 174.244 38.1033C174.312 38.1033 174.312 38.1033 174.244 38.1033ZM174.657 41.8904C174.726 41.9592 174.726 42.0281 174.794 42.0281C174.863 42.0281 174.863 41.8904 174.863 41.6149V41.4084V40.9264C174.863 40.8575 174.863 40.7887 174.863 40.7887C174.863 40.7198 174.863 40.651 174.863 40.651C174.794 40.5821 174.794 40.5821 174.794 40.5821H174.726C174.726 40.651 174.726 40.7887 174.726 40.9952V41.2018V41.6149V41.8904H174.657ZM175.07 42.9921C175.07 43.0609 175.07 43.1298 175.07 43.1986C175.07 43.2675 175.07 43.3363 175.001 43.4052C174.932 43.6118 174.932 43.7495 174.932 43.956C175.07 43.8872 175.07 43.7495 175.139 43.6118C175.139 43.474 175.139 43.2675 175.139 43.1298V42.9232C175.139 42.8543 175.139 42.8543 175.139 42.8543C175.07 42.8543 175.07 42.8543 175.07 42.9232C175.07 42.992 175.07 42.9921 175.07 42.9921Z" fill="#372E3E"/>
<path d="M184.159 36.1065C184.365 36.6574 184.434 37.2082 184.434 37.7591C184.434 38.3788 184.365 38.9296 184.365 39.5493C184.296 40.1002 184.296 40.7199 184.296 41.2707C184.296 41.8216 184.365 42.3724 184.365 42.9921C184.365 43.4052 184.365 43.8184 184.296 44.1627C184.227 44.5758 184.227 44.9201 184.227 45.3332C184.227 46.0906 184.296 46.848 184.365 47.5366C184.434 48.294 184.434 48.9826 184.365 49.74C184.296 49.9465 184.159 50.0843 183.952 50.222C183.745 50.3597 183.47 50.4285 183.195 50.4974C182.919 50.5662 182.644 50.5663 182.299 50.5663C182.024 50.5663 181.749 50.4974 181.611 50.3597C181.473 50.2908 181.404 50.1531 181.404 49.9465C181.335 49.74 181.335 49.5334 181.267 49.258C181.198 48.9826 181.198 48.7071 181.198 48.4317C181.198 48.1563 181.198 47.8809 181.198 47.6743C181.198 47.33 181.267 46.9857 181.335 46.6415C181.404 46.2972 181.473 45.8841 181.473 45.4709C181.473 44.9889 181.473 44.5069 181.473 43.9561C181.473 43.4052 181.404 42.9233 181.404 42.3036C181.404 41.7527 181.335 41.2019 181.335 40.651C181.335 40.1002 181.335 39.5493 181.404 38.9985C181.06 38.9296 180.716 38.9296 180.303 38.9296C179.889 38.9985 179.476 38.9985 179.132 38.9985C178.788 38.9985 178.443 38.9985 178.099 38.9296C177.824 38.8608 177.617 38.6542 177.479 38.3788C177.548 38.0345 177.617 37.6902 177.617 37.2771C177.617 36.8639 177.686 36.5197 177.686 36.1065C178.237 36.1065 178.788 36.0377 179.339 36.0377C179.889 35.9688 180.44 35.9688 181.06 35.9C181.611 35.9 182.162 35.9 182.713 35.9C183.195 35.9688 183.677 36.0377 184.159 36.1065ZM180.303 37.2771H180.371C180.44 37.2771 180.44 37.2082 180.44 37.2082V37.1394H180.234C180.027 37.1394 179.889 37.1394 179.752 37.1394C179.614 37.1394 179.476 37.2082 179.407 37.2771V37.3459H179.476C179.614 37.4148 179.683 37.4148 179.821 37.3459C179.889 37.3459 180.027 37.2771 180.096 37.2771C180.096 37.2771 180.234 37.2771 180.303 37.2771ZM181.886 42.9921C181.817 43.1298 181.817 43.1987 181.749 43.2675C181.749 43.3364 181.68 43.4052 181.68 43.4052C181.68 43.4741 181.68 43.543 181.68 43.6118H181.749C181.886 43.6118 181.955 43.543 181.955 43.3364C181.955 43.2675 181.955 43.1298 181.955 43.061C181.955 43.061 181.955 42.9921 181.886 42.9921ZM182.024 37.8968C182.093 37.9656 182.093 37.9656 182.093 37.9656C182.162 37.9656 182.162 37.9656 182.299 37.9656C182.368 37.9656 182.506 37.9656 182.575 37.9656C182.988 37.9656 183.195 37.9656 183.195 37.8968C183.195 37.8279 183.195 37.8279 183.126 37.8279H182.162C182.093 37.7591 182.093 37.8279 182.024 37.8968ZM182.368 39.8936C182.299 40.169 182.231 40.4444 182.231 40.651C182.231 40.8576 182.231 41.0642 182.231 41.2707V41.4773C182.231 41.615 182.231 41.6839 182.231 41.7527C182.231 41.8216 182.299 41.9593 182.368 42.0281V41.9593C182.368 41.8904 182.368 41.8216 182.368 41.8216C182.368 41.7527 182.368 41.6839 182.368 41.615C182.368 41.4084 182.368 41.2707 182.437 41.0641C182.437 40.8576 182.437 40.7199 182.437 40.5822C182.437 40.5133 182.437 40.4444 182.437 40.4444C182.437 40.3756 182.437 40.2379 182.437 40.169C182.437 40.1002 182.437 39.9625 182.368 39.8936ZM182.781 45.6775C182.85 45.6086 182.85 45.6086 182.781 45.6086C182.713 45.5398 182.713 45.4709 182.713 45.4021C182.713 45.2644 182.713 45.1955 182.713 45.0578C182.713 44.7824 182.713 44.7135 182.713 44.6446H182.644C182.644 44.6446 182.575 44.6447 182.575 44.7135C182.575 44.7824 182.575 44.8512 182.575 44.9201C182.575 44.9889 182.575 45.0578 182.575 45.1266C182.575 45.2644 182.575 45.3332 182.575 45.4021C182.575 45.4709 182.575 45.5398 182.644 45.6086C182.644 45.6775 182.644 45.6775 182.781 45.6775ZM182.713 47.33C182.575 47.4677 182.575 47.6743 182.575 47.8809C182.575 48.0874 182.644 48.294 182.781 48.3629V48.294C182.781 48.2252 182.781 48.1563 182.781 48.1563C182.781 48.0874 182.781 48.0186 182.781 47.9497C182.781 47.812 182.781 47.7432 182.781 47.6055C182.85 47.4677 182.85 47.3989 182.713 47.33Z" fill="#372E3E"/>
<path d="M175.96 77.4168C176.029 77.6234 176.098 77.83 176.098 78.1054C176.098 78.312 176.098 78.5874 176.098 78.794C176.098 79.0005 176.098 79.276 176.098 79.4825C176.098 79.6891 176.098 79.8957 176.167 80.1711C176.167 80.3088 176.167 80.5154 176.167 80.6531C176.167 80.7908 176.167 80.9285 176.167 81.1351C176.167 81.4105 176.167 81.7548 176.236 82.0302C176.236 82.3056 176.236 82.581 176.236 82.9253C176.236 82.9942 176.167 83.063 176.098 83.1319C176.029 83.2007 175.891 83.2007 175.754 83.2696C175.616 83.2696 175.547 83.2696 175.409 83.2696C175.272 83.2696 175.203 83.2007 175.134 83.2007C175.065 83.1319 175.065 83.1319 175.065 82.9942C175.065 82.9253 174.996 82.7876 174.996 82.7187C174.996 82.581 174.996 82.5122 174.996 82.3745C174.996 82.2368 174.996 82.1679 174.996 82.099C174.996 81.9613 174.996 81.8236 175.065 81.6859C175.065 81.5482 175.134 81.4105 175.134 81.2039C175.134 80.9973 175.134 80.7908 175.134 80.5842C175.134 80.3776 175.134 80.1711 175.134 79.9645C175.134 79.7579 175.134 79.5514 175.134 79.276C175.134 79.0694 175.134 78.8628 175.134 78.6563C174.996 78.6563 174.859 78.6563 174.721 78.6563C174.583 78.6563 174.377 78.6563 174.239 78.6563C174.101 78.6563 173.963 78.6562 173.826 78.5874C173.688 78.5874 173.619 78.4497 173.619 78.3808C173.619 78.2431 173.688 78.1054 173.688 77.9677C173.688 77.83 173.688 77.6923 173.688 77.4857C173.895 77.4857 174.101 77.4857 174.308 77.4168C174.514 77.4168 174.79 77.4168 174.996 77.348C175.203 77.2791 175.409 77.348 175.685 77.348C175.616 77.348 175.823 77.348 175.96 77.4168ZM174.445 77.83C174.514 77.83 174.514 77.83 174.445 77.83C174.514 77.7611 174.514 77.7611 174.445 77.83C174.514 77.7611 174.514 77.7611 174.445 77.7611H174.377C174.308 77.7611 174.239 77.7611 174.17 77.7611C174.101 77.7611 174.032 77.7611 174.032 77.83C174.101 77.83 174.101 77.83 174.17 77.83H174.239C174.377 77.83 174.445 77.83 174.445 77.83ZM175.065 80.1022C175.065 80.1711 175.065 80.1711 174.996 80.2399V80.3088V80.3776C175.065 80.3776 175.065 80.3776 175.065 80.3088C175.134 80.2399 175.134 80.1711 175.065 80.1022C175.134 80.1022 175.134 80.1022 175.065 80.1022ZM175.134 78.1054C175.203 78.1054 175.203 78.1054 175.272 78.1054C175.341 78.1054 175.341 78.1054 175.409 78.1054C175.547 78.1054 175.685 78.1054 175.685 78.1054H175.272C175.203 78.0365 175.134 78.0365 175.134 78.1054ZM175.272 78.8628C175.272 79.0005 175.203 79.0694 175.203 79.1382C175.203 79.2071 175.203 79.2759 175.203 79.4137V79.4825C175.203 79.5514 175.203 79.5514 175.203 79.6202C175.203 79.6891 175.203 79.6891 175.272 79.6891V79.6202V79.5514C175.272 79.4825 175.272 79.4137 175.272 79.3448C175.272 79.276 175.272 79.2071 175.272 79.1382V79.0694C175.272 79.0005 175.272 79.0005 175.272 78.9317C175.341 78.9317 175.272 78.9317 175.272 78.8628ZM175.409 81.1351C175.478 81.1351 175.478 81.1351 175.409 81.1351C175.409 81.0662 175.409 81.0662 175.409 80.9973C175.409 80.9285 175.409 80.9285 175.409 80.8596C175.409 80.7908 175.409 80.7219 175.409 80.7219V80.7908V80.8596C175.409 80.9285 175.409 80.9285 175.409 80.9973C175.341 81.0662 175.341 81.1351 175.409 81.1351ZM175.409 81.8236C175.341 81.8925 175.341 81.9613 175.341 82.0302C175.341 82.099 175.341 82.1679 175.409 82.2368V82.1679V82.099C175.409 82.0302 175.409 82.0302 175.409 81.9613C175.478 81.8925 175.478 81.8236 175.409 81.8236Z" fill="#372E3E"/>
<path d="M180.369 77.348C180.437 77.5545 180.437 77.7611 180.437 78.0365C180.437 78.3119 180.437 78.5185 180.437 78.7939C180.437 79.0694 180.437 79.2759 180.437 79.5513C180.437 79.8268 180.437 80.0333 180.437 80.3088C180.506 80.3088 180.575 80.3088 180.713 80.3088C180.782 80.3088 180.919 80.3088 180.988 80.3776C180.988 80.4465 180.988 80.5842 180.988 80.653C180.988 80.7219 180.988 80.8596 181.057 80.9285C181.057 80.9973 181.057 81.135 181.057 81.2039C181.057 81.2727 181.057 81.3416 180.988 81.4105C180.851 81.4793 180.713 81.4793 180.506 81.4793C180.506 81.617 180.506 81.7547 180.506 81.8924C180.506 82.0302 180.506 82.1679 180.506 82.3056C180.506 82.4433 180.506 82.581 180.506 82.7187C180.506 82.8564 180.506 82.9253 180.437 83.063C180.3 83.063 180.231 83.063 180.093 83.063C179.955 83.063 179.818 83.1319 179.749 83.1319C179.611 83.1319 179.542 83.1319 179.473 83.063C179.405 82.9941 179.336 82.9253 179.267 82.8564C179.267 82.6499 179.267 82.4433 179.267 82.1679C179.267 81.8924 179.267 81.6859 179.336 81.4793C179.129 81.4793 178.854 81.4793 178.578 81.4793C178.303 81.4793 178.027 81.5482 177.821 81.5482C177.614 81.5482 177.408 81.5482 177.201 81.4793C176.995 81.4105 176.857 81.3416 176.788 81.2727C176.788 81.135 176.788 80.9973 176.857 80.8596C176.857 80.7219 176.857 80.5842 176.857 80.4465C177.064 80.1022 177.27 79.7579 177.477 79.4136C177.683 79.0694 177.821 78.6562 178.027 78.3119C178.027 78.2431 178.096 78.1742 178.165 78.1054C178.234 78.0365 178.303 77.8988 178.303 77.8299C178.372 77.7611 178.441 77.6234 178.509 77.5545C178.578 77.4857 178.647 77.4168 178.716 77.4168C178.991 77.4168 179.336 77.4857 179.611 77.4168C179.818 77.2791 180.093 77.348 180.369 77.348ZM177.545 79.7579C177.477 79.7579 177.477 79.7579 177.477 79.7579C177.477 79.8268 177.408 79.8956 177.408 79.9645C177.408 80.0333 177.408 80.1022 177.408 80.1022C177.408 80.0333 177.408 80.0333 177.477 79.9645C177.477 79.8956 177.477 79.8956 177.477 79.8268V79.7579C177.545 79.8268 177.545 79.8268 177.545 79.7579ZM177.614 80.7219V80.7908V80.8596C177.545 80.9973 177.545 81.0662 177.545 81.135L177.614 80.7219C177.683 80.7219 177.683 80.7219 177.614 80.7219C177.614 80.653 177.614 80.653 177.614 80.7219ZM177.821 79.4136C177.821 79.3448 177.821 79.3448 177.89 79.2759C177.89 79.2071 177.959 79.1382 177.959 79.1382V79.0694C178.027 79.0005 178.027 78.9316 178.027 78.9316H177.959C177.959 78.9316 177.959 78.9317 177.959 79.0005V79.0694C177.959 79.1382 177.89 79.2071 177.89 79.2759V79.3448C177.752 79.3448 177.752 79.4136 177.821 79.4136ZM178.165 80.2399H179.198C179.198 80.1022 179.198 79.9645 179.198 79.8268C179.198 79.6891 179.198 79.5514 179.198 79.3448C179.198 79.2071 179.198 79.0694 179.198 78.9316C179.198 78.7939 179.198 78.6562 179.129 78.5185C178.991 78.7939 178.785 79.0694 178.647 79.4136C178.509 79.6891 178.372 79.9645 178.165 80.2399ZM178.441 78.0365C178.372 78.0365 178.372 78.0365 178.441 78.0365C178.372 78.1054 178.303 78.1742 178.372 78.1742C178.372 78.1742 178.372 78.1742 178.372 78.1054C178.372 78.1054 178.372 78.1054 178.372 78.0365C178.441 78.1054 178.441 78.0365 178.441 78.0365ZM179.542 79.5513C179.542 79.6202 179.542 79.6202 179.473 79.6891V79.7579V79.8268C179.542 79.8268 179.542 79.7579 179.542 79.6891C179.611 79.6891 179.611 79.6202 179.542 79.5513C179.611 79.5513 179.611 79.5513 179.542 79.5513ZM179.749 78.3119C179.68 78.4497 179.68 78.5185 179.68 78.5874C179.68 78.6562 179.68 78.7251 179.68 78.8628V78.9316C179.68 79.0005 179.68 79.0005 179.68 79.0694C179.68 79.1382 179.68 79.1382 179.749 79.1382V79.0694V79.0005C179.749 78.9317 179.749 78.8628 179.749 78.7939C179.749 78.7251 179.749 78.6562 179.749 78.5874V78.5185C179.749 78.5185 179.749 78.4497 179.749 78.3808C179.818 78.3808 179.749 78.3808 179.749 78.3119ZM179.887 80.5842C179.887 80.5153 179.887 80.5153 179.887 80.4465C179.887 80.3776 179.887 80.3776 179.887 80.3088C179.887 80.2399 179.887 80.1711 179.887 80.1711V80.2399V80.3088C179.887 80.3776 179.887 80.3776 179.887 80.4465C179.818 80.5153 179.818 80.5153 179.887 80.5842ZM179.887 81.2727C179.818 81.3416 179.818 81.4105 179.818 81.4793C179.818 81.5482 179.818 81.617 179.887 81.6859V81.617V81.5482C179.887 81.4793 179.887 81.4793 179.887 81.4105C179.955 81.2727 179.955 81.2727 179.887 81.2727Z" fill="#372E3E"/>
<path d="M184.431 77.3481C184.431 77.417 184.499 77.4858 184.499 77.5547C184.499 77.6235 184.499 77.7612 184.568 77.8301C184.568 77.9678 184.568 78.0367 184.568 78.1744C184.568 78.3121 184.568 78.381 184.568 78.4498C184.431 78.4498 184.293 78.4498 184.086 78.4498C183.949 78.4498 183.742 78.4498 183.604 78.4498C183.467 78.4498 183.26 78.4498 183.122 78.4498C182.985 78.4498 182.778 78.4498 182.64 78.4498C182.571 78.5875 182.571 78.7252 182.571 78.9318C182.571 79.1384 182.571 79.2761 182.571 79.4826C182.709 79.4826 182.778 79.4826 182.916 79.4826C183.053 79.4826 183.122 79.4826 183.26 79.4138C183.329 79.4138 183.467 79.4138 183.604 79.4138C183.673 79.4138 183.811 79.4138 183.949 79.4826C184.017 79.4826 184.086 79.5515 184.155 79.6892C184.224 79.8269 184.293 79.8958 184.362 79.9646C184.431 80.0335 184.499 80.1712 184.568 80.2401C184.637 80.3089 184.706 80.4466 184.706 80.5155C184.706 80.5155 184.706 80.5843 184.775 80.5843C184.775 80.6532 184.844 80.6532 184.844 80.7221C184.844 80.7909 184.913 80.8598 184.913 80.8598C184.913 80.9286 184.913 80.9286 184.913 80.9286C184.913 81.0663 184.913 81.2729 184.913 81.4795C184.844 81.686 184.844 81.8237 184.775 81.9614C184.775 82.0303 184.706 82.0992 184.637 82.168C184.568 82.2369 184.499 82.3057 184.431 82.3746C184.362 82.5123 184.293 82.5812 184.224 82.7189C184.155 82.7877 184.086 82.8566 183.949 82.9254C183.742 82.9254 183.535 82.9254 183.26 82.9254C183.053 82.9254 182.847 82.9254 182.571 82.9943C182.434 82.9943 182.296 82.9943 182.158 82.9943C182.021 82.9943 181.952 82.9943 181.814 82.9943C181.745 82.9943 181.607 82.9254 181.539 82.9254C181.47 82.8566 181.401 82.7877 181.332 82.7189C181.332 82.5812 181.332 82.3746 181.332 82.2369C181.332 82.0992 181.332 81.9614 181.401 81.8237C181.539 81.7549 181.676 81.7549 181.814 81.7549C181.952 81.7549 182.158 81.7549 182.296 81.7549C182.434 81.7549 182.64 81.7549 182.778 81.7549C182.985 81.7549 183.122 81.7549 183.191 81.686C183.191 81.686 183.26 81.6172 183.329 81.6172C183.398 81.5483 183.398 81.4795 183.467 81.4795C183.535 81.4106 183.535 81.3417 183.535 81.2729C183.535 81.204 183.604 81.1352 183.604 81.1352C183.604 80.9975 183.535 80.9286 183.467 80.8598C183.398 80.7909 183.329 80.722 183.26 80.5843C182.985 80.5843 182.64 80.6532 182.296 80.6532C181.952 80.6532 181.676 80.6532 181.332 80.5843C181.263 80.4466 181.194 80.3089 181.194 80.1023C181.194 79.8958 181.194 79.7581 181.194 79.5515C181.194 79.3449 181.194 79.2072 181.263 79.0007C181.263 78.7941 181.332 78.6564 181.332 78.4498C181.332 78.2432 181.332 78.1055 181.263 77.9678C181.263 77.8301 181.194 77.6235 181.263 77.4858C181.263 77.417 181.332 77.3481 181.401 77.2793C181.47 77.2104 181.539 77.2104 181.607 77.1415C182.089 77.2104 182.571 77.2104 183.053 77.2104C183.535 77.3481 184.017 77.3481 184.431 77.3481ZM181.883 79.4138L181.952 79.3449C181.952 79.2072 181.952 79.2072 181.952 79.1384C181.952 79.1384 181.952 79.1384 181.952 79.2072C181.883 79.2761 181.883 79.3449 181.883 79.4138ZM182.365 78.0367C182.296 78.0367 182.296 78.0367 182.227 78.0367C182.158 78.0367 182.158 78.0367 182.089 78.0367C181.952 78.0367 181.814 78.0367 181.814 78.0367H182.227C182.365 78.0367 182.365 78.0367 182.365 78.0367ZM182.089 80.0335C181.952 79.9646 181.952 79.9646 181.883 80.0335C181.883 80.0335 181.883 80.1023 181.952 80.1023H182.021C182.089 80.1023 182.089 80.1023 182.089 80.0335ZM182.503 79.8958L182.365 79.8269C182.296 79.8269 182.227 79.8269 182.158 79.8269C182.158 79.8269 182.158 79.8269 182.158 79.8958H182.227C182.434 79.8958 182.503 79.8958 182.503 79.8958ZM182.227 82.3746C182.227 82.4434 182.227 82.4434 182.227 82.3746C182.296 82.3746 182.296 82.3746 182.365 82.3746C182.365 82.3746 182.434 82.3746 182.503 82.3746C182.571 82.3746 182.571 82.3746 182.64 82.3746C182.709 82.3746 182.709 82.3746 182.709 82.3057H182.365C182.296 82.3746 182.296 82.3746 182.227 82.3746ZM183.053 77.6235C183.053 77.5547 183.053 77.5547 183.053 77.6235C183.122 77.5547 183.122 77.5547 183.053 77.5547H182.985C182.916 77.5547 182.847 77.5547 182.778 77.5547C182.709 77.5547 182.64 77.5547 182.64 77.6235C182.709 77.6235 182.709 77.6235 182.778 77.6235C182.778 77.6235 182.847 77.6235 182.916 77.6235C182.916 77.6235 182.985 77.6235 183.053 77.6235ZM182.847 82.65C182.847 82.5811 182.847 82.5811 182.847 82.65C182.709 82.5811 182.709 82.5812 182.64 82.5812C182.64 82.5812 182.64 82.65 182.709 82.65H182.778C182.847 82.65 182.847 82.65 182.847 82.65ZM182.847 80.1023C182.778 80.1023 182.778 80.1023 182.709 80.1023C182.709 80.1023 182.709 80.1712 182.778 80.1712C182.847 80.1712 182.847 80.1712 182.847 80.1023ZM183.122 77.899H183.26C183.329 77.899 183.398 77.899 183.467 77.899H183.535C183.604 77.899 183.673 77.899 183.673 77.899C183.673 77.899 183.673 77.899 183.673 77.8301H183.535H183.329H183.26C183.122 77.8301 183.053 77.8301 183.122 77.899C183.053 77.899 183.053 77.899 183.122 77.899ZM184.155 81.8237C184.224 81.686 184.224 81.686 184.224 81.6172L184.155 81.5483C184.155 81.6172 184.155 81.6172 184.155 81.6172V81.686C184.086 81.8237 184.086 81.8237 184.155 81.8237ZM184.362 81.2729V81.1352C184.362 80.9975 184.362 80.9286 184.362 80.9286V81.2729Z" fill="#372E3E"/>
<path d="M171.765 78.0368C172.522 80.0336 167.909 83.5453 167.909 83.5453C167.909 83.5453 163.295 79.9648 164.053 78.0368C165.017 75.6269 167.909 77.8991 167.909 77.8991C167.909 77.8991 170.938 75.7646 171.765 78.0368Z" fill="#FF7648"/>
<path d="M169.147 89.7417C169.147 90.7056 168.389 91.4631 167.425 91.4631C166.462 91.4631 165.704 90.7056 165.704 89.7417C165.704 88.7777 166.462 88.0203 167.425 88.0203C168.389 88.0203 169.147 88.7777 169.147 89.7417Z" fill="#F5F6FF"/>
<path d="M176.583 89.7417C176.583 90.7056 175.826 91.4631 174.862 91.4631C173.898 91.4631 173.141 90.7056 173.141 89.7417C173.141 88.7777 173.898 88.0203 174.862 88.0203C175.826 88.0203 176.583 88.7777 176.583 89.7417Z" fill="#F5F6FF"/>
<path d="M183.951 89.7417C183.951 90.7056 183.193 91.4631 182.229 91.4631C181.265 91.4631 180.508 90.7056 180.508 89.7417C180.508 88.7777 181.265 88.0203 182.229 88.0203C183.193 88.0203 183.951 88.7777 183.951 89.7417Z" fill="#F5F6FF"/>
<path d="M182.367 96.2824H166.737V99.243H182.367V96.2824Z" fill="white"/>
<path d="M182.367 103.236H166.737V106.197H182.367V103.236Z" fill="white"/>
<path d="M166.599 118.04C166.461 118.04 166.323 117.902 166.323 117.765V110.328C166.323 110.19 166.461 110.053 166.599 110.053C166.736 110.053 166.874 110.19 166.874 110.328V117.765C166.874 117.902 166.736 118.04 166.599 118.04Z" fill="#F5F6FF"/>
<path d="M169.693 118.04C169.556 118.04 169.418 117.902 169.418 117.764V110.328C169.418 110.19 169.556 110.053 169.693 110.053C169.831 110.053 169.969 110.19 169.969 110.328V117.764C169.9 117.902 169.831 118.04 169.693 118.04Z" fill="#F5F6FF"/>
<path d="M172.725 118.04C172.587 118.04 172.449 117.902 172.449 117.765V110.328C172.449 110.19 172.587 110.053 172.725 110.053C172.862 110.053 173 110.19 173 110.328V117.765C173 117.902 172.862 118.04 172.725 118.04Z" fill="#F5F6FF"/>
<path d="M175.824 118.04C175.687 118.04 175.549 117.902 175.549 117.764V110.328C175.549 110.19 175.687 110.053 175.824 110.053C175.962 110.053 176.1 110.19 176.1 110.328V117.764C176.1 117.902 175.962 118.04 175.824 118.04Z" fill="#F5F6FF"/>
<path d="M178.854 118.04C178.716 118.04 178.578 117.902 178.578 117.764V110.328C178.578 110.19 178.716 110.053 178.854 110.053C178.991 110.053 179.129 110.19 179.129 110.328V117.764C179.129 117.902 178.991 118.04 178.854 118.04Z" fill="#F5F6FF"/>
<path d="M181.951 118.04C181.813 118.04 181.676 117.902 181.676 117.765V110.328C181.676 110.19 181.813 110.053 181.951 110.053C182.089 110.053 182.227 110.19 182.227 110.328V117.765C182.227 117.902 182.089 118.04 181.951 118.04Z" fill="#F5F6FF"/>
<path d="M235.382 88.2954C230.769 88.9839 226.776 89.4659 226.776 89.4659L228.428 90.5675C227.327 94.6986 222.163 102.272 218.72 104.751C216.861 103.856 215.071 103.03 213.901 102.41C209.77 100.276 200.888 95.6625 200.75 88.7085C200.612 81.7546 207.153 77.6924 213.694 75.2137C218.307 73.4924 229.599 71.0826 235.795 69.8433C234.9 73.3547 234.625 79.8267 239.926 87.4692C238.618 87.7446 237.035 88.0889 235.382 88.2954Z" fill="#FFB793"/>
<g opacity="0.4">
<path d="M203.574 81.4791C201.852 83.4759 200.751 85.817 200.819 88.709C200.819 90.637 201.577 92.4272 202.679 94.0109C204.538 93.1158 205.502 90.9812 205.571 87.6073C205.571 84.6465 204.951 82.5808 203.574 81.4791Z" fill="#FF7648"/>
</g>
<path d="M262.099 83.2695C259.62 85.5416 253.768 89.5349 247.158 90.7742C245.437 88.2267 244.266 86.4366 244.266 86.4366C244.266 86.4366 242.476 86.9186 239.998 87.4694C234.627 79.8269 234.972 73.3549 235.867 69.8435C238.414 69.3615 240.135 69.0173 240.135 69.0173C240.135 69.0173 239.034 66.3321 238.621 65.3682C238.621 65.3682 238.621 65.2993 238.552 65.2993C240.273 63.6469 244.335 61.5814 247.02 61.3748C247.984 62.8895 249.499 65.2305 250.394 65.7813C251.358 66.4009 254.938 66.9518 257.761 70.3255C261.273 74.5254 260.102 80.5843 260.102 80.5843C260.102 80.5843 260.791 81.617 262.099 83.2695Z" fill="#372E3E"/>
<path d="M232.282 47.9488C230.768 48.293 228.22 49.9455 224.915 51.5979C221.679 53.2503 211.627 56.4863 211.627 56.4863C211.627 56.4863 212.66 51.2536 213.348 48.293C214.037 45.3325 214.725 42.7161 214.725 42.7161C214.725 42.7161 216.447 41.2702 217.617 39.3424C218.788 37.4146 218.994 35.5556 218.994 35.5556C218.994 35.5556 219.958 34.7982 220.027 33.4212C220.165 32.0442 219.201 31.4934 219.201 31.4934C219.201 31.4934 219.338 30.5295 218.856 29.9098C218.375 29.2901 217.686 29.2213 217.686 29.2213C217.686 29.2213 217.411 28.2574 216.653 27.982C215.896 27.7066 215.07 28.1197 215.07 28.1197C215.07 28.1197 214.312 27.2246 212.866 27.5C211.489 27.7754 209.08 29.1524 207.565 31.9065C206.05 34.6605 204.26 41.2014 203.09 45.3324C201.919 49.3947 200.198 56.4175 200.68 60.4108C201.162 64.4042 203.778 67.8468 207.083 68.8795C210.388 69.9123 215.207 68.673 218.719 67.5025C222.23 66.332 233.659 61.0305 235.45 60.0666L232.282 47.9488Z" fill="#FFB793"/>
<g opacity="0.4">
<path d="M210.389 69.2237C210.251 67.9154 209.218 66.7449 207.152 65.9186C205.293 65.1612 203.847 65.0924 202.814 65.7121C203.916 67.2269 205.431 68.3286 207.084 68.8794C208.116 69.1549 209.218 69.2926 210.389 69.2237Z" fill="#FF7648"/>
</g>
<path d="M215.14 36.7952C213.832 36.6575 211.972 36.1067 211.146 35.3492C210.251 34.5918 210.113 33.4213 210.458 32.7327C210.871 32.113 211.559 31.9753 212.454 31.9064C213.35 31.8376 215.691 31.9753 216.999 32.6639C218.652 33.4901 218.927 35.0738 218.996 35.5558C218.996 35.6247 218.927 35.6935 218.858 35.6935C218.789 35.6935 218.72 35.6247 218.72 35.5558C218.652 35.1427 218.445 33.6278 216.861 32.8704C215.553 32.2507 213.281 32.0442 212.454 32.113C211.491 32.1819 210.94 32.3196 210.664 32.8704C210.32 33.4213 210.527 34.4541 211.284 35.1427C212.041 35.8312 213.763 36.3132 215.14 36.5198C215.209 36.5198 215.278 36.5886 215.278 36.6575C215.278 36.7264 215.209 36.7952 215.14 36.7952Z" fill="#FF7648"/>
<path d="M211.904 33.9031C211.353 33.9031 210.871 33.8342 210.458 33.6276C210.389 33.6276 210.389 33.4899 210.389 33.4211C210.389 33.3522 210.526 33.3522 210.595 33.3522C211.422 33.7654 212.661 33.6965 213.625 33.2145C214.176 32.9391 214.52 32.5948 214.589 32.1817C214.589 32.1128 214.658 32.044 214.727 32.1128C214.795 32.1128 214.864 32.1817 214.795 32.2505C214.658 32.7325 214.313 33.2145 213.694 33.4899C213.143 33.7654 212.523 33.9031 211.904 33.9031Z" fill="#FF7648"/>
<path d="M215.622 32.3884C215.484 32.3884 215.484 32.2507 215.484 32.1818C216.035 30.8047 215.415 28.6013 214.933 28.2571C214.865 28.1882 214.865 28.1193 214.933 28.0505C215.002 27.9816 215.071 27.9816 215.14 28.0505C215.76 28.5325 216.311 30.8736 215.829 32.3195C215.76 32.3884 215.691 32.3884 215.622 32.3884Z" fill="#FF7648"/>
<path d="M216.724 32.7329C216.655 32.7329 216.655 32.7329 216.586 32.6641C216.586 32.5952 216.586 32.5263 216.655 32.4575C217.55 31.9755 217.894 30.1164 217.481 29.359C217.481 29.2901 217.481 29.2213 217.55 29.1524C217.619 29.1524 217.688 29.1524 217.756 29.2213C218.17 30.1164 217.825 32.1821 216.724 32.7329C216.793 32.7329 216.793 32.7329 216.724 32.7329Z" fill="#FF7648"/>
<path d="M217.617 33.2834C217.548 33.2834 217.479 33.2145 217.479 33.1457C217.479 33.0768 217.479 33.008 217.548 33.008C217.961 32.9391 218.788 32.3883 218.994 31.4931C218.994 31.4243 219.063 31.3554 219.132 31.4243C219.201 31.4243 219.27 31.4931 219.201 31.562C219.063 32.6637 218.03 33.1457 217.617 33.2834Z" fill="#FF7648"/>
<path d="M210.459 33.9034H210.39C210.046 33.628 209.77 33.0772 209.77 32.5263C209.701 31.8377 209.977 31.1492 210.459 30.7361C211.354 29.9098 212.938 29.9098 213.006 29.9098C213.075 29.9098 213.144 29.9786 213.144 30.0475C213.144 30.1164 213.075 30.1852 213.006 30.1852C213.006 30.1852 211.492 30.1852 210.665 30.9426C210.252 31.2869 210.046 31.9066 210.046 32.5263C210.046 33.0083 210.252 33.4903 210.597 33.6969C210.665 33.7657 210.665 33.8346 210.597 33.9034C210.528 33.9034 210.459 33.9034 210.459 33.9034Z" fill="#FF7648"/>
<path d="M212.248 30.1851C212.179 30.1851 212.179 30.1851 212.248 30.1851C212.179 30.1851 212.11 30.1163 212.11 30.0474C212.11 29.9786 212.248 28.9457 212.523 28.4638C212.592 28.3949 212.661 28.3949 212.73 28.3949C212.799 28.4638 212.799 28.5326 212.799 28.6015C212.523 29.0835 212.386 30.0474 212.386 30.1163C212.317 30.1851 212.317 30.1851 212.248 30.1851Z" fill="#FF7648"/>
<path d="M213.074 32.1129C213.005 32.1129 212.936 32.1129 212.936 32.044C212.936 31.9752 212.799 31.9063 212.73 31.8375C212.11 31.562 210.733 31.6998 209.976 31.9752C209.907 31.9752 209.838 31.9752 209.838 31.9063C209.838 31.8375 209.838 31.7686 209.907 31.7686C210.595 31.4932 212.179 31.2866 212.868 31.6309C213.074 31.6998 213.212 31.8375 213.212 31.9752C213.212 32.044 213.212 32.1129 213.074 32.1129Z" fill="#FF7648"/>
<path d="M212.316 40.1686H212.247C211.283 39.3424 211.077 38.4472 211.008 37.7587C211.008 36.8635 211.352 36.0373 211.765 35.693C211.834 35.6241 211.903 35.6241 211.972 35.693C212.041 35.7619 212.041 35.8307 211.972 35.8996C211.628 36.2438 211.283 36.9324 211.283 37.7587C211.283 38.3784 211.49 39.2046 212.385 39.9621C212.454 40.0309 212.454 40.0998 212.385 40.1686C212.385 40.1686 212.385 40.1686 212.316 40.1686Z" fill="#FF7648"/>
<path d="M210.184 61.5127C210.046 61.5127 210.046 61.4438 210.046 61.375C210.046 61.375 211.01 58.0699 211.423 56.4862C211.423 56.4174 211.492 56.3485 211.561 56.4174C211.63 56.4174 211.698 56.4862 211.63 56.5551C211.216 58.1388 210.252 61.375 210.252 61.4438C210.321 61.4438 210.252 61.5127 210.184 61.5127Z" fill="#FF7648"/>
<path d="M231.318 49.67C230.767 52.0798 230.078 53.4568 230.354 54.2142C230.56 54.9716 232.144 56.142 232.695 57.1748C233.245 58.2076 236.413 62.2009 236.413 62.2009C236.413 62.2009 238.272 59.9288 240.544 58.7584C242.816 57.5879 244.95 57.3813 244.95 57.3813L240.544 47.7422L237.721 44.0931L236.895 44.1619L231.318 49.67Z" fill="#F5F6FF"/>
<path d="M237.794 51.8731C235.659 52.9059 233.593 54.2831 231.734 56.0045C231.941 56.2799 232.216 56.5553 232.423 56.7619C234.213 55.1093 236.21 53.7322 238.276 52.7682C238.551 52.6305 238.62 52.3551 238.551 52.0797C238.345 51.8731 238.069 51.8043 237.794 51.8731Z" fill="black"/>
<path d="M229.323 33.4214C229.186 32.8706 229.874 32.3198 230.7 32.0443C231.596 31.7689 233.386 31.6312 234.763 32.5263C236.347 33.4903 236.897 35.074 236.897 36.52C236.897 37.9659 235.589 39.4808 235.589 39.4808L232.146 39.5496L229.461 35.4871L229.323 33.4214Z" fill="black"/>
<path d="M229.943 32.8702C229.392 33.0079 228.497 34.0406 228.222 35.2111C227.877 36.3816 227.602 38.034 227.671 39.1356C227.74 40.2372 228.222 40.7881 229.048 41.3389C229.874 41.8208 230.976 42.0274 230.976 42.0274C230.976 42.0274 231.94 45.2634 231.94 46.0207C231.94 46.7781 231.32 49.8075 231.32 49.8075C231.32 49.8075 232.972 49.8075 234.074 48.224C235.244 46.6404 236.208 44.9191 236.828 44.2995C236.828 44.2995 236.071 41.752 235.933 41.0635C235.795 40.3749 235.589 39.6176 235.589 39.6176C235.589 39.6176 234.625 39.411 234.005 38.8602C234.005 38.8602 234.9 37.7586 234.625 36.3816C234.349 35.2111 233.248 35.1423 232.628 35.4865C231.871 35.8996 231.389 37.0012 231.389 37.0012C231.389 37.0012 230.563 36.4504 230.563 35.4865C230.563 35.0046 230.563 34.4538 230.356 33.9718C230.287 33.2833 229.943 32.8702 229.943 32.8702Z" fill="#FFB793"/>
<path d="M228.153 35.6243C227.74 35.8308 227.327 35.8997 226.982 36.1063C226.776 36.244 226.845 36.4505 227.12 36.6571C227.464 36.8637 228.015 37.0702 228.015 37.0702L228.153 35.6243Z" fill="#FFB793"/>
<path d="M229.184 35.8991C229.116 36.0365 229.047 36.1053 228.978 36.1053C228.841 36.1053 228.841 35.9678 228.841 35.8303C228.91 35.6929 228.978 35.6241 229.047 35.6241C229.184 35.6241 229.253 35.6929 229.184 35.8991Z" fill="black"/>
<path d="M229.874 35.1423C229.805 35.1423 229.805 35.1423 229.736 35.0734C229.598 34.8669 229.254 34.798 228.841 34.798C228.772 34.798 228.703 34.7292 228.703 34.6603C228.703 34.5915 228.772 34.5226 228.841 34.5226C229.323 34.4537 229.736 34.6603 229.943 34.8669C230.011 34.9357 229.943 35.0046 229.943 35.0734C229.943 35.1423 229.874 35.1423 229.874 35.1423Z" fill="black"/>
<path d="M228.634 37.6898C228.428 37.6898 228.152 37.6209 227.877 37.6209C227.808 37.6209 227.739 37.5521 227.739 37.4832C227.739 37.4144 227.808 37.3455 227.877 37.3455C228.29 37.4144 228.566 37.4832 228.841 37.4144C228.91 37.4144 228.979 37.4832 228.979 37.5521C228.979 37.6209 228.91 37.6898 228.841 37.6898C228.841 37.6898 228.703 37.6898 228.634 37.6898Z" fill="#FF7648"/>
<path d="M229.047 39.1361C228.978 39.1361 228.909 39.0672 228.909 39.0672C228.565 37.5524 229.185 36.6573 229.529 36.313C229.598 36.2441 229.667 36.2441 229.736 36.313C229.805 36.3819 229.805 36.4507 229.736 36.5196C229.391 36.8638 228.841 37.6213 229.185 39.0672C229.185 39.0672 229.116 39.1361 229.047 39.1361Z" fill="#FF7648"/>
<path d="M232.835 39.4112C232.491 39.4112 232.215 39.2735 232.009 39.067C231.94 38.9981 231.94 38.9292 232.009 38.8604C232.078 38.7915 232.146 38.7915 232.215 38.8604C232.422 39.067 232.766 39.1358 232.973 39.067C233.386 38.9981 233.799 38.7915 233.937 38.585C234.005 38.5161 234.074 38.5161 234.143 38.5161C234.212 38.585 234.212 38.6538 234.212 38.7227C234.005 39.067 233.524 39.2735 233.042 39.3424C232.973 39.4112 232.904 39.4112 232.835 39.4112Z" fill="#FF7648"/>
<g opacity="0.25">
<path d="M231.179 38.1721C230.972 38.9296 230.559 39.2738 230.008 39.1361C229.457 38.9984 229.251 38.5164 229.457 37.759C229.664 37.0016 230.077 36.6573 230.628 36.795C231.179 36.9327 231.385 37.4147 231.179 38.1721Z" fill="#FF7648"/>
</g>
<path d="M232.696 37.4146H232.627C232.558 37.3457 232.558 37.2769 232.627 37.208C232.627 37.208 233.178 36.5883 233.453 36.1752C233.522 36.1063 233.591 36.1063 233.66 36.1063C233.729 36.1752 233.729 36.244 233.729 36.3129C233.453 36.726 232.902 37.4146 232.902 37.4146C232.765 37.4146 232.765 37.4146 232.696 37.4146Z" fill="#FF7648"/>
<path d="M232.56 36.5195C232.216 36.5195 231.94 36.795 231.94 37.1392C231.94 37.2769 231.94 37.3458 232.009 37.4835L231.458 38.2409C231.389 38.3786 231.389 38.5164 231.527 38.5852C231.596 38.5852 231.596 38.6541 231.665 38.6541C231.734 38.6541 231.803 38.5852 231.871 38.5164L232.422 37.7589C232.491 37.7589 232.56 37.7589 232.56 37.7589C232.904 37.7589 233.18 37.4835 233.18 37.1392C233.249 36.8638 232.904 36.5195 232.56 36.5195Z" fill="white"/>
<path d="M234.554 33.1457C235.724 33.2834 236.963 32.6637 237.996 31.149C239.029 29.6343 239.511 27.7753 242.058 26.8114C244.606 25.8475 247.016 26.9491 248.049 27.7753C249.081 28.6015 249.701 29.1523 250.871 28.8769C251.973 28.6015 252.799 25.2278 255.691 24.5393C258.238 23.9197 259.891 25.7786 260.235 26.536C260.579 27.2934 261.406 27.2934 262.163 26.7425C262.92 26.2606 264.297 24.1951 267.051 24.4016C269.805 24.5393 270.494 26.1917 270.907 27.1557C271.251 27.8442 271.871 28.395 272.628 27.8442C273.386 27.2934 274.694 25.5032 277.104 25.9852C279.513 26.4671 280.133 28.6704 279.582 30.7359C279.032 32.8014 277.31 33.9031 275.658 33.9031C274.005 33.9031 273.11 31.631 272.009 31.631C270.907 31.6998 270.287 34.7981 266.707 34.9358C262.783 35.0735 262.438 31.3556 261.13 31.4933C259.891 31.631 260.097 35.762 256.242 36.244C252.524 36.726 251.766 32.2506 250.183 32.3883C248.599 32.526 249.081 36.3817 245.157 37.621C241.232 38.8603 237.652 35.4178 236.137 36.0374L234.554 33.1457Z" fill="black"/>
<path d="M237.655 44.0932C237.655 44.0932 241.511 42.5097 251.563 42.9916C261.616 43.4736 266.435 44.5752 270.91 48.362C275.317 52.1488 277.176 57.9323 278.691 61.5814C280.205 65.2305 280.55 67.8469 281.514 69.7058C282.477 71.5648 283.51 75.0074 282.959 76.6598C282.409 78.3122 281.514 79.0007 280.205 79.0007C280.205 79.0007 279.241 80.0335 278.346 80.3778C277.451 80.722 276.419 80.0335 276.419 80.0335C276.419 80.0335 275.523 81.4105 273.665 81.204C271.806 80.9974 271.117 79.7581 271.117 79.7581C271.117 79.7581 268.57 79.2073 268.638 77.1417C268.707 75.0762 269.465 73.8369 269.327 72.2533C269.189 70.6697 267.055 66.5387 266.022 64.6108C264.989 62.683 262.235 57.8634 261.753 56.3487C261.753 56.3487 257.347 56.3487 253.285 56.4176C249.222 56.4864 245.436 56.2799 243.301 56.0045C241.167 55.7979 237.311 54.4897 236.416 51.2537C235.039 46.4342 237.655 44.0932 237.655 44.0932Z" fill="#FFB793"/>
<path d="M273.184 80.1027C273.184 80.1027 273.115 80.1027 273.115 80.0339C272.495 79.4142 271.807 77.5551 271.531 76.5222C271.531 76.4534 271.531 76.3845 271.6 76.3845C271.669 76.3845 271.738 76.3845 271.738 76.4534C272.013 77.2796 272.633 79.2076 273.253 79.8273C273.322 79.8962 273.322 79.965 273.253 80.0339L273.184 80.1027Z" fill="#FF7648"/>
<path d="M271.529 80.1023C271.391 80.1023 271.254 80.1023 271.116 80.0335C271.047 80.0335 270.978 79.9646 271.047 79.8957C271.047 79.8269 271.116 79.758 271.185 79.8269C271.804 80.0334 272.7 79.5515 272.7 79.5515C272.768 79.5515 272.837 79.5515 272.906 79.6203C272.906 79.6892 272.906 79.758 272.837 79.8269C272.837 79.758 272.218 80.1023 271.529 80.1023Z" fill="#FF7648"/>
<path d="M261.753 56.6242C261.684 56.6242 261.684 56.6242 261.615 56.5554C260.789 55.0405 259.894 52.4929 259.894 52.4929C259.894 52.424 259.894 52.3552 259.962 52.3552C260.031 52.3552 260.1 52.3552 260.1 52.424C260.1 52.424 260.995 54.9717 261.822 56.4865C261.959 56.4865 261.89 56.5554 261.753 56.6242C261.822 56.6242 261.822 56.6242 261.753 56.6242Z" fill="#FF7648"/>
<g opacity="0.4">
<path d="M273.115 50.6345C272.495 49.8771 271.737 49.1197 270.98 48.4311C269.396 47.054 267.744 46.0211 265.816 45.2637C264.921 46.9851 265.609 48.7065 268.019 50.2214C270.085 51.7362 271.875 51.8739 273.115 50.6345Z" fill="#FF7648"/>
</g>
<path d="M268.017 68.4665C269.257 68.0533 270.634 67.7779 271.253 67.5025C271.942 67.1582 271.667 66.8828 271.942 66.3319C272.217 65.7811 273.181 65.368 274.283 65.0925C275.385 64.7483 276.418 64.9548 276.831 65.4368C277.244 65.9188 277.519 65.7811 278.208 65.6434C278.896 65.5057 279.86 64.9548 279.86 64.9548C279.86 64.9548 280.342 64.9548 280.687 66.1254C281.031 67.2959 281.1 67.8468 280.824 68.191C280.48 68.4665 278.759 69.0862 278.346 69.2927C277.932 69.4993 277.932 69.9813 276.968 70.3256C276.004 70.7387 274.421 71.1518 273.663 71.1518C272.906 71.1518 272.837 70.8764 272.011 71.1518C271.185 71.4273 269.876 71.9092 269.325 71.9781C268.775 72.047 268.361 71.2207 268.086 70.3944C267.879 69.7059 267.673 68.6042 268.017 68.4665Z" fill="#F5F6FF"/>
<path d="M274.145 65.4369C275.04 65.1615 276.28 65.0238 276.693 65.5746C277.037 66.1255 277.45 67.1583 277.588 67.778C277.725 68.3977 277.794 69.4306 277.45 69.7748C277.106 70.1191 275.866 70.4634 275.178 70.6011C274.558 70.7388 273.801 70.9454 273.319 70.8077C272.837 70.67 272.492 69.5683 272.286 68.742C272.079 67.9157 271.942 66.8829 272.286 66.4009C272.561 65.9878 273.388 65.6435 274.145 65.4369Z" fill="#372E3E"/>
<path d="M274.97 69.8434C274.902 69.8434 274.902 69.8434 274.833 69.8434L274.902 69.3615C274.97 69.3615 275.039 69.3615 275.108 69.3615L275.177 69.8434C275.039 69.8434 274.97 69.8434 274.97 69.8434ZM274.557 69.8434C274.488 69.8434 274.351 69.7746 274.282 69.7746L274.488 69.2926C274.557 69.2926 274.626 69.3615 274.695 69.3615L274.557 69.8434ZM275.384 69.8434L275.246 69.3615C275.315 69.3615 275.384 69.2926 275.452 69.2926L275.659 69.7746C275.59 69.7746 275.452 69.7746 275.384 69.8434ZM274.006 69.568C273.938 69.4992 273.869 69.4303 273.8 69.4303L274.144 69.0172C274.213 69.086 274.282 69.086 274.282 69.1549L274.006 69.568ZM275.934 69.568L275.659 69.1549C275.728 69.086 275.797 69.086 275.797 69.0172L276.141 69.4303C276.072 69.4992 276.003 69.568 275.934 69.568ZM273.524 69.2237C273.456 69.1549 273.387 69.086 273.387 69.0172L273.8 68.7417C273.869 68.8106 273.869 68.8795 273.938 68.8795L273.524 69.2237ZM276.348 69.2237L275.934 68.8795C276.003 68.8106 276.003 68.7417 276.072 68.7417L276.485 69.0172C276.485 69.086 276.416 69.1549 276.348 69.2237ZM273.249 68.7417C273.18 68.6729 273.18 68.5352 273.18 68.4663L273.662 68.3286C273.662 68.3975 273.731 68.4663 273.731 68.5352L273.249 68.7417ZM276.692 68.7417L276.21 68.5352C276.21 68.4663 276.279 68.3975 276.279 68.3286L276.761 68.4663C276.761 68.5352 276.692 68.6729 276.692 68.7417ZM273.111 68.1909C273.111 68.122 273.111 68.0532 273.111 68.0532C273.111 67.9843 273.111 67.9843 273.111 67.9155L273.593 67.9843V68.0532C273.593 68.122 273.593 68.122 273.593 68.1909H273.111ZM273.662 67.7089L273.18 67.5712C273.18 67.5023 273.249 67.3646 273.249 67.2958L273.731 67.5023C273.662 67.5712 273.662 67.6401 273.662 67.7089ZM273.8 67.2958L273.387 67.0204C273.456 66.9515 273.524 66.8826 273.524 66.8138L273.938 67.1581C273.869 67.2269 273.869 67.2958 273.8 67.2958ZM274.075 67.0204L273.731 66.6072C273.8 66.5384 273.869 66.4695 273.938 66.4007L274.213 66.8138C274.213 66.8826 274.144 66.9515 274.075 67.0204ZM274.42 66.8138L274.213 66.3318C274.282 66.2629 274.42 66.2629 274.488 66.2629L274.626 66.7449C274.557 66.7449 274.488 66.7449 274.42 66.8138Z" fill="#FFECE3"/>
<path d="M247.02 61.375C244.335 61.6504 240.272 63.6472 238.551 65.2998C238.069 64.3358 237.243 63.4406 236.348 62.2012C236.348 62.2012 237.518 60.5487 240.135 59.0339C242.682 57.519 244.886 57.4502 244.886 57.4502C244.886 57.4502 245.85 59.5159 246.745 60.9618C246.814 61.0996 246.951 61.2373 247.02 61.375Z" fill="#FFB793"/>
<path d="M233.661 55.2473C231.596 54.0768 231.94 52.3554 232.491 50.7717C232.491 50.7028 232.56 50.634 232.629 50.7028C232.697 50.7028 232.766 50.7717 232.697 50.8405C232.147 52.4242 231.871 53.9391 233.661 55.0408C233.73 55.1096 233.73 55.1785 233.73 55.2473C233.73 55.2473 233.73 55.2473 233.661 55.2473Z" fill="black"/>
<path d="M240.132 69.1551C240.063 69.1551 239.994 69.0862 239.994 69.0173C239.994 68.9485 239.994 68.8796 240.063 68.8796C242.955 68.2599 246.26 67.9156 246.26 67.9156C246.329 67.9156 246.398 67.9845 246.398 68.0534C246.398 68.1222 246.329 68.1911 246.26 68.1911C246.26 68.1911 242.955 68.5354 240.132 69.1551Z" fill="black"/>
<path d="M244.264 86.5747C244.195 86.5747 244.126 86.5058 244.126 86.5058C244.126 86.4369 244.126 86.3681 244.195 86.3681C248.464 85.3352 256.382 83.4073 257.828 78.5185C257.828 78.4497 257.897 78.3808 257.966 78.4497C258.035 78.4497 258.104 78.5185 258.035 78.5874C256.658 83.545 248.602 85.5418 244.264 86.5747Z" fill="black"/>
<path d="M226.777 89.604C223.265 87.5384 219.34 85.335 216.035 85.0595C215.966 85.0595 215.897 84.9907 215.897 84.9218C215.897 84.853 215.966 84.7841 216.035 84.7841C219.409 85.0595 223.265 87.1941 226.846 89.3286C226.914 89.3975 226.914 89.4663 226.914 89.5352C226.914 89.604 226.846 89.604 226.777 89.604Z" fill="#FF7648"/>
<path d="M316.419 135.252C316.143 134.012 315.523 133.875 312.356 132.773C308.845 131.603 307.881 129.468 306.642 129.812C305.884 130.019 305.747 130.363 305.678 130.57L305.747 130.639C305.747 130.639 305.402 131.603 306.022 133.806C306.642 136.009 307.812 139.245 306.642 141.448C305.471 143.583 301.202 144.409 298.448 143.72C296.589 143.238 295.901 143.652 295.625 143.927L295.488 144.065C295.419 144.133 295.419 144.202 295.419 144.202L295.281 144.409C294.662 145.442 296.314 146.337 297.209 148.609C298.104 150.881 299.343 157.491 299.343 161.553C299.343 164.1 299.068 168.231 300.17 169.471C301.34 170.71 302.717 170.297 303.268 169.333C304.714 166.717 307.537 160.245 309.671 152.327C312.287 142.825 316.694 136.491 316.419 135.252Z" fill="white"/>
<path d="M302.857 168.3C304.234 169.608 305.474 169.815 306.093 168.92C306.782 168.025 304.234 166.235 304.234 166.235L302.857 168.3ZM306.162 161.277C306.782 161.759 309.261 162.655 308.503 164.1C307.746 165.546 304.923 163.55 304.923 163.55L306.162 161.277ZM307.402 156.389C308.159 156.596 310.844 157.422 310.362 159.005C309.811 160.589 306.438 158.937 306.438 158.937L307.402 156.389ZM309.674 151.363C311.533 152.051 312.152 152.878 311.739 153.979C311.326 155.15 308.641 154.324 308.641 154.324L309.674 151.363Z" fill="black"/>
<path d="M316.419 135.252C316.282 134.632 316.075 134.288 315.455 133.943C314.078 137.111 312.082 141.035 310.567 145.166C308.432 150.881 307.537 156.389 305.265 162.104C303.544 166.51 301.96 169.057 301.203 170.159C302.098 170.503 302.993 170.09 303.406 169.402C304.852 166.785 307.675 160.313 309.81 152.396C312.288 142.825 316.695 136.491 316.419 135.252Z" fill="#F29987"/>
<path d="M297.899 149.986C297.83 149.986 297.83 149.986 297.761 149.917C297.692 149.848 297.761 149.779 297.83 149.711C299.413 148.609 301.823 148.678 304.165 148.884C306.161 149.022 309.122 149.642 309.122 149.642C309.191 149.642 309.26 149.711 309.191 149.779C309.191 149.848 309.122 149.917 309.053 149.848C309.053 149.848 306.092 149.229 304.096 149.091C301.823 148.884 299.482 148.884 297.968 149.848C297.968 149.986 297.968 149.986 297.899 149.986Z" fill="black"/>
<path d="M307.815 153.911C305.13 153.222 300.516 152.878 298.726 153.635C298.657 153.635 298.588 153.635 298.52 153.566C298.52 153.497 298.52 153.429 298.588 153.36C300.585 152.534 305.474 152.947 307.815 153.635C307.884 153.635 307.953 153.704 307.884 153.773C307.953 153.911 307.884 153.911 307.815 153.911Z" fill="black"/>
<path d="M295.766 145.992C295.697 145.992 295.697 145.992 295.766 145.992C295.628 145.924 295.628 145.855 295.628 145.786C296.179 144.753 296.867 144.822 298.175 145.029C298.52 145.097 298.864 145.097 299.346 145.166C301.343 145.304 304.372 145.579 306.644 143.583C308.572 141.93 308.916 139.245 307.746 135.252C306.851 132.153 306.713 131.052 307.608 130.157C307.677 130.088 307.746 130.088 307.815 130.157C307.883 130.226 307.883 130.294 307.815 130.363C306.988 131.19 307.126 132.153 308.021 135.183C309.192 139.245 308.847 142.068 306.851 143.789C304.441 145.855 301.343 145.579 299.346 145.442C298.933 145.373 298.52 145.373 298.175 145.304C296.867 145.166 296.316 145.097 295.903 145.924C295.834 145.924 295.766 145.992 295.766 145.992Z" fill="black"/>
<path d="M254.729 104.613C254.385 103.374 253.765 103.305 250.529 102.41C246.949 101.446 245.778 99.3117 244.676 99.8625C243.713 100.344 243.575 101.721 244.401 103.925C245.158 106.128 246.535 109.226 245.503 111.498C244.539 113.702 240.27 114.803 237.516 114.321C235.657 113.977 234.968 114.39 234.693 114.734L234.624 114.872C234.555 114.941 234.555 115.01 234.555 115.01L234.418 115.216C233.867 116.249 235.588 117.075 236.621 119.279C237.654 121.482 239.375 127.954 239.65 132.085C239.788 134.632 239.788 138.763 241.027 139.934C242.267 141.104 243.644 140.622 244.057 139.59C245.365 136.904 247.706 130.226 249.29 122.17C251.08 112.531 255.073 105.853 254.729 104.613Z" fill="white"/>
<path d="M243.368 138.557C244.814 139.727 246.053 139.934 246.673 138.97C247.293 138.006 244.607 136.422 244.607 136.422L243.368 138.557ZM246.26 131.259C246.948 131.672 249.427 132.429 248.739 133.944C248.05 135.39 245.158 133.599 245.158 133.599L246.26 131.259ZM247.086 126.37C247.843 126.508 250.598 127.196 250.184 128.78C249.771 130.363 246.26 128.986 246.26 128.986L247.086 126.37ZM249.083 121.206C251.011 121.826 251.63 122.514 251.286 123.685C250.942 124.855 248.188 124.236 248.188 124.236L249.083 121.206Z" fill="black"/>
<path d="M254.728 104.613C254.522 103.994 254.315 103.649 253.695 103.374C252.525 106.679 250.804 110.672 249.564 114.872C247.774 120.724 247.292 126.232 245.433 132.154C243.987 136.629 242.61 139.314 241.922 140.485C242.817 140.829 243.712 140.347 244.056 139.59C245.364 136.904 247.705 130.226 249.289 122.17C251.079 112.531 255.072 105.853 254.728 104.613Z" fill="#F29987"/>
<path d="M237.241 120.656C237.172 120.656 237.172 120.656 237.103 120.587C237.034 120.518 237.103 120.449 237.103 120.38C238.618 119.21 241.028 119.072 243.369 119.141C245.366 119.21 248.326 119.554 248.395 119.554C248.464 119.554 248.533 119.623 248.533 119.692C248.533 119.761 248.464 119.829 248.395 119.829C248.395 119.829 245.434 119.416 243.438 119.416C241.165 119.347 238.824 119.485 237.378 120.587C237.309 120.587 237.241 120.656 237.241 120.656Z" fill="black"/>
<path d="M238.204 124.236C238.135 124.236 238.135 124.236 238.066 124.167C238.066 124.098 238.066 124.029 238.135 123.96C240.063 122.996 245.021 123.134 247.362 123.616C247.431 123.616 247.5 123.685 247.5 123.754C247.5 123.823 247.431 123.892 247.362 123.892C244.677 123.341 239.994 123.341 238.204 124.236Z" fill="black"/>
<path d="M234.763 116.731C234.625 116.662 234.625 116.593 234.625 116.524C235.107 115.492 235.795 115.492 237.104 115.56C237.448 115.56 237.792 115.629 238.274 115.629C240.271 115.629 243.3 115.698 245.503 113.564C247.294 111.842 247.5 109.088 246.054 105.233C244.953 102.203 244.746 101.171 245.572 100.207C245.641 100.138 245.71 100.138 245.779 100.207C245.848 100.275 245.848 100.344 245.779 100.413C245.022 101.239 245.228 102.272 246.33 105.233C247.776 109.226 247.569 112.049 245.71 113.908C243.438 116.111 240.34 116.111 238.343 116.042C237.93 116.042 237.517 116.042 237.172 115.974C235.864 115.905 235.314 115.905 234.9 116.8C234.9 116.731 234.832 116.731 234.763 116.731Z" fill="black"/>
<path d="M292.321 118.039C289.636 123.823 284.334 128.849 280.134 130.845C272.492 123.891 261.958 111.292 257.551 105.577C254.66 101.79 250.047 95.1117 247.086 90.7052C253.696 89.4659 259.548 85.4725 262.027 83.2004C263.128 84.6463 264.574 86.5741 266.433 88.7774C270.426 93.5281 280.961 106.266 287.364 113.013C288.81 114.597 290.531 116.318 292.321 118.039Z" fill="#FFB793"/>
<g opacity="0.4">
<path d="M264.299 113.839C267.122 117.144 270.358 120.794 273.457 124.167C275.316 121.964 274.834 119.279 272.011 116.111C269.188 113.082 266.64 112.324 264.299 113.839Z" fill="#FF7648"/>
</g>
<path d="M306.78 141.448C305.61 143.583 301.341 144.409 298.587 143.721C295.833 143.032 295.557 144.202 295.557 144.202C294.731 142.825 288.741 138.419 281.03 131.603C280.961 131.534 280.892 131.465 280.823 131.396C280.617 131.19 280.341 130.983 280.135 130.777C284.404 128.78 289.636 123.685 292.321 117.97C292.39 118.039 292.459 118.108 292.528 118.177C298.725 124.167 305.816 130.57 305.816 130.57C305.816 130.57 305.472 131.534 306.092 133.737C306.78 136.078 307.882 139.314 306.78 141.448Z" fill="#FF7648"/>
<path d="M245.642 112.669C244.954 114.459 241.993 115.767 239.584 115.079C237.174 114.39 235.521 114.803 235.521 114.803C235.315 114.459 232.285 111.774 229.738 110.397C228.154 109.571 223.817 107.092 219.686 105.164L218.859 104.751C222.233 102.272 227.466 94.6298 228.567 90.5676L244.059 100.62C243.852 101.584 245.367 103.443 246.262 106.335C247.088 109.295 246.331 110.948 245.642 112.669Z" fill="#FF7648"/>
</svg>
