<svg width="89" height="28" viewBox="0 0 89 28" fill="none" xmlns="http://www.w3.org/2000/svg">
<path d="M42.7537 12.9279H44.5194L40.7903 23.1542H39.0245L40.2585 19.7454L37.8042 12.9279H39.6245L41.0902 17.4684L42.7537 12.9279ZM48.2004 19.9227C47.5732 19.9227 47.0005 19.7613 46.4824 19.4386C45.9688 19.1159 45.5574 18.6819 45.2484 18.1365C44.9439 17.5911 44.7916 16.9889 44.7916 16.3298C44.7916 15.8344 44.8802 15.3709 45.0575 14.9391C45.2347 14.5028 45.4779 14.121 45.787 13.7937C46.1006 13.4619 46.4642 13.2029 46.8778 13.0165C47.2914 12.8302 47.7322 12.737 48.2004 12.737C48.7321 12.737 49.2184 12.8506 49.6593 13.0779C50.1047 13.3006 50.482 13.6074 50.791 13.9983C51.1001 14.3891 51.3251 14.8345 51.466 15.3345C51.6068 15.8344 51.6387 16.3571 51.5614 16.9025H46.5778C46.6414 17.157 46.746 17.3866 46.8914 17.5911C47.0368 17.7911 47.2209 17.9524 47.4436 18.0751C47.6663 18.1933 47.9186 18.2547 48.2004 18.2592C48.4912 18.2637 48.7549 18.1956 48.9912 18.0547C49.2321 17.9092 49.4321 17.7138 49.5911 17.4684L51.2887 17.8638C51.0115 18.4683 50.5979 18.9637 50.0479 19.35C49.498 19.7318 48.8821 19.9227 48.2004 19.9227ZM46.5233 15.6549H49.8775C49.8275 15.3822 49.7207 15.1368 49.557 14.9186C49.398 14.6959 49.2003 14.5187 48.9639 14.3869C48.7276 14.2551 48.4731 14.1891 48.2004 14.1891C47.9277 14.1891 47.6754 14.2551 47.4436 14.3869C47.2118 14.5141 47.0141 14.6891 46.8505 14.9118C46.6914 15.13 46.5823 15.3777 46.5233 15.6549ZM52.4246 20.509L52.8472 18.2047H54.5107L53.5358 20.509H52.4246ZM56.146 19.7454V10.2009H59.6229C60.1274 10.2009 60.5819 10.3054 60.9864 10.5145C61.3954 10.719 61.7181 11.0145 61.9545 11.4008C62.1954 11.7826 62.3158 12.2348 62.3158 12.7575C62.3158 12.9893 62.2817 13.2233 62.2135 13.4597C62.1454 13.696 62.0408 13.9096 61.8999 14.1005C61.759 14.2869 61.5772 14.4255 61.3545 14.5164C61.65 14.5891 61.8908 14.7209 62.0772 14.9118C62.2635 15.1027 62.409 15.3277 62.5135 15.5867C62.6181 15.8413 62.6885 16.1026 62.7249 16.3708C62.7658 16.6344 62.7862 16.8798 62.7862 17.107C62.7862 17.6115 62.6612 18.0615 62.4113 18.4569C62.1613 18.8523 61.8249 19.1659 61.4023 19.3977C60.9841 19.6295 60.5205 19.7454 60.0115 19.7454H56.146ZM57.8094 18.3206H59.8411C60.1138 18.3206 60.3592 18.2547 60.5773 18.1229C60.7955 17.991 60.9705 17.8092 61.1023 17.5775C61.2341 17.3457 61.3 17.082 61.3 16.7866C61.3 16.5321 61.2341 16.2912 61.1023 16.064C60.9705 15.8367 60.7955 15.6526 60.5773 15.5117C60.3592 15.3709 60.1138 15.3004 59.8411 15.3004H57.8094V18.3206ZM57.8094 13.896H59.432C59.7683 13.896 60.0547 13.7915 60.291 13.5824C60.5319 13.3733 60.6523 13.0961 60.6523 12.7507C60.6523 12.3825 60.5319 12.1053 60.291 11.9189C60.0547 11.728 59.7683 11.6326 59.432 11.6326H57.8094V13.896ZM66.7887 19.9227C66.1615 19.9227 65.5889 19.7613 65.0707 19.4386C64.5571 19.1159 64.1458 18.6819 63.8368 18.1365C63.5322 17.5911 63.38 16.9889 63.38 16.3298C63.38 15.8344 63.4686 15.3709 63.6459 14.9391C63.8231 14.5028 64.0663 14.121 64.3753 13.7937C64.6889 13.4619 65.0525 13.2029 65.4661 13.0165C65.8797 12.8302 66.3206 12.737 66.7887 12.737C67.3205 12.737 67.8068 12.8506 68.2477 13.0779C68.6931 13.3006 69.0703 13.6074 69.3794 13.9983C69.6885 14.3891 69.9134 14.8345 70.0543 15.3345C70.1952 15.8344 70.227 16.3571 70.1498 16.9025H65.1662C65.2298 17.157 65.3343 17.3866 65.4798 17.5911C65.6252 17.7911 65.8093 17.9524 66.032 18.0751C66.2547 18.1933 66.5069 18.2547 66.7887 18.2592C67.0796 18.2637 67.3432 18.1956 67.5796 18.0547C67.8205 17.9092 68.0204 17.7138 68.1795 17.4684L69.8771 17.8638C69.5998 18.4683 69.1862 18.9637 68.6363 19.35C68.0863 19.7318 67.4705 19.9227 66.7887 19.9227ZM65.1116 15.6549H68.4658C68.4158 15.3822 68.309 15.1368 68.1454 14.9186C67.9863 14.6959 67.7886 14.5187 67.5523 14.3869C67.316 14.2551 67.0614 14.1891 66.7887 14.1891C66.516 14.1891 66.2638 14.2551 66.032 14.3869C65.8002 14.5141 65.6025 14.6891 65.4389 14.9118C65.2798 15.13 65.1707 15.3777 65.1116 15.6549ZM71.1525 19.7454V9.51915H72.8159V19.7454H71.1525ZM74.4547 19.7454V9.51915H76.1182V19.7454H74.4547ZM81.9677 12.9279H83.7334L80.0043 23.1542H78.2385L79.4725 19.7454L77.0182 12.9279H78.8385L80.3042 17.4684L81.9677 12.9279ZM84.971 16.8821V10.2009H86.3754V16.8821H84.971ZM85.6801 19.9227C85.4392 19.9227 85.2347 19.8386 85.0665 19.6704C84.9029 19.5023 84.8211 19.2977 84.8211 19.0569C84.8211 18.8205 84.9029 18.6205 85.0665 18.4569C85.2347 18.2933 85.4392 18.2115 85.6801 18.2115C85.9119 18.2115 86.1096 18.2933 86.2732 18.4569C86.4368 18.6205 86.5186 18.8205 86.5186 19.0569C86.5186 19.2977 86.4368 19.5023 86.2732 19.6704C86.1096 19.8386 85.9119 19.9227 85.6801 19.9227Z" fill="#556BFF"/>
<path d="M28.6717 21.9376L24.4552 8.43275L29.3748 6.89676C30.0887 6.67389 30.7779 6.62102 31.4426 6.73815C32.1118 6.84683 32.6989 7.12228 33.204 7.5645C33.7134 7.99828 34.0836 8.58494 34.3145 9.32449C34.4169 9.65247 34.4721 9.99872 34.4801 10.3632C34.488 10.7278 34.4345 11.0762 34.3194 11.4085C34.2024 11.7344 34.0064 12.0109 33.7314 12.2379C34.1816 12.2103 34.5806 12.2904 34.9286 12.4781C35.2766 12.6659 35.5818 12.92 35.8442 13.2404C36.1045 13.5543 36.3196 13.893 36.4895 14.2563C36.6639 14.6113 36.8012 14.9495 36.9016 15.271C37.1245 15.9849 37.1464 16.6767 36.9674 17.3466C36.7884 18.0166 36.451 18.6089 35.9554 19.1236C35.4661 19.6363 34.8614 20.0051 34.1411 20.2299L28.6717 21.9376ZM30.3959 19.1866L33.2705 18.2891C33.6564 18.1687 33.9745 17.967 34.225 17.6841C34.4754 17.4013 34.6427 17.0667 34.7268 16.6805C34.8109 16.2943 34.7877 15.8922 34.6572 15.4742C34.5447 15.1141 34.3451 14.8024 34.0582 14.539C33.7713 14.2757 33.4424 14.0926 33.0715 13.9896C32.7006 13.8866 32.3222 13.8954 31.9363 14.0158L29.0617 14.9133L30.3959 19.1866ZM28.4413 12.9262L30.7371 12.2094C31.213 12.0608 31.572 11.7864 31.814 11.3862C32.0625 10.9839 32.1104 10.5385 31.9578 10.0497C31.7952 9.52881 31.5023 9.18974 31.0791 9.03248C30.6604 8.86679 30.2131 8.85824 29.7372 9.00682L27.4414 9.72361L28.4413 12.9262Z" fill="#556BFF"/>
<path d="M2.64453 17.3697C2.97724 18.025 3.92093 19.4325 5.034 19.8197" stroke="#556BFF" stroke-width="0.786354" stroke-linecap="round"/>
<path d="M1.31348 17.6722C1.78517 18.5946 3.12306 20.5755 4.70108 21.1203" stroke="#556BFF" stroke-width="0.786354" stroke-linecap="round"/>
<path d="M12.1279 7.57031C12.7762 7.91654 14.1638 8.88921 14.5278 10.0101" stroke="#556BFF" stroke-width="0.786354" stroke-linecap="round"/>
<path d="M12.458 6.24615C13.3704 6.73687 15.3231 8.11555 15.8351 9.70453" stroke="#556BFF" stroke-width="0.786354" stroke-linecap="round"/>
<path d="M4.09682 15.5256C3.53221 16.3725 6.698 18.8829 8.39181 19.9718C9.38994 20.6438 11.8097 25.6279 16.2862 22.6637C20.7626 19.6996 17.2843 10.8676 15.9232 11.2608C14.4923 11.6742 16.4979 15.4651 15.9232 15.6768C14.3201 15.4348 12.2634 8.32689 10.4183 8.78059C8.57331 9.23429 13.443 15.2533 12.7776 15.3138C12.1122 15.3743 8.42204 8.44788 6.93998 9.71823C5.66964 10.8071 11.477 16.3725 11.114 16.7052C10.751 17.0379 6.24431 11.412 5.12521 12.4404C3.80313 13.6553 9.90414 17.5521 9.29921 18.0965C8.77004 18.5728 4.97762 14.2044 4.09682 15.5256Z" fill="#556BFF"/>
</svg>
