<?xml version="1.0" encoding="utf-8"?>
<!-- Generator: Adobe Illustrator 27.5.0, SVG Export Plug-In . SVG Version: 6.00 Build 0)  -->
<svg version="1.1" xmlns="http://www.w3.org/2000/svg" xmlns:xlink="http://www.w3.org/1999/xlink" x="0px" y="0px"
	 viewBox="0 0 500 500" style="enable-background:new 0 0 500 500;" xml:space="preserve">
<g id="BACKGROUND">
	<rect style="fill:#6860E9;" width="500" height="500"/>
</g>
<g id="OBJECTS">
	<path style="fill:#5A3CFF;" d="M478.98,201.66c-7-26.764-32.233-47.695-59.829-49.631c-10.367-0.727-20.734,0.973-31.117,1.423
		c-10.383,0.45-21.278-0.499-30.127-5.948c-8.849-5.45-14.952-16.421-12.029-26.393c4.201-14.329,23.416-19.531,28.752-33.477
		c4.698-12.282-4.017-26.412-15.75-32.349c-11.733-5.938-25.491-5.796-38.638-5.524c-27.592,0.573-122.946-0.118-143.753,0.456
		c-8.112,0.224-16.721,0.752-23.356,5.423c-6.635,4.671-9.905,15.02-4.493,21.067c7.702,8.605,25.204,2.176,31.323,11.971
		c4.167,6.671-1.347,15.873-8.66,18.769c-7.313,2.895-15.505,1.582-23.35,1.012c-35.336-2.563-71.525,11.997-95.239,38.319
		C29,173.099,18.281,210.605,24.504,245.483c6.223,34.878,29.252,66.363,60.606,82.859c15.612,8.214,32.858,12.782,50.077,16.615
		c34.578,7.697,69.757,12.697,105.111,14.937l3.909-47.445c50.416-7.232,100.832-14.463,151.249-21.694
		c19.322-2.772,39.349-5.801,55.659-16.527C474.228,259.029,485.98,228.423,478.98,201.66z"/>
	<g>
		<g>
			<path style="fill:#FFACE0;" d="M456.948,307.129l-0.369,2.308c-0.4,2.519-0.991,4.974-1.75,7.335
				c-0.305,0.948-0.632,1.886-1.001,2.803c-1.243,3.204-2.803,6.218-4.647,9.032c-2.561,3.921-5.67,7.44-9.2,10.454
				c-8.631,7.367-19.802,11.751-31.869,11.751c-16.999,0-32.228-8.715-41.059-22.205c-1.844-2.814-3.414-5.828-4.658-9.032
				c-0.358-0.917-0.685-1.855-0.991-2.803c-0.759-2.361-1.349-4.816-1.749-7.335l-0.369-2.308c-0.464-2.93-0.695-5.87-0.695-8.8
				c0-2.814,0.211-5.617,0.632-8.378c0.074-0.474,0.147-0.959,0.242-1.433c0.622-3.552,1.591-7.04,2.887-10.402
				c1.929-5.017,4.595-9.78,7.946-14.122c4.69-6.07,10.486-10.655,16.841-13.742l-2.255-14.185l-1.012-6.387l-1.581-9.98h51.65
				l-1.581,9.98l-1.012,6.387l-2.255,14.185c6.355,3.088,12.151,7.672,16.841,13.742c3.352,4.342,6.018,9.105,7.946,14.122
				c1.296,3.362,2.266,6.85,2.888,10.402c0.095,0.474,0.168,0.959,0.242,1.433C457.865,295.589,457.865,301.386,456.948,307.129z"/>
			<g>
				<polygon style="fill:#FF787F;" points="432.361,229.68 431.349,236.067 384.884,236.067 383.872,229.68 				"/>
				<polygon style="fill:#EFE000;" points="384.884,236.067 389.957,229.716 394.876,236.067 400.548,229.68 405.383,236.067 
					410.73,229.716 415.905,236.067 421.517,229.68 427.143,236.067 432.361,229.68 383.872,229.68 				"/>
			</g>
			<g>
				<path style="fill:#FF787F;" d="M456.948,307.129l-0.369,2.308c-0.4,2.519-0.991,4.974-1.75,7.335
					c-0.305,0.948-0.632,1.886-1.001,2.803h-91.434c-0.358-0.917-0.685-1.855-0.991-2.803c-0.759-2.361-1.349-4.816-1.749-7.335
					l-0.369-2.308c-0.464-2.93-0.695-5.87-0.695-8.8c0-2.814,0.211-5.617,0.632-8.378c0.074-0.474,0.147-0.959,0.242-1.433h97.304
					c0.095,0.474,0.168,0.959,0.242,1.433C457.865,295.589,457.865,301.386,456.948,307.129z"/>
				<g>
					<path style="fill:#EFE000;" d="M457.011,289.951h-97.789c0.611-4.047,1.654-8.02,3.13-11.835h91.529
						C455.357,281.931,456.4,285.904,457.011,289.951z"/>
					<polyline style="fill:#FF787F;" points="362.352,278.116 371.012,289.87 380.311,278.128 389.846,289.87 399.302,278.116 
						408.424,289.951 417.603,278.128 426.9,289.951 436.213,278.416 444.885,289.951 453.881,278.128 					"/>
				</g>
				<g>
					<path style="fill:#EFE000;" d="M454.83,316.772c-0.927,2.909-2.129,5.68-3.551,8.305c-0.643,1.212-1.349,2.392-2.097,3.53
						h-82.128c0,0,0-0.01-0.011-0.01c-0.727-1.117-1.423-2.276-2.055-3.457c-1.444-2.645-2.645-5.438-3.583-8.368H454.83z"/>
					<path style="fill:#FF787F;" d="M389.332,316.772l9.295,11.824h-31.585c-0.727-1.117-1.423-2.276-2.055-3.457l6.365-8.368
						l8.663,11.54L389.332,316.772z"/>
					<polygon style="fill:#FF787F;" points="407.806,316.772 416.932,328.607 398.627,328.597 					"/>
					<path style="fill:#FF787F;" d="M451.278,325.077c-0.643,1.212-1.349,2.392-2.097,3.53h-32.249l9.453-11.751l9.537,11.74
						l9.295-11.74L451.278,325.077z"/>
				</g>
			</g>
			
				<line style="fill:none;stroke:#FFFFFF;stroke-linecap:round;stroke-linejoin:round;stroke-miterlimit:10;" x1="387.139" y1="250.252" x2="429.094" y2="250.252"/>
			
				<line style="fill:none;stroke:#FFFFFF;stroke-linecap:round;stroke-linejoin:round;stroke-miterlimit:10;" x1="385.381" y1="222.559" x2="415.208" y2="222.559"/>
			<path style="fill:none;stroke:#FFFFFF;stroke-linecap:round;stroke-linejoin:round;stroke-miterlimit:10;" d="M433.159,339.161
				c11.03-6.911,18.744-18.883,20.478-31.784"/>
			<path style="fill:none;stroke:#FFFFFF;stroke-linecap:round;stroke-linejoin:round;stroke-miterlimit:10;" d="M369.998,271.259
				c3.527-6.681,9.198-12.21,15.966-15.566"/>
		</g>
		<g>
			<path style="fill:#010100;" d="M33.715,143.234l24.255,63.016c0.651,1.691,2.603,2.47,4.24,1.692l40.824-19.416
				c0,0,4.229,3.32,7.7-1.949l35.493-3.671l-20.531-65.922l-39.936,5.733l-50.352,16.916
				C33.922,140.132,33.151,141.77,33.715,143.234z"/>
			<g>
				<path style="fill:#FFACE0;" d="M85.248,120.7c0,0,6.117-14.907,17.785-28.342l3.72,17.566c0,0,11.64-3.363,22.441-4.908
					l20.719,64.552v8.68l-44.621,5.389l-44.369,17.891l-26.94-67.262l7.96-3.338l-2.828-9.942
					C39.114,120.986,57.778,110.652,85.248,120.7z"/>
				<polyline style="fill:none;stroke:#010100;stroke-linecap:round;stroke-linejoin:round;stroke-miterlimit:10;" points="
					85.248,120.7 105.291,183.637 118.389,159.063 106.752,109.924 				"/>
				<path style="fill:none;stroke:#010100;stroke-linecap:round;stroke-linejoin:round;stroke-miterlimit:10;" d="M41.942,130.928
					l17.076,60.037c0,0,18.762-11.348,46.274-7.328c0,0-22.702,0.673-43.78,11.211"/>
				<path style="fill:none;stroke:#010100;stroke-linecap:round;stroke-linejoin:round;stroke-miterlimit:10;" d="M63.037,197.633
					c5.873-2.635,11.746-5.27,17.619-7.905"/>
				<path style="fill:none;stroke:#010100;stroke-linecap:round;stroke-linejoin:round;stroke-miterlimit:10;" d="M104.977,183.547
					c12.692-8.409,28.1-12.646,43.307-11.909"/>
				<path style="fill:none;stroke:#010100;stroke-linecap:round;stroke-linejoin:round;stroke-miterlimit:10;" d="M112.727,182.103
					c9.032-3.538,18.5-5.963,28.121-7.203"/>
				<path style="fill:none;stroke:#010100;stroke-linecap:round;stroke-linejoin:round;stroke-miterlimit:10;" d="M127.462,175.345
					c1.612-0.372,3.224-0.744,4.835-1.116"/>
				<g>
					<path style="fill:none;stroke:#010100;stroke-linecap:round;stroke-linejoin:round;stroke-miterlimit:10;" d="M98.624,106.703
						c0.907-1.22,1.852-2.413,2.832-3.575"/>
					<path style="fill:none;stroke:#010100;stroke-linecap:round;stroke-linejoin:round;stroke-miterlimit:10;" d="M89.36,123.118
						c1.561-3.821,3.439-7.512,5.606-11.024"/>
					<path style="fill:none;stroke:#010100;stroke-linecap:round;stroke-linejoin:round;stroke-miterlimit:10;" d="M91.955,131.656
						c2.957-7.057,6.864-13.725,11.557-19.732"/>
					<path style="fill:none;stroke:#010100;stroke-linecap:round;stroke-linejoin:round;stroke-miterlimit:10;" d="M99.866,129.568
						c1.749-3.044,3.652-6,5.704-8.848"/>
					<path style="fill:none;stroke:#010100;stroke-linecap:round;stroke-linejoin:round;stroke-miterlimit:10;" d="M94.55,140.193
						c0.696-1.618,1.433-3.218,2.211-4.799"/>
					<path style="fill:none;stroke:#010100;stroke-linecap:round;stroke-linejoin:round;stroke-miterlimit:10;" d="M97.145,148.73
						c2.398-5.434,5.17-10.705,8.282-15.764"/>
					<path style="fill:none;stroke:#010100;stroke-linecap:round;stroke-linejoin:round;stroke-miterlimit:10;" d="M99.74,157.268
						c2.956-6.511,6.292-12.867,9.943-18.957"/>
					<path style="fill:none;stroke:#010100;stroke-linecap:round;stroke-linejoin:round;stroke-miterlimit:10;" d="M102.334,165.805
						c2.266-4.85,4.64-9.65,7.119-14.395"/>
					<path style="fill:none;stroke:#010100;stroke-linecap:round;stroke-linejoin:round;stroke-miterlimit:10;" d="M110.629,162.488
						c1.056-2.195,2.111-4.391,3.167-6.586"/>
					<path style="fill:none;stroke:#010100;stroke-linecap:round;stroke-linejoin:round;stroke-miterlimit:10;" d="M104.929,174.343
						c0.95-1.976,1.9-3.952,2.85-5.927"/>
				</g>
				<g>
					<path style="fill:none;stroke:#010100;stroke-linecap:round;stroke-linejoin:round;stroke-miterlimit:10;" d="M45.689,124.692
						c9.79-3.233,20.49-3.637,30.507-1.208"/>
					<path style="fill:none;stroke:#010100;stroke-linecap:round;stroke-linejoin:round;stroke-miterlimit:10;" d="M70.868,128.251
						c4.595,0.419,9.144,1.391,13.499,2.918"/>
					<path style="fill:none;stroke:#010100;stroke-linecap:round;stroke-linejoin:round;stroke-miterlimit:10;" d="M47.443,130.99
						c5.415-1.841,11.119-2.825,16.835-2.961"/>
					<path style="fill:none;stroke:#010100;stroke-linecap:round;stroke-linejoin:round;stroke-miterlimit:10;" d="M49.197,137.289
						c10.21-3.546,21.42-4.155,31.96-1.767"/>
					<path style="fill:none;stroke:#010100;stroke-linecap:round;stroke-linejoin:round;stroke-miterlimit:10;" d="M62.545,140.746
						c8.539-1.195,17.334-0.566,25.591,1.934"/>
					<path style="fill:none;stroke:#010100;stroke-linecap:round;stroke-linejoin:round;stroke-miterlimit:10;" d="M50.952,143.587
						c1.669-0.595,3.365-1.113,5.082-1.553"/>
					<path style="fill:none;stroke:#010100;stroke-linecap:round;stroke-linejoin:round;stroke-miterlimit:10;" d="M76.925,146.297
						c4.426,0.237,8.827,0.944,13.096,2.139"/>
					<path style="fill:none;stroke:#010100;stroke-linecap:round;stroke-linejoin:round;stroke-miterlimit:10;" d="M52.706,149.886
						c5.843-2.132,12.017-3.341,18.23-3.615"/>
					<path style="fill:none;stroke:#010100;stroke-linecap:round;stroke-linejoin:round;stroke-miterlimit:10;" d="M88.656,153.45
						c1.09,0.217,2.173,0.465,3.25,0.741"/>
					<path style="fill:none;stroke:#010100;stroke-linecap:round;stroke-linejoin:round;stroke-miterlimit:10;" d="M67.052,152.944
						c4.521-0.672,9.113-0.861,13.674-0.548"/>
					<path style="fill:none;stroke:#010100;stroke-linecap:round;stroke-linejoin:round;stroke-miterlimit:10;" d="M54.461,156.184
						c1.928-0.717,3.891-1.339,5.88-1.862"/>
					<path style="fill:none;stroke:#010100;stroke-linecap:round;stroke-linejoin:round;stroke-miterlimit:10;" d="M81.415,158.309
						c4.165,0.142,8.318,0.686,12.375,1.637"/>
					<path style="fill:none;stroke:#010100;stroke-linecap:round;stroke-linejoin:round;stroke-miterlimit:10;" d="M56.215,162.482
						c5.956-2.274,12.256-3.636,18.615-4.064"/>
					<path style="fill:none;stroke:#010100;stroke-linecap:round;stroke-linejoin:round;stroke-miterlimit:10;" d="M57.97,168.781
						c9.458-3.688,19.76-5.132,29.87-4.249"/>
					<path style="fill:none;stroke:#010100;stroke-linecap:round;stroke-linejoin:round;stroke-miterlimit:10;" d="M81.041,170.379
						c5.522-0.311,11.086,0.038,16.519,1.079"/>
					<path style="fill:none;stroke:#010100;stroke-linecap:round;stroke-linejoin:round;stroke-miterlimit:10;" d="M59.724,175.079
						c4.526-1.805,9.25-3.107,14.058-3.9"/>
					<path style="fill:none;stroke:#010100;stroke-linecap:round;stroke-linejoin:round;stroke-miterlimit:10;" d="M61.478,181.378
						c8.857-3.607,18.459-5.338,28.017-5.118"/>
				</g>
			</g>
		</g>
		<g>
			<g>
				<g>
					<path style="fill:#EFE000;" d="M382.043,429.201l-7.811-2.127c0,0-4.835,14.74-19.527,18.977l7.395,2.408
						c1.321-0.623,3.623-1.874,5.715-3.843c0,0-0.867,2.58-2.723,4.818l10.237,3.334
						C375.329,452.768,383.159,445.959,382.043,429.201z"/>
					<path style="fill:none;stroke:#EFE000;stroke-linecap:round;stroke-linejoin:round;stroke-miterlimit:10;" d="M381.475,429.686
						c1.932,7.988,0.707,16.694-3.355,23.839"/>
				</g>
				<g>
					<path style="fill:#35BEAC;" d="M372.51,429.072l9.794-52.363c0.671-3.59,4.166-5.924,7.739-5.17l0,0
						c3.573,0.754,5.826,4.302,4.989,7.857l-12.21,51.853L372.51,429.072z"/>
					<path style="fill:none;stroke:#FFFFFF;stroke-linecap:round;stroke-linejoin:round;stroke-miterlimit:10;" d="M384.878,376.245
						c0.772-1.748,2.664-2.936,4.573-2.873"/>
				</g>
			</g>
			<g>
				<g>
					<path style="fill:#010100;" d="M350.811,390.456l-24.096,8.04c-1.28,0.427-1.93,1.851-1.414,3.098l5.19,12.539
						c2.117,5.115,6.55,8.912,11.93,10.218l4.487,1.089c1.455,0.353,2.985-0.157,3.936-1.313l2.934-3.566
						c3.518-4.275,4.782-9.973,3.403-15.335l-3.38-13.143C353.465,390.777,352.091,390.029,350.811,390.456z"/>
					<path style="fill:none;stroke:#FFFFFF;stroke-linecap:round;stroke-linejoin:round;stroke-miterlimit:10;" d="M355.268,407.487
						c0.236,4.358-1.305,8.786-4.196,12.057"/>
					<path style="fill:none;stroke:#FFFFFF;stroke-linecap:round;stroke-linejoin:round;stroke-miterlimit:10;" d="M326.887,400.431
						c2.185-0.759,4.37-1.519,6.555-2.278"/>
				</g>
				<g>
					<path style="fill:#EFE000;" d="M323.599,349.032c-2.396,0.8-3.655,3.424-2.778,5.793l8.57,23.155l6.96-2.323l-7.052-23.661
						C328.578,349.575,325.995,348.232,323.599,349.032z"/>
					<path style="fill:none;stroke:#FFFFFF;stroke-linecap:round;stroke-linejoin:round;stroke-miterlimit:10;" d="M324.111,350.696
						c-1.274,0.408-2.047,1.961-1.604,3.223"/>
				</g>
				<g>
					<path style="fill:#35BEAC;" d="M328.792,378.18l6.807,18.392l6.733,12.265c0.631,1.15,2.386,0.564,2.2-0.734l-1.981-13.851
						l-5.601-18.794L328.792,378.18z"/>
					<path style="fill:none;stroke:#010100;stroke-linecap:round;stroke-linejoin:round;stroke-miterlimit:10;" d="M330.567,380.728
						c2.184-0.723,4.367-1.446,6.551-2.169"/>
					<path style="fill:none;stroke:#FFFFFF;stroke-linecap:round;stroke-linejoin:round;stroke-miterlimit:10;" d="M333.285,383.306
						c2.262,6.162,4.524,12.324,6.785,18.486"/>
				</g>
			</g>
		</g>
	</g>
	<g>
		<polygon style="fill:#EFE000;" points="127.099,278.128 353.211,278.128 349.559,242.68 298.362,215.489 282.204,179.03 
			171.769,186.577 		"/>
		<g>
			<path style="fill:#FFACE0;" d="M299.007,473.621l-11.451-15.819c-7.756-10.714-12.864-23.111-14.906-36.179l-0.303-1.941
				l-41.782,3.538c0,0.566,3.957,30.171,3.957,30.171l12.31,4.875l0.929-3.629l5.484,6.169l42.606,16.875
				C298.342,478.669,300.578,475.792,299.007,473.621z"/>
			<path style="fill:none;stroke:#010100;stroke-linecap:round;stroke-linejoin:round;stroke-miterlimit:10;" d="M233.971,447.597
				c21.076,9.333,42.153,18.667,63.229,28"/>
			<path style="fill:none;stroke:#010100;stroke-linecap:round;stroke-linejoin:round;stroke-miterlimit:10;" d="M275.389,434.771
				c-4.026,1.136-8.051,2.271-12.077,3.407c4.771,0.721,9.543,1.442,14.314,2.163c-3.952,1.365-7.904,2.73-11.856,4.095
				c5.069,0.842,10.138,1.684,15.207,2.526"/>
		</g>
		<g>
			<path style="fill:#010100;" d="M310.131,256.251c-15.096-21.916-38.135-51.168-38.135-51.168l-86.516,1.223
				c-0.636,42.33,3.683,75.699,26.908,124.78c5.814,40.273,14.816,95.988,14.816,95.988l50.642-2.991c0,0-5.171-31.535-10-60.034
				c9.471-11.49,27.929-33.865,40.123-48.527C324.975,295.073,325.227,278.167,310.131,256.251z M255.5,300.014
				c-3.77-15.972-7.765-31.716-7.765-31.716l21.391,16.329C264.714,288.691,260.013,294.177,255.5,300.014z"/>
			<path style="fill:none;stroke:#FFFFFF;stroke-linecap:round;stroke-linejoin:round;stroke-miterlimit:10;" d="M269.017,284.701
				c2.115-0.593,4.231-1.185,6.346-1.778"/>
			<path style="fill:none;stroke:#FFFFFF;stroke-linecap:round;stroke-linejoin:round;stroke-miterlimit:10;" d="M242.704,246.724
				c1.798,7.454,3.596,14.908,5.394,22.362"/>
			<path style="fill:none;stroke:#FFFFFF;stroke-linecap:round;stroke-linejoin:round;stroke-miterlimit:10;" d="M255.702,299.513
				c4.157,21.945,8.314,43.889,12.471,65.834"/>
			<path style="fill:none;stroke:#FFFFFF;stroke-linecap:round;stroke-linejoin:round;stroke-miterlimit:10;" d="M226.639,415.862
				c15.997-1.078,31.993-2.157,47.99-3.236"/>
			<path style="fill:none;stroke:#FFFFFF;stroke-linecap:round;stroke-linejoin:round;stroke-miterlimit:10;" d="M191.295,210.808
				c-3.425,39.173,5.453,79.332,25.07,113.412c1.497-0.566,2.893-0.411,3.533,1.056c0.64,1.467-0.054,3.377-1.487,4.09
				c4.55,28.379,8.134,56.934,12.685,85.313"/>
			<path style="fill:none;stroke:#FFFFFF;stroke-linecap:round;stroke-linejoin:round;stroke-miterlimit:10;" d="M245.294,257.416
				c10.866,8.076,21.733,16.152,32.599,24.228c1.063-1.363,3.025-2.902,4.487-1.981c1.463,0.921,2.049,3.007,1.279,4.555
				c-0.769,1.548-2.786,2.34-4.403,1.731c-6.979,7.903-14.643,15.65-21.622,23.553"/>
			<path style="fill:none;stroke:#FFFFFF;stroke-linecap:round;stroke-linejoin:round;stroke-miterlimit:10;" d="M211.409,206.751
				c0,3.1,0,6.199,0,9.299"/>
			<path style="fill:none;stroke:#FFFFFF;stroke-linecap:round;stroke-linejoin:round;stroke-miterlimit:10;" d="M215.438,207.498
				c0.114,2.232,0.228,4.464,0.341,6.697"/>
			<path style="fill:none;stroke:#FFFFFF;stroke-linecap:round;stroke-linejoin:round;stroke-miterlimit:10;" d="M260.389,207.383
				c1.223,2.299,2.446,4.598,3.669,6.896"/>
		</g>
		<g>
			<polygon style="fill:#FFFFFF;" points="217.348,115.039 249.099,120.198 278.112,190.057 278.415,207.637 179.877,208.046 			"/>
			<path style="fill:none;stroke:#010100;stroke-linecap:round;stroke-linejoin:round;stroke-miterlimit:10;" d="M221.701,116.572
				c1.497,4.455,5.588,7.929,10.226,8.685c4.638,0.756,9.621-1.24,12.454-4.989"/>
			<g>
				<path style="fill:none;stroke:#FFACE0;stroke-linecap:round;stroke-linejoin:round;stroke-miterlimit:10;" d="M221.17,125.334
					c0.342,1.32,0.684,2.639,1.026,3.959"/>
				<path style="fill:none;stroke:#FFACE0;stroke-linecap:round;stroke-linejoin:round;stroke-miterlimit:10;" d="M230.266,130.326
					c1.074-0.172,2.147-0.343,3.22-0.515"/>
				<path style="fill:none;stroke:#FFACE0;stroke-linecap:round;stroke-linejoin:round;stroke-miterlimit:10;" d="M242.559,133.037
					c0.557,0.922,1.114,1.845,1.671,2.767"/>
				<path style="fill:none;stroke:#FFACE0;stroke-linecap:round;stroke-linejoin:round;stroke-miterlimit:10;" d="M233.478,138.436
					c-0.992,0.827-1.984,1.653-2.976,2.48"/>
				<path style="fill:none;stroke:#FFACE0;stroke-linecap:round;stroke-linejoin:round;stroke-miterlimit:10;" d="M244.885,127.029
					c1.075-0.083,2.149-0.165,3.224-0.248"/>
				<path style="fill:none;stroke:#FFACE0;stroke-linecap:round;stroke-linejoin:round;stroke-miterlimit:10;" d="M219.096,136.948
					c-0.083,1.24-0.165,2.48-0.248,3.72"/>
				<path style="fill:none;stroke:#FFACE0;stroke-linecap:round;stroke-linejoin:round;stroke-miterlimit:10;" d="M234.47,150.586
					c0.744,0.579,1.488,1.157,2.232,1.736"/>
				<path style="fill:none;stroke:#FFACE0;stroke-linecap:round;stroke-linejoin:round;stroke-miterlimit:10;" d="M246.125,145.379
					c1.405-0.413,2.81-0.827,4.215-1.24"/>
				<path style="fill:none;stroke:#FFACE0;stroke-linecap:round;stroke-linejoin:round;stroke-miterlimit:10;" d="M250.836,155.545
					c0,0.909,0,1.819,0,2.728"/>
				<path style="fill:none;stroke:#FFACE0;stroke-linecap:round;stroke-linejoin:round;stroke-miterlimit:10;" d="M219.592,151.826
					c0.496,0.496,0.992,0.992,1.488,1.488"/>
				<path style="fill:none;stroke:#FFACE0;stroke-linecap:round;stroke-linejoin:round;stroke-miterlimit:10;" d="M224.055,162.984
					c-0.661,0.496-1.323,0.992-1.984,1.488"/>
				<path style="fill:none;stroke:#FFACE0;stroke-linecap:round;stroke-linejoin:round;stroke-miterlimit:10;" d="M211.903,161.77
					c0.991,0.088,1.983,0.177,2.974,0.265"/>
				<path style="fill:none;stroke:#FFACE0;stroke-linecap:round;stroke-linejoin:round;stroke-miterlimit:10;" d="M236.206,168.688
					c0.413,1.24,0.826,2.48,1.24,3.72"/>
				<path style="fill:none;stroke:#FFACE0;stroke-linecap:round;stroke-linejoin:round;stroke-miterlimit:10;" d="M249.356,167.9
					c1.407,0.237,2.814,0.473,4.221,0.71"/>
				<path style="fill:none;stroke:#FFACE0;stroke-linecap:round;stroke-linejoin:round;stroke-miterlimit:10;" d="M262.243,171.167
					c0.744-0.744,1.488-1.488,2.232-2.232"/>
				<path style="fill:none;stroke:#FFACE0;stroke-linecap:round;stroke-linejoin:round;stroke-miterlimit:10;" d="M251.58,178.607
					c-0.165,1.157-0.331,2.314-0.496,3.472"/>
				<path style="fill:none;stroke:#FFACE0;stroke-linecap:round;stroke-linejoin:round;stroke-miterlimit:10;" d="M264.728,187.086
					c1.487-0.17,2.975-0.34,4.462-0.51"/>
				<path style="fill:none;stroke:#FFACE0;stroke-linecap:round;stroke-linejoin:round;stroke-miterlimit:10;" d="M258.474,191.245
					c-0.175,1.073-0.349,2.146-0.524,3.219"/>
				<path style="fill:none;stroke:#FFACE0;stroke-linecap:round;stroke-linejoin:round;stroke-miterlimit:10;" d="M269.672,198.748
					c0.991,0.173,1.981,0.346,2.971,0.52"/>
				<path style="fill:none;stroke:#FFACE0;stroke-linecap:round;stroke-linejoin:round;stroke-miterlimit:10;" d="M236.702,193.981
					c-0.496,1.075-0.992,2.149-1.488,3.224"/>
				<path style="fill:none;stroke:#FFACE0;stroke-linecap:round;stroke-linejoin:round;stroke-miterlimit:10;" d="M224.303,182.574
					c1.405,0,2.81,0,4.215,0"/>
				<path style="fill:none;stroke:#FFACE0;stroke-linecap:round;stroke-linejoin:round;stroke-miterlimit:10;" d="M214.88,175.631
					c-0.661,1.323-1.322,2.645-1.984,3.967"/>
				<path style="fill:none;stroke:#FFACE0;stroke-linecap:round;stroke-linejoin:round;stroke-miterlimit:10;" d="M212.7,192.96
					c0.912,1.652,1.824,3.303,2.736,4.954"/>
				<path style="fill:none;stroke:#FFACE0;stroke-linecap:round;stroke-linejoin:round;stroke-miterlimit:10;" d="M209.177,201.916
					c-0.744,0.744-1.488,1.488-2.232,2.232"/>
				<path style="fill:none;stroke:#FFACE0;stroke-linecap:round;stroke-linejoin:round;stroke-miterlimit:10;" d="M226.783,200.18
					c0.331,0.909,0.661,1.818,0.992,2.728"/>
				<path style="fill:none;stroke:#FFACE0;stroke-linecap:round;stroke-linejoin:round;stroke-miterlimit:10;" d="M248.11,202.923
					c1.24-0.161,2.481-0.322,3.721-0.483"/>
			</g>
		</g>
		<g>
			<path style="fill:#FF787F;" d="M240.868,118.884c0.303-2.945,0.646-5.989,0.948-8.935c-5.387-0.73-10.515-1.409-15.902-2.139
				c-0.369,2.918-0.737,5.836-1.106,8.754c1.278,2.925,4.088,5.243,7.235,5.775C235.19,122.872,238.699,121.226,240.868,118.884z"/>
			<g>
				<path style="fill:#FFFFFF;" d="M251.878,104.155c-0.46-1.632-1.24-3.152-2.015-4.66c-0.657-1.278-2.561-1.35-3.987-1.17
					l-0.609-5.798c1.202-0.145,2.31-0.918,2.86-1.997c0.55-1.078,0.526-2.43-0.062-3.488c-0.588-1.058-1.736-1.713-2.942-1.815
					c0.475-1.641-0.719-3.41-2.28-4.103c-1.561-0.693-3.361-0.547-5.039-0.225c-2.613,0.501-4.853,1.604-7.351,2.522
					c-3.107,1.143-5.74,3.522-7.191,6.498s-1.702,6.516-0.688,9.667c0.835,2.595,1.939,5.158,2.865,7.722
					c1.005,2.783,3.284,4.947,5.948,6.235c2.664,1.288,5.707,1.679,8.654,1.421c2.948-0.258,5.812-1.143,8.536-2.298
					c1.561-0.662,2.802-1.894,3.343-3.501C252.462,107.558,252.339,105.787,251.878,104.155z"/>
				<path style="fill:none;stroke:#FFFFFF;stroke-linecap:round;stroke-linejoin:round;stroke-miterlimit:10;" d="M224.501,85.053
					c0.467,0.369,0.934,0.738,1.401,1.107"/>
			</g>
			<g>
				<path style="fill:#FF787F;" d="M249.591,100.201c-1.258-3.15-2.866-6.136-4.124-9.286c-1.653-0.703-3.242-1.35-4.895-2.053
					c-1.004,1.347-3.349,1.609-4.597,0.484c-0.741,1.656-2.718,2.438-4.498,2.09c-1.329,2.212-2.658,4.423-3.986,6.634
					c1.184,2.016,2.197,4.008,3.381,6.024C236.299,101.084,243.385,100.209,249.591,100.201z"/>
				<circle style="fill:#010100;" cx="245.674" cy="96.88" r="1"/>
				<circle style="fill:#010100;" cx="235.196" cy="98.983" r="1"/>
				<path style="fill:none;stroke:#010100;stroke-linecap:round;stroke-linejoin:round;stroke-miterlimit:10;" d="M238.717,102.602
					c-0.03,0.515,0.315,1.029,0.803,1.197c0.488,0.168,1.076-0.025,1.369-0.449"/>
				<path style="fill:none;stroke:#010100;stroke-linecap:round;stroke-linejoin:round;stroke-miterlimit:10;" d="M240.538,96.87
					c0.549,1.23,1.099,2.46,1.648,3.689c-0.435,0.055-0.965,0.076-1.4,0.131"/>
				<path style="fill:none;stroke:#010100;stroke-linecap:round;stroke-linejoin:round;stroke-miterlimit:10;" d="M231.938,95.828
					c0.196-1.105,1.101-2.05,2.196-2.292c1.095-0.243,2.315,0.232,2.959,1.15"/>
				<path style="fill:none;stroke:#010100;stroke-linecap:round;stroke-linejoin:round;stroke-miterlimit:10;" d="M243.395,93.292
					c0.744-0.124,1.488-0.248,2.232-0.371"/>
				<path style="fill:none;stroke:#FFFFFF;stroke-linecap:round;stroke-linejoin:round;stroke-miterlimit:10;" d="M240.461,88.563
					c0,1.361-1.104,2.637-2.451,2.833"/>
			</g>
			<g>
				<path style="fill:#FF787F;" d="M225.665,98.15c-2.225-0.46-4.686,0.694-5.755,2.699c-1.069,2.005-0.655,4.692,0.967,6.283
					c1.622,1.591,4.317,1.951,6.3,0.843L225.665,98.15z"/>
				<path style="fill:none;stroke:#010100;stroke-linecap:round;stroke-linejoin:round;stroke-miterlimit:10;" d="M221.999,101.63
					c0.837,0.186,1.674,0.373,2.51,0.559"/>
			</g>
		</g>
		<g>
			<path style="fill:#FF787F;" d="M403.018,134.066c-0.89-1.115-2.507-1.278-3.841-0.772c-6.583,2.498-19.536,7.499-19.536,7.499
				s-11.971-1.051-17.826-1.814c2.461-3.965,4.633-8.11,6.492-12.39c0.432-0.994,0.854-2.03,0.848-3.114
				c-0.007-1.084-0.595-2.329-1.6-2.736c-6.12,5.035-12.423,9.771-18.188,15.209c-3.433,3.239-6.066,7.32-7.603,11.782
				c-2.581,1.557-5.177,2.945-7.757,4.502l11.624,29.795c3.744-1.487,7.124-3.742,10.473-5.98
				c8.566-5.725,25.734-17.032,25.734-17.032s5.262-7.609,8.66-10.849c3.903-3.722,7.819-7.807,11.722-11.529
				c-0.279-0.093-0.652-0.28-0.931-0.373C401.817,135.614,402.491,134.717,403.018,134.066z"/>
			<path style="fill:none;stroke:#010100;stroke-linecap:round;stroke-linejoin:round;stroke-miterlimit:10;" d="M361.336,139.472
				c1.668,3.551,1.762,7.807,0.252,11.427"/>
			<path style="fill:none;stroke:#010100;stroke-linecap:round;stroke-linejoin:round;stroke-miterlimit:10;" d="M379.87,151.163
				c3.704-2.954,7.408-5.907,11.112-8.861c0.82-0.654,1.623-0.512,2.607-0.149c-2.124,3.756-4.635,7.568-7.299,10.962"/>
			<path style="fill:none;stroke:#010100;stroke-linecap:round;stroke-linejoin:round;stroke-miterlimit:10;" d="M380.4,146.618
				c5.134-2.335,10.268-4.671,15.402-7.006c0.98-0.446,2.197-0.842,3.221-0.512"/>
			<path style="fill:none;stroke:#010100;stroke-linecap:round;stroke-linejoin:round;stroke-miterlimit:10;" d="M379.901,143.387
				c7.044-2.503,14.089-5.005,21.133-7.508"/>
		</g>
		<g>
			<path style="fill:#35BEAC;" d="M382.244,280.817c-11.825,0.933-23.694,2.25-35.519,3.183c0.852-10.548-1.918-21.543-8.555-29.786
				c-5.322-6.611-12.762-11.148-20.272-15.101c-7.51-3.953-15.314-7.498-22.038-12.676c-6.724-5.178-11.475-12.421-14.752-20.25
				c-12.288-29.355-24.576-58.709-36.865-88.064c7.443,0.965,14.299,1.564,21.742,2.528c5.627,0.729,11.01,2.712,15.372,6.34
				c4.362,3.628,7.829,8.193,11.257,12.715c4.525,5.97,9.05,11.94,13.574,17.91c10.349-3.924,20.584-8.085,30.933-12.009
				c5.025,12.289,9.57,25.091,14.596,37.38c-9.282,4.662-18.743,9.71-28.026,14.372c-5.933,2.98-12.669,6.097-19.286,6.647
				C316.284,219.674,384.084,215.489,382.244,280.817z"/>
			<path style="fill:none;stroke:#010100;stroke-linecap:round;stroke-linejoin:round;stroke-miterlimit:10;" d="M253.157,121.18
				c3.384,13.453,6.769,26.907,10.153,40.36"/>
			<path style="fill:none;stroke:#010100;stroke-linecap:round;stroke-linejoin:round;stroke-miterlimit:10;" d="M305.617,157.767
				c-0.578,1.157-1.156,2.315-1.735,3.472"/>
			<path style="fill:none;stroke:#010100;stroke-linecap:round;stroke-linejoin:round;stroke-miterlimit:10;" d="M305.035,204.766
				c-11.818-10.606-20.637-24.212-27.409-38.576c-6.772-14.363-11.6-29.55-16.409-44.684"/>
			<path style="fill:none;stroke:#010100;stroke-linecap:round;stroke-linejoin:round;stroke-miterlimit:10;" d="M328.581,150.198
				c3.735,12.7,7.471,25.4,11.206,38.1"/>
			<path style="fill:none;stroke:#010100;stroke-linecap:round;stroke-linejoin:round;stroke-miterlimit:10;" d="M348.037,274.505
				c5.54-0.282,11.081-0.564,16.621-0.847"/>
		</g>
		<g>
			<path style="fill:#35BEAC;" d="M203.226,113.008c-12.257-0.481-25.711,5.391-33.648,14.743
				c-26.133,30.789-47.326,65.639-70.385,98.793c2.88,1.814,6.057,3.488,8.937,5.302c-18.167,14.857-34.188,33.965-47.208,53.49
				l70.438-0.112c2.505-6.103,8.027-10.49,13.898-13.499c5.871-3.009,12.249-4.905,18.219-7.711
				c23.397-10.999,34.383-37.477,39.365-62.845c5.716-29.11,11.433-58.219,17.149-87.329
				C214.411,113.622,208.807,113.227,203.226,113.008z"/>
			<path style="fill:none;stroke:#010100;stroke-linecap:round;stroke-linejoin:round;stroke-miterlimit:10;" d="M209.873,113.896
				c-0.994,20.168-1.988,40.336-2.983,60.504"/>
			<path style="fill:none;stroke:#010100;stroke-linecap:round;stroke-linejoin:round;stroke-miterlimit:10;" d="M133.66,247.635
				c21.138-22.457,39.278-47.733,53.788-74.947c7.29-13.672,12.628-28.409,15.434-43.647c0.509-2.761,0.886-5.743,0.131-8.447
				c-0.755-2.704-2.518-5.115-4.866-6.655"/>
			<path style="fill:none;stroke:#010100;stroke-linecap:round;stroke-linejoin:round;stroke-miterlimit:10;" d="M106.466,217.867
				c11.272,7.226,22.544,14.452,33.815,21.679"/>
			<path style="fill:none;stroke:#010100;stroke-linecap:round;stroke-linejoin:round;stroke-miterlimit:10;" d="M195.169,203.032
				c0-1.511-1.225-2.736-2.736-2.736c-1.511,0-2.736,1.225-2.736,2.736c0,1.511,1.225,2.736,2.736,2.736
				C193.944,205.767,195.169,204.543,195.169,203.032z"/>
			
				<circle style="fill:none;stroke:#010100;stroke-linecap:round;stroke-linejoin:round;stroke-miterlimit:10;" cx="186.116" cy="223.539" r="2.736"/>
			<path style="fill:none;stroke:#010100;stroke-linecap:round;stroke-linejoin:round;stroke-miterlimit:10;" d="M68.822,276.78
				c20.997-0.179,41.994-0.358,62.99-0.538"/>
		</g>
		<g>
			<path style="fill:#FF787F;" d="M103.598,229.016c-9.155,7.346-18.887,13.825-26.43,22.747c-1.854,1.171-3.723,2.31-5.655,3.376
				c-1.162,0.641-2.03,2.105-1.828,3.417c0.11,0.714,0.22,1.428,0.33,2.142c-2.326,2.923-4.652,5.847-6.978,8.77
				c0.014,0.419,0.32,0.902,0.718,1.031c0.399,0.129,0.832,0.083,1.245,0.013c1.449-0.246,2.85-0.778,4.097-1.555
				c-0.741,2.31-1.27,4.494-2.011,6.804c0.843,0.19,2.031-0.616,2.739-1.111c0.707-0.495,1.262-1.175,1.807-1.845
				c0.176-0.217,0.353-0.434,0.529-0.651c0.021-0.014,0.05-0.023,0.069-0.038c6.571-5.061,13.141-10.122,19.712-15.182
				c2.158-0.684,4.344-1.276,6.465-1.851c2.535-0.687,5.27-0.137,7.85,0.356c-1.162,4.226-2.266,8.619-3.427,12.845
				c-0.476,1.733-0.343,3.565,0.696,5.033c5.838-5.181,11.767-10.346,17.605-15.527c3.195-2.836,5.087-7.316,5.774-11.532
				c0.451-0.451,0.919-0.98,1.37-1.432L103.598,229.016z"/>
			
				<line style="fill:none;stroke:#010100;stroke-linecap:round;stroke-linejoin:round;stroke-miterlimit:10;" x1="70.015" y1="260.699" x2="77.168" y2="251.763"/>
			<polyline style="fill:none;stroke:#010100;stroke-linecap:round;stroke-linejoin:round;stroke-miterlimit:10;" points="
				69.098,268.959 72.799,260.891 82.338,250.25 			"/>
			<path style="fill:none;stroke:#010100;stroke-linecap:round;stroke-linejoin:round;stroke-miterlimit:10;" d="M72.161,272.156
				c0,0-0.56,0.558-2.206,0l7.338-12.551l9.265-9.355"/>
		</g>
	</g>
	<g>
		<path style="fill:#6860E9;" d="M327.168,176.984c-3.186,0.208-6.451,0.435-9.364,1.742c-2.913,1.307-5.449,3.941-5.704,7.123
			c-0.287,3.575,2.389,6.857,5.619,8.417c3.229,1.561,6.922,1.767,10.504,1.946c13.033,0.651,26.066,1.302,39.1,1.954
			c4.157,0.208,8.403,0.406,12.406-0.737c4.002-1.142,7.789-3.888,9.055-7.853c3.196-10.018-5.41-15.468-18.128-14.672
			C354.397,175.922,333.426,176.575,327.168,176.984z"/>
		<path style="fill:#6860E9;" d="M140.497,316.822c27.954-1.091,55.907-2.182,83.861-3.273c2.812-0.11,5.704-0.237,8.275-1.382
			c2.571-1.145,4.78-3.564,4.813-6.378c0.043-3.679-3.631-6.497-7.277-6.993c-3.646-0.496-7.281,0.67-10.862,1.518
			c-3.58,0.847-7.528,1.343-10.792-0.356s-5.123-6.4-2.749-9.211c1.786-2.115,5.035-2.26,7.708-1.539
			c2.673,0.721,5.156,2.123,7.892,2.546c4.755,0.734,9.838-1.93,11.939-6.259c2.101-4.328,1.05-9.97-2.468-13.252
			c-4.194-3.912-10.537-4.094-16.272-4.051c-12.721,0.095-59.08-2.472-68.519-1.623c-9.439,0.849-19.032,4.736-24.667,12.357
			c-5.258,7.112-6.349,17.179-2.431,25.108C122.867,311.962,131.659,317.167,140.497,316.822z"/>
	</g>
	<g>
		<g>
			<g>
				<path style="fill:#FFFFFF;" d="M428.37,70.19l-7.489-0.118c-0.769,0.605-1.542,1.213-2.298,1.808
					c-2.224,0.254-4.062,0.158-6.285,0.412c-0.99-0.801-1.979-1.602-2.968-2.402l-59.771-0.942l-7.169,24.628
					c0.469,0.969,0.938,1.938,1.408,2.906c-0.796,0.154-1.592,0.309-2.388,0.463l-5.985,20.559l4.216,4.215l79.206,1.941
					l12.457-50.539L428.37,70.19z"/>
				<g>
					<path style="fill:none;stroke:#010100;stroke-linecap:round;stroke-linejoin:round;stroke-miterlimit:10;" d="M374.557,78.867
						c-0.153,2.6-0.306,5.2-0.459,7.799c2.575-1.861,5.15-3.722,7.726-5.584"/>
					<path style="fill:none;stroke:#010100;stroke-linecap:round;stroke-linejoin:round;stroke-miterlimit:10;" d="M379.847,85.682
						c1.953-1.683,3.905-3.365,5.858-5.048"/>
				</g>
				<path style="fill:none;stroke:#010100;stroke-linecap:round;stroke-linejoin:round;stroke-miterlimit:10;" d="M402.43,83.108
					c0.58-0.955,1.161-1.91,1.741-2.866c-3.042,0.207-6.083,0.413-9.125,0.62c-0.525,1.739-0.636,3.251-1.16,4.99
					c1.892-0.746,3.784-1.492,5.677-2.239c-0.369,1.158-0.738,2.316-1.107,3.473"/>
				<path style="fill:none;stroke:#010100;stroke-linecap:round;stroke-linejoin:round;stroke-miterlimit:10;" d="M417.444,79.829
					c-1.627,0.285-3.254,0.57-4.881,0.854c-0.131,1.673-0.262,3.347-0.393,5.02c1.668-0.779,3.335-1.558,5.003-2.337"/>
				<g>
					<path style="fill:none;stroke:#010100;stroke-linecap:round;stroke-linejoin:round;stroke-miterlimit:10;" d="M355.914,78.535
						c-0.613,2.451-1.226,4.902-1.839,7.354c3.519-1.35,7.037-2.699,10.556-4.049c-0.323-0.583-0.837-1.181-1.16-1.764"/>
					<path style="fill:none;stroke:#010100;stroke-linecap:round;stroke-linejoin:round;stroke-miterlimit:10;" d="M361.28,85.504
						c0.208,0.578,0.416,1.156,0.625,1.734"/>
				</g>
				<g>
					<path style="fill:none;stroke:#010100;stroke-linecap:round;stroke-linejoin:round;stroke-miterlimit:10;" d="M354.004,97.523
						c-0.496,2.066-0.992,4.133-1.488,6.199"/>
					<path style="fill:none;stroke:#010100;stroke-linecap:round;stroke-linejoin:round;stroke-miterlimit:10;" d="M355.478,100.583
						c1.557,0.021,3.115,0.042,4.672,0.063c-0.298,1.541-0.597,3.083-0.896,4.625c-1.297,0.094-2.594,0.189-3.891,0.283
						c0.304-1.103,0.608-2.205,0.912-3.308"/>
				</g>
				<g>
					<path style="fill:none;stroke:#010100;stroke-linecap:round;stroke-linejoin:round;stroke-miterlimit:10;" d="M373.644,96.649
						c-0.972,2.746-1.945,5.493-2.917,8.239c3.321-1.443,6.642-2.887,9.963-4.33c-1.889-0.176-3.777-0.352-5.666-0.528
						c0.534-0.648,1.068-1.296,1.602-1.944"/>
					<path style="fill:none;stroke:#010100;stroke-linecap:round;stroke-linejoin:round;stroke-miterlimit:10;" d="M383.766,102.383
						c-1.198,1.075-2.397,2.149-3.596,3.224"/>
				</g>
				<g>
					<path style="fill:none;stroke:#010100;stroke-linecap:round;stroke-linejoin:round;stroke-miterlimit:10;" d="M394.424,96.916
						c-0.211,2.423-0.421,4.847-0.632,7.27c2.302-1.944,4.604-3.889,6.905-5.833c0.464,1.821,0.927,3.643,1.391,5.464"/>
					<path style="fill:none;stroke:#010100;stroke-linecap:round;stroke-linejoin:round;stroke-miterlimit:10;" d="M398.924,102.868
						c0.137,1.276,0.274,2.551,0.411,3.827c2.56-0.193,5.119-0.385,7.679-0.578"/>
					<path style="fill:none;stroke:#010100;stroke-linecap:round;stroke-linejoin:round;stroke-miterlimit:10;" d="M408.758,101.128
						c0.661-0.537,1.322-1.075,1.984-1.612"/>
				</g>
				<polyline style="fill:none;stroke:#010100;stroke-linecap:round;stroke-linejoin:round;stroke-miterlimit:10;" points="
					335.424,117.505 414.309,118.164 428.37,70.19 				"/>
			</g>
			<g>
				<path style="fill:#EFE000;" d="M311.024,31.586l-4.155-2.108l-8.228,1.662c-0.464,0.777-0.928,1.553-1.393,2.33
					c-0.362-0.61-0.724-1.219-1.086-1.829l-23.506,4.749l5.908,62.805l3.082,1.564l36.336-7.932L311.024,31.586z"/>
				<polyline style="fill:none;stroke:#010100;stroke-linecap:round;stroke-linejoin:round;stroke-miterlimit:10;" points="
					278.564,99.195 314.972,89.979 306.869,29.478 				"/>
				<g>
					<path style="fill:none;stroke:#010100;stroke-linecap:round;stroke-linejoin:round;stroke-miterlimit:10;" d="M285.826,43.049
						c-2.226,0.72-4.452,1.439-6.679,2.159c0.039,1.468-0.352,3.052-0.313,4.521c1.276-0.693,2.552-1.386,3.828-2.079
						c-0.279,1.249-0.558,2.498-0.837,3.747"/>
					<path style="fill:none;stroke:#010100;stroke-linecap:round;stroke-linejoin:round;stroke-miterlimit:10;" d="M285.524,47.053
						c-0.241,1.159-0.482,2.317-0.724,3.476"/>
				</g>
				<path style="fill:none;stroke:#010100;stroke-linecap:round;stroke-linejoin:round;stroke-miterlimit:10;" d="M301.052,40.13
					c-2.188,0.387-4.375,0.775-6.563,1.162c0.004,0.924,0.121,1.663,0.125,2.587c2.306-0.448,4.613-0.895,6.919-1.343
					c0.14,0.924-0.043,2.045,0.097,2.97c-2.264,0.234-4.528,0.469-6.792,0.703c0.124,0.916,0.272,1.937,0.396,2.852
					c2.183-0.473,4.367-0.947,6.55-1.42"/>
				<g>
					<path style="fill:none;stroke:#010100;stroke-linecap:round;stroke-linejoin:round;stroke-miterlimit:10;" d="M287.28,59.668
						c-1.74,0.351-3.48,0.701-5.22,1.052c0.256,1.776,0.584,3.663,0.84,5.439c1.148-0.195,2.594-0.64,3.742-0.835
						c0.087,1.144,0.174,2.288,0.262,3.433"/>
					<path style="fill:none;stroke:#010100;stroke-linecap:round;stroke-linejoin:round;stroke-miterlimit:10;" d="M283.335,71.925
						c2.107-0.456,4.215-0.913,6.322-1.369"/>
					<path style="fill:none;stroke:#010100;stroke-linecap:round;stroke-linejoin:round;stroke-miterlimit:10;" d="M284.691,63.125
						c0.577-0.055,1.155-0.11,1.732-0.165"/>
				</g>
				<g>
					<path style="fill:none;stroke:#010100;stroke-linecap:round;stroke-linejoin:round;stroke-miterlimit:10;" d="M300.365,57.283
						c-1.358,1.379-2.716,2.759-4.074,4.138c1.671,0.413,3.342,0.826,5.012,1.239c0.551-1.372,1.138-2.756,1.689-4.128
						c0.549,3.16,1.098,6.321,1.647,9.482"/>
					<path style="fill:none;stroke:#010100;stroke-linecap:round;stroke-linejoin:round;stroke-miterlimit:10;" d="M298.823,66.174
						c0.909-0.206,1.819-0.412,2.728-0.619"/>
				</g>
				<g>
					<path style="fill:none;stroke:#010100;stroke-linecap:round;stroke-linejoin:round;stroke-miterlimit:10;" d="M306.744,81.373
						c-2.188,0.137-4.376,0.274-6.564,0.411c1.539-1.727,3.079-3.453,4.618-5.18C305.305,78.103,306.237,79.875,306.744,81.373z"/>
					<path style="fill:none;stroke:#010100;stroke-linecap:round;stroke-linejoin:round;stroke-miterlimit:10;" d="M301.298,84.379
						c1.653-0.131,3.305-0.262,4.958-0.393"/>
					<path style="fill:none;stroke:#010100;stroke-linecap:round;stroke-linejoin:round;stroke-miterlimit:10;" d="M300.306,75.947
						c0.455,0.289,0.909,0.579,1.364,0.868"/>
				</g>
				<g>
					<path style="fill:none;stroke:#010100;stroke-linecap:round;stroke-linejoin:round;stroke-miterlimit:10;" d="M291.494,86.517
						c-1.805-0.488-3.61-0.977-5.415-1.465c1.383-0.628,2.766-1.255,4.148-1.883c-1.806-1.133-3.613-2.267-5.419-3.4
						c1.912-0.622,3.945-0.87,5.95-0.726c0.002-0.537,0.062-1.443,0.065-1.98"/>
					<path style="fill:none;stroke:#010100;stroke-linecap:round;stroke-linejoin:round;stroke-miterlimit:10;" d="M293.239,80.659
						c0,0.703,0,1.405,0,2.108"/>
				</g>
			</g>
		</g>
		<g>
			<path style="fill:#EFE000;" d="M82.217,376.82l-13.101,21.671c-1.025,1.695,0.166,3.865,2.146,3.912l60.486,1.42
				c0,0,1.799,5.871,7.998,3.773l38.64,53.125c1.364,1.876,4.226,1.657,5.29-0.404l34.539-66.924
				c0.857-1.66,0.799-3.643-0.152-5.251l-21.004-35.502L82.217,376.82z"/>
			<g>
				<path style="fill:#FFFFFF;" d="M228.781,366.572c0,0-29.224-30.1-57.27-26.583c0,0,8.662-21.498-1.013-47.178l-9.1,18.398
					c-5.472-7.736-13.886-14.922-26.865-18.398l-13.892,26.244c-4.877-0.218-8.04-0.119-8.04-0.119L74.761,383.49l0.674,5.931
					l61.183,12.877l48.861,39.205l6.531-8.251l2.464-5.945c0.535,0.491,1.061,0.961,1.604,1.469L228.781,366.572z"/>
				<path style="fill:none;stroke:#010100;stroke-linecap:round;stroke-linejoin:round;stroke-miterlimit:10;" d="M171.511,339.989
					l-31.23,58.163c0,0,6.958-21.608-4.476-37.507l25.593-49.436"/>
				<path style="fill:none;stroke:#010100;stroke-linecap:round;stroke-linejoin:round;stroke-miterlimit:10;" d="M120.641,319.056
					l-23.741,45.833c0,0,36.974-2.227,43.382,33.264c0,0,16.43-3.031,54.193,29.155"/>
				<path style="fill:none;stroke:#010100;stroke-linecap:round;stroke-linejoin:round;stroke-miterlimit:10;" d="M192.01,433.253
					c0,0-23.81-23.632-51.729-35.1c0,0-26.233-12.184-65.52-14.662"/>
				<path style="fill:none;stroke:#010100;stroke-linecap:round;stroke-linejoin:round;stroke-miterlimit:10;" d="M134.453,401.487
					c0.11-1.445,1.229-2.757,2.64-3.092c1.41-0.336,3.001,0.331,3.75,1.572c0.749,1.241,0.598,2.959-0.355,4.05"/>
				<path style="fill:none;stroke:#010100;stroke-linecap:round;stroke-linejoin:round;stroke-miterlimit:10;" d="M77.69,387.547
					c19.654,1.069,39.165,4.73,57.87,10.857"/>
				<path style="fill:none;stroke:#010100;stroke-linecap:round;stroke-linejoin:round;stroke-miterlimit:10;" d="M113.764,395.38
					c6.961,0.995,13.826,2.654,20.473,4.948"/>
				<path style="fill:none;stroke:#010100;stroke-linecap:round;stroke-linejoin:round;stroke-miterlimit:10;" d="M141.648,403.484
					c7.263,5.566,14.526,11.133,21.789,16.699"/>
				<path style="fill:none;stroke:#010100;stroke-linecap:round;stroke-linejoin:round;stroke-miterlimit:10;" d="M141.883,400.854
					c16.614,9.431,32.164,21.111,46.185,34.69"/>
				<path style="fill:none;stroke:#010100;stroke-linecap:round;stroke-linejoin:round;stroke-miterlimit:10;" d="M165.719,421.846
					c4.872,3.629,9.745,7.258,14.617,10.887"/>
				<g>
					<path style="fill:none;stroke:#010100;stroke-linecap:round;stroke-linejoin:round;stroke-miterlimit:10;" d="M141.486,358.693
						c3.809,7.582,5.251,16.332,4.076,24.736"/>
					<path style="fill:none;stroke:#010100;stroke-linecap:round;stroke-linejoin:round;stroke-miterlimit:10;" d="M149.927,366.207
						c0.177,3.245,0.012,6.509-0.501,9.718"/>
					<path style="fill:none;stroke:#010100;stroke-linecap:round;stroke-linejoin:round;stroke-miterlimit:10;" d="M145.998,349.893
						c1.413,3.158,2.459,6.479,3.125,9.874"/>
					<path style="fill:none;stroke:#010100;stroke-linecap:round;stroke-linejoin:round;stroke-miterlimit:10;" d="M150.511,341.094
						c2.863,7.179,4.014,15.022,3.379,22.723"/>
					<path style="fill:none;stroke:#010100;stroke-linecap:round;stroke-linejoin:round;stroke-miterlimit:10;" d="M158.154,350.159
						c0.025,3.607-0.307,7.217-0.999,10.758"/>
					<path style="fill:none;stroke:#010100;stroke-linecap:round;stroke-linejoin:round;stroke-miterlimit:10;" d="M155.024,332.294
						c1.357,3.814,2.275,7.779,2.753,11.799"/>
					<path style="fill:none;stroke:#010100;stroke-linecap:round;stroke-linejoin:round;stroke-miterlimit:10;" d="M162.189,338.008
						c0.284,5.158-0.103,10.35-1.169,15.406"/>
					<path style="fill:none;stroke:#010100;stroke-linecap:round;stroke-linejoin:round;stroke-miterlimit:10;" d="M159.536,323.494
						c0.88,2.776,1.554,5.618,2.009,8.494"/>
					<path style="fill:none;stroke:#010100;stroke-linecap:round;stroke-linejoin:round;stroke-miterlimit:10;" d="M164.049,314.695
						c2.547,9.022,3.062,18.605,1.499,27.848"/>
					<path style="fill:none;stroke:#010100;stroke-linecap:round;stroke-linejoin:round;stroke-miterlimit:10;" d="M170.592,320.772
						c0.108,4.268-0.181,8.54-0.863,12.755"/>
					<path style="fill:none;stroke:#010100;stroke-linecap:round;stroke-linejoin:round;stroke-miterlimit:10;" d="M168.562,305.895
						c0.722,2.874,1.258,5.795,1.597,8.739"/>
				</g>
				<g>
					<path style="fill:none;stroke:#010100;stroke-linecap:round;stroke-linejoin:round;stroke-miterlimit:10;" d="M206.649,356.796
						c3.69,2.354,7.185,5.014,10.424,7.958"/>
					<path style="fill:none;stroke:#010100;stroke-linecap:round;stroke-linejoin:round;stroke-miterlimit:10;" d="M173.864,345.104
						c9.66,1.105,19.08,4.102,27.65,8.688"/>
					<path style="fill:none;stroke:#010100;stroke-linecap:round;stroke-linejoin:round;stroke-miterlimit:10;" d="M170.337,351.94
						c17.781,2.233,34.724,10.739,47.137,23.666"/>
					<path style="fill:none;stroke:#010100;stroke-linecap:round;stroke-linejoin:round;stroke-miterlimit:10;" d="M184.941,363.488
						c7.586,2.944,14.736,7.005,21.133,12.035"/>
					<path style="fill:none;stroke:#010100;stroke-linecap:round;stroke-linejoin:round;stroke-miterlimit:10;" d="M166.809,358.777
						c4.134,0.572,8.222,1.468,12.217,2.675"/>
					<path style="fill:none;stroke:#010100;stroke-linecap:round;stroke-linejoin:round;stroke-miterlimit:10;" d="M197.276,378.766
						c4.513,3.001,8.736,6.439,12.576,10.264"/>
					<path style="fill:none;stroke:#010100;stroke-linecap:round;stroke-linejoin:round;stroke-miterlimit:10;" d="M163.282,365.614
						c9.929,1.485,19.573,4.813,28.338,9.703"/>
					<path style="fill:none;stroke:#010100;stroke-linecap:round;stroke-linejoin:round;stroke-miterlimit:10;" d="M172.637,375.586
						c9.211,3.019,17.905,7.582,25.621,13.449"/>
					<path style="fill:none;stroke:#010100;stroke-linecap:round;stroke-linejoin:round;stroke-miterlimit:10;" d="M159.754,372.45
						c2.496,0.404,4.973,0.921,7.423,1.546"/>
					<path style="fill:none;stroke:#010100;stroke-linecap:round;stroke-linejoin:round;stroke-miterlimit:10;" d="M183.088,388.608
						c6.954,3.745,13.42,8.398,19.141,13.847"/>
					<path style="fill:none;stroke:#010100;stroke-linecap:round;stroke-linejoin:round;stroke-miterlimit:10;" d="M156.227,379.287
						c6.584,1.146,13.032,3.055,19.19,5.65"/>
					<path style="fill:none;stroke:#010100;stroke-linecap:round;stroke-linejoin:round;stroke-miterlimit:10;" d="M152.699,386.124
						c13.404,2.502,26.213,8.056,37.242,16.067"/>
					<path style="fill:none;stroke:#010100;stroke-linecap:round;stroke-linejoin:round;stroke-miterlimit:10;" d="M176.692,403.066
						c4.543,2.516,8.886,5.397,12.961,8.617"/>
					<path style="fill:none;stroke:#010100;stroke-linecap:round;stroke-linejoin:round;stroke-miterlimit:10;" d="M149.171,392.961
						c6.816,1.36,13.477,3.48,19.833,6.289"/>
				</g>
				<g>
					<path style="fill:none;stroke:#010100;stroke-linecap:round;stroke-linejoin:round;stroke-miterlimit:10;" d="M137.784,377.277
						c1.935,2.956,3.491,6.154,4.603,9.508"/>
					<path style="fill:none;stroke:#010100;stroke-linecap:round;stroke-linejoin:round;stroke-miterlimit:10;" d="M117.865,361.435
						c6.072,2.259,11.592,5.936,15.958,10.729"/>
					<path style="fill:none;stroke:#010100;stroke-linecap:round;stroke-linejoin:round;stroke-miterlimit:10;" d="M105.214,358.925
						c2.357,0.082,4.705,0.374,7.011,0.867"/>
					<path style="fill:none;stroke:#010100;stroke-linecap:round;stroke-linejoin:round;stroke-miterlimit:10;" d="M109.009,351.558
						c12.597,0.701,24.336,7.555,31.197,18.124"/>
					<path style="fill:none;stroke:#010100;stroke-linecap:round;stroke-linejoin:round;stroke-miterlimit:10;" d="M131.715,350.874
						c2.141,1.455,4.138,3.12,5.948,4.971"/>
					<path style="fill:none;stroke:#010100;stroke-linecap:round;stroke-linejoin:round;stroke-miterlimit:10;" d="M112.803,344.191
						c3.771,0.305,7.487,1.168,11.014,2.536"/>
					<path style="fill:none;stroke:#010100;stroke-linecap:round;stroke-linejoin:round;stroke-miterlimit:10;" d="M116.597,336.825
						c9.283,0.989,18.05,5.433,24.358,12.309"/>
					<path style="fill:none;stroke:#010100;stroke-linecap:round;stroke-linejoin:round;stroke-miterlimit:10;" d="M137.525,336.327
						c2.527,1.814,4.836,3.932,6.852,6.301"/>
					<path style="fill:none;stroke:#010100;stroke-linecap:round;stroke-linejoin:round;stroke-miterlimit:10;" d="M120.392,329.458
						c4.238,0.585,8.362,1.897,12.171,3.843"/>
					<path style="fill:none;stroke:#010100;stroke-linecap:round;stroke-linejoin:round;stroke-miterlimit:10;" d="M124.186,322.091
						c9.191,1.584,17.615,6.607,23.437,13.883"/>
					<path style="fill:none;stroke:#010100;stroke-linecap:round;stroke-linejoin:round;stroke-miterlimit:10;" d="M138.242,318.52
						c5.079,2.748,9.544,6.619,12.961,11.277"/>
					<path style="fill:none;stroke:#010100;stroke-linecap:round;stroke-linejoin:round;stroke-miterlimit:10;" d="M127.98,314.724
						c1.51,0.323,2.999,0.738,4.459,1.242"/>
					<path style="fill:none;stroke:#010100;stroke-linecap:round;stroke-linejoin:round;stroke-miterlimit:10;" d="M131.775,307.357
						c9.267,2.433,17.508,8.272,22.915,16.176"/>
					<path style="fill:none;stroke:#010100;stroke-linecap:round;stroke-linejoin:round;stroke-miterlimit:10;" d="M154.482,312.367
						c1.263,1.428,2.431,2.938,3.491,4.523"/>
					<path style="fill:none;stroke:#010100;stroke-linecap:round;stroke-linejoin:round;stroke-miterlimit:10;" d="M135.569,299.99
						c5.265,1.688,10.18,4.437,14.41,7.993"/>
				</g>
			</g>
		</g>
	</g>
</g>
</svg>
