<?xml version="1.0" encoding="utf-8"?>
<!-- Generator: Adobe Illustrator 27.5.0, SVG Export Plug-In . SVG Version: 6.00 Build 0)  -->
<svg version="1.1" xmlns="http://www.w3.org/2000/svg" xmlns:xlink="http://www.w3.org/1999/xlink" x="0px" y="0px"
	 viewBox="0 0 750 500" style="enable-background:new 0 0 750 500;" xml:space="preserve">
<g id="BACKGROUND">
	<rect style="fill:#F5D1C4;" width="750" height="500"/>
</g>
<g id="OBJECTS">
	<g>
		<g>
			<path style="fill:none;stroke:#D36629;stroke-width:1.5;stroke-linejoin:round;stroke-miterlimit:10;" d="M531.364,282.798
				c-19.994,47.416-36.23,96.415-48.523,146.384"/>
			
				<ellipse transform="matrix(0.6095 -0.7928 0.7928 0.6095 -1.6341 533.2792)" style="fill:#EFB166;" cx="540.468" cy="268.298" rx="22.868" ry="22.868"/>
			<path style="fill:none;stroke:#FCE285;stroke-miterlimit:10;" d="M528.124,249.035c5.991,4.189,10.149,10.239,14.075,16.367
				c4.396,6.863,8.179,14.138,11.285,21.703"/>
			<path style="fill:none;stroke:#FCE285;stroke-miterlimit:10;" d="M542.199,265.402c0,0,4.124-7.829,18.285-8.172"/>
			<path style="fill:none;stroke:#FCE285;stroke-miterlimit:10;" d="M535.439,245.988c0,0,11.156,1.434,17.478,12.286"/>
			<path style="fill:#D36629;" d="M512.661,329.265c-2.899-3.776-5.834-7.617-7.582-12.045c-1.747-4.428-2.179-9.602-0.062-13.866
				c0.272-0.547,0.632-1.116,1.211-1.307c0.797-0.263,1.622,0.298,2.21,0.897c3.19,3.252,3.82,8.157,4.264,12.691
				c0.279,2.858,0.688,8.616,0.952,11.476"/>
			<path style="fill:#D36629;" d="M518.536,314.704c4.687-0.835,9.444-1.692,13.72-3.785s8.083-5.622,9.394-10.199
				c0.168-0.587,0.286-1.25-0.013-1.782c-0.411-0.732-1.399-0.874-2.237-0.828c-4.548,0.251-8.321,3.449-11.705,6.498
				c-2.133,1.922-6.317,5.9-8.44,7.833"/>
		</g>
		<g>
			<path style="fill:none;stroke:#D36629;stroke-width:1.5;stroke-linejoin:round;stroke-miterlimit:10;" d="M620.298,446.267
				c7.783-21.193,32.955-72.001,61.433-95.845"/>
			<path style="fill:#D36629;" d="M641.221,401.266c-1.375-8.146-1.015-16.58,1.05-24.579c0.709-2.747,1.695-5.568,3.783-7.488
				c0.488-0.449,1.233-0.849,1.773-0.464c0.214,0.153,0.338,0.4,0.446,0.64c1.353,3.009,1.427,6.431,1.192,9.722
				c-0.325,4.545-3.503,12.592-4.898,16.93"/>
			<path style="fill:#D36629;" d="M652.495,385.821c7.837-1.989,16.534,0.96,24.017-2.104c1.602-0.656,3.327-2.083,2.893-3.759
				c-0.374-1.443-2.096-2.01-3.569-2.239c-6.761-1.049-13.841,0.065-19.952,3.141"/>
			<g>
				
					<ellipse transform="matrix(0.8655 -0.5008 0.5008 0.8655 -86.3808 384.7632)" style="fill:#FCE285;" cx="673.408" cy="353.261" rx="13.213" ry="13.213"/>
				<path style="fill:none;stroke:#FFF1C5;stroke-miterlimit:10;" d="M672.765,340.569c2.456,3.794,3.406,8.47,2.982,12.969
					c-0.424,4.5-2.171,8.821-4.696,12.57"/>
				<path style="fill:none;stroke:#FFF1C5;stroke-miterlimit:10;" d="M675.898,352.556c1.807-0.214,3.623-0.427,5.441-0.368
					c1.819,0.06,3.656,0.404,5.267,1.25"/>
				<path style="fill:none;stroke:#FFF1C5;stroke-miterlimit:10;" d="M675.143,344.427c3.716-0.052,8.399,2.063,8.621,7.962"/>
			</g>
		</g>
		<g>
			<path style="fill:none;stroke:#E88838;stroke-width:1.5;stroke-miterlimit:10;" d="M472.66,391.505
				c-2.598-24.42-2.474-86.098,13.844-123.058"/>
			<path style="fill:#E88838;" d="M471.432,337.537c-5.259-7.286-8.964-15.689-10.797-24.486c-0.629-3.021-1.024-6.247,0.09-9.125
				c0.26-0.673,0.795-1.422,1.507-1.305c0.283,0.046,0.522,0.227,0.743,0.41c2.767,2.285,4.485,5.588,5.838,8.912
				c1.869,4.591,2.639,13.97,3.364,18.874"/>
			<path style="fill:#E88838;" d="M475.004,317.046c6.69-5.71,16.593-7.015,22.42-13.603c1.248-1.41,2.244-3.633,1.015-5.059
				c-1.059-1.228-3.011-0.953-4.559-0.468c-7.101,2.228-13.473,6.72-17.956,12.66"/>
			<g>
				<path style="fill:#FCE285;" d="M495.281,270.132c2.81,7.424-0.93,15.72-8.354,18.53c-7.424,2.81-15.72-0.93-18.53-8.354
					c-2.81-7.424,0.93-15.72,8.354-18.53C484.174,258.968,492.471,262.708,495.281,270.132z"/>
				<path style="fill:none;stroke:#FFF1C5;stroke-miterlimit:10;" d="M475.107,263.147c4.221,2.521,7.396,6.625,9.147,11.219
					c1.75,4.594,2.124,9.651,1.464,14.523"/>
				<path style="fill:none;stroke:#FFF1C5;stroke-miterlimit:10;" d="M483.929,273.336c1.661-1.078,3.329-2.159,5.132-2.976
					c1.803-0.817,3.761-1.364,5.74-1.314"/>
				<path style="fill:none;stroke:#FFF1C5;stroke-miterlimit:10;" d="M479.283,265.767c3.6-1.838,9.187-2.027,12.24,3.622"/>
			</g>
		</g>
		<g>
			<path style="fill:#83B3A4;" d="M440.161,446.996c28.381-37.942,68.51-113.468,95.407-132.149
				c3.145-2.184,6.46-4.306,10.209-5.087c3.749-0.78,8.056,0.043,10.53,2.965c1.568,1.852,2.229,4.297,2.652,6.687
				c2.445,13.804-1.639,27.938-7.072,40.861c-5.433,12.923-12.285,25.347-15.819,38.913c4.365-6.109,11.145-10.442,18.523-11.838
				c4.164-0.788,9.174-0.323,11.576,3.169c1.412,2.053,1.583,4.687,1.655,7.178c0.142,4.936,0.074,9.879-0.203,14.809
				c5.251-4.959,9.011-11.25,13.383-16.999c8.676-11.41,19.954-20.828,32.728-27.33c10.835-5.515,22.1-6.701,20.894,9.017
				c-1.28,16.687-12.398,30.509-17.884,45.839c5.708-11.958,21.094-18.255,33.548-13.73c12.454,4.525,18.955,20.626,11.522,37.12"/>
			<path style="fill:none;stroke:#477B7C;stroke-width:1.5;stroke-linejoin:round;stroke-miterlimit:10;" d="M542.675,339.227
				c-22.346,34.614-40.6,68.614-57.467,107.039"/>
			<path style="fill:none;stroke:#477B7C;stroke-width:1.5;stroke-linejoin:round;stroke-miterlimit:10;" d="M568.152,411.783
				c-8.586,9.625-15.93,20.358-21.791,31.848"/>
			<path style="fill:none;stroke:#477B7C;stroke-width:1.5;stroke-linejoin:round;stroke-miterlimit:10;" d="M614.402,388.085
				c-15.134,17.714-30.057,38.682-41.837,58.783"/>
			<path style="fill:none;stroke:#477B7C;stroke-width:1.5;stroke-linejoin:round;stroke-miterlimit:10;" d="M651.194,417.267
				c-9.782,8.927-18.559,18.955-26.113,29.832"/>
			<g>
				<path style="fill:#6BA592;" d="M504.008,330.44c-14.762-3.454-26.916,13.349-35.659,32.21
					c-8.743,18.862-36.152,84.305-36.152,84.305l35.73-0.411c0,0,13.662-25.017,30.388-61.999
					C508.78,361.406,515.713,333.178,504.008,330.44z"/>
				
					<line style="fill:none;stroke:#477B7C;stroke-width:1.5;stroke-linejoin:round;stroke-miterlimit:10;" x1="492.374" y1="351.661" x2="444.956" y2="446.369"/>
			</g>
		</g>
		<g>
			<path style="fill:none;stroke:#D36629;stroke-width:1.5;stroke-linejoin:round;stroke-miterlimit:10;" d="M623.499,296.652
				c-33.873,45.814-62.819,95.267-86.179,147.235"/>
			
				<ellipse transform="matrix(0.7797 -0.6261 0.6261 0.7797 -40.095 459.8249)" style="fill:#FCE285;" cx="633.506" cy="286.9" rx="18.664" ry="18.664"/>
			<path style="fill:none;stroke:#FFF1C5;stroke-miterlimit:10;" d="M627.415,269.249c3.947,4.474,6.084,10.072,8.02,15.686
				c2.168,6.288,3.771,12.785,4.782,19.383"/>
			<path style="fill:none;stroke:#FFF1C5;stroke-miterlimit:10;" d="M635.435,284.935c0,0,4.775-5.418,16.073-2.97"/>
			<path style="fill:none;stroke:#FFF1C5;stroke-miterlimit:10;" d="M633.802,268.237c0,0,8.573,3.281,11.504,13.103"/>
			<path style="fill:#D36629;" d="M599.738,329.917c-1.574-3.552-3.165-7.163-3.7-11.011s0.116-8.035,2.615-11.01
				c0.32-0.382,0.715-0.764,1.212-0.804c0.683-0.056,1.23,0.548,1.581,1.136c1.905,3.192,1.463,7.204,0.944,10.885
				c-0.327,2.32-1.109,6.967-1.449,9.285"/>
			<path style="fill:#D36629;" d="M580.873,360.912c-2.32-5.236-4.665-10.558-5.454-16.231c-0.789-5.673,0.171-11.844,3.854-16.23
				c0.472-0.563,1.054-1.126,1.786-1.185c1.006-0.082,1.813,0.807,2.33,1.674c2.809,4.705,2.157,10.62,1.391,16.046
				c-0.482,3.421-1.635,10.27-2.136,13.687"/>
			<path style="fill:#D36629;" d="M553.783,409.491c-2.584-4.722-3.919-10.108-5.069-15.328c-1.049-4.765-2.424-9.499-2.813-14.387
				c-0.363-4.551-0.072-9.201,0.96-13.653c0.678-2.924,2.373-6.872,5.879-7.009c1.636-0.064,2.994,1.208,3.879,2.436
				c4.807,6.662,4.032,14.834,3.049,22.322c-0.62,4.721-2.166,14.163-2.816,18.879"/>
			<path style="fill:#D36629;" d="M607.194,319.496c3.878,0.238,7.816,0.472,11.61-0.366c3.794-0.839,7.492-2.907,9.411-6.285
				c0.246-0.433,0.467-0.936,0.332-1.416c-0.186-0.659-0.942-0.962-1.615-1.086c-3.656-0.674-7.263,1.137-10.533,2.906
				c-2.061,1.115-6.144,3.466-8.2,4.592"/>
			<path style="fill:#D36629;" d="M587.453,351.012c5.716,0.351,11.522,0.696,17.114-0.54c5.592-1.236,11.043-4.285,13.872-9.265
				c0.363-0.639,0.688-1.381,0.489-2.088c-0.274-0.972-1.388-1.418-2.381-1.601c-5.389-0.994-10.706,1.677-15.526,4.284
				c-3.038,1.643-9.057,5.109-12.087,6.769"/>
			<path style="fill:#D36629;" d="M565.822,387.127c7.977,0.49,16.078,0.971,23.882-0.753c7.804-1.725,15.411-5.98,19.358-12.93
				c0.506-0.891,0.96-1.927,0.682-2.913c-0.382-1.356-1.937-1.979-3.323-2.234c-7.52-1.388-14.94,2.34-21.666,5.978
				c-4.24,2.293-12.639,7.13-16.867,9.446"/>
		</g>
	</g>
	<g>
		<g>
			<path style="fill:#FFEAD4;" d="M279.379,264.827c-6.221-1.172-11.619-5.518-14.696-11.051c-3.077-5.532-3.952-12.13-3.119-18.405
				c0.772-5.812,3.149-11.671,7.754-15.3c0.715-0.563,1.498-1.092,1.96-1.876c1.371-2.331-0.735-5.06-2.239-7.307
				c-3.824-5.709-4.015-13.435-1.218-19.712c2.797-6.276,8.297-11.121,14.565-13.938c2.783-1.251,5.766-2.158,8.226-3.963
				c2.684-1.969,4.535-4.856,6.141-7.772c4.127-7.495,7.183-15.822,13.253-21.853c5.132-5.099,12.24-8.156,19.471-8.375
				c3.883-0.117,9.556,0.313,9.556,0.313s5.595-1.863,9.229-2.561c8.412-1.618,16.989,0.158,22.943,2.799
				c7.218,3.201,14.048,7.981,17.918,14.864c3.87,6.883,4.169,16.131-0.743,22.314c3.939,3.526,4.712,9.837,9.06,12.846
				c5.449,3.77,12.895,0.266,19.471,1.079c5.908,0.731,11.115,5.437,12.439,11.24c0.475,2.084,0.556,4.411,1.964,6.019
				c1.368,1.562,3.585,1.975,5.59,2.514c7.907,2.123,15.005,7.988,17.442,15.805c2.437,7.816-0.562,17.323-7.66,21.405"/>
			<path style="fill:#EA6E86;" d="M327.724,202.367l-3.051,17.355l-17.102,7.131c0,0,26.429,49.643,38.349,49.875
				c11.92,0.232,48.058-67.088,48.058-67.088l-17.348,5.988l-5.7-13.261"/>
			<path style="fill:#EA6E86;" d="M382.072,189.527c-0.714-3.362-2.198-6.503-3.671-9.609c-4.192-8.842-7.895-17.821-15.233-24.618
				c-2.37-2.195-4.917-4.235-7.786-5.72c-3.956-2.048-8.479-2.957-12.921-2.66c-0.009,3.676-0.368,7.352-1.059,10.961
				c-1.449,7.562-4.299,14.958-8.688,21.309c-2.443,3.535-6.023,6.933-10.112,9.025c1.683,6.655,5.296,12.723,10.172,17.909
				c10.651,11.325,35.381,14.392,46.02,2.42C383.072,203.728,383.393,195.753,382.072,189.527z"/>
			<path style="fill:none;stroke:#1C1212;stroke-miterlimit:10;" d="M361.537,170.01c1.231,3.124,2.966,6.018,5.135,8.567
				c0.971,1.141,2.129,2.366,2.105,4.016c-0.023,1.602-1.988,2.842-3.553,2.99"/>
			<path style="fill:#1C1212;" d="M371.64,170.688c1.154,1.61,1.241,3.523,0.193,4.274c-1.047,0.75-2.832,0.054-3.986-1.556
				c-1.154-1.61-1.24-3.523-0.193-4.274C368.702,168.381,370.486,169.078,371.64,170.688z"/>
			<path style="fill:#1C1212;" d="M347.817,176.611c1.154,1.61,1.24,3.524,0.193,4.274c-1.047,0.75-2.832,0.054-3.985-1.556
				c-1.154-1.61-1.241-3.523-0.193-4.274C344.878,174.304,346.663,175.001,347.817,176.611z"/>
			<path style="fill:#1C1212;" d="M337.339,166.501c0.326-0.294,0.669-0.57,1.024-0.827c1.022-0.737,3.919-2.734,4.972-1.413
				c1.479,1.855-1.438,3.202-2.608,3.984c-1.051,0.703-1.812,1.631-2.886,2.313c-0.919,0.583-1.854,1.131-2.81,1.65
				c-0.124,0.067-0.258,0.137-0.399,0.124c-0.809-0.074-0.186-1.865-0.019-2.214C335.272,168.747,336.21,167.517,337.339,166.501z"
				/>
			<path style="fill:#1C1212;" d="M364.304,157.825c-1.063-0.05-2.206,0.26-3.009,1.037c-0.676,0.653-1.613,2.053-0.254,2.525
				c0.93,0.323,2.021-0.081,2.945-0.248c1.167-0.21,2.368-0.31,3.552-0.339c0.414-0.01,1.654-0.236,1.228-0.985
				C367.999,158.47,365.471,157.88,364.304,157.825z"/>
			<path style="fill:none;stroke:#1C1212;stroke-miterlimit:10;" d="M360.994,192.832c2.586-2.487,6.421-3.603,9.937-2.891"/>
			<g>
				<path style="fill:#EA6E86;" d="M322.934,188.132c-3.067,1.353-5.321,4.551-5.394,7.885c-0.147,6.758,5.505,13.028,12.433,13.602
					c3.485,0.288,8.393-2.322,7.904-6.438c-0.23-1.934-2.053-3.986-3.027-5.62C332.468,193.566,329.034,185.44,322.934,188.132z"/>
				<path style="fill:none;stroke:#1C1212;stroke-width:1.5;stroke-miterlimit:10;" d="M323.327,207.117
					c3.065,2.139,5.56,2.612,8.488,2.324c3.655-0.36,7.665-4.323,5.44-8.112"/>
				
					<line style="fill:none;stroke:#1C1212;stroke-width:1.5;stroke-miterlimit:10;" x1="321.198" y1="195.503" x2="332.125" y2="200.606"/>
				<path style="fill:none;stroke:#1C1212;stroke-width:1.5;stroke-miterlimit:10;" d="M322.291,188.468
					c1.464-0.705,3.153-0.935,4.753-0.648c1.6,0.287,3.103,1.09,4.23,2.261"/>
			</g>
			<path style="fill:none;stroke:#1C1212;stroke-width:1.5;stroke-miterlimit:10;" d="M344.9,213.104
				c8.981,4.395,20.257,4.015,30.346-0.698"/>
		</g>
		<g>
			<path style="fill:#A03C62;" d="M321.198,221.171c0,0-6.383-0.266-12.879,0.249c-9.537,0.757-16.959,4.232-24.177,10.512
				c-11.724,10.2-22.876,22.486-34.38,44.407l36.823,26.102l33.189-37.613"/>
			<path style="fill:#A03C62;" d="M382.487,212.616c8.643-4.968,15.212-6.706,24.834-5.686
				c24.407,2.587,38.917,35.781,49.233,59.819c10.915,25.433,24.699,94.459,24.414,98.967l-170.485-25.229
				c0,0,6.852-26.096-0.836-43.888c-7.688-17.793-13.945-41.028-12.299-50.169c1.646-9.14,12.299-21.506,12.299-21.506l11.549-3.753
				c0,0,14.636,28.153,22.312,31.562C351.186,256.143,382.487,212.616,382.487,212.616z"/>
			<path style="fill:none;stroke:#1C1212;stroke-miterlimit:10;" d="M303.188,255.108c-0.83,9.616-0.702,19.315,0.381,28.906"/>
		</g>
		<g>
			<g>
				<path style="fill:#4C3756;" d="M480.969,362.766l-24.74-15.786l-32.886-28.268l-102.145,64.142
					c22.34,39.061,37.446,64.142,59.229,64.142c8.484,0,6.416,0,47.747,0s50.325-29.501,52.795-42.21
					C485.232,382.854,480.969,362.766,480.969,362.766z"/>
				<path style="fill:none;stroke:#1C1212;stroke-miterlimit:10;" d="M456.555,347.302c4.888,5.016,13.353,12.622,19.511,25.244"/>
				<g>
					<defs>
						<path id="SVGID_1_" d="M480.969,362.766l-24.74-15.786l-32.886-28.268l-102.145,64.142
							c22.34,39.061,37.446,64.142,59.229,64.142c8.484,0,6.416,0,47.747,0s50.325-29.501,52.795-42.21
							C485.232,382.854,480.969,362.766,480.969,362.766z"/>
					</defs>
					<clipPath id="SVGID_00000018235911670065436580000001173068359952552097_">
						<use xlink:href="#SVGID_1_"  style="overflow:visible;"/>
					</clipPath>
					<g style="clip-path:url(#SVGID_00000018235911670065436580000001173068359952552097_);">
						<path style="fill:none;stroke:#614770;stroke-miterlimit:10;" d="M400.914,336.425c3.211,7.738,8.222,18.147,17.609,20.714
							c6.236,1.705,9.761-2.769,9.376-8.141c-0.386-5.388-1.929-11.11-7.303-13.979c-0.517-0.276-1.082-0.524-1.681-0.511
							c-3.548,0.08,1.582,6.83,2.354,7.862c3.72,4.973,8.927,9.508,15.04,11.728c8.567,3.111,14.582-0.74,14.804-9.249
							c0.058-2.238,0.117-4.476,0.175-6.715"/>
						<path style="fill:none;stroke:#614770;stroke-miterlimit:10;" d="M367.786,353.495c8.473-0.839,17.086,0.969,24.961,5.238
							c3.625,1.965,7.141,4.489,9.957,8.125c2.129,2.749,2.334,7.089,1.159,10.213c-2.6,6.914-15.013,7.171-21.379,6.728
							c-5.938-0.413-12.339-2.137-15.654-6.767c-0.291-0.406-0.564-0.884-0.452-1.361c0.193-0.822,1.312-1.054,2.211-1.087
							c7.807-0.284,15.672,1.921,22.09,6.079c6.004,3.89,12.515,10.361,11.673,17.75c-0.492,4.315-3.695,7.083-6.772,8.516
							c-3.905,1.819-8.065,2.419-12.193,2.722c-17.203,1.265-34.371-2.395-51.383-6.043"/>
						<path style="fill:none;stroke:#614770;stroke-miterlimit:10;" d="M362.216,455.024c20.948,5.32,44.342,1.458,62.082-10.25
							c3.114-2.055,6.095-4.355,9.58-5.797c4.881-2.019,10.4-2.207,15.723-1.854c11.969,0.792,23.733,4.185,34.102,9.837
							c-2.928-8.394-11.597-13.865-20.342-17.175c-6.708-2.54-13.764-4.193-20.415-6.872c-5.883-2.369-12.284-4.345-17.356-8.165
							c-3.253-2.449-6.819-4.972-8.643-8.6c-1.168-2.325-1.326-5.254,0.265-7.347c1.826-2.402,5.3-3.058,8.443-3.246
							c10.128-0.604,20.436,1.751,29.127,6.657c0.861,0.486,1.829,1.271,1.552,2.177c-1.073,3.501-8.154,1.375-10.507,0.707
							c-5.553-1.576-14.758-6.381-11.204-13.19c1.685-3.229,6.004-4.255,9.808-4.741c11.262-1.44,22.701-1.325,34.027-0.43
							c2.559,0.202,5.167,0.457,7.505,1.452c0.93,0.396,1.933,1.146,1.757,2.088c-0.183,0.979-1.465,1.341-2.52,1.452
							c-3.715,0.39-7.63,0.114-10.915-1.558c-3.284-1.672-5.797-4.946-5.659-8.443c0.106-2.684,1.728-5.171,3.886-6.941
							c2.158-1.77,4.818-2.91,7.5-3.866c13.83-4.927,28.926-5.497,43.714-6.01"/>
					</g>
				</g>
			</g>
			<g>
				<path style="fill:#DB5E73;" d="M328.955,376.664c0,0-9.125,48.831-10.652,54.143c-1.527,5.312,2.002,16.312-6.073,16.312
					c-8.075,0-83.374,0-83.374,0s-8.18,0.163-11.625-0.051c-2.639-0.164-5.879-1.075-8.308-3.061
					c-2.186-1.786-4.044-5.144-2.224-6.526c0.706-0.536,1.778-0.657,2.789-0.814c6.12-0.95,11.065-3.645,15.916-6.307
					c4.078-2.238,11.204-7.616,14.549-10.585c9.154-8.126,18.243-50.383,23.067-66.197c4.824-15.814,16.065-46.416,20.628-55.977
					c6.001-12.574,18.962-27.637,35.915-27.414c7.929,0.105,24.312,0.606,38.661,14.523c14.349,13.917,24.536,24.874,24.536,24.874
					l-28.417,48.708l-20.849-8.929L328.955,376.664z"/>
				<path style="fill:none;stroke:#89364A;stroke-miterlimit:10;" d="M244.116,434.752c-2.144,0.869-4.67,1.27-7.38,1.17
					c-2.084-0.077-4.402-0.425-5.908,0.407c-2.879,1.591,0.379,9.323,7.618,10.319"/>
				<path style="fill:none;stroke:#89364A;stroke-miterlimit:10;" d="M227.796,438.106c-1.199,1.342-4.441,1.209-4.914,2.545
					c-0.35,0.988-0.072,2.295,0.739,3.469c0.81,1.175,2.137,2.196,3.524,2.711"/>
				<path style="fill:none;stroke:#89364A;stroke-miterlimit:10;" d="M223.735,436.96c-1.084,1.175-3.39,1.827-4.89,2.299
					c-0.45,0.141-0.929,0.256-1.276,0.514c-2.36,1.757,0.851,6.419,4.401,7.24"/>
				<path style="fill:none;stroke:#89364A;stroke-miterlimit:10;" d="M216.286,436.96c-1.089,0.49-2.134,1.031-3.133,1.622
					c-1.249,0.738-1.229,2.331-0.538,3.888c0.559,1.258,1.808,3.636,3.581,3.95"/>
				<path style="fill:none;stroke:#89364A;stroke-miterlimit:10;" d="M230.819,436.488c1.434,0.184,2.926,0.866,4.395,1.372
					c1.469,0.506,3.077,0.834,4.108,0.302c0.365-0.188,0.646-0.501,0.629-0.931c-0.017-0.43-0.405-0.979-0.924-1.177"/>
				<path style="fill:none;stroke:#89364A;stroke-miterlimit:10;" d="M223.678,440.349c0.389,0.049,0.779,0.099,1.168,0.148
					c0.654,0.083,1.324,0.166,1.885,0.04c0.56-0.126,0.996-0.507,0.937-1.071c-0.037-0.35-0.375-0.819-0.784-0.883"/>
				<path style="fill:none;stroke:#89364A;stroke-miterlimit:10;" d="M217.208,440.48c0.887,0.172,1.794,0.345,2.583,0.245
					c0.789-0.1,1.448-0.53,1.473-1.253c0.009-0.257-0.117-0.606-0.426-0.763"/>
				<path style="fill:none;stroke:#89364A;stroke-miterlimit:10;" d="M212.553,439.473c0.664,0.271,1.411,0.495,1.903,0.28
					c0.316-0.138,0.474-0.447,0.466-0.8c-0.008-0.353-0.169-0.744-0.41-1.109"/>
				<path style="fill:none;stroke:#89364A;stroke-miterlimit:10;" d="M206.892,437.759c0.339,0.225,0.727,0.314,1.091,0.382
					c0.822,0.152,1.663,0.232,2.293-0.013c0.631-0.245,0.989-0.893,0.652-1.619"/>
				<path style="fill:none;stroke:#89364A;stroke-miterlimit:10;" d="M300.662,424.069c-1.053,1.881-0.896,4.379-1.176,6.652
					c-0.28,2.273-1.199,4.53-3.635,5.06"/>
			</g>
			<path style="fill:#DB5E73;" d="M357.84,270.204c-10.634-0.358-20.702,5.381-27.453,13.081
				c-6.751,7.7-10.681,17.193-14.072,26.635c-11.056,30.793-17.503,62.838-26.1,94.311c-1.679,6.145-3.562,12.494-7.961,17.318
				l74.939,2.222c6.26-17.704,13.097-39.202,19.973-59.929c0,0,32.916-11.287,46.177-45.13c0,0-21.384-21.945-33.721-32.276
				C380.432,278.741,370.162,270.618,357.84,270.204z"/>
			<g>
				<path style="fill:#DB5E73;" d="M304.293,349.364c0,0-8.865,34.029-12.592,47.71c-3.198,11.742-6.969,17.93-16.123,26.056
					c-4.415,3.919-9.898,6.917-16.188,8.791c-2.117,0.631-4.324,1.134-6.611,1.501c-1.68,0.27-3.551,0.162-5.205,0.48
					c-1.411,0.271-2.691,0.825-3.18,1.999c-0.478,1.149-0.277,2.626,0.173,4.051c0.249,0.788,0.634,1.59,1.197,2.348
					c2.232,3.009,6.518,4.554,9.964,4.768c3.446,0.214,11.625,0.051,11.625,0.051s75.298,0,83.374,0
					c8.075,0,4.547-10.999,6.073-16.312c1.526-5.312,13.486-46.035,13.486-46.035"/>
				<path style="fill:none;stroke:#1C1212;stroke-miterlimit:10;" d="M268.463,435.202c-1.539,1.121-3.868,1.318-5.985,1.734
					c-3.497,0.687-6.545,3.568-3.901,7.625c0.59,0.905,1.576,1.759,2.638,2.086"/>
				<path style="fill:none;stroke:#1C1212;stroke-miterlimit:10;" d="M277.827,436.765c-1.9,2.221-6.214,2.292-7.699,4.804
					c-0.816,1.381-0.592,3.408,0.581,5.261"/>
				<path style="fill:none;stroke:#1C1212;stroke-miterlimit:10;" d="M285.506,438.106c-1.511,0.619-3.038,1.248-4.179,2.249
					c-1.142,1.001-1.876,2.428-1.608,4.145c0.118,0.755,0.428,1.549,0.902,2.311"/>
				<path style="fill:none;stroke:#1C1212;stroke-miterlimit:10;" d="M295.642,438.998c-0.985,0.996-3.094,0.876-4.278,1.737
					c-1.747,1.271-3.029,3.74-1.623,6.384"/>
				<path style="fill:none;stroke:#1C1212;stroke-miterlimit:10;" d="M247.106,434.268c1.793,0.224,3.683,1.642,5.479,1.878
					c0.601,0.079,1.156,0.018,1.695-0.056c0.426-0.059,0.856-0.131,1.164-0.341c0.309-0.21,0.477-0.588,0.307-1.013
					c-0.266-0.665-1.161-1.114-1.918-1.413"/>
				<path style="fill:none;stroke:#1C1212;stroke-miterlimit:10;" d="M258.193,439.919c1.43,0.637,2.917,0.954,4.263,0.942
					c0.923-0.008,3.043-0.156,3.191-1.047c0.045-0.27-0.175-0.617-0.464-0.87c-0.938-0.822-2.626-1.477-3.734-1.736"/>
				<path style="fill:none;stroke:#1C1212;stroke-miterlimit:10;" d="M269.656,442.735c1.93,0.519,3.828,0.591,5.427,0.206
					c0.326-0.078,0.648-0.18,0.85-0.393c0.452-0.475-0.011-1.227-0.792-1.672c-0.439-0.25-0.914-0.379-1.368-0.457
					c-0.781-0.133-1.519-0.17-2.276-0.224"/>
				<path style="fill:none;stroke:#1C1212;stroke-miterlimit:10;" d="M279.816,443.188c0.189,0.136,0.413,0.19,0.621,0.231
					c1.267,0.25,2.494,0.265,3.574,0.043c0.397-0.082,0.8-0.218,0.906-0.558c0.118-0.377-0.184-0.908-0.616-1.28
					c-0.971-0.834-2.439-1.181-3.411-1.016"/>
				<path style="fill:none;stroke:#1C1212;stroke-miterlimit:10;" d="M290.157,441.925c-0.416,0.188-0.613,1.4-0.452,1.897
					c0.027,0.082,0.064,0.169,0.137,0.241c0.116,0.116,0.286,0.161,0.436,0.192c0.733,0.149,1.445,0.196,2.144,0.215
					c0.82,0.023,1.666,0,2.202-0.389c0.611-0.443,0.352-1.284-0.671-1.715c-0.558-0.235-1.166-0.305-1.724-0.436
					c-0.652-0.154-1.325-0.3-1.906-0.216"/>
				<path style="fill:none;stroke:#1C1212;stroke-miterlimit:10;" d="M341.951,419.775c-0.572,2.564,0.59,7.089,0.517,9.848
					c-0.085,3.236-1.731,3.698-4.398,5.129"/>
			</g>
			<path style="fill:none;stroke:#1C1212;stroke-miterlimit:10;" d="M357.84,270.204c-10.634-0.358-21.745,5.776-28.496,13.476
				c-6.751,7.7-11.933,18.492-14.802,28.085c-6.926,23.155-19.113,71.629-22.84,85.31c-3.198,11.742-6.969,17.93-16.123,26.056
				c-4.415,3.919-9.898,6.917-16.188,8.791c-2.117,0.631-4.324,1.134-6.611,1.501c-1.68,0.27-3.551,0.162-5.205,0.48
				c-1.411,0.271-2.691,0.825-3.18,1.999c-0.478,1.149-0.277,2.626,0.173,4.051c0.249,0.788,0.634,1.59,1.197,2.348
				c2.232,3.009,6.518,4.554,9.964,4.768"/>
			<path style="fill:none;stroke:#1C1212;stroke-miterlimit:10;" d="M377.166,363.843c6.513-18.643,13.138-36.725,14.539-56.438"/>
		</g>
		<g>
			<path style="fill:#EA6E86;" d="M251.462,277.543c-7.585,16.716-10.538,26.259-5.056,42.341
				c8.754,25.68,37.657,49.665,37.657,49.665l35.805-20.834c-9.389-16.49-22.991-39.703-38.391-58.47"/>
			<path style="fill:#A03C62;" d="M304.091,321.608c-7.356-12.097-15.684-24.794-24.106-35.057l-30.115-10.549
				c-7.585,16.716-9.974,28.352-4.492,44.434c3.024,8.871,8.576,17.473,14.547,24.934L304.091,321.608z"/>
			<g>
				<path style="fill:#EA6E86;" d="M347.282,392.015c-0.967-9.374-3.789-16.84-8.875-24.619
					c-6.058-9.266-14.313-17.486-23.866-23.113l-37.484,18.331c2.944,7.487,6.725,10.72,13.408,15.199
					c2.124,1.423,4.38,2.639,6.662,3.792c2.383,1.204,4.815,2.35,6.973,3.923c4.379,3.191,7.355,7.92,10,12.649
					c0.738,1.32,1.471,2.665,2.505,3.768c2.056,2.194,5.013,3.543,7.917,2.527c0.531-0.186,1.013-0.476,1.397-0.836v0
					c2.144,1.709,7.542,3.804,9.774,1.05c0.113-0.139,0.209-0.287,0.295-0.439l0.006,0.181c2.004,0.717,5.92,0.413,6.751-1.547
					c0.172-0.406,0.262-0.833,0.322-1.266c0.76,0.204,1.567,0.407,2.32,0.18C348.381,400.889,347.508,394.208,347.282,392.015z"/>
				<g>
					<path style="fill:none;stroke:#1C1212;stroke-miterlimit:10;" d="M325.919,403.634c0.639-0.599,1.005-1.39,0.865-2.215
						c-0.842-4.936-1.972-9.866-3.895-14.503c-1.473-3.551-4.448-8.34-7.619-11.034"/>
					<path style="fill:none;stroke:#1C1212;stroke-miterlimit:10;" d="M325.455,372.256c3.689,4.731,6.494,10.141,8.291,15.862
						c0.915,2.914,1.487,5.918,1.992,8.925c0.374,2.222,1.567,5.651-0.045,7.641"/>
					<path style="fill:none;stroke:#1C1212;stroke-miterlimit:10;" d="M333.988,368.79c4.55,8.309,10.061,22.954,9.48,32.927"/>
				</g>
				<path style="fill:none;stroke:#1C1212;stroke-miterlimit:10;" d="M325.61,396.596c-1.553-0.139-3.132,0.031-4.62,0.495
					c-0.322,0.1-0.652,0.223-0.884,0.467c-0.342,0.36-0.382,0.914-0.288,1.38c0.205,1.022,0.884,2.49,1.879,2.954
					c1.29,0.601,3.486,0.367,4.691-0.368"/>
				<path style="fill:none;stroke:#1C1212;stroke-miterlimit:10;" d="M335.746,397.602c-1.163,0.115-2.326,0.229-3.488,0.343
					c-0.52,0.051-1.078,0.118-1.47,0.463c-0.768,0.674-0.637,2.076-0.369,2.95c0.33,1.078,1.085,1.608,2.168,1.774
					c1.2,0.183,2.446,0.049,3.579-0.385"/>
				<path style="fill:none;stroke:#1C1212;stroke-miterlimit:10;" d="M343.098,396.33c-0.747,0.03-1.501,0.062-2.222,0.257
					c-0.721,0.195-1.418,0.568-1.867,1.165c-0.449,0.597-0.61,1.44-0.281,2.112c0.16,0.328,0.423,0.597,0.716,0.814
					c0.985,0.73,2.943,0.404,4.067-0.084"/>
				<path style="fill:none;stroke:#1C1212;stroke-miterlimit:10;" d="M347.37,395.086c-0.573,0.117-1.146,0.235-1.72,0.352
					c-0.384,0.079-0.788,0.167-1.077,0.432c-0.412,0.378-0.471,0.997-0.48,1.556c-0.009,0.57,0.005,1.142,0.044,1.711
					c0.033,0.483,0.146,1.054,0.593,1.239c0.169,0.07,0.358,0.069,0.541,0.061c0.514-0.022,1.025-0.089,1.527-0.199"/>
			</g>
			<path style="fill:#EA6E86;" d="M392.874,226.021c-10.281,24.835-24.02,73.225-24.02,73.225l-61.239,32.978l22.79,37.619
				c0,0,64.394-9.433,87.509-31.378s26.342-72.36,26.342-72.36"/>
			<g>
				<path style="fill:#EA6E86;" d="M326.764,330.174c-0.357-1.849-0.897-3.945-1.569-5.704
					c-15.754,6.054-33.115,12.158-43.156,26.641c-1.505,2.171-2.851,4.452-4.037,6.811c-3.584,7.129-5.499,15.873-2.655,23.837
					c1.379,3.861,2.76,7.424,6.806,8.085l0.103-0.073c1.904,4.403,8.186,5.357,11.717,2.964c2.724,4.02,8.715,3.322,12.503,1.42
					l0.062-0.097c1.549,1.834,3.864,3.053,6.241,2.865c0.258-0.02,0.53-0.063,0.731-0.225c0.2-0.161,0.298-0.413,0.388-0.653
					c1.208-3.224,2.494-6.543,4.91-8.996c1.05-1.066,2.281-1.933,3.447-2.871c7.843-6.309,12.719-16.033,13.944-25.95
					L326.764,330.174z"/>
				<path style="fill:none;stroke:#1C1212;stroke-miterlimit:10;" d="M309.99,331.06c-8.71,4.019-17.011,9.316-23.765,16.173
					c-4.246,4.311-8.039,9.397-10.66,14.972"/>
				<path style="fill:none;stroke:#1C1212;stroke-miterlimit:10;" d="M283.074,372.943c-1.805,5.15-2.904,11.379-0.948,16.55"/>
				<path style="fill:none;stroke:#1C1212;stroke-miterlimit:10;" d="M293.297,375.499c-1.181,4.996-1.655,12.245,0.675,17.236"/>
				<path style="fill:none;stroke:#1C1212;stroke-miterlimit:10;" d="M314.077,397.286c1.391-3.719,2.697-8.448,5.505-11.376
					c2.832-2.954,6.086-5.445,8.843-8.486c2.66-2.935,4.48-5.8,5.837-9.549c1.085-2.997,1.55-6.523,1.936-9.648"/>
				<path style="fill:none;stroke:#1C1212;stroke-miterlimit:10;" d="M306.436,376.683c-0.921,2.664-1.849,5.355-2.165,8.156
					c-0.317,2.801,0.736,6.91,2.205,9.316"/>
				<path style="fill:none;stroke:#1C1212;stroke-miterlimit:10;" d="M283.431,367.875c0.844-1.676,2.063-3.161,3.54-4.318"/>
				<path style="fill:none;stroke:#1C1212;stroke-miterlimit:10;" d="M294.501,371.815c0.144-1.193,0.8-2.315,1.77-3.025"/>
				<path style="fill:none;stroke:#1C1212;stroke-miterlimit:10;" d="M306.257,374.132c0.381-0.877,0.897-1.695,1.525-2.416"/>
				<line style="fill:none;stroke:#1C1212;stroke-miterlimit:10;" x1="333.384" y1="369.663" x2="339.682" y2="368.428"/>
			</g>
			<path style="fill:#A03C62;" d="M449.92,263.82c-3.817,32.079-7.425,50.834-23.631,70.446
				c-17.359,21.008-69.046,30.721-69.046,30.721l-27.899-44.464l39.434-22.591c0,0,18.519-66.955,22.928-78.092"/>
			<path style="fill:none;stroke:#1C1212;stroke-miterlimit:10;" d="M262.813,285.59c5.139,0,16.123,0.594,22.388,6.824"/>
			<path style="fill:none;stroke:#1C1212;stroke-miterlimit:10;" d="M387.423,224.801c-3.89,12.201-9.632,38.511-12,51.096"/>
			<path style="fill:none;stroke:#1C1212;stroke-miterlimit:10;" d="M449.937,268.597c-1.003,17.651-9.608,41.922-17.74,57.727"/>
			<path style="fill:none;stroke:#1C1212;stroke-miterlimit:10;" d="M445.716,291.581c4.201-5.458,7.484-11.738,9.642-18.443"/>
			<path style="fill:none;stroke:#1C1212;stroke-miterlimit:10;" d="M369.224,297.758c11.276-1.729,23.033-0.171,33.625,3.992"/>
		</g>
	</g>
	<g>
		<path style="fill:none;stroke:#FFFFFF;stroke-width:1.5;stroke-linejoin:round;stroke-miterlimit:10;" d="M186.367,91.904
			c3.844-7.452,6.394-16.978,6.021-25.383c-0.717-16.156-16.869-13.182-27.762-9.174c-16.091,5.92-29.878,16.979-41.593,29.276
			c-2.38-3.828-4.947-7.834-8.949-9.91c-6.466-3.354-14.398-0.588-20.666,3.124c-7.652,4.533-14.466,10.466-20.04,17.395H212.65
			c2.307-3.312,4.219-7.585,2.125-10.989C208.825,76.575,189.444,85.938,186.367,91.904z"/>
		<path style="fill:#FFFFFF;" d="M662.106,154.242c-4.151-6.341-12.925-7.023-19.556-4.911
			c-14.601,4.651-27.826,17.607-36.678,29.649c-1.889-8.786-10.728-14.891-19.675-15.73c-17.704-1.66-34.951,12.018-45.427,26.152
			h142.972c-1.217-5.564-4.955-10.668-10.399-12.063c-5.384-1.38-15.44,4.511-15.44,4.511s4.145-8.836,5.459-13.518
			C664.676,163.65,664.77,158.311,662.106,154.242z"/>
		<path style="fill:#FFFFFF;" d="M242.797,222.39c-4.51,0.31-8.944,1.665-12.857,3.929c1.756-7.042,1.744-13.016,0.885-15.938
			c-3.08-10.477-8.926-11.013-19.165-10.119c-19.078,1.665-46.871,18.208-62.206,33.505h102.257c0.097-3.31,0.729-6.725-1.342-9.147
			C248.594,222.543,245.523,222.203,242.797,222.39z"/>
	</g>
	<g>
		<path style="fill:none;stroke:#FFFFFF;stroke-width:1.5;stroke-linejoin:round;stroke-miterlimit:10;" d="M250.947,446.868
			c0,0,37.888-203.051,50.117-256.912c9.484-41.768,36.007-105.736,99.786-105.736c38.861,0,66.74,16.082,77.259,92.739
			c15.203,110.794,36.478,269.909,36.478,269.909"/>
		<path style="fill:none;stroke:#FFFFFF;stroke-width:1.5;stroke-linejoin:round;stroke-miterlimit:10;" d="M586.949,198.018
			C570.084,130.059,550.393,84.25,514.588,84.25c-17.477,0-47.083,16.732-36.478,92.709
			c16.352,117.149,36.478,269.909,36.478,269.909h131.763C646.351,446.868,600.026,250.716,586.949,198.018z"/>
		<path style="fill:none;stroke:#FFFFFF;stroke-width:1.5;stroke-linejoin:round;stroke-miterlimit:10;" d="M552.696,188.678
			C539.274,119.956,534.435,84.25,514.588,84.25c-17.477,0-14.906,16.783-3.939,92.709c17.8,123.238,39.943,269.909,39.943,269.909
			h52.855C603.447,446.868,571.299,283.925,552.696,188.678z"/>
		<path style="fill:none;stroke:#FFFFFF;stroke-width:1.5;stroke-linejoin:round;stroke-miterlimit:10;" d="M182.187,446.868
			c0,0,38.236-210.836,56.566-259.556c25.74-68.416,72.113-103.092,126.501-103.092c25.609,0,35.597,0,35.597,0"/>
		<path style="fill:none;stroke:#FFFFFF;stroke-width:1.5;stroke-linejoin:round;stroke-miterlimit:10;" d="M400.851,84.221
			c0,0-32.914,0-63.047,0c-63.995,0-115.324,34.676-145.611,103.092c-21.568,48.719-68.839,259.556-68.839,259.556h396.54"/>
		<path style="fill:none;stroke:#FFFFFF;stroke-width:1.5;stroke-linejoin:round;stroke-miterlimit:10;" d="M380.868,55.106
			c0-6.76,5.609-12.211,12.427-11.952c6.157,0.234,11.252,5.329,11.486,11.486c0.169,4.445-2.089,8.376-5.554,10.574
			c-4.093,2.596-6.397,7.267-6.397,12.114l0,0"/>
		
			<rect x="351.243" y="77.328" style="fill:none;stroke:#FFFFFF;stroke-width:1.5;stroke-linejoin:round;stroke-miterlimit:10;" width="59.29" height="6.893"/>
		
			<line style="fill:none;stroke:#FFFFFF;stroke-width:1.5;stroke-linejoin:round;stroke-miterlimit:10;" x1="83.597" y1="446.868" x2="686.606" y2="446.868"/>
	</g>
	<g>
		<g>
			<g>
				<polyline style="fill:none;stroke:#8C4C1C;stroke-linejoin:round;stroke-miterlimit:10;" points="559.185,111.341 
					565.944,116.568 560.684,118.356 558.789,120.765 				"/>
				<polyline style="fill:none;stroke:#8C4C1C;stroke-miterlimit:10;" points="556.587,119.507 558.789,117.254 562.367,117.784 
									"/>
			</g>
			<g>
				<polyline style="fill:none;stroke:#8C4C1C;stroke-miterlimit:10;" points="556.124,107.257 562.883,112.483 557.623,114.271 
					555.728,116.68 				"/>
				<polyline style="fill:none;stroke:#8C4C1C;stroke-miterlimit:10;" points="553.526,115.422 555.728,113.17 559.305,113.7 				
					"/>
			</g>
			<path style="fill:#E88838;" d="M577.91,67.615l-8.957,15.471c0,0-13.199-7.634-18.947-10.137
				c-5.363-2.336-12.011-3.885-17.673-1.735c-2.677,1.017-5.079,2.768-6.758,5.1c-3.189,4.431-4.322,11.011-2.641,16.22
				c0.036,0.111,0.073,0.22,0.112,0.33c0.533,1.499,1.343,2.866,2.172,4.201c2.393,3.852,5.023,7.571,8.214,10.686
				c4.722,4.609,10.859,7.344,17.244,7.687c12.391,0.664,23.812-7.6,28.965-19.455c0.734-1.688,1.354-3.432,1.858-5.214
				c0.034-0.119,24.004-17.543,24.004-17.543L577.91,67.615z"/>
			<line style="fill:none;stroke:#EFB166;stroke-miterlimit:10;" x1="584.883" y1="69.033" x2="576.646" y2="81.257"/>
			<path style="fill:none;stroke:#EFB166;stroke-miterlimit:10;" d="M596.378,71.369c-0.288-0.059-14.839,11.785-14.839,11.785"/>
			<path style="fill:none;stroke:#EFB166;stroke-miterlimit:10;" d="M522.254,85.59c1.652,0.615,3.471,0.873,5.194,0.495
				c4.187-0.918,4.831-5.535,7.232-8.467c2.205-2.692,5.009-4.086,8.444-4.422c2.147-0.21,4.307-0.285,6.464-0.227"/>
			<path style="fill:#1C1212;" d="M535.988,87.555c-1.005-0.214-1.384,0.978-1.367,1.739c0.008,0.375,0.098,0.799,0.419,0.993
				c0.354,0.213,0.812,0.045,1.162-0.173c0.394-0.246,0.763-0.573,0.927-1.007C537.472,88.202,536.766,87.721,535.988,87.555z"/>
			<path style="fill:#1C1212;" d="M525.372,90.792c-0.266-0.615-0.992-1.354-1.678-0.626c-0.531,0.563-0.891,1.338-0.299,1.868
				c0.284,0.255,0.685,0.31,1.075,0.287c0.347-0.02,0.756-0.141,0.947-0.507C525.591,91.482,525.503,91.095,525.372,90.792z"/>
			<path style="fill:#8C4C1C;" d="M528.208,93.165c-0.861,0.312-1.887,0.692-1.761,1.195c0.126,0.503,0.692,2.831,1.761,2.453
				c1.069-0.377,3.019-2.516,2.768-3.208C530.724,92.914,529.164,92.818,528.208,93.165z"/>
			<g>
				<path style="fill:none;stroke:#EFB166;stroke-miterlimit:10;" d="M578.014,89.322c0,0-25.726-5.175-28.428-5.256
					c-2.702-0.081-8.354,8.877-3.591,15.525c5.203,7.263,16.108,6.739,22.659,1.695C571.655,98.975,578.014,89.322,578.014,89.322z"
					/>
				<line style="fill:none;stroke:#EFB166;stroke-miterlimit:10;" x1="573.683" y1="95.493" x2="558.204" y2="91.545"/>
				<line style="fill:none;stroke:#EFB166;stroke-miterlimit:10;" x1="556.587" y1="96.855" x2="566.341" y2="102.783"/>
				<line style="fill:none;stroke:#EFB166;stroke-miterlimit:10;" x1="554" y1="100.238" x2="558.204" y2="105.064"/>
			</g>
		</g>
		<g>
			<path style="fill:#1C1212;" d="M199.603,134.369c0.111,0.076,2.702,2.792,2.561,3.261c-0.141,0.469-3.488,0.257-3.488,0.257"/>
			<g>
				<path style="fill:#E88838;" d="M175.448,144.106l-31.914-20.879c0,0-7.184,19.138,5.263,26.13
					c10.537,5.919,19.11,1.619,19.11,1.619"/>
				<line style="fill:none;stroke:#EFB166;stroke-miterlimit:10;" x1="141.512" y1="133.399" x2="161.457" y2="143.859"/>
			</g>
			<path style="fill:#E88838;" d="M113.548,151.606c7.92,0.697,29.438-0.088,29.438-0.088s21.205-11.481,23.959-13.052
				c6.127-3.495,10.877-9.53,17.673-11.417c3.649-1.014,7.756-0.643,10.936,1.414c3.18,2.057,5.252,5.895,4.794,9.655
				c-0.336,2.756-1.9,5.182-2.954,7.751c-1.723,4.2-2.084,8.81-2.991,13.258c-1.065,5.221-3.136,9.889-7.639,12.985
				c-2.055,1.413-4.471,2.865-6.873,3.586c-8.257,2.478-16.005,1.217-23.363-3.276c-2.146-1.311-6.546-3.686-6.546-3.686
				l-22.135,7.585L113.548,151.606z"/>
			<line style="fill:none;stroke:#EFB166;stroke-miterlimit:10;" x1="122.648" y1="167.335" x2="142.857" y2="162.959"/>
			<line style="fill:none;stroke:#EFB166;stroke-miterlimit:10;" x1="117.769" y1="158.902" x2="138.369" y2="157.324"/>
			<path style="fill:none;stroke:#1C1212;stroke-miterlimit:10;" d="M135.248,161.969"/>
			<g>
				<g>
					<path style="fill:#E88838;" d="M189.956,149.996c3.307,9.355,11.685,36.184,11.685,36.184s-12.056-1.089-20.64-5.875
						c-1.955-1.09-3.834-2.346-5.427-3.918c-4.915-4.853-6.5-12.497-4.866-19.208"/>
					<line style="fill:none;stroke:#EFB166;stroke-miterlimit:10;" x1="192.223" y1="184.502" x2="187.113" y2="162.676"/>
					<line style="fill:none;stroke:#EFB166;stroke-miterlimit:10;" x1="181.001" y1="180.305" x2="178.807" y2="164.419"/>
				</g>
				<path style="fill:none;stroke:#1C1212;stroke-miterlimit:10;" d="M170.965,156.7c-1.598,3.222-1.626,7.002-0.775,10.437
					c0.829,3.348,3.04,6.326,5.892,9.389"/>
				<line style="fill:none;stroke:#1C1212;stroke-miterlimit:10;" x1="193.815" y1="161.558" x2="189.766" y2="149.217"/>
			</g>
			<path style="fill:none;stroke:#1C1212;stroke-miterlimit:10;" d="M147.884,148.864c-0.002,0.001,16.795-8.323,19.524-10.669"/>
			<path style="fill:none;stroke:#EFB166;stroke-miterlimit:10;" d="M176.56,131.793c-0.506,0.609,0.362,1.193,0.842,1.403
				c0.896,0.393,1.936,0.314,2.875,0.137c2.676-0.504,5.106-1.878,7.644-2.882c1.581-0.625,3.195-1.037,4.897-0.898
				c0.992,0.081,1.96,0.333,2.899,0.657c0.84,0.29,1.656,0.755,2.516,0.962"/>
			<path style="fill:#1C1212;" d="M196.091,133.142c-0.459,0.045-0.904,0.401-0.936,0.861c-0.067,0.949,1.664,1.722,2.281,0.955
				C198.124,134.1,196.93,133.06,196.091,133.142z"/>
		</g>
	</g>
	<g>
		<g>
			<path style="fill:none;stroke:#D36629;stroke-width:1.5;stroke-linejoin:round;stroke-miterlimit:10;" d="M144.143,294.548
				c-24.586,51.398-43.645,105.439-56.742,160.889"/>
			
				<ellipse transform="matrix(0.9883 -0.1522 0.1522 0.9883 -41.3173 26.4551)" style="fill:#EFB166;" cx="152.123" cy="283.077" rx="18.664" ry="18.664"/>
			<path style="fill:none;stroke:#FCE285;stroke-miterlimit:10;" d="M142.8,266.898c4.723,3.646,7.881,8.738,10.845,13.884
				c3.32,5.764,6.124,11.84,8.366,18.127"/>
			<path style="fill:none;stroke:#FCE285;stroke-miterlimit:10;" d="M153.645,280.782c0,0,3.663-6.224,15.22-5.959"/>
			<path style="fill:none;stroke:#FCE285;stroke-miterlimit:10;" d="M148.88,264.696c0,0,9.039,1.598,13.777,10.688"/>
			<path style="fill:#D36629;" d="M127.11,331.71c-2.218-3.19-4.464-6.434-5.718-10.111c-1.254-3.677-1.407-7.912,0.483-11.306
				c0.242-0.435,0.558-0.885,1.038-1.019c0.66-0.184,1.311,0.305,1.767,0.816c2.475,2.773,2.801,6.797,2.988,10.51
				c0.118,2.34,0.23,7.051,0.335,9.392"/>
			<path style="fill:#D36629;" d="M114.456,365.716c-3.27-4.702-6.58-9.484-8.428-14.904c-1.849-5.421-2.075-11.662,0.712-16.666
				c0.357-0.642,0.822-1.305,1.53-1.502c0.973-0.271,1.933,0.45,2.605,1.203c3.649,4.088,4.129,10.019,4.404,15.492
				c0.174,3.45,0.339,10.393,0.494,13.844"/>
			<path style="fill:#D36629;" d="M97.053,418.546c-3.431-4.147-5.762-9.183-7.879-14.091c-1.933-4.48-4.178-8.868-5.487-13.594
				c-1.218-4.4-1.813-9.021-1.642-13.587c0.112-2.999,1.029-7.197,4.445-7.996c1.595-0.373,3.168,0.619,4.271,1.657
				c5.981,5.632,6.768,13.802,7.22,21.341c0.285,4.753,0.555,14.317,0.81,19.071"/>
			<path style="fill:#D36629;" d="M132.459,320.065c3.853-0.5,7.764-1.016,11.331-2.558c3.566-1.542,6.806-4.273,8.05-7.954
				c0.16-0.472,0.281-1.008,0.058-1.453c-0.307-0.612-1.107-0.766-1.792-0.761c-3.717,0.03-6.916,2.492-9.792,4.848
				c-1.813,1.485-5.377,4.567-7.182,6.062"/>
			<path style="fill:#D36629;" d="M119.042,354.749c5.68-0.737,11.445-1.498,16.702-3.771c5.257-2.273,10.032-6.299,11.866-11.724
				c0.235-0.696,0.414-1.486,0.085-2.142c-0.453-0.902-1.632-1.129-2.641-1.121c-5.479,0.044-10.195,3.673-14.434,7.146
				c-2.672,2.189-7.926,6.732-10.586,8.935"/>
			<path style="fill:#D36629;" d="M104.641,394.306c7.926-1.029,15.971-2.09,23.308-5.262c7.336-3.171,14-8.79,16.559-16.361
				c0.328-0.971,0.578-2.073,0.118-2.99c-0.632-1.259-2.277-1.576-3.686-1.565c-7.647,0.061-14.227,5.126-20.142,9.972
				c-3.729,3.055-11.06,9.394-14.773,12.469"/>
		</g>
		<g>
			<polyline style="fill:#83B3A4;" points="225.438,331.146 162.906,470.008 121.218,470.008 168.052,331.146 			"/>
			<path style="fill:none;stroke:#477B7C;stroke-width:1.5;stroke-linejoin:round;stroke-miterlimit:10;" d="M139.52,470.008
				c0-1.641,50.597-127.89,50.597-127.89"/>
			<path style="fill:#93CCB9;" d="M225.438,331.146c8.909,10.972,15.643,19.641,19.962,34.188
				c1.462,4.924,0.895,11.891-1.469,16.366c-1.448,2.74-3.951,4.646-6.627,5.792c-9.516,4.075-20.204-0.818-28.787-6.922
				c-12.667-9.008-31.996-35.653-40.465-49.424H225.438z"/>
			
				<line style="fill:none;stroke:#6BA592;stroke-width:1.5;stroke-miterlimit:10;" x1="227.812" y1="369.198" x2="197.271" y2="331.146"/>
		</g>
		<g>
			<path style="fill:#6BA592;" d="M213.981,388.197c-13.911-2.425-23.777,9.373-30.326,22.616
				c-6.55,13.244-26.572,59.194-26.572,59.194l23.953-0.839c0,0,15.408-24.025,28.381-46.925
				C218.413,406.361,225.01,390.12,213.981,388.197z"/>
			
				<line style="fill:none;stroke:#477B7C;stroke-width:1.5;stroke-linejoin:round;stroke-miterlimit:10;" x1="204.952" y1="403.098" x2="168.816" y2="469.597"/>
		</g>
		<g>
			<path style="fill:#6BA592;" d="M149.277,353.493c-15.065-3.454-25.748,13.349-32.841,32.21
				c-7.093,18.862-28.776,84.305-28.776,84.305l35.694-0.411c0,0,11.473-25.017,24.964-61.999
				C156.758,384.46,161.221,356.231,149.277,353.493z"/>
			
				<line style="fill:none;stroke:#477B7C;stroke-width:1.5;stroke-linejoin:round;stroke-miterlimit:10;" x1="139.499" y1="374.714" x2="100.367" y2="469.422"/>
		</g>
		<g>
			<path style="fill:#83B3A4;" d="M102.345,398.386c-12.003-2.703-21.73,10.608-26.112,25.369
				c-4.383,14.76-12.454,45.427-12.454,45.427l25.178,0.78c0,0,3.548-8.108,12.522-33.63
				C107.703,418.63,111.862,400.529,102.345,398.386z"/>
			
				<line style="fill:none;stroke:#477B7C;stroke-width:1.5;stroke-linejoin:round;stroke-miterlimit:10;" x1="95.944" y1="413.019" x2="76.233" y2="469.597"/>
		</g>
		<g>
			<path style="fill:none;stroke:#D36629;stroke-width:1.5;stroke-linejoin:round;stroke-miterlimit:10;" d="M150.407,470.008
				c5.563-15.147,23.554-51.462,43.909-68.505"/>
			<path style="fill:#D36629;" d="M165.362,437.844c-0.983-5.822-0.726-11.851,0.75-17.568c0.507-1.963,1.211-3.98,2.704-5.352
				c0.349-0.321,0.882-0.607,1.267-0.331c0.153,0.109,0.242,0.286,0.319,0.457c0.967,2.151,1.02,4.596,0.852,6.948
				c-0.232,3.249-2.503,9-3.501,12.101"/>
			<path style="fill:#D36629;" d="M173.42,426.805c5.602-1.422,11.817,0.686,17.166-1.504c1.145-0.469,2.378-1.489,2.068-2.687
				c-0.267-1.032-1.498-1.437-2.551-1.6c-4.832-0.75-9.893,0.047-14.261,2.245"/>
			<g>
				<path style="fill:#FCE285;" d="M206.056,401.247c-0.711,7.375-7.266,12.778-14.642,12.067
					c-7.375-0.711-12.778-7.266-12.067-14.642s7.266-12.778,14.641-12.067C201.365,387.317,206.767,393.872,206.056,401.247z"/>
				<path style="fill:none;stroke:#FFF1C5;stroke-miterlimit:10;" d="M192.049,387.073c2.494,3.852,3.458,8.599,3.028,13.168
					c-0.431,4.569-2.205,8.957-4.768,12.763"/>
				<path style="fill:none;stroke:#FFF1C5;stroke-miterlimit:10;" d="M195.23,399.245c1.835-0.217,3.678-0.434,5.525-0.374
					c1.847,0.06,3.712,0.41,5.348,1.269"/>
				<path style="fill:none;stroke:#FFF1C5;stroke-miterlimit:10;" d="M194.463,390.991c3.773-0.053,8.528,2.094,8.753,8.084"/>
			</g>
		</g>
		<g>
			
				<line style="fill:none;stroke:#1C1212;stroke-width:1.5;stroke-linejoin:round;stroke-miterlimit:10;" x1="54.049" y1="470.008" x2="204.14" y2="470.008"/>
			
				<line style="fill:none;stroke:#1C1212;stroke-width:1.5;stroke-linejoin:round;stroke-miterlimit:10;" x1="215.675" y1="470.008" x2="237.339" y2="470.008"/>
		</g>
		<path style="fill:none;stroke:#E88838;stroke-width:1.5;stroke-linejoin:round;stroke-miterlimit:10;" d="M108.085,276.276
			c-5.195-4.368-14.591-3.552-21.003,2.236c-12.743,11.504-17.34,31.169-11.017,47.13c1.417,3.576,4.359,7.501,8.144,6.817
			c1.895-0.342,3.38-1.803,4.563-3.323c3.416-4.389,5.18-9.658,7.709-14.543c2.446-4.726,5.936-8.738,9.008-13.056
			c2.779-3.906,5.252-8.175,6.089-12.895C112.607,282.848,111.013,278.739,108.085,276.276z"/>
		<path style="fill:none;stroke:#FFFFFF;stroke-width:1.5;stroke-linejoin:round;stroke-miterlimit:10;" d="M52.82,410.055
			c2.156,2.923,6.097,3.796,9.706,4.209c0.724,0.083,1.464,0.155,2.185,0.079c0.236-0.025,0.469-0.065,0.7-0.127
			c0.983-0.261,1.834-0.878,2.577-1.572c6.907-6.44,4.759-15.584-4.955-14.293C58.066,399.012,48.108,403.669,52.82,410.055z"/>
		<path style="fill:none;stroke:#FFFFFF;stroke-width:1.5;stroke-linejoin:round;stroke-miterlimit:10;" d="M658.702,305.607
			c-2.459,2.192-4.92,4.924-4.93,8.218c-0.002,0.601,0.084,1.211,0.336,1.755c0.436,0.941,1.32,1.593,2.225,2.1
			c2.967,1.664,6.676,2.166,9.826,0.88c3.15-1.286,5.54-4.514,5.399-7.913C671.29,304.187,663.143,301.648,658.702,305.607z"/>
		<path style="fill:none;stroke:#E88838;stroke-width:1.5;stroke-linejoin:round;stroke-miterlimit:10;" d="M474.991,220.846
			c-1.951,6.468-0.525,13.671,2.96,19.458c3.485,5.787,8.869,10.254,14.775,13.533c1.595,0.886,3.293,1.709,5.116,1.811
			c8.07,0.449,9.104-7.267,8.553-13.575c-0.684-7.831-2.707-15.207-3.343-23.106c-0.298-3.701-1.673-7.47-4.502-9.875
			C490.275,202.054,477.436,212.742,474.991,220.846z"/>
		<path style="fill:none;stroke:#E88838;stroke-width:1.5;stroke-linejoin:round;stroke-miterlimit:10;" d="M691.803,412.799
			c-1.318-1.814-3.078-3.336-5.042-4.352c-6.996-3.615-10.715,1.343-15.761,5.486c-3.459,2.839-7.686,4.58-11.068,7.545
			c-4.491,3.938-8.063,12.458-0.808,15.709c1.56,0.699,3.288,0.929,4.994,1.031c10.893,0.654,24.667-3.656,29.31-14.465
			C695.049,419.981,694.093,415.951,691.803,412.799z"/>
		<path style="fill:none;stroke:#FFFFFF;stroke-width:1.5;stroke-linejoin:round;stroke-miterlimit:10;" d="M549.031,228.277
			c-1.377-3.138-4.422-4.833-7.734-5.157c-2.775-0.271-6.068-0.499-7.837,2.121c-4.273,6.331,8.424,13.179,13.409,10.555
			C549.409,234.459,550.185,230.905,549.031,228.277z"/>
	</g>
</g>
</svg>
