<?xml version="1.0" encoding="utf-8"?>
<!-- Generator: Adobe Illustrator 27.5.0, SVG Export Plug-In . SVG Version: 6.00 Build 0)  -->
<svg version="1.1" xmlns="http://www.w3.org/2000/svg" xmlns:xlink="http://www.w3.org/1999/xlink" x="0px" y="0px"
	 viewBox="0 0 500 500" style="enable-background:new 0 0 500 500;" xml:space="preserve">
<g id="BACKGROUND">
	<rect style="fill:#EEEEFF;" width="500" height="500"/>
	<g style="opacity:0.1;">
		<g>
			
				<rect x="438.445" y="65.046" transform="matrix(-1 -1.224647e-16 1.224647e-16 -1 906.2241 142.8488)" style="fill:#7371FC;" width="29.334" height="12.757"/>
			
				<rect x="423.778" y="51.025" transform="matrix(-1 -1.224647e-16 1.224647e-16 -1 876.8899 114.8082)" style="fill:#7371FC;" width="29.334" height="12.757"/>
		</g>
		<g>
			
				<rect x="149.659" y="434.754" transform="matrix(-1 -1.224647e-16 1.224647e-16 -1 328.6519 882.2652)" style="fill:#7371FC;" width="29.334" height="12.757"/>
			
				<rect x="134.992" y="420.734" transform="matrix(-1 -1.224647e-16 1.224647e-16 -1 299.3177 854.2245)" style="fill:#7371FC;" width="29.334" height="12.757"/>
		</g>
		<g>
			<rect x="266.708" y="64.414" style="fill:#7371FC;" width="29.334" height="12.757"/>
			<rect x="298.333" y="64.414" style="fill:#7371FC;" width="29.334" height="12.757"/>
			<rect x="282.32" y="79.499" style="fill:#7371FC;" width="29.334" height="12.757"/>
			<rect x="313" y="50.394" style="fill:#7371FC;" width="29.334" height="12.757"/>
		</g>
		<g>
			<rect x="305.006" y="127.535" style="fill:#7371FC;" width="29.334" height="12.757"/>
			<rect x="336.632" y="127.535" style="fill:#7371FC;" width="29.334" height="12.757"/>
			<rect x="320.618" y="142.62" style="fill:#7371FC;" width="29.334" height="12.757"/>
			<rect x="351.299" y="113.515" style="fill:#7371FC;" width="29.334" height="12.757"/>
		</g>
		<g>
			
				<rect x="43.879" y="64.414" transform="matrix(-1 -1.224647e-16 1.224647e-16 -1 117.0916 141.5857)" style="fill:#7371FC;" width="29.334" height="12.757"/>
			
				<rect x="29.212" y="50.394" transform="matrix(-1 -1.224647e-16 1.224647e-16 -1 87.7573 113.5451)" style="fill:#7371FC;" width="29.334" height="12.757"/>
		</g>
		<g>
			<rect x="120.179" y="257.999" style="fill:#7371FC;" width="29.334" height="12.757"/>
			<rect x="151.805" y="257.999" style="fill:#7371FC;" width="29.334" height="12.757"/>
			<rect x="135.791" y="273.084" style="fill:#7371FC;" width="29.334" height="12.757"/>
			<rect x="166.472" y="243.979" style="fill:#7371FC;" width="29.334" height="12.757"/>
		</g>
		<g>
			
				<rect x="441.454" y="421.764" transform="matrix(-1 -1.224647e-16 1.224647e-16 -1 912.2427 856.2856)" style="fill:#7371FC;" width="29.334" height="12.757"/>
			
				<rect x="409.828" y="421.764" transform="matrix(-1 -1.224647e-16 1.224647e-16 -1 848.991 856.2855)" style="fill:#7371FC;" width="29.334" height="12.757"/>
			
				<rect x="425.842" y="436.849" transform="matrix(-1 -6.818004e-06 6.818004e-06 -1 881.0149 886.4576)" style="fill:#7371FC;" width="29.334" height="12.757"/>
			
				<rect x="395.161" y="407.744" transform="matrix(-1 -1.224647e-16 1.224647e-16 -1 819.6569 828.2448)" style="fill:#7371FC;" width="29.334" height="12.757"/>
		</g>
	</g>
	<g style="opacity:0.6;">
		<g style="opacity:0.5;">
			<path style="fill:#32338C;" d="M392.755,399.443c-12.962-5.361-26.551-11.207-35.341-23.117
				c-4.565-6.186-7.529-13.645-9.916-21.204c-11.109-35.178-10.658-73.418-16.313-110.18
				C359.683,291.221,379.334,345.318,392.755,399.443z"/>
			<path style="fill:#32338C;" d="M391.472,394.285c-14.741-26.481-14.637-59.966-10.558-90.811
				c4.079-30.844,11.669-61.49,10.242-92.628c3.371,19.759,6.894,39.593,10.266,59.352c2.061,12.081,4.126,24.189,5.026,36.446
				C408.693,337.223,403.411,366.652,391.472,394.285z"/>
			<path style="fill:#7371FC;" d="M387.904,394.149c-11.514-5.538-19.128-18.408-22.546-31.874
				c-3.419-13.466-3.259-27.691-3.256-41.688c0.005-29.431-0.902-59.48-9.995-87.105c17.062,18.087,24.26,44.683,29.429,70.309
				c3.56,17.65,6.426,35.475,8.587,53.406C391.639,369.784,390.761,381.856,387.904,394.149z"/>
			<path style="fill:#7371FC;" d="M380.953,393.675c-11.707-4.02-23.787-8.266-33.033-17.235
				c-12.883-12.497-18.128-31.986-21.91-50.566c-3.782-18.58-7.003-38.116-17.345-53.273c10.168,3.136,15.757,12.845,20.388,23.428
				c4.63,10.582,6.92,22.219,10.472,33.309C347.825,355.25,360.989,377.536,380.953,393.675z"/>
			<path style="fill:#32338C;" d="M385.487,399.443c12.962-5.361,26.551-11.207,35.341-23.117
				c4.565-6.186,7.529-13.645,9.916-21.204c11.109-35.178,10.658-73.418,16.313-110.18
				C418.56,291.221,398.909,345.318,385.487,399.443z"/>
			<path style="fill:#7371FC;" d="M390.339,394.149c11.513-5.538,19.127-18.408,22.546-31.874
				c3.419-13.466,3.259-27.691,3.256-41.688c-0.005-29.431,0.902-59.48,9.995-87.105c-17.062,18.087-24.26,44.683-29.429,70.309
				c-3.56,17.65-6.426,35.475-8.587,53.406C386.603,369.784,387.482,381.856,390.339,394.149z"/>
			<path style="fill:#7371FC;" d="M397.29,393.675c11.707-4.02,23.787-8.266,33.033-17.235
				c12.883-12.497,18.128-31.986,21.91-50.566c3.782-18.58,7.003-38.116,17.345-53.273c-10.168,3.136-15.758,12.845-20.388,23.428
				c-4.63,10.582-6.92,22.219-10.472,33.309C430.417,355.25,417.254,377.536,397.29,393.675z"/>
		</g>
		<g>
			<g>
				<polygon style="fill:#7371FC;" points="356.809,466.028 420.543,466.028 425.872,438.526 351.48,438.526 				"/>
				<polygon style="fill:#7371FC;" points="346.965,415.22 351.48,438.526 425.872,438.526 430.387,415.22 				"/>
				<polygon style="fill:#7371FC;" points="435.475,388.957 341.877,388.957 346.965,415.22 430.387,415.22 				"/>
			</g>
			<path style="fill:#32338C;" d="M339.019,381.589h99.315c2.035,0,3.684,1.649,3.684,3.684l0,0c0,2.035-1.649,3.684-3.684,3.684
				h-99.315c-2.035,0-3.684-1.649-3.684-3.684l0,0C335.335,383.239,336.984,381.589,339.019,381.589z"/>
		</g>
	</g>
	<rect y="398.965" style="fill:#7371FC;" width="500" height="101.035"/>
	<g>
		<path style="fill:#32338C;" d="M106.934,391.724H0v7.959h114.892l0,0C114.892,395.287,111.329,391.724,106.934,391.724z"/>
		<path style="fill:#32338C;" d="M92.264,285.841H0v105.883h99.758v-98.389C99.758,289.197,96.403,285.841,92.264,285.841z"/>
		
			<ellipse transform="matrix(0.1602 -0.9871 0.9871 0.1602 -315.3912 311.2364)" style="fill:#EEEEFF;" cx="25.212" cy="340.967" rx="13.171" ry="13.171"/>
		<g>
			<path style="fill:#7371FC;" d="M99.758,391.724c-8.313,0.206-16.626,0.303-24.94,0.383l-24.939,0.117l-24.94-0.115l-12.47-0.14
				L0,391.724l12.47-0.245l12.47-0.139l24.94-0.115l24.939,0.117C83.132,391.421,91.445,391.518,99.758,391.724z"/>
		</g>
	</g>
	<g>
		<rect x="408.734" y="312.974" style="fill:#91C4FB;" width="22.816" height="85.991"/>
		<rect x="408.734" y="328.067" style="fill:#EEEEFF;" width="22.816" height="3.248"/>
		<rect x="408.734" y="334.525" style="fill:#EEEEFF;" width="22.816" height="3.249"/>
		<path style="fill:#EEEEFF;" d="M425.794,348.284c0,3.122-2.531,5.652-5.653,5.652c-3.122,0-5.652-2.531-5.652-5.652
			c0-3.122,2.531-5.653,5.652-5.653C423.264,342.631,425.794,345.162,425.794,348.284z"/>
		<rect x="431.55" y="336.15" style="fill:#7371FC;" width="22.817" height="62.815"/>
		<rect x="454.367" y="322.595" style="fill:#32338C;" width="22.817" height="76.37"/>
		<rect x="477.183" y="304.873" style="fill:#91C4FB;" width="22.817" height="94.092"/>
		<rect x="431.55" y="351.243" style="fill:#32338C;" width="22.817" height="3.248"/>
		<rect x="431.55" y="387.335" style="fill:#32338C;" width="22.817" height="3.248"/>
		<rect x="477.183" y="378.034" style="fill:#32338C;" width="22.817" height="20.931"/>
		<rect x="477.183" y="372.693" style="fill:#32338C;" width="22.817" height="2.174"/>
		<rect x="477.183" y="312.974" style="fill:#32338C;" width="22.817" height="2.174"/>
	</g>
	<g>
		<rect style="opacity:0.3;fill:#7371FC;" width="248.516" height="213.652"/>
		<rect x="7.742" style="fill:#FFFFFF;" width="233.031" height="206.625"/>
		<g>
			<defs>
				<rect id="SVGID_1_" x="7.742" width="233.031" height="206.625"/>
			</defs>
			<clipPath id="SVGID_00000175292612015824184350000000202352649049438882_">
				<use xlink:href="#SVGID_1_"  style="overflow:visible;"/>
			</clipPath>
			<path style="opacity:0.2;clip-path:url(#SVGID_00000175292612015824184350000000202352649049438882_);fill:#7371FC;" d="
				M35.908,103.02H4.947v89.674l-8.6,14.781H251.77l-8.6-14.781v-72.922h-7.74v-18.723h-6.88l-0.86-45.33h-0.86l-0.86,45.33h-6.02
				v18.723h-7.74v72.922h-6.02v-63.067h-17.2v63.067h-5.16V96.122l-24.94-15.767v92.63h-6.02V61.632l-24.94,13.796v117.266h-3.44
				v-87.703h-19.78v14.781h-5.16v24.636h-30.1v48.286h-4.3v-72.922h-4.3V84.297h-3.44V67.545h-3.44l-0.86-31.534h-0.86l-0.86,31.534
				h-3.44v16.752h-4.3v35.475h-3.44v72.922h-4.3V103.02z M195.869,177.913h-4.3v5.912h4.3V177.913z M195.869,161.16h-4.3v5.913h4.3
				V161.16z M195.869,143.423h-4.3v5.912h4.3V143.423z M202.749,169.044h-4.3v5.913h4.3V169.044z M202.749,161.16h-4.3v5.913h4.3
				V161.16z M202.749,152.292h-4.3v5.913h4.3V152.292z M202.749,143.423h-4.3v5.912h4.3V143.423z M202.749,135.539h-4.3v5.913h4.3
				V135.539z M116.748,172h3.44v-5.913h-3.44V172z M116.748,180.869h3.44v-5.913h-3.44V180.869z M116.748,189.738h3.44v-5.913h-3.44
				V189.738z M109.868,172h4.3v-5.913h-4.3V172z M109.868,189.738h4.3v-5.913h-4.3V189.738z M116.748,151.306h3.44v5.913h-3.44
				V151.306z M116.748,142.437h3.44v5.913h-3.44V142.437z M116.748,134.554h3.44v5.913h-3.44V134.554z M116.748,125.685h3.44v5.912
				h-3.44V125.685z M116.748,116.816h3.44v5.913h-3.44V116.816z M109.868,142.437h4.3v5.913h-4.3V142.437z M109.868,125.685h4.3
				v5.912h-4.3V125.685z M78.048,184.811h-4.3v5.913h4.3V184.811z M90.948,184.811h-4.3v5.913h4.3V184.811z M78.048,175.942h-4.3
				v5.913h4.3V175.942z M78.048,167.073h-4.3v5.913h4.3V167.073z M78.048,158.204h-4.3v5.913h4.3V158.204z M78.048,150.321h-4.3
				v5.913h4.3V150.321z M84.068,175.942h-4.3v5.913h4.3V175.942z M84.068,158.204h-4.3v5.913h4.3V158.204z M90.948,175.942h-4.3
				v5.913h4.3V175.942z M90.948,167.073h-4.3v5.913h4.3V167.073z M90.948,158.204h-4.3v5.913h4.3V158.204z M90.948,150.321h-4.3
				v5.913h4.3V150.321z M97.828,175.942h-4.3v5.913h4.3V175.942z M97.828,167.073h-4.3v5.913h4.3V167.073z M97.828,150.321h-4.3
				v5.913h4.3V150.321z M11.827,184.811h-3.44v5.913h3.44V184.811z M11.827,175.942h-3.44v5.913h3.44V175.942z M25.587,184.811h-4.3
				v5.913h4.3V184.811z M25.587,175.942h-4.3v5.913h4.3V175.942z M31.608,184.811h-3.44v5.913h3.44V184.811z M53.968,150.321h-3.44
				v5.913h3.44V150.321z M53.968,142.437h-3.44v5.913h3.44V142.437z M53.968,133.568h-3.44v5.913h3.44V133.568z M53.968,124.7h-3.44
				v5.913h3.44V124.7z M53.968,116.816h-3.44v5.913h3.44V116.816z M53.968,107.947h-3.44v5.913h3.44V107.947z M53.968,99.078h-3.44
				v5.913h3.44V99.078z M53.968,90.21h-3.44v6.898h3.44V90.21z M11.827,167.073h-3.44v5.913h3.44V167.073z M11.827,159.19h-3.44
				v5.912h3.44V159.19z M11.827,150.321h-3.44v5.913h3.44V150.321z M11.827,141.452h-3.44v5.913h3.44V141.452z M11.827,115.831
				h-3.44v5.913h3.44V115.831z M11.827,107.947h-3.44v5.913h3.44V107.947z M18.708,167.073h-4.3v5.913h4.3V167.073z M18.708,150.321
				h-4.3v5.913h4.3V150.321z M18.708,133.568h-4.3v5.913h4.3V133.568z M18.708,124.7h-4.3v5.913h4.3V124.7z M18.708,115.831h-4.3
				v5.913h4.3V115.831z M25.587,167.073h-4.3v5.913h4.3V167.073z M25.587,159.19h-4.3v5.912h4.3V159.19z M25.587,150.321h-4.3v5.913
				h4.3V150.321z M25.587,141.452h-4.3v5.913h4.3V141.452z M25.587,124.7h-4.3v5.913h4.3V124.7z M25.587,115.831h-4.3v5.913h4.3
				V115.831z M31.608,167.073h-3.44v5.913h3.44V167.073z M31.608,159.19h-3.44v5.912h3.44V159.19z M31.608,141.452h-3.44v5.913h3.44
				V141.452z M31.608,133.568h-3.44v5.913h3.44V133.568z M31.608,124.7h-3.44v5.913h3.44V124.7z M18.708,107.947h-4.3v5.913h4.3
				V107.947z M31.608,107.947h-3.44v5.913h3.44V107.947z M135.669,139.481h-4.3v5.913h4.3V139.481z M135.669,130.612h-4.3v5.913h4.3
				V130.612z M135.669,122.729h-4.3v5.913h4.3V122.729z M135.669,104.991h-4.3v5.913h4.3V104.991z M135.669,96.122h-4.3v6.898h4.3
				V96.122z M135.669,88.239h-4.3v5.912h4.3V88.239z M142.549,139.481h-4.3v5.913h4.3V139.481z M142.549,122.729h-4.3v5.913h4.3
				V122.729z M142.549,104.991h-4.3v5.913h4.3V104.991z M142.549,88.239h-4.3v5.912h4.3V88.239z M149.429,130.612h-4.3v5.913h4.3
				V130.612z M149.429,122.729h-4.3v5.913h4.3V122.729z M149.429,113.86h-4.3v5.912h4.3V113.86z M149.429,96.122h-4.3v6.898h4.3
				V96.122z M142.549,79.37h-4.3v5.913h4.3V79.37z M149.429,79.37h-4.3v5.913h4.3V79.37z M220.81,183.825h-6.02v5.913h6.02V183.825z
				 M220.81,174.956h-6.02v5.913h6.02V174.956z M220.81,158.204h-6.02v5.913h6.02V158.204z M220.81,140.467h-6.02v5.912h6.02
				V140.467z M220.81,132.583h-6.02v5.913h6.02V132.583z M230.27,183.825h-6.02v5.913h6.02V183.825z M230.27,166.088h-6.02V172h6.02
				V166.088z M230.27,158.204h-6.02v5.913h6.02V158.204z M230.27,149.335h-6.02v5.913h6.02V149.335z M230.27,132.583h-6.02v5.913
				h6.02V132.583z M239.73,183.825h-6.02v5.913h6.02V183.825z M239.73,174.956h-6.02v5.913h6.02V174.956z M239.73,158.204h-6.02
				v5.913h6.02V158.204z M239.73,140.467h-6.02v5.912h6.02V140.467z M230.27,123.714h-6.02v5.913h6.02V123.714z M239.73,123.714
				h-6.02v5.913h6.02V123.714z M167.489,160.175h-4.3v5.913h4.3V160.175z M167.489,151.306h-4.3v5.913h4.3V151.306z
				 M167.489,142.437h-4.3v5.913h4.3V142.437z M167.489,125.685h-4.3v5.912h4.3V125.685z M167.489,116.816h-4.3v5.913h4.3V116.816z
				 M174.369,160.175h-4.3v5.913h4.3V160.175z M174.369,142.437h-4.3v5.913h4.3V142.437z M174.369,125.685h-4.3v5.912h4.3V125.685z
				 M174.369,108.933h-4.3v5.913h4.3V108.933z M181.249,151.306h-4.3v5.913h4.3V151.306z M181.249,142.437h-4.3v5.913h4.3V142.437z
				 M181.249,134.554h-4.3v5.913h4.3V134.554z M181.249,125.685h-4.3v5.912h4.3V125.685z M181.249,116.816h-4.3v5.913h4.3V116.816z
				 M167.489,100.064h-4.3v5.912h4.3V100.064z M174.369,100.064h-4.3v5.912h4.3V100.064z"/>
			<g style="opacity:0.4;clip-path:url(#SVGID_00000175292612015824184350000000202352649049438882_);">
				<polygon style="fill:#FFFFFF;" points="197.655,-4.021 7.742,132.709 7.742,94.167 197.655,-42.563 				"/>
				<polygon style="fill:#FFFFFF;" points="273.883,73.865 7.742,265.209 7.742,246.437 273.883,55.092 				"/>
				<polygon style="fill:#FFFFFF;" points="273.883,14.223 7.742,205.835 7.742,151.823 273.883,-39.789 				"/>
			</g>
		</g>
		<rect x="126.057" style="opacity:0.3;fill:#7371FC;" width="6.425" height="207.231"/>
	</g>
	<g>
		<path style="fill:#7371FC;" d="M365.143,356.593c-4.284-2.589-8.917-4.569-13.701-5.964c-4.777-1.406-9.754-2.167-14.714-2.03
			c-2.477,0.072-4.945,0.362-7.364,0.879c-2.416,0.531-4.774,1.309-7.032,2.31c-4.486,2.118-8.872,4.538-13.126,7.151
			c-8.595,5.099-16.872,10.735-25.118,16.399c-4.125,2.832-8.214,5.718-12.281,8.634c-4.089,2.887-8.133,5.837-12.182,8.784
			c7.831-6.244,15.85-12.251,24-18.077c8.162-5.808,16.455-11.446,25.044-16.636c4.293-2.598,8.704-4.999,13.282-7.125
			c4.642-2.036,9.707-3.109,14.763-3.12C346.85,347.753,356.772,351.149,365.143,356.593z"/>
	</g>
	<g>
		<path style="fill:#7371FC;" d="M328.968,428.545c-7.052,3.884-14.269,7.466-21.587,10.832c-3.65,1.703-7.356,3.285-11.085,4.814
			c-3.722,1.545-7.497,2.966-11.299,4.316c-7.657,2.558-15.413,4.739-23.235,6.669c-7.827,1.901-15.7,3.614-23.64,4.947
			c3.927-0.883,7.847-1.781,11.75-2.756c3.909-0.943,7.808-1.928,11.69-2.97c7.761-2.086,15.511-4.258,23.094-6.878
			c7.594-2.597,15.027-5.668,22.397-8.874c3.692-1.59,7.353-3.253,11.001-4.947C321.714,432.031,325.344,430.296,328.968,428.545z"
			/>
	</g>
	<g>
		
			<rect x="342.126" y="90.31" transform="matrix(-1 -1.224647e-16 1.224647e-16 -1 770.9743 280.5848)" style="opacity:0.3;fill:#7371FC;" width="86.723" height="99.965"/>
		
			<rect x="348.698" y="97.886" transform="matrix(-1 -1.224647e-16 1.224647e-16 -1 770.9742 280.585)" style="fill:#FFFFFF;" width="73.578" height="84.813"/>
		<polyline style="opacity:0.5;fill:none;stroke:#7371FC;stroke-width:0.8811;stroke-miterlimit:10;" points="422.276,182.699 
			398.029,116.024 380.221,182.699 362.219,128.178 348.698,182.699 		"/>
	</g>
	<g>
		
			<rect x="445.23" y="32.209" transform="matrix(-1 -1.224647e-16 1.224647e-16 -1 945.2302 164.3828)" style="opacity:0.3;fill:#7371FC;" width="54.77" height="99.965"/>
		
			<rect x="451.803" y="39.785" transform="matrix(-1 -1.224647e-16 1.224647e-16 -1 951.8028 164.3828)" style="fill:#FFFFFF;" width="48.197" height="84.813"/>
	</g>
	<g>
		<g>
			
				<ellipse transform="matrix(0.9239 -0.3827 0.3827 0.9239 6.2091 157.1054)" style="fill:#7371FC;" cx="398.016" cy="62.945" rx="11.199" ry="11.199"/>
			<rect x="392.927" style="fill:#7371FC;" width="10.136" height="50.313"/>
			<path style="fill:#C9C9FF;" d="M420.507,27.08h-45.023c-20.27,0-36.702,16.432-36.702,36.702l0,0h118.428l0,0
				C457.209,43.513,440.777,27.08,420.507,27.08z"/>
			<rect x="338.824" y="62.107" style="fill:#7371FC;" width="118.385" height="1.675"/>
		</g>
		<g>
			
				<ellipse transform="matrix(0.9239 -0.3827 0.3827 0.9239 -16.3218 43.8349)" style="fill:#7371FC;" cx="102.026" cy="62.945" rx="11.199" ry="11.199"/>
			<rect x="96.937" style="fill:#7371FC;" width="10.136" height="50.313"/>
			<path style="fill:#C9C9FF;" d="M124.516,27.08H79.493c-20.27,0-36.702,16.432-36.702,36.702l0,0h118.427l0,0
				C161.218,43.513,144.786,27.08,124.516,27.08z"/>
			<rect x="42.833" y="62.107" style="fill:#7371FC;" width="118.385" height="1.675"/>
		</g>
	</g>
	<g>
		<g>
			<polygon style="fill:#7371FC;" points="332.505,175.774 340.435,172.493 342.935,165.345 345.439,172.859 353.365,175.774 
				346.171,178.594 342.935,186.204 340.435,179.205 			"/>
			<g>
				<path style="fill:#7371FC;" d="M338.382,146.895c-2.049,0.728-4.098,1.105-6.147,1.376c-2.049,0.258-4.098,0.378-6.147,0.38
					c-2.049,0.003-4.098-0.117-6.147-0.375c-2.049-0.271-4.098-0.649-6.147-1.381c2.049-0.732,4.098-1.11,6.147-1.381
					c2.049-0.257,4.098-0.378,6.147-0.375c2.049,0.002,4.098,0.122,6.147,0.38C334.284,145.791,336.333,146.168,338.382,146.895z"/>
				<path style="fill:#7371FC;" d="M326.088,134.602c0.728,2.049,1.105,4.098,1.376,6.147c0.258,2.049,0.378,4.098,0.379,6.147
					c0.003,2.049-0.117,4.098-0.374,6.147c-0.271,2.049-0.649,4.098-1.381,6.147c-0.732-2.049-1.111-4.098-1.381-6.147
					c-0.258-2.049-0.378-4.098-0.375-6.147c0.002-2.049,0.122-4.098,0.38-6.147C324.983,138.699,325.361,136.651,326.088,134.602z"
					/>
				<path style="fill:#7371FC;" d="M334.781,155.589c-1.963-0.935-3.679-2.116-5.32-3.373c-1.631-1.267-3.165-2.631-4.615-4.079
					c-1.451-1.446-2.814-2.98-4.081-4.611c-1.258-1.64-2.439-3.357-3.37-5.323c1.966,0.931,3.683,2.112,5.323,3.37
					c1.631,1.267,3.165,2.631,4.612,4.081c1.447,1.45,2.811,2.984,4.078,4.615C332.665,151.91,333.847,153.625,334.781,155.589z"/>
				<path style="fill:#7371FC;" d="M334.781,138.202c-0.935,1.963-2.117,3.679-3.374,5.32c-1.267,1.631-2.631,3.165-4.078,4.615
					c-1.447,1.451-2.981,2.815-4.612,4.082c-1.64,1.258-3.357,2.439-5.323,3.37c0.931-1.967,2.112-3.683,3.37-5.323
					c1.267-1.631,2.631-3.165,4.081-4.612c1.451-1.447,2.984-2.811,4.615-4.078C331.102,140.319,332.818,139.137,334.781,138.202z"
					/>
			</g>
			<g>
				<path style="fill:#7371FC;" d="M353.604,125.379c-0.921,0.327-1.842,0.497-2.763,0.619c-0.921,0.116-1.842,0.169-2.763,0.171
					c-0.921,0.001-1.842-0.053-2.763-0.168c-0.921-0.122-1.842-0.292-2.763-0.621c0.921-0.329,1.842-0.499,2.763-0.621
					c0.921-0.116,1.842-0.17,2.763-0.168c0.921,0.001,1.842,0.055,2.763,0.171C351.762,124.882,352.683,125.052,353.604,125.379z"/>
				<path style="fill:#7371FC;" d="M348.078,119.853c0.327,0.921,0.497,1.842,0.619,2.763c0.116,0.921,0.17,1.842,0.171,2.763
					c0.001,0.921-0.053,1.842-0.168,2.763c-0.122,0.921-0.292,1.842-0.621,2.763c-0.329-0.921-0.499-1.842-0.621-2.763
					c-0.115-0.921-0.17-1.842-0.168-2.763c0.001-0.921,0.055-1.842,0.171-2.763C347.581,121.695,347.751,120.774,348.078,119.853z"
					/>
				<path style="fill:#7371FC;" d="M351.985,129.286c-0.882-0.42-1.654-0.951-2.391-1.516c-0.733-0.57-1.423-1.183-2.074-1.833
					c-0.652-0.65-1.265-1.34-1.835-2.073c-0.565-0.737-1.096-1.509-1.515-2.393c0.884,0.418,1.655,0.95,2.393,1.515
					c0.733,0.569,1.423,1.183,2.073,1.835c0.65,0.652,1.264,1.341,1.833,2.074C351.034,127.633,351.565,128.404,351.985,129.286z"/>
				<path style="fill:#7371FC;" d="M351.985,121.471c-0.42,0.882-0.951,1.654-1.516,2.391c-0.569,0.733-1.183,1.422-1.833,2.074
					c-0.65,0.652-1.34,1.265-2.073,1.835c-0.737,0.565-1.509,1.096-2.393,1.515c0.419-0.884,0.949-1.656,1.515-2.393
					c0.569-0.733,1.182-1.423,1.835-2.073c0.652-0.651,1.341-1.264,2.074-1.833C350.332,122.423,351.103,121.891,351.985,121.471z"
					/>
			</g>
		</g>
		<g>
			<polygon style="fill:#7371FC;" points="168.726,171.553 161.212,168.443 158.843,161.67 156.471,168.79 148.96,171.553 
				155.777,174.225 158.843,181.436 161.212,174.803 			"/>
			<g>
				<path style="fill:#7371FC;" d="M163.157,144.189c1.942,0.689,3.883,1.047,5.825,1.304c1.941,0.244,3.883,0.358,5.824,0.36
					c1.942,0.003,3.883-0.111,5.825-0.355c1.941-0.256,3.883-0.615,5.825-1.309c-1.942-0.693-3.883-1.052-5.825-1.309
					c-1.941-0.244-3.883-0.358-5.825-0.355c-1.941,0.002-3.883,0.115-5.824,0.36C167.04,143.142,165.098,143.5,163.157,144.189z"/>
				<path style="fill:#7371FC;" d="M174.806,132.54c-0.689,1.941-1.047,3.883-1.304,5.825c-0.244,1.941-0.358,3.883-0.36,5.824
					c-0.003,1.942,0.111,3.883,0.355,5.824c0.257,1.941,0.615,3.883,1.309,5.825c0.694-1.942,1.052-3.883,1.309-5.825
					c0.244-1.942,0.358-3.883,0.355-5.824c-0.002-1.941-0.116-3.883-0.36-5.824C175.853,136.423,175.495,134.481,174.806,132.54z"/>
				<path style="fill:#7371FC;" d="M166.569,152.426c1.86-0.886,3.486-2.005,5.041-3.196c1.546-1.2,2.998-2.493,4.373-3.864
					c1.375-1.371,2.667-2.824,3.867-4.369c1.192-1.554,2.311-3.181,3.193-5.044c-1.863,0.882-3.49,2.002-5.044,3.193
					c-1.545,1.201-2.999,2.493-4.37,3.867c-1.372,1.374-2.664,2.827-3.864,4.373C168.574,148.94,167.454,150.566,166.569,152.426z"
					/>
				<path style="fill:#7371FC;" d="M166.569,135.952c0.886,1.86,2.006,3.486,3.197,5.04c1.2,1.546,2.493,2.999,3.864,4.373
					c1.371,1.375,2.824,2.667,4.37,3.868c1.554,1.192,3.18,2.311,5.044,3.193c-0.882-1.863-2.001-3.49-3.193-5.044
					c-1.2-1.545-2.493-2.999-3.867-4.37c-1.374-1.372-2.827-2.664-4.373-3.864C170.055,137.957,168.429,136.837,166.569,135.952z"/>
			</g>
			<g>
				<path style="fill:#7371FC;" d="M148.734,123.801c0.873,0.31,1.745,0.471,2.618,0.586c0.873,0.11,1.746,0.161,2.618,0.162
					c0.873,0.001,1.745-0.05,2.618-0.16c0.873-0.115,1.745-0.276,2.618-0.588c-0.873-0.312-1.745-0.473-2.618-0.588
					c-0.873-0.11-1.745-0.161-2.618-0.16c-0.873,0.001-1.746,0.052-2.618,0.162C150.479,123.33,149.607,123.491,148.734,123.801z"/>
				<path style="fill:#7371FC;" d="M153.97,118.565c-0.31,0.873-0.471,1.745-0.586,2.618c-0.11,0.873-0.161,1.745-0.162,2.618
					c-0.001,0.873,0.05,1.746,0.159,2.618c0.115,0.873,0.277,1.746,0.589,2.618c0.312-0.872,0.473-1.745,0.588-2.618
					c0.109-0.873,0.161-1.745,0.16-2.618c-0.001-0.873-0.052-1.745-0.162-2.618C154.441,120.31,154.28,119.437,153.97,118.565z"/>
				<path style="fill:#7371FC;" d="M150.267,127.504c0.836-0.398,1.567-0.901,2.266-1.437c0.695-0.54,1.348-1.121,1.965-1.737
					c0.618-0.616,1.199-1.269,1.738-1.964c0.536-0.699,1.039-1.43,1.435-2.267c-0.838,0.397-1.569,0.9-2.267,1.436
					c-0.695,0.54-1.348,1.12-1.964,1.738c-0.616,0.618-1.197,1.271-1.737,1.965C151.169,125.937,150.665,126.667,150.267,127.504z"
					/>
				<path style="fill:#7371FC;" d="M150.267,120.098c0.398,0.836,0.901,1.567,1.437,2.266c0.54,0.695,1.121,1.348,1.737,1.966
					c0.616,0.618,1.27,1.199,1.964,1.739c0.699,0.536,1.43,1.039,2.267,1.435c-0.397-0.838-0.9-1.569-1.435-2.267
					c-0.54-0.695-1.12-1.348-1.738-1.964c-0.618-0.617-1.271-1.198-1.965-1.737C151.834,121,151.103,120.496,150.267,120.098z"/>
			</g>
		</g>
	</g>
</g>
<g id="OBJECTS">
	<g>
		<ellipse style="opacity:0.4;fill:#32338C;" cx="247.722" cy="418.508" rx="121.709" ry="24.635"/>
		<g>
			<g>
				<path style="fill:#FE814B;" d="M269.064,168.196l-2.38-7.371l-14.987-2.678l0,0v0l-14.987,2.678l-2.348,7.271
					c3.008,1.369,8.41,3.084,16.678,3.084C259.107,171.18,265.303,169.548,269.064,168.196z"/>
				<path style="fill:#7371FC;" d="M266,288.841c-0.04-36.564,7.09-108.176,7.09-108.176l-4.026-12.469
					c-3.761,1.351-9.958,2.984-18.025,2.984c-8.267,0-13.669-1.715-16.678-3.084l-4.058,12.569c0,0,7.131,71.612,7.09,108.176
					c-0.025,22.933-8.285,56.211-14.441,77.837c15.22,3.896,28.744,3.648,28.744,3.648v-0.003l0,0.003
					c0,0,13.524,0.248,28.744-3.648C274.285,345.052,266.025,311.775,266,288.841z"/>
			</g>
			<path style="fill:#32338C;" d="M230.304,180.665l-66.179,24.787c0,0-7.62,25.069-8.747,45.913s-5.92,44.505-5.92,44.505
				l-9.853,38.871c0,0,18.927,13.515,49.18,22.531c12.063,3.595,24.076,6.822,34.169,9.406
				c6.156-21.626,14.416-54.904,14.441-77.837C237.435,252.277,230.304,180.665,230.304,180.665z"/>
			<g>
				<path style="fill:#7371FC;" d="M231.356,191.76l-3.537,8.487c-1.195,2.822-2.359,5.658-3.582,8.467l-7.277,16.883l-0.162,0.376
					l-0.42,0.002l-15.027,0.065l0.611-1.05c3.031,5.277,6.061,10.553,9.023,15.869l8.941,15.916
					c5.887,10.652,11.771,21.307,17.467,32.067c-6.318-10.408-12.449-20.922-18.576-31.438l-9.08-15.837
					c-3.045-5.269-6.022-10.576-8.998-15.883l-0.592-1.055l1.203,0.005l15.027,0.065l-0.582,0.378l7.701-16.694
					c1.273-2.787,2.606-5.547,3.907-8.322L231.356,191.76z"/>
			</g>
			<g>
				<path style="fill:#7371FC;" d="M219.373,184.759c-1.636,2.442-3.325,4.843-5.02,7.24c-1.7,2.392-3.432,4.761-5.174,7.121
					c-1.745,2.358-3.503,4.706-5.285,7.037c-1.763,2.345-3.579,4.648-5.37,6.971l-0.164-1.03c3.047,2.143,6.081,4.303,9.092,6.499
					c1.497,1.109,3.007,2.201,4.486,3.336c1.484,1.129,2.98,2.241,4.441,3.402c-1.609-0.946-3.185-1.941-4.772-2.92
					c-1.591-0.973-3.153-1.988-4.727-2.986c-3.132-2.019-6.239-4.073-9.334-6.146l-0.629-0.421l0.465-0.609
					c1.779-2.332,3.533-4.684,5.34-6.995c1.788-2.325,3.6-4.632,5.425-6.929c1.828-2.295,3.666-4.582,5.536-6.844
					C215.558,189.227,217.439,186.972,219.373,184.759z"/>
			</g>
			<g>
				<path style="fill:#7371FC;" d="M164.125,205.452c1.821,4.169,3.477,8.406,5.128,12.646c1.597,4.26,3.159,8.534,4.63,12.842
					c2.957,8.61,5.535,17.356,7.655,26.232c0.542,2.216,0.931,4.47,1.383,6.707c0.211,1.122,0.363,2.258,0.547,3.386
					c0.182,1.13,0.355,2.259,0.483,3.39c0.578,4.519,1.077,9.049,1.385,13.594c0.647,9.083,0.955,18.206,0.392,27.292
					c-0.022-4.548-0.181-9.088-0.474-13.62c-0.249-4.533-0.605-9.059-1.068-13.573c-0.95-9.029-1.917-18.055-4.109-26.842
					c-1.983-8.84-4.572-17.547-7.286-26.21c-1.334-4.34-2.774-8.648-4.226-12.953C167.149,214.027,165.631,209.744,164.125,205.452z
					"/>
			</g>
			<g>
				<path style="fill:#32338C;" d="M273.09,180.665l66.179,24.787c0,0,7.62,25.069,8.747,45.913s5.92,44.505,5.92,44.505
					l9.853,38.871c0,0-18.927,13.515-49.18,22.531c-12.063,3.595-24.076,6.822-34.169,9.406
					c-6.156-21.626-14.416-54.904-14.441-77.837C265.96,252.277,273.09,180.665,273.09,180.665z"/>
			</g>
			<g>
				<path style="fill:#7371FC;" d="M272.038,191.76l3.952,8.301c1.301,2.775,2.634,5.535,3.907,8.322l7.701,16.694l-0.582-0.378
					l15.027-0.065l1.203-0.005l-0.592,1.055c-2.976,5.307-5.953,10.615-8.998,15.883l-9.08,15.837
					c-6.127,10.516-12.258,21.03-18.576,31.438c5.696-10.761,11.58-21.415,17.467-32.067l8.941-15.916
					c2.962-5.316,5.992-10.592,9.023-15.869l0.611,1.05l-15.027-0.065l-0.42-0.002l-0.162-0.376l-7.277-16.883
					c-1.223-2.809-2.386-5.645-3.582-8.467L272.038,191.76z"/>
			</g>
			<g>
				<path style="fill:#7371FC;" d="M284.021,184.759c1.935,2.213,3.815,4.468,5.69,6.726c1.87,2.263,3.708,4.55,5.536,6.844
					c1.825,2.297,3.637,4.604,5.425,6.929c1.807,2.311,3.561,4.663,5.34,6.995l0.465,0.609l-0.629,0.421
					c-3.095,2.072-6.203,4.127-9.334,6.146c-1.573,0.999-3.135,2.014-4.727,2.986c-1.587,0.979-3.163,1.974-4.772,2.92
					c1.462-1.161,2.957-2.274,4.441-3.402c1.48-1.135,2.989-2.227,4.486-3.336c3.01-2.196,6.045-4.357,9.092-6.499l-0.164,1.03
					c-1.791-2.323-3.607-4.627-5.37-6.971c-1.782-2.33-3.54-4.678-5.285-7.037c-1.742-2.361-3.474-4.729-5.174-7.121
					C287.346,189.602,285.657,187.202,284.021,184.759z"/>
			</g>
			<g>
				<path style="fill:#7371FC;" d="M339.269,205.452c-1.506,4.292-3.024,8.575-4.44,12.893c-1.452,4.305-2.892,8.613-4.226,12.953
					c-2.715,8.663-5.303,17.37-7.286,26.21c-2.193,8.788-3.159,17.814-4.109,26.842c-0.463,4.514-0.819,9.04-1.068,13.573
					c-0.293,4.532-0.452,9.072-0.474,13.62c-0.563-9.086-0.254-18.209,0.392-27.292c0.308-4.545,0.808-9.076,1.385-13.594
					c0.128-1.131,0.301-2.26,0.483-3.39c0.184-1.128,0.336-2.264,0.547-3.386c0.452-2.238,0.841-4.492,1.383-6.707
					c2.121-8.876,4.698-17.622,7.655-26.232c1.471-4.308,3.032-8.583,4.63-12.842C335.791,213.859,337.448,209.622,339.269,205.452z
					"/>
			</g>
			<rect x="173.07" y="357.272" style="fill:#32338C;" width="157.898" height="53.036"/>
			<g>
				<path style="fill:#32338C;" d="M306.438,475.374c0,0,46.878,4.189,77.22,1.335c28.911-2.72,18.833-23.279,11.509-28.772
					c-7.324-5.493-22.756-11.509-35.05-11.509s-24.104,8.105-33.48,6.278c-9.376-1.828-14.386-6.278-14.386-6.278L306.438,475.374z"
					/>
				<path style="fill:#32338C;" d="M179.306,346.415c0,0-53.192,4.375-58.404,37.376c-5.212,33,79.917,65.575,98.159,71.656
					s87.376,19.928,87.376,19.928s8.907-12.67,9.82-22.719c0.914-10.048,1.827-22.38,1.827-22.38L179.306,346.415z"/>
				<g>
					<path style="fill:#7371FC;" d="M318.085,430.275c0.069,1.979,0.04,3.958,0.028,5.939c-0.048,1.979-0.125,3.957-0.223,5.936
						c-0.094,1.979-0.268,3.954-0.472,5.928c-0.203,1.974-0.445,3.946-0.791,5.911c-0.674,3.951-2.145,7.743-3.93,11.28
						c-1.805,3.543-3.883,6.936-6.26,10.105c1.005-1.706,1.995-3.414,2.903-5.167c0.935-1.736,1.829-3.493,2.632-5.287
						c1.619-3.584,3.047-7.24,3.627-11.119c0.743-3.85,1.092-7.789,1.492-11.712c0.194-1.964,0.359-3.932,0.512-5.902
						L318.085,430.275z"/>
				</g>
				<g>
					<path style="fill:#7371FC;" d="M356.24,477.699c0.726-1.696,1.115-3.479,1.422-5.255c0.273-1.785,0.404-3.586,0.385-5.39
						c-0.002-1.807-0.127-3.614-0.393-5.4c-0.285-1.78-0.65-3.57-1.414-5.248c1.124,1.481,1.789,3.283,2.216,5.092
						c0.442,1.818,0.617,3.687,0.637,5.55c-0.001,1.867-0.184,3.742-0.634,5.558C358.008,474.414,357.326,476.194,356.24,477.699z"
						/>
				</g>
				<g>
					<path style="fill:#7371FC;" d="M350.268,477.699c0.726-1.696,1.115-3.479,1.422-5.255c0.273-1.785,0.404-3.586,0.385-5.39
						c-0.002-1.807-0.127-3.614-0.393-5.4c-0.285-1.78-0.65-3.57-1.414-5.248c1.124,1.481,1.789,3.283,2.216,5.092
						c0.442,1.818,0.617,3.687,0.637,5.55c-0.001,1.867-0.184,3.742-0.634,5.558C352.036,474.414,351.354,476.194,350.268,477.699z"
						/>
				</g>
				<g>
					<path style="fill:#7371FC;" d="M344.296,477.699c0.726-1.696,1.115-3.479,1.422-5.255c0.273-1.785,0.404-3.586,0.385-5.39
						c-0.001-1.807-0.127-3.614-0.393-5.4c-0.285-1.78-0.65-3.57-1.414-5.248c1.124,1.481,1.789,3.283,2.216,5.092
						c0.442,1.818,0.617,3.687,0.637,5.55c-0.001,1.867-0.184,3.742-0.634,5.558C346.064,474.414,345.381,476.194,344.296,477.699z"
						/>
				</g>
				<g>
					<path style="fill:#7371FC;" d="M338.324,477.699c0.726-1.696,1.115-3.479,1.422-5.255c0.273-1.785,0.404-3.586,0.385-5.39
						c-0.002-1.807-0.127-3.614-0.393-5.4c-0.285-1.78-0.65-3.57-1.414-5.248c1.124,1.481,1.789,3.283,2.216,5.092
						c0.442,1.818,0.617,3.687,0.637,5.55c-0.001,1.867-0.184,3.742-0.634,5.558C340.091,474.414,339.409,476.194,338.324,477.699z"
						/>
				</g>
				<g>
					<path style="fill:#7371FC;" d="M317.379,443.55c3.278,1.522,6.865,2.203,10.426,2.56c1.785,0.189,3.58,0.268,5.374,0.264
						c1.802,0.025,3.566-0.125,5.315-0.441c3.49-0.695,6.764-2.16,10.028-3.701c3.262-1.522,6.697-2.979,10.383-3.418
						c3.676-0.509,7.393,0.098,10.894,1.025c3.519,0.931,6.945,2.134,10.289,3.52c6.698,2.745,13.202,5.92,19.494,9.465
						c-3.245-1.582-6.506-3.125-9.81-4.57c-3.291-1.472-6.613-2.871-9.979-4.145c-3.369-1.259-6.759-2.479-10.232-3.347
						c-3.46-0.883-7.02-1.423-10.527-0.91c-3.52,0.386-6.848,1.754-10.117,3.245c-3.266,1.491-6.64,3.031-10.28,3.625
						c-1.81,0.28-3.66,0.384-5.466,0.31c-1.814-0.047-3.627-0.167-5.425-0.416c-1.797-0.25-3.581-0.598-5.326-1.086
						C320.678,445.04,318.952,444.444,317.379,443.55z"/>
				</g>
			</g>
			<g>
				<path style="fill:#32338C;" d="M193.562,475.374c0,0-46.878,4.189-77.22,1.335c-28.911-2.72-18.833-23.279-11.509-28.772
					c7.324-5.493,22.756-11.509,35.05-11.509c12.294,0,24.104,8.105,33.48,6.278c9.376-1.828,14.386-6.278,14.386-6.278
					L193.562,475.374z"/>
				<path style="fill:#32338C;" d="M331.755,348.166c0,0,42.13,2.624,47.342,35.624c5.212,33-79.917,65.575-98.159,71.656
					c-18.242,6.081-87.376,19.928-87.376,19.928s-8.907-12.67-9.82-22.719c-0.913-10.048-1.827-22.38-1.827-22.38L331.755,348.166z"
					/>
				<g>
					<path style="fill:#7371FC;" d="M324.207,367.669c-11.412,6.152-22.912,12.148-34.554,17.861
						c-5.812,2.875-11.664,5.671-17.534,8.428c-5.898,2.697-11.802,5.387-17.787,7.895c-5.978,2.533-12.019,4.898-18.029,7.315
						l-18.072,7.177c-12.058,4.76-24.091,9.58-36.171,14.286l0.24-0.364c0.079,3.942,0.259,7.892,0.526,11.829
						c0.288,3.935,0.635,7.874,1.297,11.756c0.584,3.9,1.987,7.615,3.651,11.19c1.681,3.571,3.628,7.022,5.79,10.332
						c-2.228-3.266-4.247-6.679-6.005-10.228c-1.739-3.545-3.236-7.279-3.906-11.208c-0.75-3.901-1.115-7.851-1.457-11.794
						c-0.312-3.948-0.538-7.898-0.662-11.86l-0.008-0.263l0.248-0.101c12.008-4.888,24.063-9.661,36.093-14.495l18.06-7.214
						c6.026-2.398,12.067-4.737,18.036-7.24c11.938-5.021,23.702-10.467,35.4-16.042
						C301.037,379.306,312.68,373.603,324.207,367.669z"/>
				</g>
				<g>
					<path style="fill:#7371FC;" d="M143.76,477.699c-1.085-1.506-1.768-3.286-2.219-5.093c-0.45-1.816-0.632-3.691-0.634-5.558
						c0.02-1.863,0.195-3.732,0.637-5.55c0.427-1.809,1.092-3.611,2.216-5.092c-0.765,1.678-1.129,3.469-1.414,5.248
						c-0.266,1.786-0.391,3.593-0.393,5.4c-0.019,1.803,0.112,3.605,0.385,5.39C142.645,474.22,143.034,476.004,143.76,477.699z"/>
				</g>
				<g>
					<path style="fill:#7371FC;" d="M149.732,477.699c-1.086-1.506-1.768-3.286-2.219-5.093c-0.45-1.816-0.633-3.691-0.634-5.558
						c0.02-1.863,0.196-3.732,0.638-5.55c0.427-1.809,1.092-3.611,2.216-5.092c-0.764,1.678-1.129,3.469-1.415,5.248
						c-0.266,1.786-0.391,3.593-0.393,5.4c-0.019,1.803,0.112,3.605,0.385,5.39C148.617,474.22,149.006,476.004,149.732,477.699z"/>
				</g>
				<g>
					<path style="fill:#7371FC;" d="M155.704,477.699c-1.085-1.506-1.768-3.286-2.219-5.093c-0.45-1.816-0.633-3.691-0.634-5.558
						c0.02-1.863,0.195-3.732,0.637-5.55c0.427-1.809,1.092-3.611,2.216-5.092c-0.765,1.678-1.129,3.469-1.415,5.248
						c-0.266,1.786-0.391,3.593-0.393,5.4c-0.019,1.803,0.112,3.605,0.385,5.39C154.589,474.22,154.978,476.004,155.704,477.699z"/>
				</g>
				<g>
					<path style="fill:#7371FC;" d="M161.676,477.699c-1.085-1.506-1.768-3.286-2.219-5.093c-0.45-1.816-0.633-3.691-0.634-5.558
						c0.02-1.863,0.195-3.732,0.637-5.55c0.427-1.809,1.092-3.611,2.216-5.092c-0.765,1.678-1.129,3.469-1.414,5.248
						c-0.266,1.786-0.391,3.593-0.393,5.4c-0.019,1.803,0.112,3.605,0.385,5.39C160.561,474.22,160.95,476.004,161.676,477.699z"/>
				</g>
				<g>
					<path style="fill:#7371FC;" d="M182.622,443.55c-1.573,0.894-3.3,1.49-5.041,1.981c-1.746,0.488-3.529,0.836-5.326,1.086
						c-1.798,0.249-3.611,0.369-5.425,0.416c-1.806,0.073-3.657-0.03-5.466-0.31c-3.64-0.594-7.014-2.134-10.28-3.625
						c-3.27-1.491-6.597-2.859-10.117-3.245c-3.507-0.513-7.067,0.027-10.527,0.91c-3.473,0.868-6.863,2.088-10.232,3.347
						c-3.366,1.274-6.688,2.673-9.979,4.145c-3.304,1.445-6.565,2.989-9.81,4.57c6.292-3.544,12.796-6.72,19.494-9.465
						c3.344-1.386,6.77-2.589,10.289-3.52c3.5-0.926,7.218-1.534,10.894-1.025c3.686,0.438,7.121,1.896,10.383,3.418
						c3.264,1.541,6.537,3.006,10.028,3.701c1.749,0.316,3.513,0.466,5.315,0.441c1.794,0.003,3.589-0.075,5.374-0.264
						C175.756,445.753,179.343,445.072,182.622,443.55z"/>
				</g>
			</g>
			<g>
				<path style="fill:#7371FC;" d="M264,397.757c-4.448-3.388-8.92-6.736-13.448-10.008c-4.504-3.302-9.061-6.531-13.671-9.677
					c-9.177-6.349-18.579-12.386-28.357-17.707c-4.887-2.655-9.91-5.079-15.128-6.925c-5.229-1.766-10.695-2.957-16.223-3.391
					c-5.529-0.456-11.117-0.178-16.6,0.756c-5.473,0.958-10.879,2.556-15.869,5.078c4.869-2.766,10.272-4.52,15.756-5.673
					c5.499-1.157,11.166-1.484,16.783-1.153c5.623,0.346,11.2,1.39,16.571,3.159c5.342,1.836,10.438,4.243,15.392,6.876
					c4.968,2.614,9.766,5.524,14.478,8.552c4.71,3.031,9.349,6.169,13.907,9.417c4.536,3.279,9.012,6.637,13.432,10.064
					C255.415,390.588,259.777,394.091,264,397.757z"/>
			</g>
			<polygon style="fill:#32338C;" points="219.671,323.28 235.029,328.791 233.453,366.391 219.671,364.133 			"/>
			<g>
				<path style="fill:#7371FC;" d="M237.395,329.409c-3.041-0.873-6.05-1.836-9.076-2.752l-9.025-2.9
					c-6.016-1.935-11.993-3.982-17.97-6.029c-5.965-2.081-11.93-4.164-17.856-6.357l-8.888-3.295
					c-2.945-1.15-5.906-2.251-8.836-3.445c3.041,0.872,6.05,1.835,9.077,2.75l9.025,2.899c6.015,1.936,11.993,3.982,17.969,6.031
					c5.965,2.083,11.929,4.165,17.855,6.36l8.888,3.294C231.503,327.116,234.464,328.217,237.395,329.409z"/>
			</g>
			<g>
				<g>
					<g>
						<path style="fill:#FE814B;" d="M234.411,328.791c0,0,4.391-1.349,4.542-5.913c0.151-4.564,0-8.98,1.892-21.702
							c1.892-12.722,10.853-19.841,10.853-19.841s-0.041,28.072,0,43.538c0.019,6.952-1.178,14.306-2.754,20.297
							c-2.139,8.126-8.032,14.375-15.49,16.459"/>
					</g>
					<g>
						<g>
							<path style="fill:#32338C;" d="M251.697,290.342c-1.332,2.513-2.051,5.247-2.371,8.028c-0.318,2.778-0.462,5.622-0.712,8.434
								l-1.261,16.93c-0.161-2.834-0.174-5.671-0.122-8.507c0.038-2.837,0.201-5.67,0.411-8.499c0.255-2.827,0.43-5.644,0.923-8.473
								c0.255-1.408,0.605-2.807,1.104-4.152C250.199,292.769,250.849,291.483,251.697,290.342z"/>
						</g>
						<g>
							<path style="fill:#32338C;" d="M251.692,285.187c-1.901,2.484-3.123,5.359-3.936,8.326c-0.814,2.972-1.356,6.035-1.88,9.097
								c-0.579,3.052-1.026,6.129-1.521,9.202c-0.49,3.073-0.957,6.154-1.528,9.223c0.173-3.116,0.451-6.221,0.788-9.322
								c0.331-3.102,0.798-6.189,1.299-9.272c0.589-3.063,1.141-6.148,2.115-9.149c0.499-1.492,1.104-2.957,1.859-4.34
								C249.672,287.587,250.581,286.288,251.692,285.187z"/>
						</g>
					</g>
				</g>
				<g>
					<g>
						<path style="fill:#FE814B;" d="M267.987,328.791c0,0-3.394-1.349-3.545-5.913c-0.151-4.564,0-8.98-1.892-21.702
							c-1.892-12.722-10.853-19.841-10.853-19.841s0.041,28.072,0,43.538c-0.019,6.952,1.178,14.306,2.754,20.297
							c2.139,8.126,8.032,14.375,15.49,16.459"/>
					</g>
					<g>
						<g>
							<path style="fill:#32338C;" d="M251.697,290.342c0.848,1.141,1.498,2.428,2.028,3.76c0.499,1.345,0.849,2.745,1.104,4.152
								c0.493,2.829,0.668,5.646,0.923,8.473c0.21,2.829,0.373,5.662,0.411,8.499c0.052,2.836,0.039,5.673-0.122,8.507l-1.261-16.93
								c-0.251-2.812-0.394-5.656-0.712-8.434C253.749,295.589,253.029,292.855,251.697,290.342z"/>
						</g>
						<g>
							<path style="fill:#32338C;" d="M251.702,285.187c1.111,1.1,2.02,2.4,2.805,3.765c0.755,1.384,1.359,2.848,1.859,4.34
								c0.975,3.001,1.526,6.085,2.115,9.149c0.501,3.083,0.968,6.17,1.299,9.272c0.337,3.101,0.615,6.206,0.788,9.322
								c-0.571-3.069-1.038-6.149-1.528-9.223c-0.495-3.073-0.942-6.15-1.521-9.202c-0.524-3.062-1.066-6.125-1.88-9.097
								C254.825,290.546,253.603,287.671,251.702,285.187z"/>
						</g>
					</g>
				</g>
				<g>
					<path style="fill:#32338C;" d="M251.697,281.336c0.202,3.886,0.296,7.773,0.374,11.659c0.08,3.886,0.072,7.772,0.113,11.659
						c-0.039,3.886-0.035,7.773-0.114,11.659c-0.079,3.886-0.174,7.773-0.378,11.659c-0.203-3.886-0.297-7.773-0.376-11.659
						c-0.078-3.886-0.073-7.773-0.111-11.659c0.042-3.886,0.034-7.773,0.116-11.659C251.4,289.109,251.495,285.223,251.697,281.336z
						"/>
				</g>
			</g>
			<polygon style="fill:#32338C;" points="283.345,323.28 267.987,328.791 269.563,366.391 283.345,364.133 			"/>
			<g>
				<path style="fill:#7371FC;" d="M267.987,328.791c2.847-1.166,5.726-2.242,8.588-3.365l8.639-3.217
					c5.76-2.143,11.559-4.174,17.358-6.205c5.811-1.997,11.623-3.992,17.473-5.876l8.776-2.822c2.944-0.889,5.87-1.827,8.829-2.672
					c-2.847,1.167-5.726,2.243-8.587,3.367l-8.639,3.217c-5.761,2.142-11.56,4.174-17.359,6.203
					c-5.811,1.995-11.623,3.99-17.473,5.874l-8.776,2.822C273.871,327.006,270.944,327.944,267.987,328.791z"/>
			</g>
			<g>
				<path style="fill:none;stroke:#EEEEFF;stroke-width:0.5;stroke-miterlimit:10;" d="M232.542,173.734
					c0,0,8.048,5.129,18.246,5.129c10.198,0,20.252-4.548,20.252-4.548"/>
				
					<line style="fill:none;stroke:#EEEEFF;stroke-width:0.5;stroke-miterlimit:10;" x1="251.713" y1="178.862" x2="251.713" y2="171.18"/>
				
					<line style="fill:none;stroke:#EEEEFF;stroke-width:0.5;stroke-miterlimit:10;" x1="255.338" y1="178.862" x2="255.338" y2="171.023"/>
				
					<line style="fill:none;stroke:#EEEEFF;stroke-width:0.5;stroke-miterlimit:10;" x1="258.963" y1="177.972" x2="258.963" y2="170.639"/>
				
					<line style="fill:none;stroke:#EEEEFF;stroke-width:0.5;stroke-miterlimit:10;" x1="262.573" y1="177.197" x2="262.505" y2="170.028"/>
				
					<line style="fill:none;stroke:#EEEEFF;stroke-width:0.5;stroke-miterlimit:10;" x1="266.213" y1="176.126" x2="266.213" y2="169.114"/>
				
					<line style="fill:none;stroke:#EEEEFF;stroke-width:0.5;stroke-miterlimit:10;" x1="248.026" y1="178.862" x2="248.026" y2="171.18"/>
				
					<line style="fill:none;stroke:#EEEEFF;stroke-width:0.5;stroke-miterlimit:10;" x1="244.338" y1="178.208" x2="244.338" y2="170.77"/>
				
					<line style="fill:none;stroke:#EEEEFF;stroke-width:0.5;stroke-miterlimit:10;" x1="240.651" y1="177.276" x2="240.651" y2="170.134"/>
				
					<line style="fill:none;stroke:#EEEEFF;stroke-width:0.5;stroke-miterlimit:10;" x1="236.963" y1="175.944" x2="236.963" y2="169.118"/>
			</g>
			<g>
				<path style="fill:#FE814B;" d="M290.309,107.316c0,27.742-11.636,56.901-39.496,56.901s-39.496-29.159-39.496-56.901
					S229,66.892,250.813,66.892S290.309,79.574,290.309,107.316z"/>
				<g>
					<path style="fill:#32338C;" d="M229.749,110.142c0.99,1.536,1.997,3.009,3.185,4.22c1.174,1.217,2.575,2.096,4.02,2.102
						c1.445,0.017,2.841-0.849,4.006-2.072c1.178-1.217,2.167-2.702,3.138-4.25c-0.268,1.818-0.931,3.592-2.046,5.153
						c-0.555,0.783-1.238,1.508-2.103,2.074c-0.871,0.55-1.926,0.885-3.008,0.91c-1.083-0.036-2.126-0.394-2.988-0.946
						c-0.862-0.563-1.543-1.286-2.1-2.064C230.732,113.718,230.044,111.956,229.749,110.142z"/>
				</g>
				<g>
					<path style="fill:#32338C;" d="M260.741,110.142c0.99,1.536,1.997,3.009,3.186,4.22c1.174,1.217,2.574,2.096,4.02,2.102
						c1.445,0.017,2.841-0.849,4.006-2.072c1.178-1.217,2.167-2.702,3.137-4.25c-0.268,1.818-0.931,3.592-2.046,5.153
						c-0.554,0.783-1.238,1.508-2.103,2.074c-0.871,0.55-1.926,0.885-3.008,0.91c-1.083-0.036-2.126-0.394-2.988-0.946
						c-0.863-0.563-1.543-1.286-2.1-2.064C261.724,113.718,261.036,111.956,260.741,110.142z"/>
				</g>
				<g>
					<path style="fill:#32338C;" d="M225.947,105.675c0.924-1.903,2.22-3.637,3.738-5.169c1.547-1.502,3.34-2.78,5.314-3.75
						c1.965-0.952,4.096-1.804,6.335-1.825c2.213-0.037,4.459,0.379,6.369,1.502l-0.054,0.236c-2.169,0.195-4.147,0.342-6.1,0.677
						c-1.927,0.35-3.907,0.512-5.792,1.195c-1.876,0.665-3.666,1.643-5.278,2.881c-1.641,1.208-3.085,2.702-4.325,4.379
						L225.947,105.675z"/>
				</g>
				<g>
					<path style="fill:#32338C;" d="M277.468,105.801c-1.24-1.677-2.683-3.171-4.325-4.379c-1.612-1.238-3.402-2.216-5.278-2.881
						c-1.885-0.683-3.865-0.845-5.792-1.195c-1.953-0.335-3.931-0.482-6.1-0.677l-0.054-0.236c1.91-1.123,4.156-1.539,6.369-1.502
						c2.239,0.021,4.37,0.873,6.335,1.825c1.974,0.97,3.767,2.248,5.314,3.75c1.518,1.532,2.814,3.266,3.738,5.169L277.468,105.801z
						"/>
				</g>
				<g>
					<path style="fill:#32338C;" d="M229.749,156.969c1.646,1.161,3.402,2.131,5.228,2.929c1.817,0.815,3.689,1.483,5.592,2.025
						c3.822,1.025,7.763,1.565,11.709,1.512c3.925-0.044,7.837-0.758,11.518-2.169c1.841-0.7,3.628-1.565,5.331-2.587
						c1.72-1,3.34-2.18,4.83-3.537c-2.526,3.159-5.938,5.618-9.677,7.289c-3.746,1.687-7.873,2.538-11.987,2.556
						c-4.098,0.023-8.201-0.633-12.073-1.937C236.373,161.706,232.69,159.749,229.749,156.969z"/>
				</g>
				<g>
					<circle style="fill:#32338C;" cx="205.302" cy="102.672" r="17.481"/>
					
						<ellipse transform="matrix(0.9732 -0.2298 0.2298 0.9732 -11.5906 52.3163)" style="fill:#32338C;" cx="218.866" cy="75.932" rx="17.481" ry="17.481"/>
					<circle style="fill:#32338C;" cx="244.098" cy="73.793" r="17.481"/>
					
						<ellipse transform="matrix(0.7071 -0.7071 0.7071 0.7071 25.7011 213.9113)" style="fill:#32338C;" cx="271.064" cy="75.932" rx="17.481" ry="17.481"/>
					
						<ellipse transform="matrix(0.9871 -0.1602 0.1602 0.9871 -11.9117 48.7712)" style="fill:#32338C;" cx="296.552" cy="98.269" rx="17.481" ry="17.481"/>
					<circle style="fill:#32338C;" cx="292.446" cy="72.691" r="17.481"/>
					<circle style="fill:#32338C;" cx="275.089" cy="55.21" r="17.481"/>
					
						<ellipse transform="matrix(0.7071 -0.7071 0.7071 0.7071 37.0737 189.0599)" style="fill:#32338C;" cx="246.752" cy="49.778" rx="18.955" ry="18.955"/>
					<circle style="fill:#32338C;" cx="218.6" cy="58.312" r="17.481"/>
					
						<ellipse transform="matrix(0.9871 -0.1602 0.1602 0.9871 -10.2417 33.2936)" style="fill:#32338C;" cx="201.386" cy="80.172" rx="17.481" ry="17.481"/>
				</g>
				<g>
					<g>
						<path style="fill:#FE814B;" d="M213.891,113.209c-1.602-2.218-4.595-3.719-7.201-2.785c-1.91,0.684-3.175,2.475-3.983,4.302
							c-2.498,5.647-1.447,12.82,3.088,17.082c1.217,1.144,2.725,2.097,4.407,2.237c2.992,0.249,5.658-2.21,6.612-4.997
							c0.868-2.532,0.95-5.781,0.044-8.31C215.96,118.233,215.486,115.417,213.891,113.209z"/>
						<g>
							<path style="fill:#F07167;" d="M212.32,131.447c-0.968-0.788-1.922-1.848-2.114-3.324c-0.031-0.235-0.039-0.491,0.05-0.708
								c0.082-0.201,0.234-0.338,0.382-0.461c1.01-0.834,2.149-1.394,3.317-1.63c-0.115-2.408-0.243-4.889-1.071-7.011
								c-0.827-2.122-2.541-3.819-4.411-3.531c-1.463,0.226-2.797,1.735-3.171,3.586c0,0-1.251,3.601,0.465,7.931
								C207.482,130.628,212.32,131.447,212.32,131.447z"/>
							<g>
								<path style="fill:#32338C;" d="M205.302,118.368c0.12-1.508,0.925-3.144,2.544-3.867c0.815-0.361,1.802-0.294,2.604,0.067
									c0.813,0.355,1.461,0.946,1.979,1.599c1.068,1.317,1.529,2.948,1.825,4.485c0.251,1.565,0.331,3.116,0.346,4.641
									l0.005,0.574l-0.523,0.09c-0.675,0.116-1.336,0.347-1.97,0.656c-0.316,0.157-0.622,0.339-0.916,0.541
									c-0.141,0.1-0.31,0.215-0.403,0.291c-0.096,0.085-0.133,0.126-0.167,0.24c-0.064,0.229-0.015,0.626,0.048,0.953
									c0.066,0.342,0.181,0.679,0.339,1.003c0.312,0.652,0.785,1.248,1.307,1.805c-0.647-0.402-1.266-0.892-1.739-1.542
									c-0.235-0.324-0.435-0.682-0.582-1.068c-0.13-0.399-0.259-0.762-0.224-1.288c0.019-0.263,0.17-0.572,0.342-0.755
									c0.174-0.194,0.311-0.305,0.467-0.439c0.308-0.258,0.633-0.499,0.977-0.715c0.686-0.437,1.454-0.762,2.266-0.948
									l-0.517,0.664c-0.131-1.515-0.202-3.016-0.471-4.454c-0.24-1.442-0.656-2.828-1.441-3.957
									c-0.774-1.115-1.982-1.984-3.266-1.629C206.852,115.68,205.797,116.938,205.302,118.368z"/>
							</g>
						</g>
					</g>
					<g>
						<path style="fill:#FE814B;" d="M287.963,113.209c1.602-2.218,4.595-3.719,7.201-2.785c1.91,0.684,3.175,2.475,3.983,4.302
							c2.498,5.647,1.447,12.82-3.088,17.082c-1.217,1.144-2.725,2.097-4.407,2.237c-2.992,0.249-5.658-2.21-6.612-4.997
							c-0.867-2.532-0.95-5.781-0.044-8.31C285.894,118.233,286.368,115.417,287.963,113.209z"/>
						<g>
							<path style="fill:#F07167;" d="M289.534,131.447c0.968-0.788,1.922-1.848,2.114-3.324c0.031-0.235,0.039-0.491-0.05-0.708
								c-0.082-0.201-0.234-0.338-0.383-0.461c-1.009-0.834-2.149-1.394-3.317-1.63c0.115-2.408,0.243-4.889,1.071-7.011
								c0.828-2.122,2.541-3.819,4.411-3.531c1.463,0.226,2.797,1.735,3.171,3.586c0,0,1.251,3.601-0.465,7.931
								C294.372,130.628,289.534,131.447,289.534,131.447z"/>
							<g>
								<path style="fill:#32338C;" d="M296.552,118.368c-0.495-1.43-1.55-2.688-2.829-3.055c-1.284-0.355-2.492,0.514-3.266,1.629
									c-0.785,1.13-1.201,2.515-1.441,3.957c-0.269,1.439-0.34,2.939-0.471,4.454l-0.517-0.664
									c0.812,0.186,1.58,0.511,2.266,0.948c0.344,0.216,0.67,0.457,0.977,0.715c0.156,0.135,0.293,0.245,0.467,0.439
									c0.172,0.183,0.323,0.492,0.342,0.755c0.036,0.527-0.094,0.89-0.224,1.288c-0.147,0.386-0.347,0.745-0.582,1.069
									c-0.473,0.65-1.092,1.141-1.739,1.542c0.522-0.557,0.994-1.153,1.306-1.805c0.158-0.324,0.274-0.661,0.339-1.003
									c0.063-0.328,0.112-0.725,0.048-0.953c-0.034-0.114-0.071-0.154-0.167-0.24c-0.092-0.076-0.262-0.192-0.403-0.291
									c-0.295-0.202-0.601-0.384-0.916-0.541c-0.634-0.309-1.295-0.54-1.97-0.656l-0.523-0.09l0.006-0.574
									c0.015-1.525,0.095-3.075,0.346-4.641c0.295-1.537,0.757-3.168,1.825-4.485c0.519-0.653,1.166-1.244,1.979-1.599
									c0.803-0.362,1.789-0.429,2.604-0.067C295.628,115.224,296.433,116.86,296.552,118.368z"/>
							</g>
						</g>
					</g>
				</g>
				<g>
					<path style="fill:#32338C;" d="M240.724,140.142c1.661,1.582,3.378,3.063,5.23,4.285c1.841,1.203,3.874,2.161,5.922,2.194
						c2.047,0.001,4.08-0.947,5.915-2.155c1.842-1.23,3.548-2.723,5.192-4.324c-1.156,1.992-2.678,3.78-4.498,5.268
						c-0.913,0.743-1.917,1.391-3.02,1.899c-1.114,0.479-2.333,0.789-3.6,0.812c-2.557-0.083-4.788-1.287-6.598-2.752
						C243.441,143.892,241.906,142.117,240.724,140.142z"/>
				</g>
				<g>
					<path style="fill:#32338C;" d="M252.272,111.055c0.667,2.668,1.027,5.359,1.296,8.067l0.151,2.041l0.025,0.515l0.008,0.253
						l0.014,0.175c0.028,0.232,0.09,0.462,0.189,0.696c0.414,0.943,1.39,1.858,2.305,2.886c0.923,1.018,1.918,2.225,2.338,3.764
						c0.439,1.52,0.296,3.143-0.426,4.546c-0.74,1.405-2.064,2.306-3.38,2.801c-1.335,0.495-2.73,0.696-4.096,0.625
						c1.324-0.315,2.595-0.779,3.707-1.437c1.118-0.646,2.011-1.557,2.442-2.617c0.209-0.535,0.301-1.101,0.297-1.688
						c0.01-0.586-0.076-1.152-0.271-1.686c-0.382-1.07-1.155-2.02-2.054-2.974c-0.887-0.962-1.987-1.907-2.665-3.471
						c-0.157-0.392-0.268-0.822-0.308-1.262l-0.017-0.331l-0.001-0.253l0.008-0.499l0.018-2.014
						C251.9,116.494,251.948,113.784,252.272,111.055z"/>
				</g>
			</g>
			<g>
				<path style="fill:#7371FC;" d="M337.65,348.835c-5.433,2.495-10.938,4.827-16.488,7.045c-5.54,2.246-11.134,4.361-16.787,6.325
					c-5.682,1.966-11.518,3.449-17.404,4.585c-5.889,1.145-11.83,1.931-17.813,2.396l-0.457,0.035l0.006-0.45
					c0.03-2.147,0.115-4.293,0.18-6.44c0.065-2.147,0.135-4.293,0.236-6.44c0.101,2.147,0.17,4.293,0.236,6.44
					c0.065,2.147,0.15,4.293,0.18,6.44l-0.451-0.414c5.906-0.693,11.786-1.735,17.606-2.942c5.825-1.208,11.582-2.707,17.209-4.588
					c5.645-1.916,11.27-3.906,16.895-5.904L337.65,348.835z"/>
			</g>
			<g>
				<path style="fill:#7371FC;" d="M233.453,357.272c0.117,1.52,0.17,3.04,0.253,4.559l0.144,4.559l0.016,0.503l-0.513-0.118
					c-3.936-0.905-7.847-1.907-11.745-2.959c-1.949-0.527-3.888-1.09-5.824-1.667c-1.94-0.56-3.866-1.174-5.785-1.817
					c1.99,0.367,3.973,0.762,5.941,1.212c1.973,0.432,3.943,0.879,5.903,1.362c3.92,0.967,7.827,1.985,11.708,3.1l-0.496,0.384
					l0.144-4.559C233.282,360.312,233.335,358.792,233.453,357.272z"/>
			</g>
			<line style="fill:none;stroke:#7371FC;stroke-miterlimit:10;" x1="278.01" y1="325.315" x2="280.441" y2="366.678"/>
			<line style="fill:none;stroke:#7371FC;stroke-miterlimit:10;" x1="223.889" y1="324.739" x2="221.726" y2="363.362"/>
			<g>
				<path style="fill:#7371FC;" d="M239.482,465.712c7.901-1.875,15.785-3.805,23.635-5.857c7.834-2.094,15.686-4.176,23.317-6.87
					c3.82-1.306,7.555-2.882,11.296-4.453l11.176-4.82l11.143-4.907l11.138-4.928c-7.251,3.658-14.585,7.146-21.966,10.537
					c-3.683,1.712-7.406,3.337-11.132,4.955c-3.731,1.599-7.469,3.214-11.324,4.559c-3.849,1.34-7.752,2.486-11.664,3.59
					c-3.913,1.103-7.845,2.128-11.795,3.079c-3.951,0.944-7.909,1.855-11.877,2.722
					C247.452,464.152,243.478,464.988,239.482,465.712z"/>
			</g>
			<g>
				<g>
					<path style="fill:#7371FC;" d="M251.779,50.486c1.075-0.952,2.559-1.441,4.028-1.463c1.473-0.013,2.969,0.351,4.266,1.115
						c1.29,0.757,2.371,1.833,3.211,3.048c0.856,1.209,1.458,2.568,1.909,3.956l-0.702-0.26c0.874-0.514,1.902-0.635,2.832-0.539
						c0.939,0.108,1.813,0.402,2.644,0.752c1.729,0.72,3.016,2.296,3.398,4.029c-0.676-1.642-2.051-2.892-3.626-3.431
						c-0.817-0.273-1.659-0.472-2.482-0.505c-0.82-0.049-1.628,0.095-2.271,0.511l-0.507,0.328l-0.195-0.588
						c-0.435-1.314-1.052-2.558-1.812-3.694c-0.772-1.125-1.725-2.125-2.859-2.869c-1.123-0.733-2.449-1.211-3.821-1.298
						C254.427,49.479,253.005,49.738,251.779,50.486z"/>
				</g>
				<g>
					<path style="fill:#7371FC;" d="M280.151,73.493c0.898-2.333,3.253-4.124,5.889-4.358c2.639-0.247,5.333,1.074,6.802,3.287
						l-0.803,0.016c0.965-1.48,2.65-2.236,4.271-2.34c0.817-0.044,1.645,0.054,2.399,0.355c0.75,0.293,1.441,0.761,1.897,1.402
						c-1.171-1.062-2.784-1.323-4.224-1.091c-1.443,0.226-2.828,0.99-3.53,2.179l-0.375,0.634l-0.429-0.618
						c-1.313-1.892-3.642-3.032-5.953-2.958C283.784,70.092,281.478,71.394,280.151,73.493z"/>
				</g>
				<g>
					<path style="fill:#7371FC;" d="M289.444,94.282c1.601-0.903,3.691-0.877,5.43-0.117c1.738,0.75,3.254,2.238,3.804,4.139
						l-0.73-0.261c1.21-0.768,2.656-0.985,3.999-0.784c1.333,0.202,2.659,0.916,3.297,2.074c-0.908-0.944-2.162-1.327-3.367-1.375
						c-1.21-0.049-2.439,0.25-3.395,0.893l-0.528,0.356l-0.202-0.617c-0.514-1.571-1.737-2.874-3.242-3.657
						C293.009,94.148,291.206,93.816,289.444,94.282z"/>
				</g>
				<g>
					<path style="fill:#7371FC;" d="M229.421,74.166c-0.074-1.629,0.696-3.28,1.897-4.439c1.198-1.164,2.776-2.001,4.494-2.181
						c1.699-0.201,3.422,0.167,4.954,0.851c1.529,0.707,2.905,1.713,4.031,2.943l-0.745,0.139c0.358-0.867,1.109-1.562,1.923-1.911
						c0.817-0.369,1.642-0.532,2.479-0.67c1.731-0.257,3.518,0.416,4.634,1.636c-1.303-1.031-3.012-1.376-4.53-1.054
						c-0.775,0.186-1.57,0.415-2.233,0.782c-0.664,0.369-1.182,0.887-1.437,1.566l-0.24,0.638l-0.505-0.499
						c-1.107-1.095-2.378-2.033-3.789-2.661c-1.398-0.648-2.938-0.972-4.46-0.869c-1.499,0.123-3.001,0.711-4.184,1.718
						C230.533,71.153,229.614,72.543,229.421,74.166z"/>
				</g>
				<g>
					<path style="fill:#7371FC;" d="M226.078,56.526c-0.96-0.628-2.102-0.751-3.162-0.57c-1.067,0.174-2.065,0.62-2.939,1.241
						c-1.752,1.228-3.014,3.127-3.428,5.206l-0.078,0.393l-0.385,0.003c-1.409,0.012-2.838,0.396-4.23,0.877
						c-1.312,0.444-2.588,1.426-2.931,2.919c-0.011-0.762,0.326-1.515,0.811-2.125c0.484-0.622,1.147-1.095,1.865-1.43
						c1.381-0.623,2.866-1.136,4.463-1.203l-0.462,0.396c0.215-1.178,0.656-2.322,1.344-3.299c0.665-0.993,1.549-1.83,2.559-2.456
						c1.008-0.621,2.17-1.033,3.357-1.075C224.033,55.354,225.279,55.694,226.078,56.526z"/>
				</g>
				<g>
					<path style="fill:#7371FC;" d="M198.938,82.452c1.512-1.951,4.203-3.02,6.777-2.607c2.58,0.4,4.865,2.235,5.839,4.659
						l-0.725-0.171c0.599-0.485,1.33-0.764,2.054-0.848c0.726-0.084,1.448-0.024,2.127,0.161c1.352,0.359,2.6,1.144,3.377,2.256
						c-0.986-0.923-2.245-1.442-3.506-1.64c-1.251-0.193-2.588-0.001-3.453,0.775l-0.462,0.414l-0.263-0.585
						c-0.936-2.083-2.914-3.665-5.148-4.148C203.315,80.25,200.809,80.867,198.938,82.452z"/>
				</g>
				<g>
					<path style="fill:#7371FC;" d="M196.492,106.08c-0.12-0.962,0.207-1.973,0.769-2.801c0.572-0.83,1.396-1.491,2.349-1.894
						c1.922-0.776,4.099-0.531,5.918,0.255l-0.668,0.396c0.086-0.854,0.609-1.594,1.203-2.079c0.598-0.505,1.277-0.82,1.959-1.084
						c1.452-0.537,3.121-0.191,4.168,0.781c-1.243-0.69-2.74-0.698-3.89-0.128c-1.201,0.588-2.378,1.459-2.475,2.617l-0.053,0.636
						l-0.616-0.24c-1.681-0.655-3.559-0.927-5.252-0.362c-0.834,0.267-1.608,0.773-2.222,1.436
						C197.06,104.273,196.62,105.125,196.492,106.08z"/>
				</g>
			</g>
			<g style="opacity:0.5;">
				<g>
					<path style="fill:#FFFFFF;" d="M255.693,197.669c-0.035-0.908,0.211-1.694,0.522-2.451c0.34-0.745,0.748-1.46,1.438-2.052
						c0.037,0.909-0.209,1.695-0.522,2.451C256.789,196.36,256.381,197.076,255.693,197.669z"/>
				</g>
				<g>
					<path style="fill:#FFFFFF;" d="M259.073,204.455c0.809,0.129,1.43,0.5,2.008,0.927c0.558,0.452,1.071,0.963,1.394,1.716
						c-0.81-0.128-1.432-0.498-2.008-0.927C259.911,205.718,259.398,205.207,259.073,204.455z"/>
				</g>
				<g>
					<path style="fill:#FFFFFF;" d="M255.222,217.286c-0.181-0.745-0.07-1.399,0.109-2.032c0.209-0.623,0.489-1.225,1.063-1.735
						c0.183,0.746,0.072,1.4-0.109,2.032C256.074,216.174,255.794,216.776,255.222,217.286z"/>
				</g>
				<g>
					<path style="fill:#FFFFFF;" d="M246.591,204.858c0.87-0.046,1.635,0.271,2.31,0.699c0.658,0.453,1.249,1.034,1.544,1.855
						c-0.835-0.238-1.464-0.619-2.096-1.022C247.733,205.963,247.136,205.532,246.591,204.858z"/>
				</g>
				<g>
					<path style="fill:#FFFFFF;" d="M243.553,198.023c0.062-0.907,0.333-1.654,0.634-2.4c0.329-0.733,0.683-1.445,1.297-2.116
						c0.144,0.901-0.062,1.734-0.379,2.509C244.762,196.779,244.303,197.504,243.553,198.023z"/>
				</g>
				<g>
					<path style="fill:#FFFFFF;" d="M236.726,189.008c0.875,0.437,1.515,1.07,2.099,1.748c0.56,0.698,1.063,1.444,1.329,2.386
						c-0.877-0.436-1.516-1.068-2.099-1.748C237.497,190.694,236.994,189.948,236.726,189.008z"/>
				</g>
				<g>
					<path style="fill:#FFFFFF;" d="M247.315,188.932c0.145-0.763,0.521-1.325,0.95-1.839c0.453-0.493,0.961-0.938,1.701-1.179
						c-0.144,0.765-0.519,1.326-0.95,1.839C248.561,188.244,248.053,188.689,247.315,188.932z"/>
				</g>
				<g>
					<path style="fill:#FFFFFF;" d="M260.925,185.227c0.829,0.209,1.455,0.646,2.033,1.137c0.557,0.515,1.065,1.085,1.369,1.885
						c-0.83-0.207-1.456-0.645-2.033-1.137C261.738,186.595,261.23,186.025,260.925,185.227z"/>
				</g>
				<g>
					<path style="fill:#FFFFFF;" d="M265.271,198.808c0.01-0.75,0.278-1.336,0.606-1.883c0.355-0.53,0.772-1.021,1.449-1.346
						c-0.008,0.751-0.276,1.337-0.606,1.883C266.364,197.991,265.947,198.482,265.271,198.808z"/>
				</g>
				<g>
					<path style="fill:#FFFFFF;" d="M262.335,216.424c0.67,0.113,1.124,0.442,1.528,0.821c0.381,0.402,0.71,0.856,0.821,1.528
						c-0.672-0.111-1.126-0.44-1.528-0.821C262.777,217.549,262.448,217.095,262.335,216.424z"/>
				</g>
				<g>
					<path style="fill:#FFFFFF;" d="M259.106,231.691c-0.015-0.901,0.247-1.672,0.575-2.413c0.356-0.728,0.779-1.424,1.48-1.991
						c0.017,0.902-0.246,1.673-0.575,2.413C260.228,230.428,259.806,231.124,259.106,231.691z"/>
				</g>
				<g>
					<path style="fill:#FFFFFF;" d="M248.523,223.784c0.834,0.079,1.507,0.525,2.048,1.072c0.52,0.566,0.931,1.262,0.966,2.1
						c-0.715-0.428-1.197-0.912-1.69-1.412C249.374,225.024,248.915,224.517,248.523,223.784z"/>
				</g>
				<g>
					<path style="fill:#FFFFFF;" d="M244.52,220.545c-0.305-0.874-0.305-1.716-0.234-2.551c0.102-0.831,0.278-1.655,0.76-2.447
						c0.307,0.874,0.307,1.717,0.234,2.551C245.175,218.929,244.999,219.753,244.52,220.545z"/>
				</g>
				<g>
					<path style="fill:#FFFFFF;" d="M235.348,200.845c0.7,0.241,1.162,0.674,1.567,1.152c0.381,0.497,0.705,1.041,0.788,1.778
						c-0.702-0.24-1.163-0.673-1.567-1.152C235.757,202.124,235.433,201.58,235.348,200.845z"/>
				</g>
				<g>
					<path style="fill:#FFFFFF;" d="M237.963,214.074c-0.003-0.817,0.164-1.464,0.339-2.127c0.203-0.656,0.408-1.291,0.848-1.98
						c0.352,0.745,0.307,1.533,0.112,2.258C239.039,212.94,238.656,213.63,237.963,214.074z"/>
				</g>
				<g>
					<path style="fill:#FFFFFF;" d="M238.848,225.232c0.784,0.548,1.333,1.19,1.874,1.852c0.517,0.681,1.01,1.365,1.356,2.258
						c-0.903-0.329-1.579-0.948-2.142-1.641C239.396,226.989,238.955,226.187,238.848,225.232z"/>
				</g>
				<g>
					<path style="fill:#FFFFFF;" d="M245.013,237.564c0.002-0.711,0.192-1.236,0.413-1.761c0.248-0.513,0.519-1,1.055-1.469
						c0.229,0.679,0.098,1.314-0.145,1.882C246.065,236.772,245.674,237.289,245.013,237.564z"/>
				</g>
				<g>
					<path style="fill:#FFFFFF;" d="M251.749,243.135c-0.06-0.881,0.163-1.645,0.452-2.381c0.318-0.724,0.704-1.419,1.374-1.996
						c0.061,0.882-0.161,1.646-0.452,2.381C252.803,241.862,252.417,242.557,251.749,243.135z"/>
				</g>
				<g>
					<path style="fill:#FFFFFF;" d="M259.416,237.82c0.844-0.055,1.597,0.335,2.184,0.863c0.569,0.547,1.011,1.271,1.014,2.118
						c-0.699-0.46-1.18-0.922-1.695-1.387C260.421,238.931,259.925,238.483,259.416,237.82z"/>
				</g>
				<g>
					<path style="fill:#FFFFFF;" d="M258.825,253.425c0.011-0.828,0.21-1.492,0.429-2.163c0.247-0.661,0.507-1.303,1.02-1.955
						c0.269,0.79,0.161,1.569-0.077,2.287C259.931,252.302,259.527,252.977,258.825,253.425z"/>
				</g>
				<g>
					<path style="fill:#FFFFFF;" d="M260.597,260.147c0.817,0.258,1.419,0.733,1.97,1.259c0.529,0.548,1.005,1.148,1.264,1.966
						c-0.819-0.257-1.421-0.731-1.97-1.259C261.334,261.564,260.858,260.964,260.597,260.147z"/>
				</g>
				<g>
					<path style="fill:#FFFFFF;" d="M251.497,250.781c0.193,0.877,0.088,1.682-0.086,2.471c-0.205,0.781-0.481,1.544-1.057,2.235
						c-0.195-0.878-0.09-1.683,0.086-2.471C250.647,252.236,250.923,251.473,251.497,250.781z"/>
				</g>
				<g>
					<path style="fill:#FFFFFF;" d="M240.303,244.34c0.902,0.007,1.682,0.373,2.366,0.847c0.667,0.499,1.259,1.124,1.548,1.98
						c-0.849-0.293-1.49-0.722-2.133-1.17C241.458,245.526,240.85,245.052,240.303,244.34z"/>
				</g>
				<g>
					<path style="fill:#FFFFFF;" d="M238.264,234.335c0.249,0.721,0.2,1.378,0.08,2.019c-0.15,0.635-0.373,1.255-0.897,1.811
						c-0.251-0.721-0.202-1.378-0.08-2.02C237.52,235.511,237.742,234.891,238.264,234.335z"/>
				</g>
				<g>
					<path style="fill:#FFFFFF;" d="M241.196,260.758c-0.074-0.811,0.072-1.48,0.247-2.152c0.204-0.664,0.434-1.309,0.928-1.958
						c0.291,0.766,0.222,1.522,0.033,2.233C242.186,259.582,241.846,260.261,241.196,260.758z"/>
				</g>
				<g>
					<path style="fill:#FFFFFF;" d="M250.016,262.803c0.73,0.237,1.229,0.675,1.674,1.16c0.422,0.506,0.787,1.06,0.921,1.817
						c-0.731-0.236-1.231-0.673-1.674-1.16C250.517,264.112,250.151,263.558,250.016,262.803z"/>
				</g>
				<g>
					<path style="fill:#FFFFFF;" d="M257.313,272.489c-0.065-0.881,0.153-1.646,0.438-2.384c0.314-0.726,0.695-1.423,1.362-2.005
						c0.067,0.882-0.151,1.647-0.438,2.384C258.359,271.209,257.978,271.907,257.313,272.489z"/>
				</g>
				<g>
					<path style="fill:#FFFFFF;" d="M259.096,281.599c-0.054-0.855,0.103-1.567,0.282-2.286c0.208-0.711,0.435-1.403,0.918-2.112
						c0.305,0.806,0.24,1.615,0.047,2.375C260.12,280.329,259.766,281.059,259.096,281.599z"/>
				</g>
				<g>
					<path style="fill:#FFFFFF;" d="M244.154,269.239c0.659-0.034,1.149,0.186,1.598,0.466c0.432,0.306,0.823,0.673,1.044,1.297
						c-0.66,0.036-1.15-0.184-1.598-0.465C244.767,270.228,244.376,269.861,244.154,269.239z"/>
				</g>
				<g>
					<path style="fill:#FFFFFF;" d="M246.221,280.145c-0.132-0.943,0.029-1.8,0.258-2.636c0.26-0.827,0.591-1.634,1.217-2.353
						c0.134,0.944-0.027,1.801-0.258,2.636C247.176,278.619,246.845,279.426,246.221,280.145z"/>
				</g>
				<g>
					<path style="fill:#FFFFFF;" d="M241.482,284.542c-0.612-0.673-0.932-1.434-1.182-2.215c-0.221-0.79-0.37-1.602-0.225-2.501
						c0.614,0.672,0.934,1.433,1.182,2.215C241.476,282.832,241.625,283.643,241.482,284.542z"/>
				</g>
				<g>
					<path style="fill:#FFFFFF;" d="M263.216,291.292c-0.395-0.734-0.483-1.468-0.5-2.202c0.015-0.734,0.103-1.468,0.5-2.202
						c0.396,0.734,0.485,1.468,0.5,2.202C263.699,289.824,263.611,290.558,263.216,291.292z"/>
				</g>
			</g>
		</g>
	</g>
</g>
</svg>
