<?xml version="1.0" encoding="utf-8"?>
<!-- Generator: Adobe Illustrator 27.5.0, SVG Export Plug-In . SVG Version: 6.00 Build 0)  -->
<svg version="1.1" id="_x2018_ëîé_x5F_1" xmlns="http://www.w3.org/2000/svg" xmlns:xlink="http://www.w3.org/1999/xlink"
	 x="0px" y="0px" viewBox="0 0 500 500" style="enable-background:new 0 0 500 500;" xml:space="preserve">
<rect style="fill:#221D34;" width="500" height="500"/>
<g>
	<g>
		<g>
			<path style="fill:#29253F;" d="M0,352.67v0.87h22.74L3,428.21l-0.03,0.09L21.79,500h1.05L4.02,428.3l19.65-74.31l0.23-0.87
				l0.12-0.45H0z"/>
		</g>
		<g>
			<path style="fill:#29253F;" d="M49.3,352.67l-0.35,1.32l-19.63,74.22l-0.02,0.09L48.12,500h1.04l-18.82-71.7l19.65-74.31
				l0.12-0.45h25.47l-19.74,74.67l-0.03,0.09L74.63,500h1.05l-18.82-71.7l19.65-74.31l0.23-0.87l0.12-0.45H49.3z"/>
		</g>
		<g>
			<path style="fill:#29253F;" d="M102.14,352.67l-0.35,1.32l-19.63,74.22l-0.02,0.09l18.82,71.7H102l-18.82-71.7l19.65-74.31
				l0.12-0.45h25.47l-19.74,74.67l-0.03,0.09l18.82,71.7h1.05l-18.82-71.7l19.65-74.31l0.23-0.87l0.12-0.45H102.14z"/>
		</g>
		<g>
			<path style="fill:#29253F;" d="M154.98,352.67l-0.35,1.32L135,428.21l-0.02,0.09L153.8,500h1.04l-18.82-71.7l19.65-74.31
				l0.12-0.45h25.47l-19.74,74.67l-0.03,0.09l18.82,71.7h1.05l-18.82-71.7l19.65-74.31l0.23-0.87l0.12-0.45H154.98z"/>
		</g>
		<g>
			<path style="fill:#29253F;" d="M207.82,352.67l-0.35,1.32l-19.63,74.22l-0.02,0.09l18.82,71.7h1.04l-18.82-71.7l19.65-74.31
				l0.12-0.45h25.47l-19.74,74.67l-0.03,0.09l18.82,71.7h1.05l-18.82-71.7l19.65-74.31l0.23-0.87l0.12-0.45H207.82z"/>
		</g>
		<g>
			<path style="fill:#29253F;" d="M260.66,352.67l-0.35,1.32l-19.63,74.22l-0.02,0.09l18.82,71.7h1.04l-18.82-71.7l19.65-74.31
				l0.12-0.45h25.47l-19.74,74.67l-0.03,0.09l18.82,71.7h1.05l-18.82-71.7l19.65-74.31l0.23-0.87l0.12-0.45H260.66z"/>
		</g>
		<g>
			<path style="fill:#29253F;" d="M313.5,352.67l-0.35,1.32l-19.63,74.22l-0.02,0.09l18.82,71.7h1.04l-18.82-71.7l19.65-74.31
				l0.12-0.45h25.47l-19.74,74.67l-0.03,0.09l18.82,71.7h1.05l-18.82-71.7l19.65-74.31l0.23-0.87l0.12-0.45H313.5z"/>
		</g>
		<g>
			<path style="fill:#29253F;" d="M366.34,352.67l-0.35,1.32l-19.63,74.22l-0.02,0.09l18.82,71.7h1.05l-18.83-71.7l19.65-74.31
				l0.12-0.45h25.47l-19.74,74.67l-0.03,0.09l18.82,71.7h1.05l-18.82-71.7l19.65-74.31l0.23-0.87l0.12-0.45H366.34z"/>
		</g>
		<g>
			<path style="fill:#29253F;" d="M419.18,352.67l-0.35,1.32l-19.63,74.22l-0.02,0.09L418,500h1.05l-18.83-71.7l19.65-74.31
				l0.12-0.45h25.47l-19.74,74.67l-0.03,0.09l18.82,71.7h1.05l-18.82-71.7l19.65-74.31l0.23-0.87l0.12-0.45H419.18z"/>
		</g>
		<g>
			<path style="fill:#29253F;" d="M472.02,352.67l-0.35,1.32l-19.63,74.22l-0.02,0.09l18.82,71.7h1.05l-18.83-71.7l19.65-74.31
				l0.12-0.45h25.47l-19.74,74.67l-0.03,0.09l18.82,71.7h1.05l-18.82-71.7l19.65-74.31l0.23-0.87l0.12-0.45H472.02z"/>
		</g>
	</g>
	<g>
		<g>
			<path style="fill:#29253F;" d="M4.02,126.84l20-75.63H0v0.87h22.74L3,126.74l-0.03,0.1l19.77,75.32H0v0.87h24.02l-0.23-0.87
				L4.02,126.84z"/>
		</g>
		<g>
			<path style="fill:#29253F;" d="M56.86,126.84l20-75.63H49.3l-19.98,75.53l-0.02,0.1l19.77,75.32l0.23,0.87h27.56l-0.23-0.87
				L56.86,126.84z M50.11,202.16l-19.77-75.32l19.77-74.76h25.47l-19.74,74.66l-0.03,0.1l19.77,75.32H50.11z"/>
		</g>
		<g>
			<path style="fill:#29253F;" d="M109.7,126.84l20-75.63h-27.56l-19.98,75.53l-0.02,0.1l19.77,75.32l0.23,0.87h27.56l-0.23-0.87
				L109.7,126.84z M102.95,202.16l-19.77-75.32l19.77-74.76h25.47l-19.74,74.66l-0.03,0.1l19.77,75.32H102.95z"/>
		</g>
		<g>
			<path style="fill:#29253F;" d="M162.54,126.84l20-75.63h-27.56L135,126.74l-0.02,0.1l19.77,75.32l0.23,0.87h27.56l-0.23-0.87
				L162.54,126.84z M155.79,202.16l-19.77-75.32l19.77-74.76h25.47l-19.74,74.66l-0.03,0.1l19.77,75.32H155.79z"/>
		</g>
		<g>
			<path style="fill:#29253F;" d="M215.38,126.84l20-75.63h-27.56l-19.98,75.53l-0.02,0.1l19.77,75.32l0.23,0.87h27.56l-0.23-0.87
				L215.38,126.84z M208.63,202.16l-19.77-75.32l19.77-74.76h25.47l-19.74,74.66l-0.03,0.1l19.77,75.32H208.63z"/>
		</g>
		<g>
			<path style="fill:#29253F;" d="M268.22,126.84l20-75.63h-27.56l-19.98,75.53l-0.02,0.1l19.77,75.32l0.14,0.53l0.09,0.34h27.56
				l-0.23-0.87L268.22,126.84z M261.47,202.16l-19.77-75.32l19.77-74.76h25.47l-19.74,74.66l-0.03,0.1l19.77,75.32H261.47z"/>
		</g>
		<g>
			<path style="fill:#29253F;" d="M321.06,126.84l20-75.63H313.5l-19.98,75.53l-0.02,0.1l19.77,75.32l0.14,0.53l0.09,0.34h27.56
				l-0.23-0.87L321.06,126.84z M314.31,202.16l-19.77-75.32l19.77-74.76h25.47l-19.74,74.66l-0.03,0.1l19.77,75.32H314.31z"/>
		</g>
		<g>
			<path style="fill:#29253F;" d="M373.9,126.84l20-75.63h-27.56l-19.98,75.53l-0.02,0.1l19.77,75.32l0.14,0.53l0.09,0.34h27.56
				l-0.23-0.87L373.9,126.84z M367.16,202.16l-19.78-75.32l19.77-74.76h25.47l-19.74,74.66l-0.03,0.1l19.77,75.32H367.16z"/>
		</g>
		<g>
			<path style="fill:#29253F;" d="M426.74,126.84l20-75.63h-27.56l-19.98,75.53l-0.02,0.1l19.77,75.32l0.14,0.53l0.09,0.34h27.56
				l-0.23-0.87L426.74,126.84z M420,202.16l-19.78-75.32l19.77-74.76h25.47l-19.74,74.66l-0.03,0.1l19.77,75.32H420z"/>
		</g>
		<g>
			<path style="fill:#29253F;" d="M479.58,126.84l20-75.63h-27.56l-19.98,75.53l-0.02,0.1l19.77,75.32l0.14,0.53l0.09,0.34h27.56
				l-0.23-0.87L479.58,126.84z M472.84,202.16l-19.78-75.32l19.77-74.76h25.47l-19.74,74.66l-0.03,0.1l19.77,75.32H472.84z"/>
		</g>
	</g>
	<g>
		<g>
			<path style="fill:#29253F;" d="M50.09,352.67L30.44,277.8l19.77-74.77l0.23-0.87H22.88l-0.23,0.87L2.9,277.7l-0.02,0.1
				l19.65,74.87l0.35,1.32h27.56l-0.12-0.45L50.09,352.67z M23.69,353.12l-0.12-0.45L3.92,277.8l19.77-74.77h25.47L29.42,277.7
				l-0.03,0.1l19.77,75.32H23.69z"/>
		</g>
		<g>
			<path style="fill:#29253F;" d="M102.93,352.67L83.28,277.8l19.77-74.77l0.23-0.87H75.72l-0.23,0.87L55.74,277.7l-0.02,0.1
				l19.65,74.87l0.35,1.32h27.56l-0.12-0.45L102.93,352.67z M76.53,353.12l-0.12-0.45L56.76,277.8l19.77-74.77H102L82.26,277.7
				l-0.03,0.1L102,353.12H76.53z"/>
		</g>
		<g>
			<path style="fill:#29253F;" d="M155.77,352.67l-19.65-74.87l19.77-74.77l0.23-0.87h-27.56l-0.23,0.87l-19.75,74.67l-0.02,0.1
				l19.65,74.87l0.35,1.32h27.56l-0.12-0.45L155.77,352.67z M129.37,353.12l-0.12-0.45L109.6,277.8l19.77-74.77h25.47L135.1,277.7
				l-0.03,0.1l19.77,75.32H129.37z"/>
		</g>
		<g>
			<path style="fill:#29253F;" d="M208.61,352.67l-19.65-74.87l19.77-74.77l0.23-0.87H181.4l-0.23,0.87l-19.75,74.67l-0.02,0.1
				l19.65,74.87l0.35,1.32h27.56l-0.12-0.45L208.61,352.67z M182.21,353.12l-0.12-0.45l-19.65-74.87l19.77-74.77h25.47l-19.74,74.67
				l-0.03,0.1l19.77,75.32H182.21z"/>
		</g>
		<g>
			<path style="fill:#29253F;" d="M261.45,352.67L241.8,277.8l19.77-74.77l0.23-0.87h-27.56l-0.23,0.87l-19.75,74.67l-0.02,0.1
				l19.65,74.87l0.35,1.32h27.56l-0.12-0.45L261.45,352.67z M235.05,353.12l-0.12-0.45l-19.65-74.87l19.77-74.77h25.47l-19.74,74.67
				l-0.03,0.1l19.77,75.32H235.05z"/>
		</g>
		<g>
			<path style="fill:#29253F;" d="M314.29,352.67l-19.65-74.87l19.77-74.77l0.23-0.87h-27.56l-0.23,0.87L267.1,277.7l-0.02,0.1
				l19.65,74.87l0.26,0.99l0.09,0.33h27.56l-0.12-0.45L314.29,352.67z M287.89,353.12l-0.12-0.45l-19.65-74.87l19.77-74.77h25.47
				l-19.74,74.67l-0.03,0.1l19.77,75.32H287.89z"/>
		</g>
		<g>
			<path style="fill:#29253F;" d="M367.13,352.67l-19.65-74.87l19.77-74.77l0.23-0.87h-27.56l-0.23,0.87l-19.75,74.67l-0.02,0.1
				l19.65,74.87l0.26,0.99l0.09,0.33h27.56l-0.12-0.45L367.13,352.67z M340.73,353.12l-0.12-0.45l-19.65-74.87l19.77-74.77h25.47
				l-19.74,74.67l-0.03,0.1l19.77,75.32H340.73z"/>
		</g>
		<g>
			<path style="fill:#29253F;" d="M419.97,352.67l-19.65-74.87l19.77-74.77l0.23-0.87h-27.56l-0.23,0.87l-19.75,74.67l-0.02,0.1
				l19.65,74.87l0.26,0.99l0.09,0.33h27.56l-0.12-0.45L419.97,352.67z M393.58,353.12l-0.12-0.45L373.8,277.8l19.77-74.77h25.47
				L399.3,277.7l-0.03,0.1l19.77,75.32H393.58z"/>
		</g>
		<g>
			<path style="fill:#29253F;" d="M472.81,352.67l-19.65-74.87l19.77-74.77l0.23-0.87H445.6l-0.23,0.87l-19.75,74.67l-0.02,0.1
				l19.65,74.87l0.26,0.99l0.09,0.33h27.56l-0.12-0.45L472.81,352.67z M446.42,353.12l-0.12-0.45l-19.66-74.87l19.77-74.77h25.47
				l-19.74,74.67l-0.03,0.1l19.77,75.32H446.42z"/>
		</g>
		<g>
			<path style="fill:#29253F;" d="M500,203.03v-0.87h-1.56l-0.23,0.87l-19.75,74.67l-0.02,0.1l19.65,74.87l0.26,0.99l0.09,0.33H500
				v-0.87h-0.75l-0.12-0.45l-19.65-74.87l19.77-74.77H500z"/>
		</g>
	</g>
</g>
<rect style="fill:#191628;" width="499.58" height="104.414"/>
<g>
	<g>
		<g>
			<path style="fill:#2B307B;" d="M354.56,218.409c0.307,3.654,0.613,7.308,0.92,10.961c0.108,1.282,2.101,1.117,1.993-0.167
				c-0.307-3.654-0.614-7.308-0.92-10.961C356.446,216.959,354.452,217.124,354.56,218.409L354.56,218.409z"/>
		</g>
		<g>
			<path style="fill:#2B307B;" d="M358.878,218.046c0.316,3.765,0.632,7.529,0.948,11.294c0.108,1.282,2.101,1.117,1.993-0.167
				c-0.316-3.765-0.632-7.529-0.948-11.294C360.764,216.596,358.771,216.762,358.878,218.046L358.878,218.046z"/>
		</g>
		<g>
			<path style="fill:#2B307B;" d="M364.613,219.239c0.393,3.535,0.786,7.071,1.18,10.606c0.142,1.277,2.135,1.115,1.993-0.167
				c-0.393-3.535-0.786-7.071-1.18-10.606C366.464,217.794,364.471,217.957,364.613,219.239L364.613,219.239z"/>
		</g>
		<g>
			<path style="fill:#2B307B;" d="M369.924,218.122c-0.025,3.682-0.051,7.363-0.076,11.045c-0.009,1.287,1.984,1.111,1.993-0.167
				c0.025-3.682,0.051-7.363,0.076-11.045C371.925,216.668,369.932,216.844,369.924,218.122L369.924,218.122z"/>
		</g>
		<g>
			<path style="fill:#2B307B;" d="M375.057,218.702c-0.056,3.239-0.111,6.478-0.167,9.717c-0.022,1.286,1.971,1.109,1.993-0.167
				c0.056-3.239,0.111-6.478,0.167-9.717C377.072,217.249,375.079,217.425,375.057,218.702L375.057,218.702z"/>
		</g>
		<g>
			<path style="fill:#2B307B;" d="M380.65,217.958c-0.128,2.464-0.255,4.928-0.383,7.391c-0.066,1.268,1.9,1.65,1.966,0.368
				c0.128-2.464,0.255-4.928,0.383-7.391C382.682,217.059,380.716,216.677,380.65,217.958L380.65,217.958z"/>
		</g>
		<g>
			<path style="fill:#2B307B;" d="M383.93,217.278c0.552,2.855,1.104,5.71,1.656,8.565c0.242,1.25,2.237,1.097,1.993-0.167
				c-0.552-2.855-1.104-5.71-1.656-8.565C385.681,215.86,383.685,216.014,383.93,217.278L383.93,217.278z"/>
		</g>
		<g>
			<path style="fill:#2B307B;" d="M389.549,216.809c0.564,2.74,1.129,5.48,1.694,8.221c0.257,1.245,2.253,1.093,1.993-0.167
				c-0.565-2.74-1.129-5.48-1.694-8.221C391.286,215.397,389.29,215.549,389.549,216.809L389.549,216.809z"/>
		</g>
		<g>
			<path style="fill:#2B307B;" d="M395.266,216.325c0.484,3.418,0.967,6.835,1.451,10.252c0.18,1.269,2.174,1.11,1.993-0.167
				c-0.483-3.417-0.967-6.835-1.451-10.252C397.079,214.889,395.085,215.048,395.266,216.325L395.266,216.325z"/>
		</g>
		<g>
			<path style="fill:#2B307B;" d="M401.232,217.168c0.372,3.091,0.743,6.182,1.115,9.272c0.153,1.275,2.147,1.114,1.993-0.167
				c-0.372-3.091-0.743-6.182-1.115-9.273C403.071,215.726,401.078,215.887,401.232,217.168L401.232,217.168z"/>
		</g>
		<g>
			<path style="fill:#2B307B;" d="M407.838,217.274c0.111,2.889,0.222,5.778,0.332,8.667c0.049,1.287,2.042,1.117,1.993-0.167
				c-0.111-2.889-0.222-5.778-0.332-8.667C409.781,215.819,407.788,215.99,407.838,217.274L407.838,217.274z"/>
		</g>
		<g>
			<path style="fill:#2B307B;" d="M413.136,215.494c0.054,3.229,0.107,6.459,0.161,9.688c0.021,1.288,2.014,1.115,1.993-0.167
				c-0.054-3.229-0.107-6.459-0.161-9.688C415.108,214.039,413.115,214.212,413.136,215.494L413.136,215.494z"/>
		</g>
		<g>
			<path style="fill:#2B307B;" d="M418.919,216.016c0.094,2.445,0.188,4.89,0.281,7.336c0.049,1.287,2.042,1.117,1.993-0.167
				c-0.094-2.445-0.188-4.89-0.281-7.336C420.863,214.561,418.87,214.732,418.919,216.016L418.919,216.016z"/>
		</g>
		<g>
			<path style="fill:#2B307B;" d="M424.582,215.204c0.367,3.091,0.735,6.183,1.102,9.274c0.152,1.275,2.145,1.114,1.993-0.167
				c-0.367-3.091-0.735-6.183-1.102-9.274C426.423,213.762,424.43,213.923,424.582,215.204L424.582,215.204z"/>
		</g>
		<g>
			<path style="fill:#2B307B;" d="M429.044,216.163c0.413,2.532,0.826,5.063,1.238,7.595c0.206,1.262,2.201,1.105,1.993-0.167
				c-0.413-2.532-0.826-5.063-1.239-7.595C430.832,214.734,428.837,214.891,429.044,216.163L429.044,216.163z"/>
		</g>
		<g>
			<path style="fill:#2B307B;" d="M434.972,214.329c0.301,2.54,0.601,5.08,0.901,7.62c0.151,1.275,2.145,1.114,1.993-0.167
				c-0.3-2.54-0.601-5.08-0.901-7.62C436.814,212.886,434.82,213.048,434.972,214.329L434.972,214.329z"/>
		</g>
		<g>
			<path style="fill:#2B307B;" d="M439.873,214.591c0.214,2.547,0.428,5.093,0.642,7.64c0.108,1.282,2.101,1.117,1.993-0.167
				c-0.214-2.547-0.428-5.093-0.641-7.64C441.759,213.141,439.766,213.307,439.873,214.591L439.873,214.591z"/>
		</g>
		<g>
			<path style="fill:#2B307B;" d="M443.379,215.17c0.602,2.523,1.203,5.045,1.804,7.568c0.298,1.248,2.173,0.55,1.877-0.691
				c-0.601-2.523-1.203-5.045-1.804-7.568C444.958,213.231,443.083,213.93,443.379,215.17L443.379,215.17z"/>
		</g>
		<g>
			<path style="fill:#2B307B;" d="M450.007,215.081c0.059,2.002,0.118,4.004,0.177,6.007c0.038,1.288,2.031,1.116,1.993-0.167
				c-0.059-2.002-0.118-4.004-0.177-6.007C451.962,213.627,449.97,213.798,450.007,215.081L450.007,215.081z"/>
		</g>
		<g>
			<path style="fill:#2B307B;" d="M369.883,420.836c0.232,2.768,0.465,5.536,0.697,8.304c0.108,1.282,2.101,1.117,1.993-0.167
				c-0.232-2.768-0.465-5.536-0.697-8.304C371.769,419.387,369.776,419.552,369.883,420.836L369.883,420.836z"/>
		</g>
		<g>
			<path style="fill:#2B307B;" d="M372.619,419.924c0.541,2.857,1.082,5.714,1.623,8.571c0.237,1.252,2.233,1.098,1.993-0.167
				c-0.541-2.857-1.082-5.714-1.623-8.571C374.375,418.504,372.38,418.658,372.619,419.924L372.619,419.924z"/>
		</g>
		<g>
			<path style="fill:#2B307B;" d="M378.534,418.763c0.488,3.193,0.976,6.386,1.464,9.578c0.193,1.265,2.188,1.108,1.993-0.167
				c-0.488-3.193-0.976-6.386-1.464-9.578C380.333,417.331,378.339,417.488,378.534,418.763L378.534,418.763z"/>
		</g>
		<g>
			<path style="fill:#2B307B;" d="M382.57,419.437c0.259,2.989,0.518,5.978,0.778,8.966c0.111,1.282,2.104,1.117,1.993-0.167
				c-0.259-2.989-0.519-5.978-0.778-8.966C384.452,417.987,382.458,418.152,382.57,419.437L382.57,419.437z"/>
		</g>
		<g>
			<path style="fill:#2B307B;" d="M387.762,421.009c0.263,2.877,0.527,5.754,0.79,8.63c0.117,1.281,2.111,1.117,1.993-0.167
				c-0.263-2.877-0.527-5.754-0.79-8.63C389.637,419.561,387.644,419.725,387.762,421.009L387.762,421.009z"/>
		</g>
		<g>
			<path style="fill:#2B307B;" d="M393.797,419.5c0.329,2.648,0.659,5.297,0.988,7.946c0.159,1.274,2.152,1.113,1.993-0.167
				c-0.329-2.648-0.659-5.297-0.988-7.946C395.632,418.059,393.638,418.22,393.797,419.5L393.797,419.5z"/>
		</g>
		<g>
			<path style="fill:#2B307B;" d="M397.548,419.178c0.558,2.629,1.116,5.258,1.673,7.887c0.264,1.242,2.26,1.091,1.993-0.167
				c-0.558-2.629-1.116-5.258-1.673-7.887C399.278,417.768,397.282,417.92,397.548,419.178L397.548,419.178z"/>
		</g>
		<g>
			<path style="fill:#2B307B;" d="M402.44,418.04c0.807,2.942,1.615,5.884,2.422,8.827c0.34,1.24,2.216,0.545,1.877-0.691
				c-0.807-2.942-1.615-5.885-2.422-8.827C403.977,416.109,402.101,416.804,402.44,418.04L402.44,418.04z"/>
		</g>
		<g>
			<path style="fill:#2B307B;" d="M407.984,417.591c0.765,3.066,1.531,6.132,2.296,9.198c0.311,1.245,2.187,0.548,1.877-0.691
				c-0.765-3.066-1.531-6.132-2.296-9.198C409.551,415.654,407.675,416.351,407.984,417.591L407.984,417.591z"/>
		</g>
		<g>
			<path style="fill:#2B307B;" d="M413.973,416.132c0.482,3.082,0.963,6.163,1.445,9.245c0.198,1.264,2.192,1.107,1.993-0.167
				c-0.482-3.082-0.963-6.163-1.445-9.245C415.769,414.7,413.774,414.857,413.973,416.132L413.973,416.132z"/>
		</g>
		<g>
			<path style="fill:#2B307B;" d="M419.929,415.297c0.343,2.759,0.686,5.517,1.029,8.276c0.159,1.274,2.152,1.113,1.993-0.167
				c-0.343-2.759-0.686-5.518-1.029-8.276C421.763,413.855,419.77,414.016,419.929,415.297L419.929,415.297z"/>
		</g>
		<g>
			<path style="fill:#2B307B;" d="M425.267,414.191c0.377,2.866,0.753,5.733,1.13,8.599c0.167,1.272,2.161,1.112,1.993-0.167
				c-0.377-2.866-0.753-5.732-1.13-8.599C427.093,412.752,425.099,412.912,425.267,414.191L425.267,414.191z"/>
		</g>
		<g>
			<path style="fill:#2B307B;" d="M428.694,415.897c0.443,2.639,0.886,5.278,1.329,7.917c0.212,1.26,2.207,1.104,1.993-0.167
				c-0.443-2.639-0.886-5.278-1.329-7.917C430.475,414.47,428.481,414.626,428.694,415.897L428.694,415.897z"/>
		</g>
		<g>
			<path style="fill:#2B307B;" d="M432.665,415.163c0.537,2.408,1.073,4.816,1.61,7.224c0.279,1.251,2.154,0.551,1.877-0.691
				c-0.537-2.408-1.073-4.816-1.61-7.224C434.263,413.221,432.388,413.921,432.665,415.163L432.665,415.163z"/>
		</g>
		<g>
			<path style="fill:#2B307B;" d="M439.668,414.91c0.694,2.952,1.388,5.905,2.082,8.857c0.293,1.249,2.169,0.55,1.877-0.691
				c-0.694-2.952-1.388-5.905-2.082-8.857C441.252,412.97,439.376,413.669,439.668,414.91L439.668,414.91z"/>
		</g>
		<g>
			<path style="fill:#2B307B;" d="M444.319,413.908c0.568,2.852,1.135,5.704,1.703,8.556c0.248,1.248,2.244,1.095,1.993-0.167
				c-0.568-2.852-1.135-5.704-1.703-8.556C446.064,412.493,444.068,412.646,444.319,413.908L444.319,413.908z"/>
		</g>
		<g>
			<path style="fill:#2B307B;" d="M449.69,415.414c0.712,3.061,1.424,6.122,2.135,9.183c0.29,1.249,2.166,0.55,1.877-0.691
				c-0.712-3.061-1.423-6.122-2.135-9.183C451.277,413.474,449.402,414.173,449.69,415.414L449.69,415.414z"/>
		</g>
		<g>
			<path style="fill:#2B307B;" d="M455.417,414.315c0.452,2.75,0.905,5.499,1.357,8.249c0.208,1.262,2.202,1.105,1.993-0.167
				c-0.452-2.75-0.905-5.499-1.357-8.249C457.202,412.886,455.208,413.043,455.417,414.315L455.417,414.315z"/>
		</g>
		<g>
			<path style="fill:#2B307B;" d="M459.023,412.998c0.692,3.178,1.385,6.356,2.077,9.534c0.27,1.24,2.267,1.089,1.993-0.167
				c-0.692-3.178-1.384-6.356-2.077-9.534C460.746,411.591,458.749,411.742,459.023,412.998L459.023,412.998z"/>
		</g>
		<g>
			<path style="fill:#2B307B;" d="M463.617,412.284c0.563,2.853,1.126,5.706,1.689,8.559c0.246,1.249,2.242,1.096,1.993-0.167
				c-0.563-2.853-1.126-5.706-1.689-8.559C465.364,410.868,463.368,411.021,463.617,412.284L463.617,412.284z"/>
		</g>
		<g>
			<path style="fill:#2B307B;" d="M467.81,411.889c1.155,3.022,2.311,6.045,3.466,9.067c0.459,1.2,2.339,0.515,1.877-0.691
				c-1.156-3.022-2.311-6.044-3.466-9.067C469.228,409.998,467.348,410.682,467.81,411.889L467.81,411.889z"/>
		</g>
	</g>
	<g>
		
			<rect x="360.224" y="223.095" transform="matrix(0.9965 -0.0837 0.0837 0.9965 -25.4306 35.5133)" style="fill:#2B307B;" width="101.571" height="196.171"/>
		<g>
			<g>
				<path style="fill:#213E8A;" d="M456.623,257.445l0.644,7.668c-33.74,2.81-67.481,5.619-101.221,8.429l-0.644-7.668
					C389.142,263.064,422.882,260.254,456.623,257.445z"/>
			</g>
			<g>
				<path style="fill:#213E8A;" d="M459.023,286.03l0.644,7.668c-33.709,3.185-67.417,6.378-101.125,9.572l-0.644-7.668
					C391.606,292.409,425.314,289.216,459.023,286.03z"/>
			</g>
			<g>
				<path style="fill:#213E8A;" d="M461.379,314.095l0.644,7.668c-33.886,0.343-67.739,2.359-101.423,6.021l-0.644-7.668
					C393.64,316.454,427.493,314.438,461.379,314.095z"/>
			</g>
			<g>
				<path style="fill:#213E8A;" d="M464.114,346.675l0.644,7.668c-33.836,1.675-67.672,3.342-101.507,5.017l-0.644-7.668
					C396.443,350.017,430.279,348.35,464.114,346.675z"/>
			</g>
			<g>
				<path style="fill:#213E8A;" d="M466.478,374.831l0.644,7.668c-33.663,3.737-67.325,7.475-100.987,11.22l-0.644-7.668
					C399.154,382.306,432.816,378.569,466.478,374.831z"/>
			</g>
			<g>
				<path style="fill:#213E8A;" d="M453.941,225.501l0.644,7.668c-33.639,4.021-67.285,8.043-100.916,12.063l-0.644-7.668
					C386.656,233.544,420.302,229.522,453.941,225.501z"/>
			</g>
			<g>
				<path style="fill:#213E8A;" d="M469.098,406.032l0.644,7.668c-33.746,2.748-67.498,5.505-101.236,8.253l-0.644-7.668
					C401.6,411.537,435.352,408.78,469.098,406.032z"/>
			</g>
		</g>
		<g>
			<g>
				<path style="fill:#3F4899;" d="M455.32,241.933l0.322,3.834c-33.648,3.906-67.297,7.805-100.945,11.711l-0.322-3.834
					C388.023,249.737,421.672,245.839,455.32,241.933z"/>
			</g>
			<g>
				<path style="fill:#3F4899;" d="M458.004,273.892l0.322,3.834c-33.768,2.48-67.536,4.96-101.304,7.44l-0.322-3.834
					C390.467,278.852,424.236,276.372,458.004,273.892z"/>
			</g>
			<g>
				<path style="fill:#3F4899;" d="M460.6,304.816l0.322,3.834c-33.791,2.204-67.575,4.4-101.375,6.589l-0.322-3.834
					C393.025,309.216,426.809,307.02,460.6,304.816z"/>
			</g>
			<g>
				<path style="fill:#3F4899;" d="M462.864,331.784l0.322,3.834c-33.727,3.241-67.579,5.087-101.464,5.538l-0.322-3.834
					C395.285,336.871,429.137,335.025,462.864,331.784z"/>
			</g>
			<g>
				<path style="fill:#3F4899;" d="M465.457,362.67l0.322,3.834c-33.73,2.932-67.46,5.865-101.191,8.789l-0.322-3.834
					C397.997,368.535,431.727,365.603,465.457,362.67z"/>
			</g>
			<g>
				<path style="fill:#3F4899;" d="M468,392.958l0.322,3.834c-33.705,3.232-67.41,6.463-101.115,9.694l-0.322-3.834
					C400.59,399.421,434.295,396.189,468,392.958z"/>
			</g>
		</g>
	</g>
</g>
<g>
	<path style="fill:#6F74C5;" d="M374.149,50.668H126.917c-1.075,0-1.955,0.9-1.955,2l1.919,95.185l246.804-5.509l2.418-89.676
		C376.104,51.568,375.224,50.668,374.149,50.668z"/>
	<path style="fill:#5E67B7;" d="M374.126,50.668H126.94c-1.088,0-1.977,0.89-1.977,1.977v12.712c0,1.088,0.89,1.977,1.977,1.977
		h247.187c1.088,0,1.977-0.89,1.977-1.977V52.645C376.104,51.558,375.214,50.668,374.126,50.668z"/>
	<g>
		<path style="fill:#D5D9FF;" d="M373.686,117.709v319.565c0,7.329-5.992,13.322-13.322,13.322H140.203
			c-7.329,0-13.322-5.992-13.322-13.322V117.709c0-7.329,5.992-13.322,13.322-13.322h220.161
			C367.693,104.387,373.686,110.38,373.686,117.709z"/>
		<g style="opacity:0.42;">
			<g>
				<g>
					<g>
						<rect x="143.242" y="104.387" style="fill:#6F74C5;" width="1.87" height="346.208"/>
					</g>
					<g>
						<rect x="152.544" y="104.387" style="fill:#6F74C5;" width="1.87" height="346.208"/>
					</g>
				</g>
				<g>
					<g>
						<rect x="189.05" y="104.387" style="fill:#6F74C5;" width="1.87" height="346.208"/>
					</g>
					<g>
						<rect x="198.352" y="104.387" style="fill:#6F74C5;" width="1.87" height="346.208"/>
					</g>
				</g>
				<g>
					<g>
						<rect x="234.858" y="104.387" style="fill:#6F74C5;" width="1.87" height="346.208"/>
					</g>
					<g>
						<rect x="244.16" y="104.387" style="fill:#6F74C5;" width="1.87" height="346.208"/>
					</g>
				</g>
				<g>
					<g>
						<rect x="280.667" y="104.387" style="fill:#6F74C5;" width="1.87" height="346.208"/>
					</g>
					<g>
						<rect x="289.969" y="104.387" style="fill:#6F74C5;" width="1.87" height="346.208"/>
					</g>
				</g>
				<g>
					<g>
						<rect x="327.41" y="104.387" style="fill:#6F74C5;" width="1.87" height="346.208"/>
					</g>
					<g>
						<rect x="336.712" y="104.387" style="fill:#6F74C5;" width="1.87" height="346.208"/>
					</g>
				</g>
			</g>
			<g>
				<g>
					<g>
						<rect x="126.882" y="121.327" style="fill:#6F74C5;" width="246.804" height="1.87"/>
					</g>
					<g>
						<rect x="126.882" y="129.152" style="fill:#6F74C5;" width="246.804" height="1.87"/>
					</g>
				</g>
				<g>
					<g>
						<rect x="126.882" y="159.862" style="fill:#6F74C5;" width="246.804" height="1.87"/>
					</g>
					<g>
						<rect x="126.882" y="167.687" style="fill:#6F74C5;" width="246.804" height="1.87"/>
					</g>
				</g>
				<g>
					<g>
						<rect x="126.882" y="198.397" style="fill:#6F74C5;" width="246.804" height="1.87"/>
					</g>
					<g>
						<rect x="126.882" y="206.222" style="fill:#6F74C5;" width="246.804" height="1.87"/>
					</g>
				</g>
				<g>
					<g>
						<rect x="126.882" y="236.932" style="fill:#6F74C5;" width="246.804" height="1.87"/>
					</g>
					<g>
						<rect x="126.882" y="244.757" style="fill:#6F74C5;" width="246.804" height="1.87"/>
					</g>
				</g>
				<g>
					<g>
						<rect x="126.882" y="276.253" style="fill:#6F74C5;" width="246.804" height="1.87"/>
					</g>
					<g>
						<rect x="126.882" y="284.077" style="fill:#6F74C5;" width="246.804" height="1.87"/>
					</g>
				</g>
			</g>
			<g>
				<g>
					<g>
						<rect x="126.882" y="308.767" style="fill:#6F74C5;" width="246.804" height="1.87"/>
					</g>
					<g>
						<rect x="126.882" y="316.601" style="fill:#6F74C5;" width="246.804" height="1.87"/>
					</g>
				</g>
				<g>
					<g>
						<rect x="126.882" y="347.302" style="fill:#6F74C5;" width="246.804" height="1.87"/>
					</g>
					<g>
						<rect x="126.882" y="355.127" style="fill:#6F74C5;" width="246.804" height="1.87"/>
					</g>
				</g>
				<g>
					<g>
						<rect x="126.882" y="385.837" style="fill:#6F74C5;" width="246.804" height="1.87"/>
					</g>
					<g>
						<rect x="126.882" y="393.662" style="fill:#6F74C5;" width="246.804" height="1.87"/>
					</g>
				</g>
				<g>
					<g>
						<rect x="126.882" y="424.372" style="fill:#6F74C5;" width="246.804" height="1.87"/>
					</g>
					<g>
						<rect x="126.882" y="432.197" style="fill:#6F74C5;" width="246.804" height="1.87"/>
					</g>
				</g>
			</g>
		</g>
		<path style="opacity:0.16;fill:#6B5BA4;" d="M373.686,350.901v21.661c-1.729,3.515-3.983,7.442-6.703,10.723
			c-6.694,8.105-16.828,22.128-44.565,44.874c-15.481,12.705-28.336,19.184-37.067,22.437H175.896
			c-6.394-2.225-14.967-5.553-22.68-9.657c-10.498-5.581-20.193-10.685-26.335-17.379v-53.11L373.686,350.901z"/>
		<path style="opacity:0.16;fill:#6B5BA4;" d="M299.676,218.754c-0.312,1.868,29.934,7.789,32.885,7.789
			c2.951,0,12.544-45.805,12.545-45.808c0.515-0.422,1.054-0.892,1.628-1.427c5.824-5.432,21.371-26.148,26.952-33.674v-27.924
			c0-7.329-5.992-13.322-13.322-13.322H179.533c-4.702,3.029-6.694,6.366-11.62,7.479c-6.909,1.561-13.453,2.805-14.388,9.975
			c-0.935,7.161,7.479,6.694,11.218,17.061c3.739,10.358,10.592,29.271,11.845,35.553c0,0-10.284,17.183-12.471,30.897
			c-2.178,13.714,18.482,27.335,21.502,29.392c0,0-0.608,20.156-2.487,20.156c-1.87,0-15.893-7.479-23.063-4.674
			c-7.17,2.805-13.714,8.806-20.876,18.108c-3.618,4.702-8.432,12.826-12.312,19.726v32.72
			c34.506,2.234,190.628,12.34,192.498,12.34c2.113,0,54.306-37.479,54.306-37.479v-48.8c-1.58-0.299-4.151-0.159-7.946,1.823
			c-7.17,3.739-26.158,20.258-33.178,27.111c-7.021,6.862-31.168,21.82-35.142,21.82c0,0-1.786-29.411-3.973-39.012
			c-2.188-9.601-7.348-13.808-15.051-13.107c-7.703,0.701-39.33,13.677-41.274,13.107c0,0-1.617-12.714,1.019-14.275
			c2.636-1.561,10.34-6.282,12.144-7.563c1.804-1.281,4.207,8.339,17.688,8.732c13.471,0.383,13.07-8.648,17.716-17.379
			c4.637-8.722,10.723-40.816,11.733-47.36c1.01-6.544,4.889-10.321,4.889-10.321l11.387-6.74c0,0,6.38,6.913,12.312,11.969
			l-12.462-3.321C310.582,173.255,299.987,216.885,299.676,218.754z"/>
		<path style="fill:#2B307B;" d="M378.192,320.415c0.458,12.069,0.374,23.615-2.683,36.385
			c-3.422,14.331-13.397,31.785-47.987,60.14c-34.59,28.364-57.831,33.655-57.831,33.655s-84.577,0-85.512,0
			c-0.935,0-11.536-6.853-26.494-14.331c-14.416-7.208-31.449-20.791-38.788-27.064c-0.281-0.234-0.542-0.458-0.785-0.673
			c-1.561-1.346-2.842-2.543-3.823-3.655l-0.009-0.009c-3.366-3.786-3.534-6.778-0.841-12.536
			c3.487-7.479,14.023-25.868,13.714-29.168c-0.149-1.571-0.159-16.519-0.131-31.748c0.009-3.001,0.019-6.03,0.028-8.956
			c0.047-13.369,0.103-24.858,0.103-24.858s3.739-12.471,9.966-19.015c6.236-6.544,16.36-26.008,23.998-25.858
			c4.095,0.084,8.049,0.86,11.929,2.15c2.833,0.935,5.628,2.16,8.395,3.562c0.103,0.047,0.196,0.103,0.299,0.15
			c8.62,4.403,17.015,10.629,25.812,16.257c15.575,9.975,64.188,27.737,79.772,28.364c2.047,0.084,4.085-0.065,6.123-0.421
			c13.5-2.262,26.69-12.995,37.666-21.399c12.63-9.657,27.261-29.916,37.853-28.663c10.601,1.243,7.797,12.77,10.601,23.989
			c2.431,9.723-0.991,21.792-1.542,33.758c-0.084,1.842-0.103,3.683-0.019,5.506C378.07,317.461,378.136,318.948,378.192,320.415z"
			/>
		<path style="fill:#1F266D;" d="M285.513,298.555c-1.1,11.827-2.864,31.273-3.293,39.018c-0.63,11.491-4.62,5.737-4.62,5.737
			s-1.26,3.36-1.26,11.34c0,7.98,6.3,15.12,2.033,17.077c-4.267,1.957-11.113-2.377-11.113-2.377c-1.604,2.066,4.67,7.77,3.62,11.13
			c-1.05,3.36-8.4-1.26-10.592-3.041c-2.192-1.789-5.3-10.046-10.861-13.129c-5.561-3.083-8.366-5.04-9.005-11.508
			c-0.63-6.468,6.308-9.492,6.308-9.492l-3.478-1.52c0,0-1.772-4.359-0.37-15.909c1.369-11.374,6.384-24.57,6.535-24.981
			c-0.697,0.336-35.834,17.48-53.718,2.511c-16.296-13.641-14.297-34.977-10.559-44.57c7.745,3.956,15.288,9.551,23.192,14.607
			c13.994,8.963,57.674,24.923,71.677,25.486C281.851,299.009,283.682,298.874,285.513,298.555z"/>
		<g>
			<path style="fill:#3F4899;" d="M158.479,300.654c0-2.771,2.246-5.018,5.018-5.018c2.771,0,5.018,2.246,5.018,5.018
				c0,2.771-2.246,5.018-5.018,5.018C160.726,305.672,158.479,303.425,158.479,300.654z"/>
			<path style="fill:#3F4899;" d="M306.717,420.005c0-2.771,2.246-5.018,5.018-5.018c2.771,0,5.018,2.246,5.018,5.018
				c0,2.771-2.246,5.018-5.018,5.018C308.964,425.023,306.717,422.776,306.717,420.005z"/>
			<path style="fill:#3F4899;" d="M203.143,367.109c0-2.771,2.246-5.018,5.018-5.018c2.771,0,5.018,2.247,5.018,5.018
				c0,2.771-2.246,5.018-5.018,5.018C205.389,372.126,203.143,369.88,203.143,367.109z"/>
			<circle style="fill:#3F4899;" cx="262.554" cy="404.199" r="5.018"/>
			<path style="fill:#3F4899;" d="M221.016,331.954c0-2.771,2.247-5.018,5.018-5.018c2.771,0,5.018,2.246,5.018,5.018
				c0,2.771-2.246,5.018-5.018,5.018C223.263,336.972,221.016,334.725,221.016,331.954z"/>
			<path style="fill:#3F4899;" d="M345.141,374.186c0-2.771,2.247-5.018,5.018-5.018c2.771,0,5.018,2.246,5.018,5.018
				c0,2.771-2.246,5.018-5.018,5.018C347.387,379.203,345.141,376.957,345.141,374.186z"/>
			<circle style="fill:#3F4899;" cx="342.527" cy="297.823" r="5.018"/>
			<circle style="fill:#3F4899;" cx="319.383" cy="336.972" r="5.018"/>
			<path style="fill:#3F4899;" d="M249.522,379.203c0-2.771,2.246-5.018,5.018-5.018c2.771,0,5.018,2.247,5.018,5.018
				c0,2.771-2.246,5.018-5.018,5.018C251.768,384.221,249.522,381.975,249.522,379.203z"/>
			<path style="fill:#3F4899;" d="M181.45,258.584c0,2.767-2.253,5.02-5.02,5.02s-5.02-2.253-5.02-5.02
				c0-1.468,0.636-2.786,1.636-3.711c2.833,0.935,5.628,2.16,8.395,3.562C181.45,258.481,181.45,258.537,181.45,258.584z"/>
			<path style="fill:#3F4899;" d="M363.651,268.339c0-2.771,2.246-5.018,5.018-5.018c2.771,0,5.018,2.246,5.018,5.018
				s-2.246,5.018-5.018,5.018C365.897,273.357,363.651,271.11,363.651,268.339z"/>
			<path style="fill:#3F4899;" d="M217.692,436.513c0-2.771,2.246-5.018,5.018-5.018c2.771,0,5.018,2.246,5.018,5.018
				c0,2.771-2.246,5.018-5.018,5.018C219.939,441.531,217.692,439.284,217.692,436.513z"/>
			<path style="fill:#3F4899;" d="M165.709,432.854c0-2.771,2.247-5.018,5.018-5.018c2.771,0,5.018,2.246,5.018,5.018
				s-2.247,5.018-5.018,5.018C167.956,437.871,165.709,435.625,165.709,432.854z"/>
			<path style="fill:#3F4899;" d="M378.192,320.415c-2.534-0.252-4.506-2.393-4.506-4.992c0-2.534,1.888-4.637,4.338-4.955
				c-0.084,1.842-0.103,3.683-0.019,5.506C378.07,317.461,378.136,318.948,378.192,320.415z"/>
			<path style="fill:#3F4899;" d="M114.229,404.199c0-2.771,2.247-5.018,5.018-5.018c2.771,0,5.018,2.246,5.018,5.018
				s-2.246,5.018-5.018,5.018C116.476,409.216,114.229,406.97,114.229,404.199z"/>
			<path style="fill:#3F4899;" d="M155.737,399.181c0-2.771,2.247-5.018,5.018-5.018c2.771,0,5.018,2.247,5.018,5.018
				c0,2.771-2.246,5.018-5.018,5.018C157.984,404.199,155.737,401.952,155.737,399.181z"/>
			<circle style="fill:#3F4899;" cx="163.497" cy="349.646" r="5.018"/>
			<path style="fill:#3F4899;" d="M134.304,326.941c0,2.767-2.253,5.011-5.02,5.011c-0.813,0-1.58-0.196-2.262-0.542
				c0.009-3.001,0.019-6.03,0.028-8.956c0.673-0.346,1.43-0.533,2.234-0.533C132.051,321.921,134.304,324.164,134.304,326.941z"/>
		</g>
		<path style="fill:#213E8A;" d="M371.67,135.719l-38.738,48.088c-1.707,2.124-4.834,2.461-6.958,0.744l-19.245-15.503
			l-28.843-23.235c-2.124-1.707-2.461-4.834-0.754-6.958l27.622-34.292l11.116-13.796c1.707-2.114,4.844-2.452,6.967-0.744
			l22.808,18.372l8.268,6.67l17.012,13.697C373.039,130.469,373.377,133.595,371.67,135.719z"/>
		<path style="fill:#1C397C;" d="M324.405,153.247c-0.337,5.707-4.059,9.925-8.03,11.662c-2.055,0.893-6.154,2.66-9.647,4.139
			l-28.843-23.235c-2.124-1.707-2.461-4.834-0.754-6.958l27.622-34.292c2.62,10.61,8.506,34.083,10.63,37.101
			C318.113,145.555,324.733,147.54,324.405,153.247z"/>
		<path style="fill:#2B307B;" d="M314.35,167.894c-4.2,1.117-5.04-0.286-9.097,2.234c-4.066,2.52-26.183,15.54-43.402,24.503
			c-1.747,0.916-3.696,1.907-5.779,2.965c-18.404,9.307-47.905,22.999-54.7,19.857c-7.56-3.503-15.12-27.3-16.38-32.34
			c-0.37-1.478-1.462-4.889-2.873-9.114c-3.419-10.189-8.744-25.107-10.424-28.971c-2.386-5.46-6.585-6.577-8.963-9.794
			c-2.377-3.226,0-7.703,3.78-7.006c3.78,0.706,4.948,0.168,6.863-0.714c2.268-1.05,2.377-1.663,6.577-3.763
			c3.746-1.873,22.302-10.097,39.58-16.808c2.1-0.815,4.175-1.613,6.199-2.369c0.663-0.252,1.344-0.504,2.041-0.756
			c18.9-6.964,48.064-16.54,51.576-18.707c3.646-2.243,4.62-7.417,9.24-6.846c4.62,0.571,3.503,8.803,3.225,10.769
			c-0.286,1.957,2.234,6.3,6.997,18.757c4.763,12.457,11.76,39.757,13.583,43.117c1.814,3.36,4.754,2.243,6.157,6.166
			C319.953,162.988,318.55,166.768,314.35,167.894z"/>
		<g>
			<path style="fill:#3F4899;" d="M270.329,160.702c0-2.49,2.019-4.508,4.509-4.508c2.49,0,4.508,2.018,4.508,4.508
				c0,2.49-2.018,4.508-4.508,4.508C272.347,165.21,270.329,163.192,270.329,160.702z"/>
			<path style="fill:#3F4899;" d="M284.575,138.914c0-2.49,2.018-4.508,4.508-4.508c2.49,0,4.509,2.018,4.509,4.508
				c0,2.49-2.018,4.508-4.509,4.508C286.593,143.423,284.575,141.404,284.575,138.914z"/>
			<circle style="fill:#3F4899;" cx="258.701" cy="183.795" r="4.508"/>
			<path style="fill:#3F4899;" d="M184.12,137.291c0-2.49,2.018-4.508,4.508-4.508c2.49,0,4.508,2.019,4.508,4.508
				c0,2.49-2.018,4.508-4.508,4.508C186.139,141.799,184.12,139.781,184.12,137.291z"/>
			<path style="fill:#3F4899;" d="M228.478,108.229c0,2.495-2.016,4.511-4.502,4.511c-2.251,0-4.108-1.638-4.444-3.797
				c2.1-0.815,4.175-1.613,6.199-2.369c0.663-0.252,1.344-0.504,2.041-0.756C228.217,106.516,228.478,107.339,228.478,108.229z"/>
			<path style="fill:#3F4899;" d="M199.866,161.84c0-2.49,2.018-4.508,4.508-4.508c2.49,0,4.508,2.018,4.508,4.508
				c0,2.49-2.018,4.508-4.508,4.508C201.884,166.348,199.866,164.33,199.866,161.84z"/>
			<path style="fill:#3F4899;" d="M267.481,108.232c0-2.49,2.019-4.508,4.508-4.508s4.508,2.019,4.508,4.508
				c0,2.49-2.018,4.508-4.508,4.508S267.481,110.722,267.481,108.232z"/>
			<path style="fill:#3F4899;" d="M238.373,126.896c0-2.49,2.018-4.508,4.508-4.508c2.49,0,4.508,2.018,4.508,4.508
				c0,2.49-2.018,4.508-4.508,4.508C240.392,131.404,238.373,129.386,238.373,126.896z"/>
		</g>
		<path style="fill:#1F266D;" d="M261.641,170.061c-4.41,8.19-11.34,10.5-12.844,11.878c-1.504,1.369-1.016,3.032,0.63,5.552
			c1.243,1.898,4.536,6.602,6.644,10.105c-18.404,9.307-47.905,22.999-54.7,19.857c-7.56-3.503-15.12-27.3-16.38-32.34
			c-0.37-1.478-1.462-4.889-2.873-9.114c3.058-2.747,8.207-7.064,15.053-11.752c11.55-7.913,16.8-9.097,21.075-17.564
			c4.276-8.467,11.054-14.633,18.614-17.169c7.56-2.537,14.91-2.503,23.427,4.78C268.806,141.569,266.051,161.871,261.641,170.061z"
			/>
		<path style="fill:#FF7677;" d="M250.353,339.532c-0.262,2.237-5.423,8.257-6.553,10.497c-1.13,2.24-0.718,7.7,3.276,9.52
			c3.994,1.82,6.234,4.9,7.914,7.84s9.1,11.06,11.62,9.94c2.52-1.12-3.08-9.1-3.78-14.42c-0.7-5.32-1.12-13.58-1.12-13.58
			l0.28-10.36L250.353,339.532z"/>
		<path style="fill:#1A3672;" d="M275.851,336.45c-10.22,2.24-21.28-3.5-21.7-4.06c-0.42-0.56-3.22-13.72-1.12-27.768
			c2.1-14.048,7.257-25.456,7.257-25.456s-12.437,9.964-21.257,15.984c-4.771,3.256-12.451,7.571-20.779,8.992l-0.005,0.003
			c6.364,0.665,34.924-8.995,34.924-8.995s-7.42,29.4-7.21,44.1c0,0,29.05,1.96,32.83,1.26l5.441-52.479
			C281.804,309.062,275.851,336.45,275.851,336.45z"/>
		<path style="fill:#BC9B0F;" d="M260.288,141.585c-1.05-2.15-2.075-2.671-2.075-2.671s-5.88,5.317-8.123,7.274
			c-2.243,1.966-8.963,4.62-10.5,6.3c-1.537,1.68-5.04,7.283-6.443,10.08c-1.394,2.806-3.494,5.04-3.494,5.04
			c0.134,2.243-0.143,9.383,0,10.365c-2.385-0.706-5.46-1.823-7.14,0c-1.68,1.814-6.3,6.577-12.323,15.96
			c-6.023,9.374-7.56,13.297-7.56,13.297c-2.377,2.797-6.829,15.893-9.996,27.123c-1.235-0.269-3.032-0.748-5.048-1.571
			c-0.193-0.076-0.386-0.16-0.588-0.244c-1.966-0.848-4.099-2.016-6.09-3.62c-0.176-0.143-0.361-0.294-0.538-0.454
			c-1.781-1.52-3.419-3.41-4.687-5.745c-0.151-0.277-0.302-0.554-0.437-0.848c-0.773-1.596-1.369-3.385-1.739-5.401
			c-0.991-5.418-1.008-10.189-0.311-14.49c0.143-0.84,0.302-1.655,0.504-2.461c1.739-7.308,5.62-13.23,10.307-18.749
			c7.846-9.24,23.663-16.943,29.82-21.983c6.165-5.04,8.123-11.894,13.86-19.874c4.066-5.636,8.257-8.837,13.541-9.332
			c0.445-0.042,0.89-0.067,1.352-0.067c1.806-0.017,3.738,0.269,5.83,0.857c0.067,0.017,0.134,0.042,0.202,0.059h0.008
			c0.344,0.101,0.68,0.202,1,0.319h0.008c1.798,0.588,3.234,1.277,4.41,2.033c0.193,0.126,0.378,0.252,0.554,0.378
			c0.731,0.529,1.352,1.075,1.882,1.646c0.16,0.16,0.302,0.319,0.437,0.487C258.625,137.335,259.364,139.57,260.288,141.585z"/>
		<path style="fill:#6F74C5;" d="M243.799,232.422c-0.706,2.638-1.907,4.645-3.251,6.191c-2.906,3.36-6.451,4.528-6.838,5.3
			c-0.563,1.117-4.763,20.437-4.763,20.437s-2.94,1.68-4.897,2.377c-1.957,0.706-3.78,2.1-16.8-1.394
			c-13.02-3.503-18.623-11.626-18.623-11.626s0.21-2.024,0.815-5.46c0.605-3.436,1.613-8.274,3.192-13.893
			c3.167-11.231,7.619-24.326,9.996-27.123c0,0,2.889,2.806,7.82,6.014c1.764,1.159,3.788,2.36,6.048,3.503
			c6.325,3.209,12.701,2.058,15.599,1.235c1.025-0.286,1.613-0.529,1.613-0.529S238.633,225.492,243.799,232.422z"/>
		<path style="fill:#FFA89B;" d="M289.083,179.62c-0.109,0.974-0.773,2.738-1.604,4.645c-1.201,2.78-2.764,5.872-3.511,7.283
			c-1.26,2.386-0.697,5.183-3.914,21.84c-2.352,12.138-4.696,20.924-8.064,26.208v0.008c-1.26,1.974-2.663,3.452-4.259,4.444
			c-5.88,3.646-9.937,1.966-16.237-2.94c-0.638-0.504-1.327-1.134-2.066-1.89c-0.008-0.008-0.008-0.008-0.017-0.008
			c-1.739-1.798-3.696-4.217-5.611-6.787c-5.166-6.93-10.088-14.969-10.088-14.969s-1.621,0.68-4.15,1.109
			c-3.318,0.546-8.207,0.647-13.062-1.814c-0.428-0.218-0.848-0.437-1.26-0.655c-0.193-0.101-0.387-0.21-0.571-0.311
			c-1.537-0.84-2.94-1.697-4.217-2.537c-4.931-3.209-7.82-6.014-7.82-6.014s1.537-3.923,7.56-13.297
			c6.023-9.383,10.643-14.145,12.323-15.96c1.68-1.823,4.754-0.706,7.14,0c-0.143-0.983,0.134-8.123,0-10.365
			c0,0,2.1-2.234,3.494-5.04c1.403-2.797,4.906-8.4,6.443-10.08c1.537-1.68,8.257-4.334,10.5-6.3
			c2.243-1.957,8.123-7.274,8.123-7.274s1.025,0.521,2.075,2.671c0.395,0.815,0.798,1.856,1.142,3.209
			c1.26,4.897,1.26,15.12-4.897,26.04c-6.166,10.92-14.003,8.257-14.003,8.257l-1.604,3.217c2.512,1.848,5.141,4.511,7.762,8.4
			c4.066,6.023,11.903,22.403,11.903,22.403l7.073-17.69l1.907-4.754c0-0.008,0-0.017,0.008-0.025l0.059-0.151L289.083,179.62z"/>
		<g>
			<g>
				<path style="fill:#BC9B0F;" d="M303.573,181.334c0,0-9.383,32.894-10.08,34.574c-0.008,0.008-0.008,0.025-0.017,0.034
					c5.922,1.512,20.74,5.342,27.182,7.022c2.999-10.063,8.954-33.793,8.954-33.793L303.573,181.334z"/>
				<g>
					<path style="fill:#AF8F0B;" d="M318.339,219.309c-0.034,0-0.071-0.004-0.106-0.014c-5.889-1.53-14.749-3.819-20.594-5.321
						c-0.111-0.029-0.205-0.101-0.262-0.201c-0.056-0.1-0.069-0.218-0.036-0.327c1.965-6.54,5.932-20.368,8.123-28.028
						c0.03-0.108,0.103-0.199,0.203-0.254c0.099-0.053,0.214-0.065,0.322-0.034l19.7,5.929c0.215,0.065,0.341,0.288,0.285,0.506
						c-1.378,5.431-4.841,18.976-7.231,27.437C318.691,219.188,318.523,219.309,318.339,219.309z M298.272,213.269
						c5.709,1.468,14.033,3.62,19.774,5.11c2.327-8.273,5.6-21.058,7.015-26.63l-18.906-5.69
						C303.99,193.631,300.243,206.689,298.272,213.269z"/>
				</g>
				<path style="fill:#6F74C5;" d="M292.653,220.814c0,0,25.41,6.854,26.418,6.577c0.21-0.059,0.798-1.764,1.588-4.427
					c-6.443-1.68-21.26-5.51-27.182-7.022C292.788,217.63,292.653,220.814,292.653,220.814z"/>
			</g>
			<polygon style="fill:#2B307B;" points="306.091,182.092 307.77,176.711 311.545,178.251 309.926,183.246 			"/>
		</g>
		<path style="fill:#FFA89B;" d="M278.373,371.727c-0.983,1.403-4.343-0.277-7.845-2.654c-3.494-2.386-3.494-8.963-6.72-13.86
			c-3.217-4.906-8.677-6.443-10.634-10.08c-1.638-3.032-0.454-6.93,1.445-10.013c0.378-0.622,0.79-1.218,1.218-1.756
			c3.142,1.52,10.172,4.141,17.279,3.503c0.034,1.109,0.092,2.562,0.16,4.192c0.235,5.242,0.655,12.239,1.319,15.128
			C275.711,361.093,279.348,370.332,278.373,371.727z"/>
		<path style="fill:#233E8B;" d="M284.228,288.03c-2.428,21.033-8.375,48.417-8.375,48.417c-0.907,0.202-1.823,0.336-2.738,0.42
			c-2.99,0.269-5.964-0.042-8.644-0.605c-0.21-0.034-0.42-0.084-0.621-0.126c-3.419-0.781-6.292-1.94-8.014-2.772
			c-0.991-0.479-1.596-0.848-1.688-0.974c-0.42-0.563-3.217-13.717-1.117-27.77c1.554-10.366,4.763-19.295,6.342-23.259
			c0.529-1.327,0.874-2.092,0.907-2.184c-0.05,0.034-0.286,0.227-0.672,0.538H259.6c-2.73,2.167-12.986,10.265-20.571,15.439
			c-4.771,3.251-12.449,7.568-20.773,8.988c-7.073,1.21-14.607,0.328-21.227-5.074c-14.414-11.76-10.777-36.96-8.4-45.36
			c0,0,4.779,6.922,15.758,10.735c0.201,0.076,0.403,0.143,0.613,0.218c0.722,0.235,1.47,0.462,2.251,0.672
			c13.02,3.494,14.843,2.1,16.8,1.394c1.957-0.697,4.897-2.377,4.897-2.377s39.48-18.623,45.78-16.943
			c6.3,1.68,10.08,6.165,10.5,25.065C285.32,276.64,284.917,282.083,284.228,288.03z"/>
		<polygon style="fill:#BC9B0F;" points="245.191,150.671 245.191,152.982 251.981,152.982 252.401,150.391 		"/>
		<polygon style="fill:#BC9B0F;" points="259.751,152.632 258.701,154.661 261.516,157.135 262.621,154.883 		"/>
		<path style="fill:#FF7677;" d="M234.901,166.071c0-2.204,1.786-3.99,3.99-3.99c2.204,0,3.99,1.786,3.99,3.99
			s-1.786,3.99-3.99,3.99C236.687,170.061,234.901,168.275,234.901,166.071z"/>
		<path style="fill:#FF7677;" d="M242.531,179.091l-1.604,3.217c0,0-2.696-0.907-3.536-1.747s-1.898-4.83-1.898-4.83
			C238.331,178.881,242.531,179.091,242.531,179.091z"/>
		<path style="fill:#FF7677;" d="M233.711,217.454c0,0-1.621,0.68-4.15,1.109c-0.538-1.352-1.201-3.133-2.008-5.452
			c-3.503-10.08-0.983-17.497-0.983-17.497C226.714,199.394,227.982,208.617,233.711,217.454z"/>
		<path style="fill:#FF7677;" d="M271.99,239.604c-1.26,1.974-2.663,3.452-4.259,4.444c-5.88,3.646-9.937,1.966-16.237-2.94
			c-0.638-0.504-1.327-1.134-2.066-1.89C261.448,243.704,267.134,243.309,271.99,239.604z"/>
		<path style="fill:#FF7677;" d="M269.637,190.49l-0.059,0.151c-0.008,0.008-0.008,0.017-0.008,0.025l-1.907,4.754l-7.073,17.69
			c0,0,3.058,4.796,3.36,4.796c0.176-0.025,2.881-13.457,4.788-23.041c4.872-2.503,13.818-7.224,18.74-10.601
			c0.832-1.907,1.495-3.671,1.604-4.645L269.637,190.49z"/>
		<path style="fill:#5E67B7;" d="M243.799,232.422c-0.706,2.638-1.907,4.645-3.251,6.191c-2.419-4.502-6.938-13.532-8.45-20.63
			c1.025-0.286,1.613-0.529,1.613-0.529S238.633,225.492,243.799,232.422z"/>
		<path style="fill:#FF7677;" d="M273.275,341.059c-6.77,2.335-14.028-1.277-18.656-5.939c0.378-0.622,0.79-1.218,1.218-1.756
			c3.142,1.52,10.172,4.141,17.279,3.503C273.149,337.976,273.207,339.429,273.275,341.059z"/>
		<path style="fill:#6F74C5;" d="M235.215,179.595c0.017,0.168-0.109,0.319-0.286,0.336c-16.363,1.512-18.841,27.501-19.656,36.044
			c-0.008,0.042-0.017,0.084-0.034,0.118c-0.193-0.101-0.387-0.21-0.571-0.311c2.251-23.495,8.862-35.423,20.202-36.472
			C235.038,179.293,235.198,179.419,235.215,179.595z"/>
		<path style="fill:#E85259;" d="M247.744,158.621c-0.919,0-1.703-0.482-2.164-1.336c-0.082-0.153-0.025-0.344,0.128-0.427
			c0.153-0.082,0.344-0.025,0.427,0.128c0.366,0.677,0.952,1.032,1.694,1.004c0.903-0.037,1.822-0.666,2.184-1.494
			c0.071-0.16,0.255-0.231,0.415-0.162c0.159,0.07,0.232,0.255,0.162,0.415c-0.461,1.054-1.586,1.823-2.735,1.871
			C247.817,158.62,247.781,158.621,247.744,158.621z"/>
		<path style="fill:#E85259;" d="M254.668,169.111c-0.059,0-0.117-0.016-0.169-0.049l-3.15-1.995
			c-0.147-0.093-0.191-0.288-0.098-0.435c0.093-0.147,0.286-0.191,0.435-0.098l2.786,1.764l3.547-13.496
			c0.044-0.169,0.216-0.268,0.385-0.225c0.168,0.044,0.269,0.216,0.225,0.385l-3.656,13.913c-0.025,0.097-0.096,0.176-0.189,0.213
			C254.746,169.104,254.707,169.111,254.668,169.111z"/>
		<path style="fill:#E85259;" d="M259.405,160.702c-0.226,0-0.434-0.049-0.625-0.146c-1.005-0.514-1.024-2.178-1.024-2.249
			c-0.001-0.174,0.139-0.315,0.313-0.316c0,0,0.001,0,0.002,0c0.173,0,0.314,0.139,0.315,0.313c0.003,0.375,0.13,1.41,0.682,1.691
			c0.479,0.244,1.198-0.146,1.715-0.516c0.141-0.102,0.338-0.069,0.439,0.073c0.101,0.141,0.069,0.338-0.073,0.439
			C260.489,160.465,259.905,160.702,259.405,160.702z"/>
		<g>
			<path style="fill:#1A3672;" d="M273.585,257.37c0,0.134-0.747,13.079-3.654,28.669c-2.444,13.07-4.771,41.344-5.46,50.223
				c-0.21-0.034-0.42-0.084-0.621-0.126c0.697-8.979,3.024-37.144,5.46-50.215c2.654-14.213,3.503-26.216,3.629-28.274
				c-2.94,0.008-13.994,5.174-25.67,10.634c-19.773,9.248-33.978,15.632-36.64,13.532c-4.452-3.486-6.434-11.718-6.241-17.371
				c0.201,0.076,0.403,0.143,0.613,0.218c-0.151,5.813,2.117,13.608,6.014,16.666c2.579,2.008,21.101-6.653,35.994-13.616
				c12.709-5.939,23.688-11.071,26.317-10.668C273.485,257.068,273.594,257.211,273.585,257.37z"/>
			<path style="fill:#1A3672;" d="M266.109,267.744l-5.535,11.558c-0.059,0.101-0.546,0.949-1.201,2.058
				c0.529-1.327,0.874-2.092,0.907-2.184c-0.05,0.034-0.286,0.227-0.672,0.538c0.143-0.252,0.277-0.487,0.403-0.706l5.536-11.542
				c0.076-0.151,0.26-0.218,0.42-0.143C266.118,267.4,266.185,267.585,266.109,267.744z"/>
		</g>
		<g>
			<path style="fill:#AF8F0B;" d="M256.912,135.294c-1.646,2.394-5.561,5.359-9.677,8.475c-3.57,2.696-7.258,5.494-9.794,8.131
				c-2.89,3.007-5.015,6.3-7.711,10.458c-2.78,4.292-5.93,9.148-10.895,15.254c-3.108,3.822-5.788,6.308-8.156,8.501
				c-5.2,4.838-9.315,8.652-15.036,23.335c-3.864,9.904-6.418,17.749-8.055,23.335c-0.193-0.076-0.386-0.16-0.588-0.244
				c1.646-5.594,4.217-13.448,8.055-23.327c5.771-14.809,9.937-18.673,15.196-23.562c2.352-2.176,5.015-4.654,8.097-8.442
				c4.948-6.073,8.081-10.92,10.853-15.187c2.604-4.032,4.855-7.501,7.787-10.55c2.57-2.688,6.283-5.494,9.87-8.207
				c4.166-3.158,8.123-6.149,9.618-8.459C256.634,134.966,256.777,135.126,256.912,135.294z"/>
			<path style="fill:#AF8F0B;" d="M254.593,133.16c-4.007,2.932-11.718,8.602-17.892,13.364
				c-6.384,4.931-10.752,12.205-14.271,18.051c-1.327,2.209-2.478,4.124-3.587,5.67c-1.554,2.176-3.721,3.965-6.224,6.048
				c-4.192,3.478-9.408,7.803-15.044,16.346c-9.072,13.751-14.213,24.872-16.665,36.279c-0.176-0.143-0.361-0.294-0.538-0.454
				c2.495-11.382,7.644-22.487,16.674-36.178c5.687-8.618,10.945-12.978,15.17-16.481c2.469-2.049,4.612-3.822,6.124-5.93
				c1.092-1.52,2.226-3.427,3.553-5.62c3.545-5.897,7.946-13.23,14.423-18.228c6.09-4.696,13.667-10.273,17.724-13.247
				C254.232,132.908,254.417,133.034,254.593,133.16z"/>
			<path style="fill:#AF8F0B;" d="M249.62,130.75c-9.736,3.394-16.212,8.417-20.252,15.683c-4.813,8.627-10.231,17.69-17.262,25.452
				c-2.671,2.948-5.368,5.032-7.972,7.048c-3.982,3.074-8.089,6.258-12.297,12.65c-6.586,10.013-14.036,22.159-16.153,31.139
				c-0.151-0.277-0.302-0.554-0.437-0.848c2.36-9.021,9.618-20.849,16.061-30.635c4.267-6.485,8.425-9.702,12.44-12.81
				c2.587-1.991,5.258-4.057,7.888-6.972c6.989-7.711,12.39-16.733,17.178-25.334c4.015-7.207,10.357-12.247,19.799-15.691h0.008
				C248.965,130.531,249.301,130.632,249.62,130.75z"/>
			<path style="fill:#AF8F0B;" d="M242.581,129.515c-2.579,1.487-6.88,4.175-10.273,7.249c-3.175,2.881-6.081,8.375-9.156,14.196
				c-1.991,3.771-4.049,7.678-6.384,11.29c-4.964,7.694-13.709,12.852-21.428,17.405c-1.705,1.008-3.326,1.966-4.863,2.923
				c-7.165,4.46-12.617,9.433-17.279,19.404c0.143-0.84,0.302-1.655,0.504-2.461c4.486-8.66,9.719-13.297,16.447-17.48
				c1.537-0.958,3.158-1.915,4.872-2.923c7.652-4.519,16.329-9.635,21.218-17.203c2.318-3.595,4.368-7.484,6.359-11.248
				c3.1-5.872,6.031-11.415,9.29-14.364c3.007-2.73,6.72-5.149,9.341-6.72C241.674,129.54,242.119,129.515,242.581,129.515z"/>
		</g>
		<path style="fill:#E85259;" d="M250.798,173.73c-0.666,0-1.242-0.151-1.723-0.454c-1.166-0.735-1.305-2.078-1.31-2.135
			c-0.016-0.173,0.111-0.326,0.283-0.342c0.176-0.013,0.327,0.11,0.344,0.283c0.001,0.011,0.121,1.1,1.025,1.665
			c0.802,0.502,1.981,0.472,3.505-0.09c0.162-0.06,0.344,0.024,0.404,0.187c0.06,0.163-0.024,0.344-0.187,0.404
			C252.266,173.569,251.484,173.73,250.798,173.73z"/>
		<g>
			<path style="fill:#3F4899;" d="M322.217,168.325c0-2.942,2.385-5.327,5.327-5.327c2.942,0,5.327,2.385,5.327,5.327
				c0,2.942-2.385,5.327-5.327,5.327C324.602,173.652,322.217,171.267,322.217,168.325z"/>
			<path style="fill:#3F4899;" d="M341.24,136.806c0-2.942,2.385-5.327,5.327-5.327s5.327,2.385,5.327,5.327
				c0,2.942-2.385,5.327-5.327,5.327S341.24,139.748,341.24,136.806z"/>
			<path style="fill:#3F4899;" d="M353.913,115.064c-0.973,1.042-2.362,1.687-3.891,1.687c-2.948,0-5.33-2.382-5.33-5.32
				c0-1.132,0.347-2.174,0.953-3.037L353.913,115.064z"/>
			<circle style="fill:#3F4899;" cx="320.471" cy="108.578" r="5.327"/>
			<path style="fill:#3F4899;" d="M315.144,137.291c0-2.942,2.385-5.327,5.327-5.327c2.942,0,5.327,2.385,5.327,5.327
				c0,2.942-2.385,5.327-5.327,5.327C317.529,142.618,315.144,140.233,315.144,137.291z"/>
		</g>
		<g>
			<g>
				<path style="fill:#3F4899;" d="M201.203,134.232c-0.069,0-0.139-0.016-0.206-0.048c-0.232-0.114-0.327-0.394-0.213-0.626
					c12.038-24.484,35.05-36.663,55.959-29.613c0.245,0.082,0.376,0.347,0.294,0.592c-0.082,0.245-0.346,0.378-0.592,0.294
					c-20.454-6.895-42.997,5.089-54.822,29.141C201.542,134.136,201.375,134.232,201.203,134.232z"/>
			</g>
			<g>
				<path style="fill:#3F4899;" d="M288.953,164.328c-0.173,0-0.34-0.097-0.421-0.264c-0.112-0.232-0.015-0.512,0.217-0.624
					c0.137-0.066,13.562-8.695,12.177-34.668c-0.014-0.258,0.184-0.478,0.442-0.492c0.258-0.005,0.478,0.184,0.491,0.442
					c1.258,23.582-9.879,34.196-12.703,35.56C289.091,164.313,289.021,164.328,288.953,164.328z"/>
			</g>
			<g>
				<path style="fill:#3F4899;" d="M216.64,355.131c-0.174,0-0.341-0.098-0.422-0.265c-0.139-0.289-14.53-28.966-64.122-31.721
					c-0.257-0.014-0.455-0.235-0.44-0.492c0.014-0.258,0.214-0.467,0.492-0.441c26.198,1.455,42.44,10.126,51.451,17.143
					c9.793,7.625,13.316,14.804,13.462,15.107c0.112,0.233,0.014,0.511-0.219,0.624C216.777,355.116,216.708,355.131,216.64,355.131
					z"/>
			</g>
			<g>
				<path style="fill:#3F4899;" d="M301.49,391.04c-0.085,0-0.17-0.023-0.247-0.07c-0.219-0.137-0.286-0.425-0.15-0.645
					c0.115-0.184,11.783-18.619,37.158-33.924c0.218-0.131,0.508-0.064,0.641,0.159c0.133,0.221,0.063,0.508-0.159,0.641
					c-25.185,15.191-36.733,33.437-36.846,33.619C301.799,390.961,301.646,391.04,301.49,391.04z"/>
			</g>
		</g>
	</g>
</g>
<g>
	<g>
		
			<ellipse transform="matrix(0.7071 -0.7071 0.7071 0.7071 -132.6674 109.7406)" style="fill:#2B307B;" cx="66.135" cy="215.014" rx="44.877" ry="44.877"/>
		<circle style="fill:#221D34;" cx="66.135" cy="215.014" r="30.734"/>
	</g>
	<path style="fill:#33266B;" d="M102.977,273.855c0.396,5.159-0.66,9.977-3.521,12.137c-0.392,0.316-0.813,0.563-1.274,0.756
		c-2.558,1.062-6.164,0.423-11.02-2.889c-11.849-8.102-42-37.162-16.927-51.693c0.421-0.246,0.844-0.478,1.297-0.715
		c0.219-0.117,0.441-0.22,0.66-0.337C97.686,218.477,102.24,264.07,102.977,273.855z"/>
	<path style="fill:#33266B;" d="M114.492,186.005c-0.588,12.331-24.754,32.481-37.805,24.564c-0.338-0.192-0.67-0.43-1.002-0.669
		c-0.089-0.073-0.176-0.132-0.266-0.206c-12.452-9.676-7.756-25.461,10.769-37.626c18.005-11.809,18.687-19.934,25.52-16.773
		c0.246,0.104,0.498,0.237,0.767,0.382c0.202,0.112,0.39,0.227,0.581,0.357C119.793,160.51,115.085,173.703,114.492,186.005z"/>
	<path style="fill:#33266B;" d="M53.962,209.582c-0.303,0.39-0.623,0.768-0.96,1.134c-1.279,1.361-2.788,2.388-4.499,2.986
		c-17.329,6.023-34.302-25.598-40.366-39.586c-1.188-2.745-1.563-4.951-1.226-6.66c0.11-0.609,0.321-1.163,0.622-1.642
		c3.122-5.061,15.713-3.271,32.533,3.686C59.225,177.411,61.397,199.775,53.962,209.582z"/>
	<path style="fill:#594D96;" d="M111.361,177.506c0.271,0.31,0.255,0.781-0.056,1.051c-0.914,0.823-8.398,7.531-12.4,8.295
		c-0.189,0.036-0.343,0.02-0.509,0.021c-2.087,3.053-4.363,6.067-6.795,8.975c-0.023,0.035-0.059,0.087-0.1,0.109
		c-1.448,1.74-2.936,3.427-4.494,5.066c3.268-0.186,10.34-0.993,14.822-4.458c0.331-0.244,0.795-0.182,1.051,0.131
		c0.244,0.33,0.182,0.795-0.131,1.051c-2.949,2.253-6.793,3.454-10.14,4.093c-3.362,0.642-6.185,0.713-7.103,0.722
		c-1.54,1.576-3.146,3.12-4.795,4.596c-1.315,1.171-2.65,2.316-4.026,3.408c-2.508,2.033-5.123,3.904-7.826,5.627
		c-0.082,0.046-0.166,0.077-0.254,0.094c-0.291,0.056-0.601-0.066-0.758-0.338c-0.229-0.333-0.121-0.792,0.23-1.009
		c2.528-1.614,4.97-3.362,7.34-5.248c1.416-1.115,2.792-2.283,4.134-3.474c0.044-0.401,0.013-1.511-0.018-2.621
		c-0.103-3.782-0.269-10.101,0.895-15.542c0.088-0.409,0.477-0.664,0.886-0.576c0.394,0.091,0.65,0.479,0.559,0.874
		c-1.119,5.282-0.958,11.497-0.854,15.203c0.007,0.512,0.027,0.93,0.021,1.293c3.284-3.025,6.358-6.282,9.225-9.68
		c0.017-1.889,0.181-14.305,0.435-20.402c0.027-0.412,0.358-0.732,0.785-0.708c0.395,0.015,0.718,0.361,0.705,0.771
		c-0.218,5.02-0.367,14.355-0.418,18.513c4.868-6.028,9.031-12.434,12.361-18.772l0.117-12.664
		c-0.002-0.407,0.341-0.744,0.747-0.746c0.41,0.012,0.729,0.343,0.732,0.75l-0.082,9.685c2.764-5.672,4.815-11.207,6.06-16.302
		c0.246,0.104,0.498,0.237,0.767,0.382c0.202,0.112,0.39,0.227,0.581,0.357c-1.499,5.898-4.049,12.373-7.475,18.925
		c-0.036,0.127-0.089,0.243-0.177,0.336c-1.726,3.286-3.676,6.585-5.817,9.829c2.866-1.105,7.794-5.002,10.727-7.659
		C110.62,177.18,111.079,177.213,111.361,177.506z"/>
	<path style="fill:#594D96;" d="M57.594,213.202c-0.106,0.156-0.284,0.25-0.459,0.284c-0.189,0.036-0.392-0.001-0.566-0.118
		c-0.069-0.047-1.383-1.003-3.569-2.653c-1.342-1.026-3.04-2.331-4.991-3.859c-0.037-0.038-0.072-0.062-0.107-0.085
		c-2.453-1.945-5.304-4.237-8.394-6.83l-12.93-1.197c-0.401-0.044-0.708-0.393-0.667-0.808c0.044-0.401,0.393-0.709,0.808-0.667
		l10.796,1.001c-0.378-0.32-0.756-0.64-1.134-0.96c-0.069-0.047-0.139-0.094-0.199-0.173c-3.32-2.851-6.824-5.953-10.299-9.227
		l-10.794-3.204c-0.4-0.12-0.614-0.531-0.492-0.917c0.105-0.397,0.517-0.612,0.914-0.506l7.997,2.38
		c-0.519-0.504-1.037-1.009-1.559-1.528c-0.101-0.056-0.176-0.132-0.242-0.24c-5.402-5.305-10.575-10.909-14.798-16.439
		c0.11-0.609,0.321-1.163,0.622-1.642c3.751,5.031,8.347,10.143,13.204,15.038l-3.028-9.936c-0.119-0.385,0.103-0.804,0.502-0.926
		c0.402-0.107,0.804,0.103,0.925,0.502l3.818,12.576c4.342,4.255,8.828,8.316,13.071,11.971c-0.527-3.867-3.878-13.44-6.234-19.461
		c-0.148-0.379,0.042-0.807,0.436-0.958c0.379-0.148,0.808,0.042,0.955,0.421c1.154,2.963,6.619,17.291,6.36,21.308
		c3.804,3.256,7.377,6.165,10.415,8.571c0.588-3.793,0.841-14.642-2.806-22.68c-0.16-0.362-0.002-0.799,0.372-0.976
		c0.376-0.162,0.814-0.005,0.991,0.369c3.897,8.639,3.605,20.702,2.756,24.319c1.813,1.434,3.403,2.654,4.691,3.63
		c2.133,1.614,3.395,2.535,3.464,2.582C57.758,212.402,57.833,212.87,57.594,213.202z"/>
	<g>
		<path style="fill:#33266B;" d="M17.09,267.308c-1.043-0.563-1.927-1.138-2.67-1.718c-0.426-0.329-0.799-0.662-1.118-0.999
			c-7.6-7.838,8.371-17.592,13.208-27.167c4.294-8.538,11.6-14.495,20.296-8.42c0.397,0.261,0.797,0.576,1.19,0.904
			c1.86,1.493,3.767,3.559,5.725,6.252C63.022,248.985,32.454,275.513,17.09,267.308z"/>
		<path style="fill:#594D96;" d="M39.251,253.963c-0.135,0.384-0.558,0.586-0.942,0.451c-0.046-0.009-0.084-0.031-0.123-0.053
			c-0.308-0.177-0.453-0.55-0.341-0.895c0.031-0.085,2.692-7.799,4.467-15.457c-1.518,1.965-3.086,3.867-4.704,5.707
			c-0.044,0.077-0.109,0.16-0.171,0.209c-1.618,1.84-3.244,3.606-4.88,5.299c0.264,5.889-1.158,13.288-1.223,13.61
			c-0.076,0.401-0.462,0.657-0.863,0.582c-0.079-0.011-0.163-0.043-0.228-0.079c-0.27-0.155-0.419-0.462-0.354-0.783
			c0.011-0.079,1.218-6.389,1.21-11.858c-1.846,1.88-3.691,3.64-5.47,5.285c-0.064,0.083-0.142,0.158-0.225,0.213
			c-4.187,3.851-8.039,7.058-10.986,9.399c-0.426-0.329-0.799-0.662-1.118-0.999c2.642-2.107,6.052-4.9,9.781-8.28
			c-3.874-0.034-5.884-0.519-5.976-0.538c-0.072-0.024-0.13-0.041-0.195-0.077c-0.283-0.162-0.43-0.502-0.345-0.829
			c0.089-0.393,0.5-0.635,0.886-0.534c0.033,0.002,2.516,0.587,7.254,0.484c3.516-3.245,7.243-6.95,10.837-10.988
			c-4.195-0.696-8.234-0.055-8.274-0.044c-0.188,0.029-0.351-0.013-0.492-0.094c-0.193-0.111-0.329-0.291-0.369-0.519
			c-0.056-0.408,0.21-0.785,0.605-0.848c0.208-0.035,4.923-0.783,9.665,0.209c3.677-4.212,7.174-8.766,10.125-13.53
			c0.838-1.313,1.609-2.63,2.342-3.969c0.193-0.367,0.646-0.501,1.006-0.295c0.411,0.236,0.488,0.638,0.302,0.993
			c-0.77,1.403-1.593,2.81-2.46,4.175c-1.11,1.789-2.305,3.546-3.544,5.262C42.74,243.82,39.277,253.858,39.251,253.963z"/>
	</g>
	<path style="fill:#594D96;" d="M99.074,268.189c-0.115,0.188-0.302,0.314-0.506,0.353c-0.175,0.033-0.346,0.006-0.514-0.083
		c-0.052-0.035-4.988-2.819-10.597-3.83c4.432,8.28,8.696,15.763,11.997,21.363c-0.392,0.316-0.813,0.563-1.274,0.756
		c-2.059-3.514-4.494-7.74-7.127-12.442c-0.581,2.645-0.969,6.46-0.975,6.507c-0.026,0.337-0.278,0.596-0.599,0.657
		c-0.058,0.011-0.134,0.01-0.209,0.01c-0.401-0.044-0.697-0.41-0.67-0.823c0.031-0.232,0.579-5.662,1.421-8.206
		c-1.456-2.649-2.983-5.434-4.513-8.31c-0.043-0.067-0.089-0.149-0.103-0.222c-0.989-1.863-1.987-3.769-2.987-5.69
		c-3.213,5.139-5.031,11.972-5.061,12.053c-0.066,0.284-0.301,0.48-0.577,0.533c-0.102,0.02-0.209,0.01-0.32-0.014
		c-0.397-0.105-0.641-0.511-0.535-0.908c0.09-0.319,2.088-7.79,5.722-13.175c-1.688-3.313-3.362-6.705-4.988-10.09
		c-0.008-0.044-0.046-0.082-0.054-0.126c-1.038-2.2-2.062-4.403-3.054-6.598c-1.557,3.857-3.811,13.308-4.652,17.119
		c-0.063,0.299-0.292,0.523-0.583,0.579c-0.087,0.017-0.195,0.007-0.288-0.005c-0.409-0.088-0.652-0.494-0.576-0.886
		c0.151-0.632,3.337-14.998,5.307-18.587c-0.88-2.004-1.729-3.999-2.525-5.959c-1.121-2.712-2.161-5.395-3.094-7.993
		c-0.133-0.382,0.057-0.81,0.453-0.946c0.382-0.133,0.796,0.059,0.946,0.453c0.905,2.528,1.899,5.128,2.992,7.771
		c1.92,4.687,4.075,9.495,6.364,14.293c4.612,2.272,13.501,6.006,13.585,6.051c0.376,0.154,0.564,0.586,0.396,0.965
		c-0.089,0.243-0.3,0.404-0.533,0.449c-0.146,0.028-0.285,0.009-0.433-0.053c-0.081-0.03-7.151-3.009-12.002-5.266
		c2.492,5.151,5.109,10.248,7.679,15.098c6.319,0.86,11.966,4.051,12.218,4.185C99.16,267.373,99.278,267.833,99.074,268.189z"/>
	<path style="fill:#33266B;" d="M61.214,238.49c-0.468-0.08-0.952-0.172-1.442-0.291c-0.25-0.051-0.49-0.119-0.724-0.159
		c-27.632-6.822-1.674-44.572,4.081-52.518c3.032-4.201,6.945-7.197,10.533-7.005c0.499,0.018,0.98,0.096,1.448,0.247
		c2.65,0.838,4.986,3.661,6.563,9.33C85.487,201.924,89.746,243.583,61.214,238.49z"/>
	<path style="fill:#594D96;" d="M81.413,204.966c0.234,0.337,0.154,0.805-0.184,1.039c-0.274,0.194-6.62,4.603-12.877,6.363
		c-0.85,3.628-1.762,7.297-2.71,10.93c-0.02,0.046-0.009,0.101-0.031,0.133c-0.626,2.355-1.268,4.699-1.931,7.004
		c3.677-1.933,11.504-7.699,14.605-10.06c0.247-0.189,0.566-0.221,0.821-0.072c0.079,0.042,0.152,0.127,0.219,0.185
		c0.248,0.335,0.181,0.8-0.137,1.059c-0.521,0.382-12.232,9.296-16.055,10.761c-0.618,2.099-1.255,4.173-1.918,6.181
		c-0.468-0.08-0.952-0.172-1.442-0.291c1.558-4.811,3.009-9.884,4.362-15.023c-2.06-4.714-6.43-13.303-6.462-13.396
		c-0.196-0.359-0.056-0.81,0.322-0.981c0.216-0.126,0.486-0.121,0.692-0.005c0.127,0.075,0.219,0.185,0.302,0.324
		c0.043,0.077,3.512,6.913,5.754,11.762c1.433-5.537,2.717-11.115,3.887-16.474c-4.273-4.744-6.523-10.823-6.629-11.086
		c-0.144-0.383,0.07-0.82,0.453-0.964c0.213-0.069,0.431-0.04,0.621,0.065c0.144,0.086,0.268,0.218,0.329,0.39
		c0.027,0.066,1.989,5.379,5.627,9.763c1.956-9.173,3.535-17.652,4.632-24.059c0.499,0.018,0.98,0.096,1.448,0.247
		c-0.692,4.009-1.557,8.814-2.585,14.104c2.149-1.641,4.908-4.304,4.944-4.339c0.236-0.243,0.599-0.27,0.884-0.112
		c0.049,0.033,0.114,0.077,0.165,0.124c0.284,0.3,0.274,0.768-0.023,1.065c-0.168,0.159-4.085,3.949-6.378,5.349
		c-0.596,2.957-1.231,6.078-1.913,9.25c-0.012,0.087-0.037,0.177-0.067,0.239c-0.454,2.067-0.917,4.165-1.391,6.278
		c5.773-1.852,11.564-5.9,11.641-5.943c0.236-0.172,0.533-0.173,0.788-0.023C81.267,204.796,81.34,204.881,81.413,204.966z"/>
</g>
<g>
	<circle style="fill:#2B307B;" cx="427.832" cy="146.384" r="41.888"/>
	<g>
		<g>
			<path style="fill:#6B5BA4;" d="M411.233,141.656l-10.158,5.572c-1.415,0.776-1.938,2.569-1.161,3.984l13.428,24.478
				c0.776,1.415,2.569,1.938,3.984,1.161l10.158-5.572c1.415-0.776,1.938-2.569,1.161-3.984l-13.428-24.478
				C414.441,141.402,412.648,140.88,411.233,141.656z"/>
			<path style="fill:#233E8B;" d="M412.009,143.344l-9.927,5.445c-0.826,0.453-1.13,1.499-0.678,2.324l12.821,23.371
				c0.453,0.826,1.499,1.13,2.324,0.678l9.927-5.445c0.826-0.453,1.13-1.499,0.678-2.324l-12.821-23.371
				C413.881,143.197,412.835,142.892,412.009,143.344z"/>
		</g>
		<g>
			<path style="fill:#BC9B0F;" d="M407.943,154.803c0.569,1.037,0.498,1.821-0.177,2.191c-0.596,0.327-1.306-0.01-1.868-1.013
				c-0.561-1.023-0.429-1.828,0.19-2.168C406.731,153.461,407.411,153.832,407.943,154.803z M406.313,155.759
				c0.435,0.793,0.926,1.109,1.301,0.903c0.422-0.232,0.354-0.835-0.074-1.614c-0.412-0.751-0.874-1.138-1.301-0.903
				C405.878,154.344,405.857,154.929,406.313,155.759z"/>
			<path style="fill:#BC9B0F;" d="M410.354,153.481c0.569,1.037,0.498,1.821-0.177,2.191c-0.596,0.327-1.306-0.01-1.868-1.013
				c-0.561-1.023-0.429-1.828,0.19-2.168C409.141,152.139,409.821,152.51,410.354,153.481z M408.723,154.437
				c0.435,0.793,0.926,1.109,1.301,0.903c0.422-0.232,0.354-0.835-0.074-1.614c-0.412-0.751-0.874-1.138-1.301-0.903
				C408.288,153.021,408.268,153.606,408.723,154.437z"/>
			<path style="fill:#BC9B0F;" d="M410.585,152.916c-0.095-0.174-0.045-0.36,0.12-0.451c0.164-0.09,0.339-0.027,0.439,0.144
				c0.09,0.164,0.051,0.35-0.122,0.445C410.857,153.144,410.675,153.08,410.585,152.916z M411.493,154.572
				c-0.095-0.173-0.045-0.36,0.12-0.45c0.164-0.09,0.339-0.027,0.438,0.144c0.09,0.164,0.051,0.35-0.122,0.445
				C411.766,154.8,411.583,154.735,411.493,154.572z"/>
			<path style="fill:#BC9B0F;" d="M411.999,151.139l-0.009,0.005l-0.373,0.577l-0.252-0.27l0.47-0.722l0.352-0.193l1.673,3.05
				l-0.398,0.219L411.999,151.139z"/>
			<path style="fill:#BC9B0F;" d="M415.312,149.273l-1.163,0.638l0.312,0.848c0.065-0.048,0.126-0.094,0.238-0.155
				c0.234-0.129,0.498-0.205,0.747-0.196c0.314,0.004,0.655,0.159,0.866,0.544c0.327,0.596,0.098,1.301-0.564,1.664
				c-0.334,0.183-0.666,0.244-0.863,0.229l-0.069-0.371c0.168,0.005,0.468-0.037,0.745-0.189c0.39-0.214,0.584-0.649,0.36-1.058
				c-0.221-0.392-0.638-0.53-1.248-0.195c-0.174,0.095-0.299,0.189-0.405,0.265l-0.606-1.572l1.459-0.801L415.312,149.273z"/>
		</g>
	</g>
</g>
<g>
	<path style="fill:#6B5BA4;" d="M424.048,296.78c-3.392-8.534-18.22-0.746-19.454-0.255c-9.23,3.669-15.484,9.731-13.97,13.541
		c1.514,3.81,10.224,3.924,19.454,0.255C411.313,309.83,427.44,305.314,424.048,296.78z"/>
	<path style="fill:#564A93;" d="M408.953,296.095l4.579,11.521c0,0-19.438,8.591-21.939,2.297
		C389.092,303.619,408.953,296.095,408.953,296.095z"/>
	<path style="fill:#BC9B0F;" d="M419.449,301.058c-0.346-0.87-1.426-1.078-2.091-1.124c0.026-0.321-0.11-0.625-0.364-0.828
		c0.452-0.483,1.125-1.394,0.773-2.279c-0.509-1.28-5.416,0.876-4.978,1.979c0.27,0.68,1.667,0.77,2.7,0.739
		c-0.146,0.431,0.028,0.89,0.41,1.126c-0.767,0.686-1.695,1.694-1.428,2.366C414.909,304.139,419.958,302.338,419.449,301.058z"/>
</g>
<g>
	<path style="fill:#6B5BA4;" d="M427.762,338.594c3.618-8.44-12.384-13.385-13.605-13.908c-9.129-3.913-17.839-4.031-19.454-0.263
		c-1.615,3.768,4.476,9.995,13.605,13.908C409.529,338.855,424.144,347.034,427.762,338.594z"/>
	<path style="fill:#564A93;" d="M417.549,327.457l-4.884,11.395c0,0-19.835-7.628-17.167-13.853
		C398.166,318.774,417.549,327.457,417.549,327.457z"/>
	<path style="fill:#BC9B0F;" d="M421.484,338.38c0.369-0.86-0.25-1.77-0.688-2.272c0.245-0.209,0.363-0.521,0.326-0.843
		c0.661-0.024,1.781-0.194,2.156-1.07c0.543-1.266-4.456-3.201-4.923-2.111c-0.288,0.672,0.638,1.722,1.391,2.429
		c-0.408,0.202-0.609,0.65-0.504,1.088c-1.027-0.055-2.397,0.004-2.682,0.669C416.094,337.36,420.942,339.646,421.484,338.38z"/>
</g>
</svg>
