<svg width="650" height="653" viewBox="0 0 650 653" fill="none" xmlns="http://www.w3.org/2000/svg">
<g clip-path="url(#clip0_31_522)">
<path d="M483.785 21.0215C489.468 20.8782 494.647 24.9153 497.269 29.9587C499.89 35.0021 500.366 40.8826 500.234 46.5652C500.102 52.2479 499.415 57.9395 499.916 63.6016C500.981 75.6471 507.723 87.0682 517.755 93.8209C513.974 94.1141 510.264 92.3626 507.407 89.8684C504.551 87.3741 502.412 84.1785 500.309 81.0231C498.529 78.3528 496.74 75.6647 495.462 72.7209C493.59 68.4083 492.878 63.6962 492.205 59.0432C490.549 47.5871 489.021 36.1123 487.623 24.6218" fill="#2F2E41"/>
<path d="M387.517 638.886L406.693 638.885L415.815 564.919L387.513 564.921L387.517 638.886Z" fill="#FFB6B6"/>
<path d="M453.216 638.452C453.813 639.457 454.128 642.703 454.128 643.872C454.128 647.467 451.214 650.381 447.62 650.381H388.234C385.782 650.381 383.794 648.393 383.794 645.94V643.468C383.794 643.468 380.856 636.037 386.905 626.878C386.905 626.878 394.422 634.05 405.655 622.817L408.967 616.816L432.944 634.352L446.235 635.988C449.142 636.346 451.72 635.933 453.216 638.452Z" fill="#2F2E41"/>
<path d="M470.272 624.923L488.913 629.42L515.134 559.66L487.622 553.021L470.272 624.923Z" fill="#FFB6B6"/>
<path d="M534.239 639.914C534.584 641.032 534.128 644.261 533.854 645.397C533.011 648.892 529.495 651.041 526 650.197L468.272 636.264C465.889 635.689 464.423 633.29 464.998 630.906L465.578 628.503C465.578 628.503 464.466 620.59 472.494 613.106C472.494 613.106 478.119 621.841 491.673 613.557L496.301 608.501L515.495 631.173L528.031 635.882C530.773 636.912 533.376 637.115 534.239 639.914Z" fill="#2F2E41"/>
<path d="M581.479 269.697C577.906 266.8 575.284 263.335 573.818 259.919L538.037 234.463L550.648 217.792L585.586 245.41C589.231 246.139 593.162 247.99 596.735 250.888C604.897 257.508 608.099 267.085 603.886 272.279C599.673 277.473 589.641 276.318 581.479 269.697Z" fill="#FFB6B6"/>
<path d="M574.88 232.205L573.208 235.623L564.54 253.316L561.976 258.538L536.761 235.896L516.485 217.695L468.825 174.909C465.52 171.942 463.904 167.913 463.904 163.903C463.904 159.104 466.215 154.343 470.675 151.45C473.436 149.657 476.714 148.84 479.991 149.121C487.73 149.788 503.319 151.216 519.857 153.188L525.548 169.66L522.759 184.46L515.171 182.216L522.082 188.01L574.88 232.205Z" fill="#6C63FF"/>
<path d="M424.121 214.74C427.796 214.761 435.502 264.536 429.756 272.026C425.042 278.17 511.429 272.026 511.429 272.026C503.308 270.374 506.962 217.198 515.689 214.74L463.564 198.775L424.121 214.74Z" fill="#FFB6B6"/>
<path d="M507.593 265.311H430.792C430.792 265.311 398.765 316.164 398.765 414.771L385.618 573.482L418.487 575.36L471.447 360.217L500.551 465.84L480.468 578.522H512.295L549.971 451.461L542.45 384.72C542.45 384.72 534.605 293.005 507.593 265.311Z" fill="#2F2E41"/>
<path d="M525.548 169.66L522.759 184.46L522.083 188.01L516.485 217.696L508.894 228.863C508.894 228.863 454.846 212.108 429.49 232.768L409.098 166.842L430.697 119.887L447.601 110.496L450.419 99.2262H486.227L491.74 110.496L507.705 118.008L519.857 153.188L525.548 169.66Z" fill="#6C63FF"/>
<path d="M514.675 116.057C511.748 119.607 508.263 122.201 504.836 123.64L479.095 159.216L462.524 146.472L490.42 111.756C491.179 108.117 493.061 104.201 495.988 100.651C502.673 92.5418 512.275 89.4168 517.436 93.6711C522.596 97.9253 521.36 107.948 514.675 116.057Z" fill="#FFB6B6"/>
<path d="M445.282 120.481C445.282 120.481 418.021 105.494 409.17 120.481C401.618 133.269 395.055 197.88 393.291 216.573C392.981 219.855 393.773 223.135 395.542 225.916C400.782 234.15 412.414 235.158 418.992 227.947L503.358 135.469L477.13 122.355L432.168 169.19L445.282 120.481Z" fill="#6C63FF"/>
<path d="M463.989 92.0606C482.92 92.0606 498.267 76.714 498.267 57.7829C498.267 38.8519 482.92 23.5052 463.989 23.5052C445.058 23.5052 429.711 38.8519 429.711 57.7829C429.711 76.714 445.058 92.0606 463.989 92.0606Z" fill="#FFB6B6"/>
<path d="M490.385 39.2569C485.04 42.8652 481.621 48.9121 480.752 57.9232C477.395 55.2574 476.898 50.4079 478.175 44.2033C475.84 50.5542 456.892 82.8769 455.643 93.0953C454.849 99.6038 457.452 106.164 461.448 111.358C465.184 116.201 470.052 120.001 475.038 123.568C465.666 120.145 457.855 112.608 454.146 103.34C448.783 89.9581 451.972 75.0666 456.189 61.0473C455.2 62.9088 453.781 66.3062 452.141 67.634C450.032 69.3392 447.533 68.8054 445.841 70.9272C443.784 73.5047 443.394 77.1103 444.031 80.3516C444.682 83.5929 446.244 86.5607 447.78 89.4765C426.047 85.3902 419.586 60.552 429.518 43.6305C423.165 55.0334 421.785 77.9955 429.869 88.2269C434.399 93.9674 440.959 98.4453 443.224 105.396C444.812 110.278 443.94 115.719 441.753 120.366C439.567 125.013 436.143 128.97 432.524 132.615C431.04 134.112 429.517 135.557 427.929 136.963C426.174 135.175 423.196 136.021 422.548 138.44C422.188 139.785 421.62 141.17 420.9 142.586C414.469 144.046 405.784 142.02 404.46 151.06C404.106 153.471 399.747 152.401 397.326 152.791C397.978 150.976 395.872 149.37 394.332 150.531C392.32 152.048 390.177 152.937 387.928 153.312C382.2 153 376.59 151.542 371.618 148.704C387.472 138.824 401.382 141.675 407.578 124.05C408.549 121.293 408.861 115.542 408.844 109.073C408.805 94.4057 405.355 80.008 399.415 66.5975C398.69 64.9614 398.138 63.3806 397.899 61.9976C396.168 52.0135 398.862 38.2935 403.236 31.8371C407.61 25.3937 415.173 21.2282 422.97 21.0199C426.862 20.9028 429.179 22.608 432.615 20.7726C436.286 18.807 437.145 21.3844 439.632 18.052C444.07 12.1032 451.633 9.03122 459.053 8.77087C466.473 8.51051 470.625 6.44024 477.368 9.55134C481.625 11.5169 486.527 22.528 491.218 22.5951C500.93 22.734 502.793 30.8801 490.385 39.2569Z" fill="#2F2E41"/>
<path d="M476.118 124.336C475.754 124.076 475.402 123.828 475.038 123.568C475.324 123.685 475.611 123.789 475.897 123.881L476.118 124.336Z" fill="#2F2E41"/>
<path d="M643.264 263.675C637.854 257.289 629.951 253.626 621.581 253.626H588.683C580.039 253.626 571.971 257.488 566.55 264.222C561.128 270.955 559.077 279.66 560.921 288.106L568.1 320.979C566.338 325.495 565.36 330.404 565.36 335.544C565.36 357.687 583.311 375.638 605.455 375.638C627.598 375.638 645.549 357.687 645.549 335.544C645.549 331.181 644.843 326.985 643.555 323.053L649.611 286.715C650.987 278.459 648.674 270.061 643.264 263.675ZM605.455 295.449C593.789 295.449 583.291 300.435 575.964 308.388L571.051 285.894C569.88 280.53 571.183 275.001 574.627 270.725C578.07 266.448 583.193 263.996 588.683 263.996H621.581C626.897 263.996 631.916 266.322 635.352 270.378C638.788 274.433 640.257 279.767 639.383 285.01L635.402 308.895C628.059 300.648 617.366 295.449 605.455 295.449Z" fill="#3F3D56"/>
<path d="M273.158 563.653C268.916 558.645 262.719 555.773 256.156 555.773H230.36C223.581 555.773 217.255 558.801 213.003 564.081C208.752 569.361 207.143 576.187 208.59 582.81L214.219 608.588C212.837 612.129 212.071 615.978 212.071 620.008C212.071 637.372 226.147 651.448 243.511 651.448C260.875 651.448 274.951 637.372 274.951 620.008C274.951 616.587 274.397 613.297 273.387 610.214L278.136 581.719C279.215 575.245 277.401 568.66 273.158 563.653ZM243.511 588.568C234.363 588.568 226.131 592.478 220.386 598.714L216.533 581.076C215.615 576.869 216.637 572.534 219.337 569.18C222.037 565.827 226.054 563.904 230.36 563.904H256.156C260.324 563.904 264.26 565.728 266.954 568.908C269.649 572.089 270.801 576.271 270.116 580.383L266.994 599.112C261.236 592.645 252.851 588.568 243.511 588.568Z" fill="#3F3D56"/>
<path d="M435.968 24.4902L433.481 23.7199C433.852 14.9965 436.211 7.05466 440.824 0L443.311 0.770349L435.968 24.4902Z" fill="#6C63FF"/>
<path d="M435.981 21.4382L434.384 23.4934L414.776 8.25881L416.374 6.20361C425.03 9.25959 431.347 14.5464 435.981 21.4382Z" fill="#6C63FF"/>
<path d="M549.443 630.419C552.132 630.587 553.619 627.246 551.584 625.299L551.382 624.494C551.408 624.43 551.435 624.366 551.462 624.301C554.182 617.816 563.399 617.861 566.095 624.356C568.488 630.12 571.535 635.894 572.286 641.988C572.622 644.679 572.471 647.42 571.874 650.06C577.482 637.81 580.433 624.433 580.433 610.981C580.433 607.601 580.248 604.222 579.869 600.85C579.558 598.093 579.129 595.352 578.574 592.636C575.573 577.956 569.074 563.975 559.7 552.297C555.193 549.833 551.435 545.983 549.165 541.367C548.349 539.702 547.711 537.911 547.408 536.087C547.921 536.154 549.342 528.344 548.955 527.864C549.669 526.78 550.949 526.241 551.729 525.182C555.611 519.919 560.96 520.838 563.752 527.991C569.717 531.001 569.775 535.994 566.115 540.795C563.786 543.85 563.466 547.984 561.423 551.254C561.633 551.523 561.852 551.784 562.062 552.053C565.917 556.997 569.25 562.31 572.061 567.893C571.266 561.689 572.439 554.214 574.438 549.396C576.714 543.906 580.979 539.283 584.735 534.537C589.247 528.837 598.499 531.325 599.293 538.551C599.301 538.621 599.309 538.691 599.316 538.761C598.758 539.075 598.211 539.41 597.678 539.763C594.632 541.777 595.685 546.498 599.293 547.055L599.375 547.067C599.173 549.077 598.828 551.069 598.324 553.028C603.143 571.663 592.739 578.45 577.885 578.755C577.557 578.923 577.238 579.091 576.91 579.251C578.415 583.489 579.617 587.835 580.508 592.241C581.307 596.134 581.862 600.068 582.173 604.02C582.56 609.005 582.526 614.016 582.106 618.994L582.131 618.817C583.199 613.335 586.175 608.215 590.496 604.667C596.934 599.379 606.029 597.431 612.975 593.181C616.318 591.134 620.602 593.779 620.018 597.655L619.99 597.84C618.956 598.261 617.947 598.748 616.972 599.295C616.414 599.61 615.867 599.944 615.333 600.297C612.288 602.311 613.341 607.032 616.949 607.589L617.031 607.601C617.09 607.61 617.14 607.618 617.199 607.627C615.425 611.839 612.953 615.748 609.859 619.12C606.846 635.387 593.905 636.931 580.063 632.194H580.054C578.541 638.785 576.33 645.225 573.488 651.363H550.031C549.947 651.102 549.871 650.833 549.796 650.572C551.965 650.707 554.151 650.581 556.286 650.186C554.546 648.05 552.805 645.898 551.065 643.762C551.023 643.72 550.989 643.678 550.956 643.636C550.073 642.543 549.182 641.459 548.299 640.366L548.299 640.364C548.243 637.009 548.646 633.664 549.443 630.419Z" fill="#F2F2F2"/>
</g>
<path d="M283.503 506.343C284.754 506.421 285.445 504.867 284.499 503.961L284.405 503.587C284.417 503.557 284.43 503.527 284.442 503.497C285.707 500.481 289.994 500.502 291.249 503.523C292.362 506.204 293.779 508.889 294.128 511.724C294.284 512.975 294.214 514.25 293.936 515.478C296.545 509.78 297.917 503.559 297.917 497.302C297.917 495.73 297.831 494.158 297.655 492.589C297.511 491.307 297.311 490.032 297.053 488.769C295.657 481.941 292.634 475.437 288.274 470.006C286.178 468.86 284.43 467.069 283.374 464.922C282.995 464.147 282.697 463.315 282.557 462.466C282.795 462.497 283.456 458.864 283.276 458.641C283.608 458.137 284.204 457.886 284.567 457.394C286.372 454.946 288.86 455.373 290.159 458.7C292.933 460.1 292.96 462.422 291.258 464.656C290.175 466.077 290.026 467.999 289.076 469.521C289.173 469.646 289.275 469.767 289.373 469.892C291.166 472.192 292.716 474.663 294.023 477.26C293.654 474.374 294.199 470.898 295.129 468.656C296.188 466.103 298.172 463.952 299.919 461.745C302.017 459.094 306.32 460.251 306.69 463.612C306.694 463.644 306.697 463.677 306.701 463.71C306.441 463.856 306.187 464.011 305.939 464.176C304.522 465.112 305.012 467.308 306.69 467.567L306.728 467.573C306.634 468.508 306.474 469.435 306.239 470.346C308.481 479.014 303.642 482.17 296.733 482.312C296.58 482.391 296.431 482.469 296.279 482.543C296.979 484.514 297.538 486.536 297.953 488.585C298.324 490.396 298.582 492.226 298.727 494.064C298.907 496.383 298.891 498.713 298.696 501.029L298.707 500.946C299.204 498.397 300.588 496.015 302.598 494.365C305.593 491.905 309.823 490.999 313.054 489.022C314.609 488.07 316.601 489.3 316.33 491.103L316.317 491.189C315.836 491.385 315.367 491.612 314.913 491.866C314.653 492.012 314.399 492.168 314.151 492.332C312.734 493.269 313.224 495.465 314.902 495.724L314.94 495.73C314.968 495.734 314.991 495.737 315.019 495.741C314.193 497.701 313.044 499.519 311.605 501.087C310.203 508.654 304.184 509.372 297.745 507.168H297.741C297.038 510.234 296.009 513.23 294.687 516.084H283.777C283.738 515.963 283.702 515.838 283.667 515.717C284.676 515.779 285.693 515.721 286.686 515.537C285.877 514.544 285.067 513.542 284.258 512.549C284.238 512.53 284.222 512.51 284.207 512.491C283.796 511.982 283.382 511.478 282.971 510.969L282.971 510.969C282.945 509.408 283.133 507.852 283.503 506.343Z" fill="#F2F2F2"/>
<path d="M46.9789 506.343C45.7281 506.421 45.0368 504.867 45.9831 503.961L46.0773 503.587C46.0649 503.557 46.0524 503.527 46.0399 503.497C44.7749 500.481 40.4878 500.502 39.2336 503.523C38.1204 506.204 36.7031 508.889 36.3541 511.724C36.1977 512.975 36.2681 514.25 36.5458 515.478C33.9374 509.78 32.5647 503.559 32.5647 497.302C32.5647 495.73 32.6508 494.158 32.8268 492.589C32.9715 491.307 33.1709 490.032 33.429 488.769C34.8251 481.941 37.848 475.437 42.2083 470.006C44.3044 468.86 46.0525 467.069 47.1083 464.922C47.4876 464.147 47.7849 463.315 47.9257 462.466C47.6871 462.497 47.0262 458.864 47.2061 458.641C46.8737 458.137 46.2787 457.886 45.9156 457.394C44.1099 454.946 41.6221 455.373 40.3234 458.7C37.549 460.1 37.5222 462.422 39.2245 464.656C40.3076 466.077 40.4564 467.999 41.4067 469.521C41.3089 469.646 41.2072 469.767 41.1094 469.892C39.3166 472.192 37.766 474.663 36.4588 477.26C36.8283 474.374 36.2828 470.898 35.353 468.656C34.2945 466.103 32.3106 463.952 30.5635 461.745C28.465 459.094 24.1617 460.251 23.792 463.612C23.7884 463.644 23.7849 463.677 23.7815 463.71C24.041 463.856 24.2952 464.011 24.5436 464.176C25.96 465.112 25.4705 467.308 23.7921 467.567L23.7541 467.573C23.848 468.508 24.0083 469.435 24.2429 470.346C22.0016 479.014 26.8405 482.17 33.7496 482.312C33.9022 482.391 34.0508 482.469 34.2033 482.543C33.5033 484.514 32.944 486.536 32.5295 488.585C32.158 490.396 31.8999 492.226 31.7552 494.064C31.5753 496.383 31.591 498.713 31.7865 501.029L31.7748 500.946C31.2782 498.397 29.8938 496.015 27.8837 494.365C24.8893 491.905 20.6588 490.999 17.4284 489.022C15.8734 488.07 13.8807 489.3 14.1521 491.103L14.1653 491.189C14.6463 491.385 15.1156 491.612 15.5692 491.866C15.8287 492.012 16.0829 492.168 16.3313 492.332C17.7477 493.269 17.2582 495.465 15.5798 495.724L15.5418 495.73C15.5144 495.734 15.491 495.737 15.4636 495.741C16.2888 497.701 17.4385 499.519 18.8776 501.087C20.279 508.654 26.2982 509.372 32.7368 507.168H32.7407C33.4446 510.234 34.4731 513.23 35.7949 516.084H46.7055C46.7447 515.963 46.7798 515.838 46.815 515.717C45.8061 515.779 44.7893 515.721 43.796 515.537C44.6055 514.544 45.415 513.542 46.2245 512.549C46.2441 512.53 46.2597 512.51 46.2754 512.491C46.686 511.982 47.1005 511.478 47.5111 510.969L47.5113 510.969C47.537 509.408 47.3496 507.852 46.9789 506.343Z" fill="#F2F2F2"/>
<path d="M234.54 503.077L240.966 503.023L243.81 477.659L234.326 477.739L234.54 503.077Z" fill="#A0616A"/>
<path d="M253.864 510.943L243.601 503.982L243.562 499.384L241.355 499.531L234.514 500.003L232.836 500.115L231.619 516.367L236.44 516.324L237.261 511.767L239.498 516.301L252.275 516.194C253.862 516.179 255.137 514.877 255.123 513.296C255.115 512.353 254.645 511.474 253.864 510.943Z" fill="#2F2E41"/>
<path d="M201.845 503.077L208.271 503.023L211.115 477.659L201.631 477.739L201.845 503.077Z" fill="#A0616A"/>
<path d="M221.169 510.943L210.906 503.982L210.867 499.384L208.66 499.531L201.819 500.003L200.141 500.115L198.924 516.367L203.745 516.324L204.566 511.767L206.803 516.301L219.58 516.194C221.167 516.179 222.442 514.877 222.428 513.296C222.42 512.353 221.95 511.474 221.169 510.943Z" fill="#2F2E41"/>
<path d="M252.523 165.351C250.643 168.512 251.683 172.599 254.845 174.479C256.293 175.34 257.935 175.582 259.471 175.294L259.477 175.301L267.733 184.345L277.433 180.83L264.707 166.933L264.662 166.981C264.221 165.382 263.19 163.943 261.651 163.029C258.489 161.149 254.403 162.189 252.523 165.351Z" fill="#A0616A"/>
<path d="M259.756 298.009L233.708 298.831L209.031 304.315C209.031 304.315 211.499 307.331 203.273 315.557C203.273 315.557 192.306 334.75 199.983 353.395L202.134 402.16C202.134 402.16 203.97 406.022 202.316 406.271C200.662 406.519 200.78 409.411 202.538 411.295C204.295 413.179 202.7 414.98 202.7 414.98C206.085 417.236 203.588 423.314 203.273 427.974C203.273 427.974 193.68 480.548 201.01 497.28L210.697 497.886L227.09 428.581L235.079 353.943L238.918 427.426C238.918 427.426 224.233 477.863 233.506 497.886L243.998 497.28L261.95 427.426C261.95 427.426 264.971 395.7 266.952 368.264C267.097 366.258 266.264 361.73 267.369 362.328C268.474 362.926 265.686 358.156 267.686 357.514C269.685 356.871 266.321 351.906 268.003 352.27C269.685 352.633 266.925 312.79 266.657 309.039C265.561 293.685 259.756 298.009 259.756 298.009Z" fill="#2F2E41"/>
<path d="M246.105 233.205C243.335 233.205 240.664 232.131 238.61 230.12C235.854 227.422 234.762 223.576 235.689 219.832C236.757 215.521 240.29 212.347 244.69 211.746L281.156 206.767L262.423 180.431L272.96 175.083L300.291 206.462C302.203 208.658 302.839 211.631 301.992 214.415C301.145 217.2 298.962 219.316 296.152 220.075L248.957 232.823C248.009 233.079 247.051 233.205 246.105 233.205Z" fill="#6C63FF"/>
<path d="M268.822 308.981L202.826 312.008C201.014 309.255 201.505 305.117 204.043 299.934C213.627 280.365 206.348 243.345 201.452 224.069C200.078 218.661 203.766 213.284 209.318 212.728L215.541 212.106L221.293 194.548H241.438L249.795 204.096L263.978 212.712C261.397 239.304 250.397 276.853 266.067 295.684C269.495 299.803 270.467 304.257 268.822 308.981Z" fill="#6C63FF"/>
<path d="M230.134 192.007C228.607 192.572 227.045 193.102 225.419 193.498C223.307 194.013 222.114 194.252 220.076 193.461C220.004 193.433 219.936 193.405 219.871 193.378C212.257 190.202 206.856 182.627 206.69 173.741C206.68 173.597 206.68 173.446 206.68 173.298C206.68 172.581 206.71 171.868 206.782 171.167C206.873 170.192 207.026 169.235 207.244 168.301L207.223 168.297C205.573 166.609 204.937 164.297 205.148 161.974C205.416 158.938 207.125 155.88 209.869 154.159C211.91 152.881 214.237 152.028 216.733 151.736C217.382 151.662 218.037 151.622 218.706 151.622H224.901C226.215 151.319 227.523 151.108 228.79 151.009H228.8C241.268 149.975 251.1 158.24 250.183 168.297C250.177 168.308 250.166 168.319 250.16 168.33C249.895 168.762 249.66 169.172 249.453 169.564C249.253 169.93 249.083 170.28 248.937 170.613C247.799 173.183 253.206 213.065 251.267 213.671C250.163 214.014 245.714 184.337 246.512 189.98C247.517 197.061 235.878 189.884 230.134 192.007Z" fill="#2F2E41"/>
<path d="M230.299 189.243C238.398 189.243 244.963 182.678 244.963 174.579C244.963 166.48 238.398 159.914 230.299 159.914C222.2 159.914 215.634 166.48 215.634 174.579C215.634 182.678 222.2 189.243 230.299 189.243Z" fill="#A0616A"/>
<path d="M243.051 168.377C242.807 168.506 242.565 168.625 242.321 168.744C242.066 168.866 241.811 168.989 241.553 169.104C236.646 171.329 232.648 171.577 230.223 168.377C230.155 166.703 229.782 165.039 229.106 163.493C229.231 165.205 228.763 166.951 227.812 168.377H222.928C217.898 171.716 215.317 174.783 218.808 185.743C219.036 186.463 220.595 212.044 221.039 214.01C213.425 211.09 206.856 180.078 206.69 171.906C206.68 171.774 206.68 171.634 206.68 171.499C206.68 170.84 206.71 170.184 206.782 169.539C206.873 168.642 207.026 167.763 207.244 166.903L207.223 166.9C205.573 165.348 204.937 163.222 205.148 161.085C206.418 159.421 207.998 158.001 209.808 156.908C211.428 156.12 213.136 155.481 214.909 154.992C214.953 154.982 214.991 154.972 215.035 154.962C215.571 154.816 216.122 154.683 216.672 154.568C217.796 154.333 218.937 154.157 220.105 154.048C220.19 154.045 220.272 154.038 220.347 154.038C220.825 154.038 221.27 154.17 221.658 154.398C221.661 154.398 221.661 154.401 221.668 154.401C221.95 154.568 222.201 154.789 222.398 155.053C222.734 155.481 222.928 156.018 222.928 156.602H228.369C228.569 156.602 228.77 156.609 228.97 156.619C236.547 156.921 242.637 160.162 243.027 167.61C243.044 167.868 243.051 168.119 243.051 168.377Z" fill="#2F2E41"/>
<path d="M210.883 168.967C216.219 168.967 220.545 164.641 220.545 159.306C220.545 153.97 216.219 149.644 210.883 149.644C205.548 149.644 201.222 153.97 201.222 159.306C201.222 164.641 205.548 168.967 210.883 168.967Z" fill="#2F2E41"/>
<path d="M224.147 154.837C223.05 160.059 217.634 163.182 212.454 161.904C207.273 160.627 204.109 155.391 205.387 150.211C206.664 145.03 212.952 146.524 217.08 143.144C222.921 138.362 225.627 147.795 224.147 154.837Z" fill="#2F2E41"/>
<path d="M241.924 265.535C241.165 261.936 237.632 259.633 234.033 260.392C232.383 260.74 231.012 261.674 230.077 262.927L230.068 262.926L217.869 261.864L213.114 271.021L231.889 272.624L231.89 272.559C233.297 273.436 235.03 273.795 236.781 273.426C240.38 272.667 242.683 269.134 241.924 265.535Z" fill="#A0616A"/>
<path d="M186.033 273.418C182.546 273.418 179.355 271.664 177.486 268.715C175.606 265.75 175.39 262.089 176.906 258.923L196.832 217.33C198.498 213.852 201.786 211.579 205.629 211.25C209.466 210.919 213.099 212.601 215.333 215.746C217.904 219.367 218.006 224.115 215.591 227.843L195.58 258.731L227.761 261.71L224.942 273.185L186.095 273.418L186.033 273.418Z" fill="#6C63FF"/>
<path d="M260.958 179.985C260.958 179.973 260.959 179.962 260.96 179.952C260.983 179.796 261.152 179.766 261.207 179.756C261.502 179.704 263.141 179.743 263.367 180.166C263.436 180.296 263.856 180.261 264.162 180.235C264.377 180.218 264.599 180.199 264.793 180.215C269.741 180.625 273.552 180.552 275.813 180.005C277.525 179.59 278.958 178.526 279.848 177.009C280.735 175.497 280.971 173.736 280.492 172.045L279.14 167.202C278.673 165.529 277.577 164.148 276.055 163.312C274.522 162.471 272.754 162.288 271.076 162.797C267.943 163.748 263.415 166.589 260.169 168.805C260.036 168.895 259.848 168.993 259.666 169.087C259.511 169.168 259.292 169.282 259.189 169.357C259.211 169.408 259.201 169.454 259.196 169.472C259.162 169.614 259.023 169.638 258.848 169.669C258.74 169.688 258.486 169.732 258.443 169.803C258.437 169.813 258.443 169.837 258.447 169.849C258.498 169.999 258.43 170.078 258.386 170.111C258.255 170.209 258.129 170.124 257.9 169.969C257.725 169.851 257.316 169.573 257.188 169.659C257.155 169.681 256.999 169.838 257.19 170.777C257.245 171.045 257.192 171.284 257.038 171.469C256.666 171.916 255.815 171.907 255.779 171.906L253.487 171.693C249.256 171.299 245.14 172.828 242.194 175.89L242.159 175.926L239.953 176.495L241.637 183.03L243.904 182.446L243.961 182.472C247.405 184.041 251.462 183.321 256.364 180.272L257.756 179.406L257.806 179.406C258.723 179.404 259.856 179.457 260.047 179.716C260.077 179.757 260.094 179.804 260.095 179.853C260.234 179.927 260.679 179.984 260.958 179.985Z" fill="#6C63FF"/>
<path d="M238.253 184.132C238.32 184.393 238.587 184.55 238.847 184.483L242.03 183.663C242.29 183.596 242.448 183.329 242.381 183.068L240.496 175.758C240.429 175.497 240.163 175.34 239.902 175.407L236.719 176.227C236.459 176.295 236.301 176.561 236.369 176.822L238.253 184.132Z" fill="#3F3D56"/>
<path d="M238.074 182.472C239.077 182.472 239.89 181.659 239.89 180.656C239.89 179.653 239.077 178.839 238.074 178.839C237.071 178.839 236.257 179.653 236.257 180.656C236.257 181.659 237.071 182.472 238.074 182.472Z" fill="#3F3D56"/>
<path d="M134.831 507.688L126.512 507.688L122.554 475.597L134.833 475.598L134.831 507.688Z" fill="#FFB6B6"/>
<path d="M135.124 516.367L109.54 516.366V516.043C109.541 510.543 113.999 506.085 119.498 506.085H119.499L124.172 502.54L132.891 506.086L135.125 506.086L135.124 516.367Z" fill="#2F2E41"/>
<path d="M101.531 507.688L93.2111 507.688L89.2534 475.597L101.532 475.598L101.531 507.688Z" fill="#FFB6B6"/>
<path d="M101.824 516.367L76.2396 516.366V516.043C76.24 510.543 80.6982 506.085 86.1976 506.085H86.1982L90.8715 502.54L99.5907 506.086L101.824 506.086L101.824 516.367Z" fill="#2F2E41"/>
<path d="M100.718 159.207C103.272 162.01 103.071 166.353 100.268 168.908C98.9835 170.078 97.3758 170.663 95.7649 170.691L95.7602 170.699L81.1278 195.759L70.7722 190.716L88.7409 163.334L88.796 163.373C88.9103 161.667 89.653 160 91.0167 158.757C93.8197 156.202 98.1629 156.404 100.718 159.207Z" fill="#FFB6B6"/>
<path d="M92.6316 295.66C92.6316 295.66 79.7292 388.569 87.2204 406.673L88.2583 487.203H102.38L114.65 411.043C114.65 411.043 113.402 409.17 115.899 406.673C118.396 404.176 118.396 406.673 118.396 404.176C118.396 401.679 111.529 392.939 111.529 392.939L117.599 357.356L122.593 487.203L135.702 486.579C135.702 486.579 148.188 444.753 146.315 425.401C146.315 425.401 145.066 412.292 145.066 410.419C145.066 408.546 143.194 405.425 145.066 403.552C146.939 401.679 147.469 396.97 146.58 396.203C145.691 395.436 145.691 391.956 145.691 391.956L159.425 341.749V303.301L92.6316 295.66Z" fill="#2F2E41"/>
<path d="M136.951 180.065L118.223 181.937L109.159 193.948L98.2465 201.949V268.204L100.503 283.551C95.5969 287.077 88.6172 292.93 91.4207 299.293C91.4207 299.293 144.742 316.568 159.724 301.586L158.476 263.716L162.258 211.65C163.008 201.329 156.434 191.892 146.493 189.018L138.593 186.733L136.951 180.065Z" fill="#6C63FF"/>
<path d="M156.082 336.484C159.816 335.818 162.303 332.252 161.637 328.518C161.332 326.807 160.414 325.364 159.154 324.36L159.155 324.351L161.655 289.606L150.757 284.214L149.102 325.912L149.169 325.915C148.22 327.338 147.793 329.112 148.117 330.928C148.782 334.662 152.349 337.149 156.082 336.484Z" fill="#FFB6B6"/>
<path d="M162.26 302.321L150.151 302.926L145.564 278.366L135.261 210.44C134.666 206.52 135.77 202.516 138.288 199.454C140.807 196.393 144.523 194.538 148.484 194.365C155.967 194.032 162.357 199.629 163.028 207.09L168.033 262.747L162.26 302.321Z" fill="#6C63FF"/>
<path d="M98.8708 201.29L100.119 227.509L71.4811 228.191C61.035 228.44 54.4816 216.998 59.9817 208.113L75.1814 181.326L85.0616 190.078L77.6457 208.157L98.8708 201.29Z" fill="#6C63FF"/>
<path d="M123.871 175.458C133.529 175.458 141.358 167.629 141.358 157.971C141.358 148.313 133.529 140.484 123.871 140.484C114.213 140.484 106.384 148.313 106.384 157.971C106.384 167.629 114.213 175.458 123.871 175.458Z" fill="#FFB6B6"/>
<path d="M141.281 169.917C139.374 172.303 137.745 173.702 135.117 174.701C135.075 174.337 135.051 173.968 135.057 173.599C134.693 174.095 134.336 174.592 133.967 175.088C132.332 175.591 130.334 175.984 127.749 176.384L126.477 172.503C126.277 170.747 127.44 169.13 128.736 167.925C130.031 166.727 131.545 165.697 132.435 164.171C133.325 162.646 133.313 160.369 131.829 159.413C130.37 158.462 128.366 159.243 126.719 158.68C124.818 158.032 123.928 155.707 124.243 153.721C124.558 151.735 125.763 150.022 126.931 148.393C124.207 149.58 120.083 149.731 116.069 149.023C116.215 147.769 115.912 146.456 115.155 145.444C115.082 146.601 114.543 147.715 113.696 148.496C109.839 147.461 106.388 145.62 104.814 143.138C105.51 142.956 106.206 142.768 106.902 142.587C106.703 141.158 106.503 139.735 106.303 138.312C107.151 138.73 108.004 139.154 108.858 139.571C109.022 139.087 109.27 138.663 109.585 138.288C110.305 138.058 111.05 137.919 111.807 137.864C112.049 137.852 112.297 137.84 112.545 137.84C112.909 137.84 113.284 137.852 113.647 137.894C113.193 137.483 112.733 137.077 112.279 136.659C112.224 136.611 112.176 136.562 112.122 136.514C112.951 136.157 113.847 135.884 114.695 135.648C118.4 134.619 122.239 133.583 126.041 134.171C128.47 134.546 130.887 135.775 132.463 137.607C133.87 139.242 135.857 140.211 137.971 140.639C138.988 140.845 139.972 141.3 140.79 141.933C140.276 142.266 139.731 142.556 139.162 142.786C140.239 143.047 141.311 143.307 142.389 143.574C143.394 144.9 144.078 146.48 144.599 148.066C147.008 155.374 146.088 163.911 141.281 169.917Z" fill="#2F2E41"/>
<path d="M80.4886 165.667C80.4897 165.679 80.4898 165.69 80.4889 165.7C80.4779 165.863 80.3063 165.906 80.25 165.92C79.9509 165.996 78.2623 166.08 77.9981 165.663C77.9175 165.535 77.4884 165.603 77.1755 165.652C76.9557 165.687 76.7285 165.722 76.5285 165.72C71.4092 165.674 67.4963 166.039 65.2128 166.773C63.4837 167.33 62.0911 168.532 61.2914 170.16C60.4941 171.782 60.3843 173.61 61.0056 175.313L62.7633 180.19C63.3704 181.875 64.6017 183.212 66.2307 183.956C67.8704 184.705 69.7027 184.758 71.3896 184.107C74.5384 182.892 78.9786 179.627 82.1489 177.103C82.2786 176.999 82.4642 176.885 82.6439 176.774C82.7973 176.68 83.0145 176.546 83.1144 176.46C83.0877 176.409 83.0949 176.361 83.0979 176.342C83.1229 176.194 83.2635 176.159 83.441 176.114C83.5509 176.086 83.8088 176.022 83.8472 175.945C83.8529 175.934 83.8453 175.911 83.8395 175.898C83.7765 175.747 83.8403 175.661 83.8829 175.624C84.01 175.513 84.1462 175.591 84.3933 175.734C84.5821 175.842 85.024 176.096 85.1492 175.999C85.1815 175.973 85.3292 175.8 85.0618 174.848C84.9854 174.578 85.0214 174.328 85.1657 174.126C85.5142 173.638 86.39 173.583 86.4271 173.581L88.8001 173.626C93.1802 173.71 97.2969 171.825 100.094 168.454L100.127 168.414L102.353 167.662L100.125 161.069L97.8381 161.842L97.7773 161.819C94.117 160.468 90.0002 161.516 85.1909 165.023L83.8255 166.019L83.7736 166.023C82.8311 166.094 81.6624 166.126 81.4462 165.874C81.4119 165.834 81.391 165.786 81.3866 165.737C81.2378 165.671 80.7761 165.646 80.4886 165.667Z" fill="#6C63FF"/>
<path d="M103.521 159.679C103.432 159.416 103.146 159.275 102.883 159.364L99.673 160.449C99.41 160.537 99.2685 160.823 99.3574 161.086L101.849 168.46C101.938 168.723 102.224 168.865 102.487 168.776L105.698 167.691C105.961 167.602 106.102 167.316 106.013 167.053L103.521 159.679Z" fill="#3F3D56"/>
<path d="M103.969 165.113C105.003 165.113 105.842 164.275 105.842 163.24C105.842 162.206 105.003 161.367 103.969 161.367C102.935 161.367 102.096 162.206 102.096 163.24C102.096 164.275 102.935 165.113 103.969 165.113Z" fill="#3F3D56"/>
<defs>
<clipPath id="clip0_31_522">
<rect width="579" height="652.981" fill="white" transform="translate(71)"/>
</clipPath>
</defs>
</svg>
