<svg width="386" height="386" viewBox="0 0 386 386" fill="none" xmlns="http://www.w3.org/2000/svg">
<path d="M193.472 385.055C299.802 385.055 386 298.858 386 192.528C386 86.1976 299.802 0 193.472 0C87.1423 0 0.944763 86.1976 0.944763 192.528C0.944763 298.858 87.1423 385.055 193.472 385.055Z" fill="#FF7758"/>
<path d="M193.399 375.865C294.401 375.865 376.279 293.987 376.279 192.985C376.279 91.9828 294.401 10.1045 193.399 10.1045C92.3968 10.1045 10.5185 91.9828 10.5185 192.985C10.5185 293.987 92.3968 375.865 193.399 375.865Z" fill="#E7EEF0"/>
<path d="M186.118 361.769C282.245 361.769 360.171 283.843 360.171 187.716C360.171 91.5884 282.245 13.6619 186.118 13.6619C89.9905 13.6619 12.064 91.5884 12.064 187.716C12.064 283.843 89.9905 361.769 186.118 361.769Z" fill="white"/>
<path d="M230.173 248.657L230.063 248.92C225.391 259.886 216.573 268.561 205.531 273.051C194.489 277.541 182.119 277.483 171.12 272.889C160.121 268.295 151.384 259.539 146.816 248.529C142.248 237.519 142.218 225.15 146.733 214.118L146.843 213.854L230.173 248.657Z" fill="#F7D316"/>
<path d="M226.362 247.375C222.081 257.33 214.046 265.195 204.001 269.26C193.957 273.326 182.714 273.264 172.714 269.089C162.714 264.914 154.765 256.962 150.594 246.961C146.422 236.96 146.365 225.717 150.434 215.673C150.47 215.583 150.512 215.496 150.561 215.413L226.459 247.115C226.433 247.204 226.401 247.291 226.362 247.375Z" fill="#F5F164"/>
<path d="M185.737 238.529C185.224 238.23 184.629 238.105 184.04 238.174C183.451 238.243 182.9 238.501 182.47 238.909L168.384 260.189C168.211 260.533 168.162 260.927 168.246 261.303C168.33 261.679 168.541 262.014 168.844 262.252C170.263 263.7 171.942 264.867 173.793 265.692C175.971 266.695 178.34 267.213 180.738 267.211C181.705 267.211 182.406 266.763 182.533 266.093C184.279 257.77 186.023 249.446 187.765 241.121C187.946 240.204 187.071 239.093 185.737 238.529Z" fill="#F7D316"/>
<path d="M181.519 232.459C181.465 230.997 180.731 229.789 179.807 229.649L154.582 225.765C153.915 225.658 153.247 226.145 152.914 227.046C152.193 228.94 151.835 230.953 151.859 232.979C151.859 235.377 152.381 237.747 153.388 239.924C153.801 240.798 154.485 241.238 155.156 241.085L180.024 235.385C180.925 235.175 181.572 233.92 181.519 232.459Z" fill="#F7D316"/>
<path d="M192.134 237.928C192.582 237.539 193.143 237.306 193.735 237.263C194.326 237.221 194.916 237.371 195.415 237.691L213.218 255.978C213.451 256.284 213.571 256.661 213.558 257.045C213.546 257.429 213.4 257.797 213.148 258.087C212.023 259.775 210.591 261.235 208.926 262.392C206.973 263.782 204.742 264.732 202.386 265.175C202.019 265.295 201.622 265.285 201.263 265.145C200.903 265.006 200.603 264.746 200.413 264.411L190.622 240.851C190.262 239.987 190.913 238.732 192.134 237.928Z" fill="#F7D316"/>
<path d="M250.629 223.199C257.971 209.026 258.017 193.566 250.205 183.214C249.074 181.716 242.28 172.716 232.753 173.04C222.301 173.397 211.796 184.866 209.877 201.805C197.648 186.182 191.774 166.515 193.432 146.744C195.942 122.487 211.399 93.8815 232.753 91.7358C256.863 89.3164 280.853 124.826 282.755 156.374C285.061 194.62 254.48 220.105 250.629 223.199Z" fill="#C31301"/>
<path d="M300.355 141.324C299.541 135.768 298.183 130.306 296.3 125.016C291.991 112.158 284.184 100.755 273.755 92.086C264.523 84.299 252.787 80.1139 240.711 80.3028C228.636 80.4917 217.036 85.0419 208.052 93.1139C208.015 93.152 207.972 93.1837 207.925 93.2073C201.083 99.1669 195.451 106.387 191.337 114.474C187.64 121.617 184.984 129.252 183.448 137.146C182.262 143.154 181.666 149.263 181.669 155.386C181.669 155.854 181.669 156.291 181.699 156.758C181.778 163.768 182.657 170.747 184.319 177.558C185.835 183.771 188.064 189.787 190.963 195.488C201.535 216.511 220.242 230.447 241.543 230.447C252.091 230.382 262.353 227.011 270.885 220.809C270.915 220.809 270.949 220.779 270.979 220.746C277.783 215.824 283.593 209.656 288.098 202.569C291.886 196.654 294.885 190.27 297.018 183.578C299.524 175.857 300.971 167.831 301.319 159.721C301.382 158.286 301.413 156.851 301.413 155.383C301.41 150.677 301.056 145.978 300.355 141.324ZM257.444 216.975C255.571 219.457 253.257 221.571 250.616 223.212C250.614 223.235 250.603 223.256 250.586 223.272C247.694 225.044 244.374 225.994 240.982 226.018C227.727 226.018 216.955 211.175 216.955 192.838C216.937 188.682 217.515 184.544 218.671 180.551C220.184 174.906 223.152 169.755 227.277 165.615C230.883 161.921 235.797 159.794 240.959 159.691C254.18 159.691 264.939 174.534 264.939 192.838C265.11 201.482 262.48 209.949 257.444 216.975Z" fill="#ED7138"/>
<path d="M297.234 153.391C296.91 146.744 295.843 140.155 294.054 133.746C292.209 127.063 289.527 120.641 286.072 114.631C279.178 101.885 268.049 91.9471 254.607 86.533C250.874 88.8382 246.552 90.0091 242.166 89.9035C239.465 90.0605 236.759 89.6628 234.217 88.7348C231.674 87.8068 229.349 86.3682 227.383 84.5074C220.423 86.0359 213.846 88.964 208.052 93.1137C208.015 93.1519 207.972 93.1835 207.925 93.2071C198.923 99.8203 191.676 108.535 186.815 118.592C182.955 126.313 180.295 134.577 178.926 143.099C178.067 148.19 177.64 153.344 177.648 158.506C177.648 160.222 177.678 161.937 177.802 163.649C178.165 170.917 179.423 178.112 181.546 185.073C183.35 191.245 185.905 197.173 189.154 202.722C200.036 221.433 217.623 233.563 237.518 233.563C249.81 233.447 261.652 228.921 270.889 220.809C270.919 220.809 270.952 220.779 270.982 220.746C277.776 214.888 283.388 207.786 287.517 199.822C291.015 193.139 293.605 186.018 295.219 178.649C296.683 172.035 297.415 165.28 297.401 158.506C297.391 156.791 297.361 155.076 297.234 153.391ZM212.947 195.955C212.945 193.468 213.154 190.985 213.571 188.533C214.108 183.96 215.609 179.553 217.974 175.603C220.338 171.652 223.514 168.248 227.29 165.614C230.193 163.799 233.544 162.827 236.967 162.808C250.189 162.808 260.948 177.651 260.948 195.955C261.105 200.954 260.275 205.935 258.503 210.612C256.732 215.289 254.055 219.571 250.626 223.212C250.624 223.235 250.613 223.256 250.596 223.272C246.989 226.926 242.1 229.029 236.967 229.135C223.706 229.135 212.947 214.292 212.947 195.955Z" fill="#FD8C4B"/>
<path opacity="0.49" d="M288.097 202.569C283.592 209.656 277.783 215.824 270.978 220.746C270.948 220.779 270.915 220.809 270.885 220.809C261.649 228.921 249.807 233.447 237.514 233.564C217.619 233.564 200.033 221.433 189.151 202.723C189.648 200.26 190.272 197.827 190.959 195.488C192.565 189.853 194.771 184.407 197.54 179.243C206.957 161.5 221.86 150.054 238.639 150.054C255.601 150.054 270.631 161.734 280.082 179.834C283.351 186.175 285.847 192.886 287.517 199.823C287.694 200.727 287.911 201.631 288.097 202.569Z" stroke="#F2F2F2" stroke-width="0.467" stroke-miterlimit="10"/>
<path opacity="0.49" d="M297.017 183.578C294.884 190.27 291.886 196.654 288.098 202.569C283.592 209.656 277.783 215.824 270.978 220.746C270.948 220.779 270.915 220.809 270.885 220.809C261.649 228.921 249.807 233.447 237.515 233.564C217.619 233.564 200.033 221.433 189.151 202.723C185.902 197.173 183.346 191.245 181.542 185.073C182.332 182.52 183.258 180.012 184.315 177.558C186.681 171.865 189.75 166.49 193.452 161.56C204.771 146.407 221.206 136.896 239.503 136.896C247.845 137.047 256.051 139.03 263.541 142.705C271.031 146.38 277.621 151.658 282.845 158.163C288.036 164.283 292.205 171.201 295.192 178.649C295.859 180.271 296.457 181.893 297.017 183.578Z" stroke="#F2F2F2" stroke-width="0.467" stroke-miterlimit="10"/>
<path opacity="0.49" d="M301.319 159.721C300.971 167.831 299.524 175.857 297.018 183.578C294.884 190.27 291.886 196.654 288.098 202.569C283.592 209.656 277.783 215.824 270.979 220.746C270.949 220.779 270.915 220.809 270.885 220.809C261.649 228.921 249.807 233.447 237.515 233.563C217.619 233.563 200.033 221.433 189.151 202.722C185.902 197.173 183.346 191.245 181.542 185.073C179.419 178.112 178.161 170.917 177.798 163.649C178.958 161.276 180.26 158.975 181.696 156.758C185.14 151.317 189.305 146.366 194.076 142.041C206.74 130.323 223.351 123.801 240.605 123.771C254.101 123.755 267.296 127.76 278.507 135.274C285.813 140.111 292.166 146.253 297.248 153.391C298.717 155.427 300.076 157.54 301.319 159.721V159.721Z" stroke="#F2F2F2" stroke-width="0.467" stroke-miterlimit="10"/>
<path opacity="0.49" d="M301.412 155.387C301.412 156.852 301.382 158.286 301.319 159.725C300.971 167.835 299.524 175.86 297.017 183.581C294.884 190.273 291.886 196.658 288.098 202.572C283.592 209.66 277.783 215.828 270.979 220.749C270.949 220.783 270.915 220.813 270.885 220.813C261.649 228.924 249.807 233.45 237.515 233.567C217.619 233.567 200.033 221.437 189.151 202.726C185.902 197.176 183.346 191.249 181.542 185.076C179.419 178.116 178.161 170.92 177.798 163.652C177.675 161.941 177.645 160.225 177.645 158.51C177.637 153.347 178.064 148.193 178.923 143.103C180.322 141.039 181.831 139.051 183.444 137.15C190.151 129.134 198.478 122.628 207.878 118.06C217.278 113.491 227.539 110.963 237.985 110.642C248.432 110.321 258.828 112.214 268.491 116.196C278.154 120.179 286.864 126.161 294.051 133.749C296.338 136.114 298.444 138.647 300.351 141.328C301.054 145.981 301.409 150.68 301.412 155.387V155.387Z" stroke="#F2F2F2" stroke-width="0.467" stroke-miterlimit="10"/>
<path opacity="0.49" d="M270.979 220.746C270.949 220.779 270.915 220.809 270.885 220.809C261.649 228.921 249.807 233.447 237.515 233.563C217.619 233.563 200.033 221.433 189.151 202.722C185.902 197.173 183.346 191.245 181.542 185.073C179.419 178.112 178.161 170.917 177.798 163.649C177.675 161.937 177.645 160.222 177.645 158.507C177.637 153.344 178.064 148.19 178.923 143.099C180.292 134.577 182.952 126.313 186.812 118.592C188.247 117.157 189.775 115.786 191.333 114.474C197.888 109.066 205.311 104.807 213.288 101.877C226.489 97.1096 240.768 96.1692 254.48 99.1639C266.11 101.676 276.952 106.985 286.069 114.631C289.831 117.726 293.259 121.207 296.297 125.016C298.179 130.306 299.537 135.768 300.351 141.324C301.053 145.979 301.407 150.679 301.409 155.386C301.409 156.851 301.379 158.286 301.316 159.725C300.967 167.835 299.52 175.86 297.014 183.581C294.881 190.273 291.882 196.658 288.094 202.572" stroke="#F2F2F2" stroke-width="0.467" stroke-miterlimit="10"/>
<path opacity="0.49" d="M240.702 89.8568C239.313 94.4153 238.171 99.0448 237.278 103.726C233.642 123.362 234.234 143.548 239.013 162.938" stroke="#F2F2F2" stroke-width="0.467" stroke-miterlimit="10"/>
<path d="M236.07 153.524C237.845 153.524 239.283 152.085 239.283 150.311C239.283 148.536 237.845 147.097 236.07 147.097C234.295 147.097 232.856 148.536 232.856 150.311C232.856 152.085 234.295 153.524 236.07 153.524Z" fill="#F2F2F2"/>
<path d="M273.755 92.0693C273.191 93.0337 263.247 84.0838 252.081 86.8602C248.522 88.3506 244.777 89.3476 240.949 89.8235C240.868 89.8505 240.783 89.8607 240.698 89.8535C237.299 89.8547 233.918 89.3612 230.66 88.3886C218.373 86.1427 208.706 94.2184 208.052 93.0971C217.036 85.0252 228.635 80.4749 240.711 80.286C252.787 80.0971 264.523 84.2823 273.755 92.0693Z" fill="#F2F2F2"/>
<path d="M185.116 146.306C194.036 153.01 192.164 158.029 186.768 154.072C188.143 159.214 185.053 160.212 182.217 155.036C181.436 162.801 176.043 160.836 177.852 149.236C171.114 158.216 166.065 156.348 170.023 150.921C164.877 152.293 163.879 149.206 169.059 146.366C161.323 145.619 163.289 140.226 174.888 142.002C165.908 135.267 167.78 130.215 173.173 134.176C171.802 129.061 174.918 128.063 177.725 133.238C178.506 125.473 183.902 127.439 182.093 139.038C188.827 130.028 193.88 131.93 189.888 137.37C195.064 135.965 196.092 139.085 190.856 141.921C198.618 142.626 196.686 148.052 185.116 146.306Z" fill="#71BD36"/>
<path d="M281.15 120.05C287.107 124.529 285.855 127.879 282.254 125.236C283.169 128.673 281.107 129.337 279.211 125.88C278.691 131.066 275.09 129.754 276.298 122.006C271.8 128.012 268.426 126.754 271.069 123.13C267.632 124.048 266.968 121.986 270.425 120.09C265.259 119.59 266.57 115.989 274.319 117.174C268.312 112.675 269.571 109.302 273.175 111.948C272.257 108.531 274.339 107.867 276.214 111.324C276.735 106.138 280.336 107.45 279.131 115.198C283.629 109.192 287.003 110.45 284.337 114.07C287.794 113.136 288.481 115.218 284.981 117.114C290.167 117.591 288.875 121.215 281.15 120.05Z" fill="#ABDC78"/>
<path d="M260.984 201.601C264.822 204.488 264.018 206.647 261.695 204.938C262.286 207.154 260.958 207.581 259.736 205.355C259.403 208.692 257.067 207.851 257.858 202.859C254.961 206.723 252.785 205.919 254.491 203.583C252.275 204.174 251.848 202.846 254.073 201.624C254.007 201.624 253.94 201.624 253.887 201.598C250.786 201.207 251.687 198.995 256.583 199.746C252.718 196.849 253.523 194.673 255.845 196.379C255.255 194.176 256.596 193.749 257.804 195.975C258.138 192.638 260.474 193.479 259.683 198.471C262.583 194.593 264.755 195.411 263.037 197.747C265.266 197.143 265.706 198.484 263.454 199.706C265.239 199.866 265.83 200.62 265.239 201.154C263.93 201.842 262.408 202.002 260.984 201.601Z" fill="#71BD36"/>
<path d="M265.239 201.157C263.043 200.033 260.569 199.569 258.115 199.823C256.59 200.094 255.145 200.704 253.887 201.608C250.787 201.217 251.687 199.005 256.583 199.756C252.719 196.859 253.523 194.684 255.845 196.389C255.255 194.186 256.596 193.759 257.804 195.985C258.138 192.648 260.474 193.489 259.683 198.481C262.583 194.603 264.755 195.421 263.037 197.757C265.266 197.153 265.706 198.494 263.454 199.716C265.239 199.856 265.827 200.623 265.239 201.157Z" fill="#9AD35B"/>
<path d="M141.234 233.93C141.902 217.986 135.421 203.947 123.968 197.864C122.3 196.983 112.355 191.69 103.856 196.008C94.5289 200.744 89.8404 215.577 95.2597 231.741C77.5733 222.74 63.9429 207.385 57.1006 188.757C49.1351 165.705 51.0704 133.248 69.5243 122.29C90.3575 109.919 127.095 131.967 142.138 159.775C160.375 193.489 143.407 229.509 141.234 233.93Z" fill="#C31301"/>
<path d="M151.746 138.718C148.664 134.024 145.126 129.645 141.184 125.646C131.851 115.808 119.96 108.766 106.846 105.311C95.1898 102.154 82.7853 103.317 71.9195 108.586C61.0537 113.855 52.4589 122.875 47.72 133.982C47.7027 134.032 47.6767 134.079 47.6432 134.119C43.9581 142.411 41.9008 151.334 41.5832 160.402C41.2486 168.437 42.0632 176.48 44.0025 184.285C45.4656 190.231 47.5053 196.021 50.0926 201.571C50.2895 201.995 50.4764 202.392 50.7 202.802C53.7302 209.125 57.4732 215.08 61.8558 220.552C65.8534 225.543 70.4143 230.056 75.4476 234C93.9048 248.59 116.75 253.329 136.055 244.345C145.59 239.835 153.47 232.448 158.587 223.225C158.617 223.225 158.634 223.168 158.647 223.128C162.736 215.797 165.398 207.758 166.492 199.435C167.428 192.475 167.451 185.422 166.559 178.455C165.571 170.399 163.495 162.514 160.389 155.016C159.838 153.681 159.261 152.373 158.643 151.045C156.654 146.77 154.348 142.65 151.746 138.718ZM144.785 225.411C144.138 228.452 142.931 231.346 141.227 233.947C141.236 233.97 141.236 233.994 141.227 234.017C139.353 236.845 136.743 239.11 133.679 240.568C121.666 246.161 105.648 237.231 97.9026 220.626C96.1317 216.866 94.909 212.872 94.2718 208.766C93.2604 203.008 93.7758 197.086 95.7668 191.59C97.4774 186.716 101.038 182.711 105.678 180.441C117.661 174.858 133.682 183.778 141.408 200.366C145.207 208.131 146.392 216.917 144.785 225.411Z" fill="#ED7138"/>
<path d="M154.011 150.975C150.912 145.086 147.163 139.562 142.836 134.506C138.342 129.228 133.199 124.539 127.529 120.551C115.901 111.907 101.619 107.596 87.1503 108.364C84.7353 112.03 81.3072 114.916 77.2827 116.67C74.8984 117.952 72.2766 118.732 69.579 118.962C66.8815 119.192 64.1653 118.866 61.5986 118.005C55.9329 122.329 51.2065 127.76 47.7066 133.969C47.6893 134.019 47.6633 134.065 47.6298 134.106C42.2622 143.902 39.3718 154.862 39.2104 166.031C38.97 174.66 40.0468 183.276 42.4038 191.58C43.7738 196.555 45.56 201.407 47.7432 206.083C48.4674 207.638 49.2182 209.179 50.0558 210.681C53.4528 217.116 57.6299 223.108 62.4929 228.521C66.735 233.354 71.5541 237.649 76.8422 241.309C94.6053 253.676 115.672 257.246 133.706 248.85C144.798 243.555 153.62 234.453 158.566 223.202C158.596 223.202 158.613 223.145 158.627 223.105C162.31 214.927 164.397 206.121 164.777 197.159C165.125 189.624 164.466 182.076 162.818 174.714C161.353 168.1 159.165 161.666 156.294 155.53C155.59 153.988 154.836 152.446 154.011 150.975ZM95.5731 225.144C94.5208 222.885 93.6622 220.54 93.0068 218.136C91.563 213.764 91.0624 209.135 91.5381 204.555C92.0138 199.976 93.455 195.549 95.7666 191.566C97.6294 188.698 100.253 186.405 103.345 184.942C115.332 179.36 131.35 188.279 139.078 204.868C141.332 209.332 142.682 214.198 143.05 219.185C143.419 224.172 142.799 229.183 141.227 233.93C141.235 233.953 141.235 233.978 141.227 234C139.5 238.836 135.955 242.807 131.346 245.069C119.329 250.679 103.312 241.766 95.5731 225.144Z" fill="#FD8C4B"/>
<path opacity="0.49" d="M166.492 199.408C165.398 207.731 162.736 215.771 158.647 223.101C158.647 223.142 158.617 223.185 158.587 223.198C153.64 234.45 144.818 243.552 133.726 248.847C115.706 257.243 94.6258 253.672 76.8627 241.305C76.2754 238.862 75.8115 236.393 75.4478 233.984C74.5256 228.198 74.2258 222.33 74.5534 216.481C75.5979 196.418 84.2809 179.753 99.4878 172.669C114.865 165.507 133.429 169.762 149.63 182.169C155.268 186.539 160.36 191.571 164.797 197.156C165.348 197.913 165.928 198.641 166.492 199.408Z" stroke="#F2F2F2" stroke-width="0.467" stroke-miterlimit="10"/>
<path opacity="0.49" d="M166.559 178.428C167.451 185.395 167.428 192.448 166.492 199.408C165.398 207.731 162.736 215.771 158.647 223.101C158.647 223.142 158.617 223.185 158.587 223.198C153.64 234.45 144.818 243.552 133.726 248.847C115.706 257.243 94.6258 253.672 76.8627 241.305C71.5746 237.645 66.7554 233.351 62.5132 228.517C62.148 225.871 61.9254 223.206 61.846 220.535C61.5869 214.378 62.1002 208.212 63.3742 202.182C67.2385 183.664 78.1207 168.107 94.7158 160.378C102.342 156.993 110.619 155.327 118.96 155.496C127.302 155.666 135.504 157.668 142.986 161.359C150.277 164.71 156.977 169.218 162.828 174.708C164.116 175.919 165.338 177.14 166.559 178.428Z" stroke="#F2F2F2" stroke-width="0.467" stroke-miterlimit="10"/>
<path opacity="0.49" d="M160.376 154.989C163.482 162.488 165.558 170.372 166.546 178.428C167.437 185.395 167.415 192.448 166.479 199.409C165.385 207.731 162.723 215.771 158.634 223.102C158.634 223.142 158.604 223.185 158.574 223.198C153.627 234.45 144.804 243.552 133.712 248.847C115.692 257.243 94.6124 253.672 76.8493 241.305C71.5612 237.646 66.7421 233.351 62.5 228.518C57.637 223.105 53.4599 217.113 50.0629 210.678C50.1123 208.037 50.3207 205.401 50.6869 202.786C51.5101 196.399 53.1939 190.153 55.6925 184.218C62.2245 168.249 74.5269 155.322 90.1541 148.008C102.387 142.305 116.04 140.373 129.374 142.458C138.04 143.758 146.392 146.644 154.012 150.971C156.204 152.195 158.328 153.536 160.376 154.989V154.989Z" stroke="#F2F2F2" stroke-width="0.467" stroke-miterlimit="10"/>
<path opacity="0.49" d="M158.643 151.018C159.261 152.353 159.838 153.661 160.389 154.989C163.495 162.488 165.571 170.372 166.559 178.429C167.45 185.395 167.428 192.448 166.492 199.409C165.398 207.731 162.736 215.771 158.647 223.102C158.647 223.142 158.617 223.185 158.587 223.198C153.64 234.45 144.818 243.552 133.726 248.847C115.706 257.243 94.6256 253.672 76.8625 241.305C71.5744 237.646 66.7551 233.351 62.513 228.518C57.6501 223.105 53.4729 217.113 50.0759 210.678C49.2383 209.176 48.4875 207.634 47.7633 206.079C45.5801 201.403 43.7941 196.552 42.4241 191.577C42.8211 189.114 43.3501 186.674 44.0091 184.268C46.7048 174.17 51.5067 164.757 58.0993 156.647C64.692 148.536 72.9261 141.913 82.2607 137.211C91.5954 132.51 101.819 129.837 112.26 129.368C122.702 128.899 133.124 130.644 142.843 134.49C145.913 135.67 148.891 137.078 151.752 138.701C154.352 142.63 156.655 146.747 158.643 151.018V151.018Z" stroke="#F2F2F2" stroke-width="0.467" stroke-miterlimit="10"/>
<path opacity="0.49" d="M158.647 223.118C158.647 223.158 158.617 223.202 158.587 223.215C153.64 234.467 144.818 243.569 133.726 248.864C115.705 257.26 94.6254 253.689 76.8623 241.322C71.5742 237.662 66.755 233.368 62.5129 228.534C57.6499 223.121 53.4727 217.13 50.0757 210.695C49.2381 209.193 48.4873 207.651 47.7632 206.096C45.5799 201.42 43.7939 196.569 42.424 191.593C40.0669 183.289 38.9899 174.674 39.2303 166.045C39.9244 164.136 40.7288 162.247 41.5897 160.402C45.2476 152.731 50.1783 145.736 56.1726 139.712C66.1264 129.816 78.6741 122.934 92.3695 119.86C103.973 117.229 116.043 117.465 127.535 120.548C132.253 121.765 136.829 123.472 141.191 125.643C145.133 129.642 148.67 134.02 151.752 138.714C154.353 142.638 156.659 146.749 158.65 151.015C159.267 152.35 159.845 153.658 160.395 154.986C163.502 162.484 165.577 170.369 166.565 178.425C167.457 185.392 167.435 192.445 166.499 199.405" stroke="#F2F2F2" stroke-width="0.467" stroke-miterlimit="10"/>
<path opacity="0.49" d="M75.9478 117.244C76.6155 121.961 77.5345 126.64 78.7009 131.259C83.6937 150.596 92.7517 168.646 105.271 184.205" stroke="#F2F2F2" stroke-width="0.467" stroke-miterlimit="10"/>
<path d="M97.265 177.217C99.0398 177.217 100.479 175.779 100.479 174.004C100.479 172.229 99.0398 170.79 97.265 170.79C95.4902 170.79 94.0515 172.229 94.0515 174.004C94.0515 175.779 95.4902 177.217 97.265 177.217Z" fill="#F2F2F2"/>
<path d="M106.846 105.311C106.745 106.425 93.9478 102.511 85.0012 109.742C82.4025 112.594 79.4275 115.078 76.1582 117.127C76.0969 117.186 76.0241 117.231 75.9445 117.26C72.8622 118.696 69.5877 119.676 66.2236 120.17C54.1401 123.321 48.7842 134.723 47.7197 133.982C52.4587 122.875 61.0534 113.855 71.9192 108.586C82.7851 103.317 95.1895 102.154 106.846 105.311Z" fill="#F2F2F2"/>
<path d="M49.3854 191.884C60.3009 194.196 60.7313 199.539 54.1606 198.224C57.5778 202.309 55.1984 204.518 50.4431 201.024C53.0126 208.392 47.293 208.889 44.036 197.61C41.7201 208.592 36.3609 209.029 37.6524 202.439C33.5678 205.856 31.3585 203.48 34.8524 198.721C27.5276 201.307 27.0305 195.588 38.2964 192.301C27.3108 189.985 26.8737 184.625 33.4377 185.93C30.0339 181.872 32.4365 179.653 37.1684 183.161C34.5989 175.792 40.3186 175.295 43.5755 186.574C45.8747 175.562 51.2508 175.152 49.9327 181.756C54.0306 178.298 56.2731 180.691 52.7292 185.476C60.0707 182.837 60.5979 188.583 49.3854 191.884Z" fill="#71BD36"/>
<path d="M125.357 127.538C132.645 129.084 132.928 132.651 128.543 131.777C130.826 134.503 129.238 135.978 126.061 133.645C127.779 138.564 123.958 138.898 121.783 131.363C120.238 138.704 116.65 138.991 117.518 134.59C114.791 136.872 113.316 135.284 115.649 132.107C110.757 133.832 110.423 130.015 117.948 127.819C110.607 126.274 110.32 122.686 114.705 123.564C112.432 120.854 114.037 119.369 117.197 121.712C115.479 116.793 119.3 116.46 121.475 123.995C123.01 116.653 126.608 116.366 125.72 120.778C128.46 118.468 129.962 120.064 127.589 123.26C132.491 121.505 132.852 125.336 125.357 127.538Z" fill="#ABDC78"/>
<path d="M141.505 209.981C146.203 210.982 146.384 213.274 143.561 212.71C145.029 214.469 144.008 215.417 141.959 213.915C143.067 217.085 140.604 217.299 139.202 212.443C138.201 217.172 135.895 217.359 136.456 214.522C134.697 215.994 133.746 214.969 135.251 212.924C135.184 212.94 135.124 212.967 135.071 212.977C132.094 213.935 131.974 211.549 136.74 210.161C132.014 209.16 131.824 206.854 134.647 207.418C133.186 205.672 134.22 204.718 136.256 206.226C135.148 203.056 137.61 202.843 139.012 207.698C140.013 202.956 142.319 202.782 141.745 205.622C143.51 204.134 144.478 205.165 142.95 207.224C144.638 206.617 145.489 207.047 145.182 207.785C144.899 208.432 143.744 209.323 141.505 209.981Z" fill="#71BD36"/>
<path d="M145.175 207.785C142.709 207.69 140.268 208.312 138.148 209.577C136.879 210.464 135.828 211.627 135.071 212.977C132.094 213.935 131.974 211.549 136.74 210.161C132.014 209.16 131.824 206.854 134.647 207.418C133.186 205.672 134.22 204.718 136.256 206.226C135.148 203.056 137.61 202.843 139.012 207.698C140.013 202.956 142.319 202.782 141.745 205.622C143.51 204.134 144.478 205.165 142.95 207.224C144.632 206.617 145.482 207.047 145.175 207.785Z" fill="#9AD35B"/>
<path d="M292.84 282.912C317.777 282.912 337.993 262.696 337.993 237.758C337.993 212.82 317.777 192.604 292.84 192.604C267.902 192.604 247.686 212.82 247.686 237.758C247.686 262.696 267.902 282.912 292.84 282.912Z" fill="#FC2821"/>
<path d="M292.839 278.901C315.562 278.901 333.982 260.48 333.982 237.758C333.982 215.036 315.562 196.616 292.839 196.616C270.117 196.616 251.697 215.036 251.697 237.758C251.697 260.48 270.117 278.901 292.839 278.901Z" fill="#FBA3A6"/>
<path d="M293.08 231.558C291.615 231.558 290.384 230.867 290.207 229.949L285.411 204.881C285.285 204.214 285.745 203.547 286.633 203.16C288.5 202.369 290.499 201.937 292.526 201.888C294.926 201.801 297.318 202.236 299.534 203.163C300.425 203.543 300.889 204.214 300.762 204.888L295.966 229.949C295.773 230.89 294.525 231.558 293.08 231.558Z" fill="#FC2821"/>
<path d="M293.08 245.266C291.615 245.266 290.384 245.957 290.207 246.875L285.411 271.936C285.285 272.604 285.745 273.271 286.633 273.661C288.5 274.451 290.499 274.881 292.526 274.929C294.927 275.019 297.318 274.584 299.534 273.655C300.425 273.274 300.889 272.607 300.762 271.929L295.966 246.872C295.773 245.957 294.525 245.266 293.08 245.266Z" fill="#FC2821"/>
<path d="M299.3 235.562C298.983 235.061 298.837 234.471 298.883 233.879C298.929 233.288 299.166 232.728 299.557 232.282L320.317 217.436C320.654 217.251 321.045 217.188 321.424 217.259C321.802 217.33 322.144 217.529 322.392 217.823C323.891 219.188 325.12 220.824 326.013 222.645C327.092 224.785 327.695 227.134 327.782 229.529C327.808 230.497 327.395 231.198 326.727 231.364L301.963 237.498C301.055 237.708 299.911 236.877 299.3 235.562Z" fill="#FC2821"/>
<path d="M286.849 241.282C286.235 239.947 285.094 239.123 284.18 239.35L259.406 245.487C258.738 245.65 258.331 246.351 258.354 247.315C258.415 249.342 258.86 251.338 259.666 253.199C260.59 255.41 261.984 257.395 263.75 259.015C263.998 259.311 264.34 259.512 264.719 259.584C265.099 259.656 265.491 259.594 265.829 259.409L286.582 244.562C286.976 244.118 287.215 243.558 287.263 242.967C287.311 242.375 287.166 241.784 286.849 241.282Z" fill="#FC2821"/>
<path d="M298.76 242.236C299.577 241.022 300.838 240.384 301.699 240.751L325.172 250.762C325.506 250.955 325.762 251.257 325.898 251.617C326.035 251.977 326.042 252.373 325.92 252.738C325.534 254.728 324.776 256.626 323.684 258.334C322.419 260.372 320.726 262.11 318.722 263.426C318.43 263.678 318.06 263.82 317.675 263.83C317.29 263.84 316.914 263.716 316.609 263.48L298.492 245.513C298.178 245.011 298.033 244.421 298.081 243.83C298.13 243.24 298.367 242.681 298.76 242.236Z" fill="#FC2821"/>
<path d="M287.397 234.595C287.79 234.15 288.028 233.59 288.076 232.999C288.124 232.408 287.98 231.817 287.664 231.314L269.544 213.341C269.239 213.105 268.863 212.981 268.478 212.991C268.093 213 267.723 213.143 267.431 213.394C265.734 214.5 264.262 215.918 263.093 217.572C261.684 219.512 260.713 221.735 260.247 224.086C260.123 224.452 260.13 224.848 260.267 225.209C260.403 225.57 260.66 225.872 260.994 226.065L284.46 236.076C285.318 236.443 286.579 235.806 287.397 234.595Z" fill="#FC2821"/>
<path opacity="0.59" d="M222.591 183.628C222.531 181.02 223.109 178.436 224.276 176.103C225.443 173.769 227.162 171.756 229.285 170.24C231.084 169.14 233.091 168.423 235.179 168.136C237.268 167.849 239.394 167.997 241.422 168.571" stroke="white" stroke-width="0.216" stroke-miterlimit="10"/>
<path d="M205.899 113.053C206.979 113.053 207.855 112.177 207.855 111.097C207.855 110.017 206.979 109.142 205.899 109.142C204.819 109.142 203.944 110.017 203.944 111.097C203.944 112.177 204.819 113.053 205.899 113.053Z" fill="#25262F"/>
<path d="M172.348 176.076C173.658 174.328 175.189 172.758 176.904 171.404" stroke="#25262F" stroke-width="0.862" stroke-miterlimit="10"/>
<path d="M202.505 142.218C204.606 142.019 206.724 142.147 208.785 142.599" stroke="#51A380" stroke-width="0.862" stroke-miterlimit="10"/>
<path d="M184.929 226.729H194.553" stroke="#51A380" stroke-width="0.862" stroke-miterlimit="10"/>
<path d="M263.61 151.362C264.388 151.551 265.085 151.981 265.603 152.59C266.121 153.2 266.433 153.958 266.493 154.756" stroke="#51A380" stroke-width="0.862" stroke-miterlimit="10"/>
<path d="M156.437 190.743C156.339 195.406 156.89 200.06 158.076 204.571" stroke="#51A380" stroke-width="0.862" stroke-miterlimit="10"/>
<path d="M85.3184 135.922L85.8256 131.33" stroke="#51A380" stroke-width="0.862" stroke-miterlimit="10"/>
<path d="M152.289 155.173V153.081" stroke="#F91841" stroke-width="0.862" stroke-miterlimit="10"/>
<path d="M251.907 132.521L254.006 133.339" stroke="#F91841" stroke-width="0.862" stroke-miterlimit="10"/>
<path d="M182.043 193.265C181.871 193.979 181.851 194.72 181.984 195.442C182.118 196.163 182.401 196.848 182.817 197.453" stroke="#F91841" stroke-width="0.862" stroke-miterlimit="10"/>
<path d="M278.246 197.44L277.409 200.777" stroke="#F91841" stroke-width="0.862" stroke-miterlimit="10"/>
</svg>
