<svg width="97" height="203" viewBox="0 0 97 203" fill="none" xmlns="http://www.w3.org/2000/svg">
<path d="M27.7201 87.388L26.6331 88.004L28.0851 94.434L32.9011 83.737C31.7541 83.65 30.6161 83.555 29.4911 83.454L27.7201 87.388Z" fill="#FF9E77"/>
<path d="M26.418 86.6939L26.624 87.6649L27.487 87.1749L29.176 83.4249C28.763 83.3869 28.351 83.3489 27.942 83.3099L26.418 86.6939Z" fill="#00C659"/>
<path d="M35.263 82.0789L34.194 81.5969L33.311 83.5579C33.725 83.5859 34.141 83.6129 34.561 83.6389L35.263 82.0789Z" fill="#00C659"/>
<path d="M22.3101 82.699L23.2621 86.913L23.498 87.934H23.4921L26.257 100.175L26.2601 128.289L28.0791 131.678C28.7691 131.206 29.5341 130.868 30.3421 130.668L29.1601 128.466L29.0951 128.486L29.0961 128.345L29.0861 128.327V100.208L25.2041 83.03C24.2201 82.924 23.2551 82.813 22.3101 82.699Z" fill="#00C659"/>
<path d="M26.2551 86.325L27.6271 83.278C26.9161 83.209 26.2131 83.137 25.5181 83.063L26.2551 86.325Z" fill="#FF9E77"/>
<path d="M35.923 132.228C35.292 131.763 34.5909 131.416 33.8429 131.204C33.7459 131.177 33.6479 131.154 33.5499 131.131C33.1719 131.043 32.784 130.989 32.389 130.969C32.289 130.964 32.189 130.955 32.088 130.954C32.075 130.954 32.0629 130.952 32.0499 130.952C31.6509 130.952 31.2579 130.992 30.8739 131.061C30.7769 131.079 30.682 131.1 30.586 131.121C29.772 131.306 29.0049 131.643 28.3179 132.122C28.2399 132.176 28.1649 132.234 28.0889 132.292C27.8559 132.47 27.629 132.658 27.419 132.869L26.096 134.191L25.8729 134.414L25.0029 135.284L24.78 135.507L22.768 137.519L22.545 137.742L21.674 138.613L21.4509 138.836L18.104 142.183C15.551 144.737 15.551 148.891 18.104 151.445L27.418 160.759C28.655 161.995 30.299 162.677 32.049 162.677C33.798 162.677 35.4419 161.995 36.6789 160.759L37.0459 160.392L37.26 160.178L38.1 159.338L38.315 159.123L40.0199 157.418L40.32 157.118L43.0629 154.375L43.271 154.167L45.9939 151.444C47.2309 150.207 47.9119 148.562 47.9119 146.813C47.9119 145.064 47.2299 143.419 45.9939 142.182L45.172 141.36L44.907 141.095L43.871 140.059L43.6059 139.794L41.42 137.608L41.155 137.343L40.1189 136.307L39.854 136.042L37.5029 133.691L37.238 133.426L36.681 132.869C36.526 132.714 36.3639 132.567 36.1969 132.43C36.1079 132.359 36.014 132.296 35.923 132.228Z" fill="white"/>
<path d="M28.2451 94.812L28.4511 95.783L29.3141 95.293L34.4651 83.851C34.0491 83.822 33.6331 83.793 33.2191 83.762L28.2451 94.812Z" fill="#00C659"/>
<path d="M12.231 60.5709L16.919 64.6089L17.909 64.6879L17.685 63.7209L14.375 60.869C13.642 60.771 12.922 60.6719 12.231 60.5709Z" fill="#00C659"/>
<path d="M22.04 67.439L22.903 66.949L25.103 62.064C24.69 62.026 24.277 61.989 23.869 61.949L21.834 66.468L22.04 67.439Z" fill="#00C659"/>
<path d="M26.558 55.245L21.216 60.168L21.009 61.157L21.995 61.046L25.331 57.971L26.558 55.245Z" fill="#00C659"/>
<path d="M37.5601 160.589L39.0661 162.655L40.0121 162.955L40.0141 161.963L38.4001 159.749L37.5601 160.589Z" fill="#00C659"/>
<path d="M34.9189 121.594L35.2709 119.145L35.2869 119.037L35.0079 118.997L34.1259 118.871L33.8909 120.509L33.8009 121.135L33.45 123.584L33.3599 124.211L32.4609 130.474C32.8549 130.496 33.2429 130.55 33.6219 130.636L34.8299 122.222L34.9189 121.594Z" fill="#00C659"/>
<path d="M32.159 130.458L32.983 124.718L30.528 128.04L29.436 128.381L30.626 130.598C31.09 130.503 31.567 130.453 32.051 130.453C32.087 130.453 32.123 130.458 32.159 130.458Z" fill="#FF9E77"/>
<path d="M21.348 137.127L20.811 138.17L21.208 138.375L22.079 137.504L21.348 137.127Z" fill="#00C659"/>
<path d="M17.599 130.151L17.062 131.193L24.537 135.046L25.407 134.176L17.599 130.151Z" fill="#00C659"/>
<path d="M29.3979 128.078L30.3449 127.782L33.0729 124.092L33.4249 121.643L29.403 127.085L29.3979 128.078Z" fill="#00C659"/>
<path d="M13.4209 124.414L26.3019 131.055L27.2829 130.901L26.8389 130.013L13.9579 123.372L13.4209 124.414Z" fill="#00C659"/>
<path d="M40.021 158.128L38.614 159.535L40.021 161.464V158.128Z" fill="#FF9E77"/>
<path d="M45.374 137.848L44.213 137.682L43.96 139.443L44.996 140.479L45.374 137.848Z" fill="#00C659"/>
<path d="M41.992 131.512L40.831 131.346L40.208 135.691L41.244 136.727L41.992 131.512Z" fill="#00C659"/>
<path d="M43.147 169.772V155.002L40.321 157.828V163.717V164.05V168.568V168.93V169.68L47.281 180.12H48.566H48.867H50.046L48.724 178.137L48.387 177.631L43.147 169.772Z" fill="#00C659"/>
<path d="M48.889 180.421L48.908 180.684L51.929 182.15L54.709 180.266L54.468 176.917L51.446 175.451L48.666 177.334L48.68 177.531L50.607 180.421H48.889Z" fill="#FF4949"/>
<path d="M37.3271 132.81L38.4481 125.002L37.287 124.836L36.2781 131.869C36.5421 132.068 36.7981 132.279 37.0351 132.517L37.3271 132.81Z" fill="#00C659"/>
<path d="M23.312 73.2319L23.518 74.2029L24.381 73.713L29.46 62.431C29.045 62.399 28.631 62.3659 28.218 62.3319L23.312 73.2319Z" fill="#00C659"/>
<path d="M79.4379 158.041L76.658 159.924L76.8989 163.274L79.921 164.74L82.7009 162.857L82.4589 159.506L79.4379 158.041Z" fill="#FF4949"/>
<path d="M74.881 167.624L72.1011 169.506L72.342 172.857L75.3641 174.323L78.144 172.439L77.902 169.089L74.881 167.624Z" fill="#FF4949"/>
<path d="M60.1831 111.62L69.8111 117.701C70.7121 118.269 71.7491 118.571 72.8111 118.571C74.7571 118.571 76.5382 117.589 77.5752 115.947L83.6562 106.319C85.3132 103.695 84.5272 100.213 81.9032 98.556L72.2752 92.475C71.3732 91.906 70.3362 91.605 69.2752 91.605C67.3302 91.605 65.5491 92.585 64.5111 94.228L58.4301 103.856C56.7731 106.48 57.5591 109.963 60.1831 111.62Z" fill="white"/>
<path d="M52.0102 88.044C52.4448 88.044 52.7971 87.6917 52.7971 87.257C52.7971 86.8224 52.4448 86.47 52.0102 86.47C51.5755 86.47 51.2231 86.8224 51.2231 87.257C51.2231 87.6917 51.5755 88.044 52.0102 88.044Z" fill="white"/>
<path d="M61.5831 149.372L73.0621 152.386C73.5521 152.515 74.0561 152.58 74.5581 152.58C77.2241 152.58 79.5601 150.776 80.2381 148.194L83.2511 136.715C83.6491 135.197 83.4331 133.614 82.6411 132.259C81.8491 130.903 80.5771 129.938 79.0591 129.54L67.5801 126.526C67.0901 126.397 66.5861 126.332 66.0841 126.332C63.4181 126.332 61.0821 128.136 60.4041 130.718L57.3911 142.197C56.9931 143.715 57.2091 145.298 58.0011 146.653C58.7931 148.008 60.0651 148.974 61.5831 149.372Z" fill="white"/>
<path d="M72.5259 175.969L70.4929 178.642L71.7919 181.74L75.1229 182.163L77.1559 179.49L75.8569 176.392L72.5259 175.969Z" fill="#FF4949"/>
<path d="M60.4761 174.423L58.4431 177.096L59.7421 180.193L63.0731 180.617L65.1061 177.944L63.8071 174.846L60.4761 174.423Z" fill="#FF4949"/>
<path d="M25.002 101.567L25.945 101.873L25.954 100.881L19.456 91.848L18.708 90.8079L17.491 89.1169L17.085 89.4099L16.835 89.59L16.54 89.8019L25.002 101.567Z" fill="#00C659"/>
<path d="M30.3309 60.499L29.2619 60.017L28.3159 62.1179C28.7269 62.1489 29.1449 62.1779 29.5619 62.2079L30.3309 60.499Z" fill="#00C659"/>
<path d="M29.2501 53.5839L28.6531 54.9089L31.8271 51.9839L32.1561 51.6799L32.6511 51.2239L31.8561 50.3629L30.2881 51.8079L29.9621 52.1079L28.6521 53.3149L29.2501 53.5839Z" fill="#00C659"/>
<path d="M51.0731 110.669C52.4052 110.669 53.4851 109.589 53.4851 108.257C53.4851 106.925 52.4052 105.845 51.0731 105.845C49.741 105.845 48.6611 106.925 48.6611 108.257C48.6611 109.589 49.741 110.669 51.0731 110.669Z" fill="white"/>
<path d="M32.9921 83.5359L34.0431 81.2L35.6591 81.9279L34.8801 83.6569C39.1941 83.9169 43.7821 84.0729 48.5091 84.0729C71.4851 84.0729 91.2881 80.4369 91.2881 78.6729C91.2881 76.9099 71.4851 73.2739 48.5091 73.2739C43.3571 73.2739 38.3681 73.4579 33.7231 73.7609L33.8311 73.8099L29.5701 83.275C30.6871 83.369 31.8281 83.4559 32.9921 83.5359Z" fill="#FF9E77"/>
<path d="M68.4661 163.097L65.2361 164.014L64.415 167.27L66.824 169.609L70.0551 168.692L70.876 165.436L68.4661 163.097Z" fill="#FF4949"/>
<path d="M57.6651 187.648L60.4441 185.765L60.2031 182.415L57.1821 180.95L54.4011 182.833L54.6431 186.183L57.6651 187.648Z" fill="#FF4949"/>
<path d="M18.3499 181.848L21.3709 183.314L24.1509 181.43L23.9099 178.081L20.8879 176.615L18.1079 178.498L18.3499 181.848Z" fill="#FF4949"/>
<path d="M31.0621 183.116L31.8841 179.859L29.4741 177.52L26.2431 178.438L25.4221 181.694L27.8321 184.033L31.0621 183.116Z" fill="#FF4949"/>
<path d="M18.1942 173.127L20.9742 171.244L20.7332 167.893L17.7112 166.428L14.9312 168.311L15.1721 171.662L18.1942 173.127Z" fill="#FF4949"/>
<path d="M20.5781 75.0289L22.2731 82.5309C23.2101 82.6439 24.1731 82.7539 25.1671 82.8589L24.8051 81.2589L24.8011 81.262L24.7261 80.9099L23.3211 74.692L23.3141 74.663L23.3091 74.666L23.2651 74.4579L23.2271 74.28L20.4911 62.1719L20.4971 62.14L20.6061 61.6199C19.6691 61.5189 18.7531 61.415 17.8521 61.309L17.6721 62.1699L20.5231 74.791L20.5781 75.0289Z" fill="#00C659"/>
<path d="M48.5109 190.279C69.6899 190.279 85.1739 184.735 85.1739 180.39V179.409L91.2899 79.312C88.2289 81.404 65.9169 84.381 48.5109 84.381C44.1179 84.381 39.4139 84.191 34.7849 83.874L29.5479 95.506L28.4669 96.118L29.3829 100.175V100.349L37.9529 88.753L39.3789 89.807L30.5279 101.781L29.3829 102.138L29.3839 106.878L37.9529 95.283L39.3789 96.337L30.5279 108.311L29.3839 108.667L29.3849 113.543L37.9529 101.949L39.3789 103.003L39.2899 103.123L30.5289 114.977L29.3859 115.333L29.3869 120.071L37.9539 108.478L39.3799 109.533L39.2909 109.653L30.5299 121.506L29.3879 121.863L29.3889 126.6L33.5169 121.014L33.8739 118.528L35.2119 118.72L37.9549 115.008L39.3809 116.063L39.2919 116.183L35.2089 121.708L33.9179 130.705C34.6619 130.908 35.3669 131.228 36.0069 131.664L37.0359 124.494L38.7909 124.746L37.5959 133.073L39.9469 135.424L40.5809 131.004L42.3359 131.256L41.5129 136.99L43.6989 139.176L43.9629 137.34L45.7169 137.592L45.2649 140.743L46.3519 141.83C47.6839 143.161 48.4169 144.932 48.4169 146.814C48.4169 148.697 47.6839 150.467 46.3519 151.798L43.4499 154.7V169.677L48.4229 177.137L51.4259 175.103L54.7589 176.721L55.0249 180.414L51.9589 182.493L48.6259 180.875L48.5929 180.419H47.1259L40.0259 169.77V169.132L38.6749 170.047L35.3419 168.429L35.0759 164.736L38.1419 162.657L40.0249 163.571V163.272L38.8849 162.909L38.8559 162.869L37.3489 160.802L37.0369 161.114C35.7059 162.445 33.9359 163.179 32.0529 163.179C30.1699 163.179 28.3999 162.446 27.0689 161.114L17.7539 151.8C15.0059 149.052 15.0059 144.579 17.7539 141.831L20.9879 138.597L20.4089 138.298L21.2219 136.722L21.3549 136.79L22.3049 137.28L24.3169 135.268L16.6609 131.321L17.4739 129.746L17.6069 129.814L25.6339 133.952L27.0699 132.517C27.3159 132.271 27.5809 132.053 27.8549 131.849L27.4919 131.172L26.2559 131.367L26.2119 131.345L13.0209 124.543L13.8339 122.968L13.9669 123.036L26.6299 129.564L25.9659 128.327V127.152L24.8189 126.779L24.7909 126.739L16.1249 114.69L17.5639 113.656L17.6509 113.777L25.9649 125.336V118.16L24.8179 117.786L24.7899 117.747L16.1239 105.699L17.5629 104.664L17.6499 104.785L25.9639 116.344V109.627L24.8169 109.253L24.7889 109.214L16.1229 97.166L17.5619 96.131L17.6489 96.253L25.9629 107.811V102.195L24.8159 101.822L24.7879 101.782L16.1219 89.734L16.6019 89.389L12.4629 85.823L13.6199 84.48L24.5329 93.882L23.1839 87.91L22.0049 87.816L21.9679 87.784L14.8399 81.643C10.1649 80.867 6.79391 80.036 5.73291 79.312L11.8489 179.409V180.39C11.8469 184.734 27.3309 190.279 48.5109 190.279ZM63.2069 180.937L63.1209 180.925L59.5319 180.468L58.0989 177.053L60.3419 174.103L60.4279 174.115L64.0169 174.571L65.4499 177.987L63.2069 180.937ZM64.0819 167.364L64.9869 163.772L68.5509 162.761L71.2089 165.342L70.3029 168.934L66.7389 169.945L64.0819 167.364ZM75.2569 182.483L75.1709 182.471L71.5819 182.015L70.1489 178.599L72.3909 175.649L72.4769 175.661L76.0659 176.117L77.4989 179.533L75.2569 182.483ZM75.3879 174.669L72.0549 173.051L71.7889 169.357L74.8559 167.279L78.1889 168.897L78.4549 172.59L75.3879 174.669ZM79.9449 165.086L76.6119 163.468L76.3459 159.775L79.4129 157.696L82.7459 159.314L83.0119 163.008L79.9449 165.086ZM58.0069 103.589L64.0879 93.961C65.2179 92.172 67.1559 91.105 69.2739 91.105C70.4289 91.105 71.5589 91.433 72.5399 92.052L82.1679 98.133C85.0249 99.937 85.8809 103.729 84.0769 106.587L77.9959 116.215C76.8659 118.003 74.9269 119.072 72.8089 119.072C71.6529 119.072 70.5239 118.744 69.5429 118.124L59.9149 112.043C57.0589 110.238 56.2029 106.446 58.0069 103.589ZM56.9079 142.07L59.9209 130.591C60.6559 127.789 63.1899 125.832 66.0839 125.832C66.6289 125.832 67.1749 125.903 67.7069 126.042L79.1859 129.056C80.8339 129.489 82.2129 130.536 83.0729 132.007C83.9319 133.478 84.1669 135.195 83.7349 136.842L80.7219 148.322C79.9869 151.124 77.4519 153.081 74.5589 153.081C74.0139 153.081 73.4679 153.01 72.9359 152.871L61.4569 149.857C59.8099 149.424 58.4299 148.377 57.5699 146.906C56.7109 145.434 56.4749 143.717 56.9079 142.07ZM52.0099 86.169C52.6099 86.169 53.0969 86.657 53.0969 87.257C53.0969 87.857 52.6089 88.345 52.0099 88.345C51.4099 88.345 50.9229 87.857 50.9229 87.257C50.9229 86.657 51.4109 86.169 52.0099 86.169ZM51.0729 105.544C52.5689 105.544 53.7849 106.761 53.7849 108.257C53.7849 109.753 52.5679 110.97 51.0729 110.97C49.5779 110.97 48.3609 109.753 48.3609 108.257C48.3609 106.761 49.5769 105.544 51.0729 105.544ZM52.9609 126.701C52.9609 127.263 52.5039 127.72 51.9419 127.72C51.3799 127.72 50.9229 127.262 50.9229 126.701C50.9229 126.139 51.3799 125.681 51.9419 125.681C52.5039 125.681 52.9609 126.139 52.9609 126.701ZM43.5159 94.382C43.5159 93.713 44.0599 93.169 44.7279 93.169C45.3959 93.169 45.9399 93.713 45.9399 94.382C45.9399 95.051 45.3959 95.595 44.7279 95.595C44.0599 95.595 43.5159 95.051 43.5159 94.382ZM47.2909 121.595C45.8299 121.595 44.6409 120.406 44.6409 118.945C44.6409 117.484 45.8299 116.295 47.2909 116.295C48.7519 116.295 49.9409 117.485 49.9409 118.945C49.9409 120.406 48.7529 121.595 47.2909 121.595ZM51.9539 172.13L48.6209 170.512L48.3549 166.818L51.4219 164.74L54.7549 166.358L55.0209 170.051L51.9539 172.13ZM57.1569 180.604L60.4899 182.221L60.7559 185.915L57.6899 187.993L54.3559 186.377L54.0899 182.682L57.1569 180.604ZM41.1919 178.628L44.5249 180.245L44.7909 183.939L41.7239 186.018L38.3919 184.4L38.1259 180.706L41.1919 178.628ZM38.2939 175.275L38.5599 178.969L35.4929 181.047L32.1599 179.43L31.8939 175.736L34.9599 173.657L38.2939 175.275ZM27.0059 168.979L30.6429 168.271L33.0739 171.066L31.8689 174.57L28.2329 175.278L25.8019 172.482L27.0059 168.979ZM25.9949 178.196L29.5589 177.184L32.2169 179.765L31.3109 183.358L27.7469 184.369L25.0889 181.788L25.9949 178.196ZM24.4619 181.581L21.3959 183.66L18.0629 182.042L17.7969 178.348L20.8639 176.27L24.1969 177.888L24.4619 181.581ZM17.6869 166.083L21.0199 167.7L21.2859 171.394L18.2199 173.472L14.8869 171.856L14.6209 168.161L17.6869 166.083ZM11.2659 141.954L8.3909 97.704L8.69092 97.684L11.5659 141.934L11.2659 141.954ZM9.4209 94.179L9.72092 94.159L12.5959 138.409L12.2959 138.429L9.4209 94.179Z" fill="#FF9E77"/>
<path d="M31.6421 174.308L32.7341 171.132L30.5311 168.599L27.2341 169.241L26.1421 172.416L28.3451 174.95L31.6421 174.308Z" fill="#FF4949"/>
<path d="M51.2231 126.701C51.2231 127.097 51.5461 127.42 51.9421 127.42C52.3391 127.42 52.6612 127.098 52.6612 126.701C52.6612 126.305 52.3381 125.982 51.9421 125.982C51.5461 125.982 51.2231 126.304 51.2231 126.701Z" fill="white"/>
<path d="M51.446 165.086L48.666 166.968L48.908 170.319L51.929 171.785L54.709 169.901L54.468 166.551L51.446 165.086Z" fill="#FF4949"/>
<path d="M47.2909 121.295C48.5888 121.295 49.6409 120.243 49.6409 118.945C49.6409 117.647 48.5888 116.595 47.2909 116.595C45.993 116.595 44.9409 117.647 44.9409 118.945C44.9409 120.243 45.993 121.295 47.2909 121.295Z" fill="white"/>
<path d="M44.7289 95.294C45.2326 95.294 45.6409 94.8857 45.6409 94.382C45.6409 93.8783 45.2326 93.47 44.7289 93.47C44.2252 93.47 43.8169 93.8783 43.8169 94.382C43.8169 94.8857 44.2252 95.294 44.7289 95.294Z" fill="white"/>
<path d="M35.4691 180.702L38.2491 178.819L38.007 175.468L34.9861 174.003L32.2061 175.886L32.4471 179.237L35.4691 180.702Z" fill="#FF4949"/>
<path d="M41.699 185.672L44.48 183.789L44.238 180.438L41.217 178.973L38.437 180.856L38.678 184.207L41.699 185.672Z" fill="#FF4949"/>
<path d="M7.73804 63.038L18.718 72.497L19.707 72.576L19.483 71.609L8.50403 62.15L7.73804 63.038Z" fill="#00C659"/>
<path d="M24.6822 79.364L26.9592 74.307C25.8122 74.418 24.6981 74.535 23.6191 74.658L24.6822 79.364Z" fill="#FF9E77"/>
<path d="M4.10397 15.938L3.41797 16.889L15.17 25.369L16.162 25.363L15.856 24.418L4.10397 15.938Z" fill="#00C659"/>
<path d="M2.10202 9.92395L1.41602 10.8749L13.167 19.3549L14.159 19.3479L13.854 18.4039L2.10202 9.92395Z" fill="#00C659"/>
<path d="M23.4071 33.382L28.5061 19.8159L27.4091 19.4039L22.3091 32.9689L22.5771 33.9249L23.4071 33.382Z" fill="#00C659"/>
<path d="M5.93405 21.428L5.24805 22.379L16.9991 30.86L17.9921 30.853L17.6861 29.909L5.93405 21.428Z" fill="#00C659"/>
<path d="M14.2082 14.7209L10.1832 0.799927L9.05615 1.12494L13.0811 15.0469L13.8672 15.653L14.2082 14.7209Z" fill="#00C659"/>
<path d="M21.5689 27.914L26.6679 14.348L25.571 13.936L20.4709 27.501L20.739 28.457L21.5689 27.914Z" fill="#00C659"/>
<path d="M19.6991 22.211L24.7991 8.646L23.701 8.23401L18.6021 21.799L18.869 22.755L19.6991 22.211Z" fill="#00C659"/>
<path d="M17.943 17.0549L23.042 3.4899L21.944 3.0769L16.845 16.6419L17.112 17.5979L17.943 17.0549Z" fill="#00C659"/>
<path d="M16.214 14.869L16.841 0.390961L15.669 0.339966L15.042 14.818L15.594 15.643L16.214 14.869Z" fill="#00C659"/>
<path d="M18.9279 36.5759L19.92 36.5689L19.614 35.6249L15.5759 32.7109L16.5419 34.8539L18.9279 36.5759Z" fill="#00C659"/>
<path d="M20.902 45.2579L18.804 40.6039L18.557 40.056L17.591 37.9119L17.344 37.364L16.302 35.051L16.054 34.5029L15.088 32.3589L14.956 32.0649L14.787 32.1409L13.887 32.5479L14.148 33.127L14.395 33.6749L15.438 35.9879L15.685 36.5359L16.651 38.6799L16.898 39.228L19.842 45.7589L20.696 46.2429L20.902 45.2579Z" fill="#00C659"/>
<path d="M9.45407 32.0399L8.76807 32.9919L16.1641 38.3279L15.1971 36.1849L9.45407 32.0399Z" fill="#00C659"/>
<path d="M13.902 53.7639L16.809 60.213L17.673 60.702V60.7L17.876 59.7269L15.113 53.5949L14.989 53.3209L11.924 46.5189L10.854 47.0009L13.777 53.486L13.902 53.7639Z" fill="#00C659"/>
<path d="M18.1921 59.697L17.9571 60.808L17.8951 61.102C18.7901 61.209 19.7051 61.315 20.6481 61.416L20.6991 61.174L20.9241 60.028L20.9421 60.012L22.4631 52.74L22.5211 52.463L23.4251 48.142L23.4971 47.776L23.5031 47.771L24.7861 41.6339L16.2411 16.194H13.4321L21.9711 41.616L21.9631 41.656L21.2171 45.2249L21.2251 45.244L20.9151 46.7119L20.9071 46.708L19.7681 52.1519L19.7741 52.1649L19.6471 52.7639L19.5871 53.0479L19.4631 53.633L19.4581 53.63L18.1901 59.695L18.1921 59.697Z" fill="#00C659"/>
<path d="M18.72 52.866L19.129 53.098L19.249 53.166L19.266 53.0829L19.325 52.799L19.454 52.1849L13.505 38.986L12.436 39.468L18.391 52.6799L18.72 52.866Z" fill="#00C659"/>
<path d="M14.507 31.939L7.86301 27.145L7.177 28.096L13.661 32.775L13.491 32.397L14.507 31.939Z" fill="#00C659"/>
<path d="M18.0791 38.2639L19.0451 40.4069L20.5191 41.4709L21.5121 41.465L21.2061 40.52L18.0791 38.2639Z" fill="#00C659"/>
<path d="M17.647 88.82L19.679 91.644L23.864 95.249L24.853 95.328L24.629 94.361L13.65 84.902L12.884 85.791L16.851 89.208L17.56 88.698L17.647 88.82Z" fill="#00C659"/>
<path d="M14.0669 60.6039L7.38293 54.8459L7.07095 54.577L6.70493 54.262L6.29694 54.736L5.94595 55.1439L5.93994 55.1509L11.9009 60.2859C12.5949 60.3939 13.3219 60.4999 14.0669 60.6039Z" fill="#00C659"/>
<path d="M23.1131 87.603L23.0831 87.469L22.8901 86.636L17.5921 82.072C16.8361 81.961 16.1081 81.849 15.4041 81.735L22.1251 87.525L23.1131 87.603Z" fill="#00C659"/>
<path d="M25.3599 39.254L30.459 25.689L29.3619 25.277L24.2629 38.841L24.5299 39.797L25.3599 39.254Z" fill="#00C659"/>
<path d="M35.6251 168.237L38.6461 169.703L40.0211 168.771V163.905L38.1631 163.003L35.3831 164.887L35.6251 168.237Z" fill="#FF4949"/>
<path d="M38.015 108.901L29.403 120.555L29.3979 121.548L30.3449 121.251L38.959 109.598L38.015 108.901Z" fill="#00C659"/>
<path d="M16.54 114.759L25.002 126.525L25.945 126.831L25.954 125.839L17.491 114.075L16.54 114.759Z" fill="#00C659"/>
<path d="M38.015 95.703L29.403 107.358L29.3979 108.35L30.3449 108.054L38.959 96.4L38.015 95.703Z" fill="#00C659"/>
<path d="M38.015 89.173L29.403 100.827L29.3979 101.82L30.3449 101.524L38.959 89.87L38.015 89.173Z" fill="#00C659"/>
<path d="M16.54 105.767L25.002 117.531L25.945 117.839L25.954 116.847L17.491 105.081L16.54 105.767Z" fill="#00C659"/>
<path d="M38.0159 102.37L29.403 114.025L29.3979 115.017L30.3449 114.721L38.959 103.067L38.0159 102.37Z" fill="#00C659"/>
<path d="M21.052 78.482L20.281 75.068C19.329 75.194 18.417 75.324 17.541 75.457L21.052 78.482Z" fill="#FF9E77"/>
<path d="M11.145 78.066L15.135 81.503C15.841 81.624 16.577 81.744 17.348 81.861L11.91 77.177L11.145 78.066Z" fill="#00C659"/>
<path d="M25.962 100.208L24.928 95.6339L23.742 95.5399L23.705 95.5089L20.427 92.6849L25.962 100.378V100.208Z" fill="#FF9E77"/>
<path d="M18.1431 82.151L22.7851 86.149L21.9971 82.661C20.6591 82.497 19.3731 82.326 18.1431 82.151Z" fill="#FF9E77"/>
<path d="M16.891 75.293L10.14 69.4769L9.37402 70.3649L15.371 75.5309L15.634 75.7579L20.353 79.8239L21.343 79.903L21.119 78.9349L17.149 75.515L16.891 75.293Z" fill="#00C659"/>
<path d="M5.73193 78.674C5.73193 79.397 9.05895 80.433 14.562 81.405L10.7229 78.098L11.8799 76.7549L17.9049 81.9449C19.1799 82.1349 20.533 82.318 21.959 82.494L21.4429 80.2119L20.2319 80.116L20.1949 80.0839L15.2509 75.825C9.33995 76.83 5.73193 77.922 5.73193 78.674Z" fill="#FF9E77"/>
<path d="M16.54 97.2329L25.002 108.998L25.945 109.306L25.954 108.313L17.491 96.549L16.54 97.2329Z" fill="#00C659"/>
<path d="M32.611 73.589L32.368 73.479L32.309 73.611L32.194 73.866L28.019 83.14C28.427 83.177 28.841 83.213 29.256 83.249L33.438 73.961L33.092 73.805L32.611 73.589Z" fill="#00C659"/>
<path d="M38.9589 116.128L38.0149 115.431L35.5469 118.771L35.6259 118.782L35.2959 121.084L38.9589 116.128Z" fill="#00C659"/>
<path d="M22.335 55.186L23.321 55.075L26.228 52.395L26.551 52.098L33.977 45.253L33.182 44.391L24.64 52.265L24.316 52.563L22.527 54.212L22.335 55.186Z" fill="#00C659"/>
<path d="M26.1049 80.5219L25.075 81.106L25.4779 82.892C26.2049 82.968 26.9469 83.04 27.7009 83.111L31.851 73.8929C30.877 73.9649 29.9219 74.042 28.9849 74.124L26.1049 80.5219Z" fill="#FF9E77"/>
<path d="M23.7141 48.224L23.5801 48.905L24.5671 48.793L35.2231 38.972L34.4281 38.11L23.7761 47.927L23.7141 48.224Z" fill="#00C659"/>
<path d="M36.4611 33.112L35.6661 32.249L25.0101 42.071L24.8191 43.044L25.8051 42.932L36.4611 33.112Z" fill="#00C659"/>
<path d="M30.752 66.6129L27.415 74.0259L27.302 74.275L24.803 79.827L25.009 80.799L25.872 80.309L28.644 74.1509L28.757 73.9019L31.822 67.0939L30.752 66.6129Z" fill="#00C659"/>
<path d="M28.091 55.427L28.853 53.735L28.412 53.537L28.115 53.403L27.784 53.254L27.434 54.031L27.12 54.728L25.893 57.454L25.579 58.151L23.959 61.749C24.367 61.787 24.78 61.824 25.195 61.86L27.777 56.125L28.091 55.427Z" fill="#00C659"/>
<path d="M48.5111 51.1141C43.4561 51.1141 37.9981 51.3131 32.6311 51.6521L33.0751 51.2431L31.8741 49.9401L29.8081 51.8441C28.8771 51.9121 27.9541 51.9841 27.0371 52.0591L34.4021 45.2721L33.2011 43.9681L24.1511 52.3091C23.7081 52.3501 23.2721 52.3921 22.8351 52.4351L23.5081 49.2151L24.6981 49.0801L35.6471 38.9901L34.4461 37.6861L23.8831 47.4211L24.7331 43.3551L25.9371 43.2191L36.8861 33.1291L35.6851 31.8251L25.0891 41.5911L24.5931 40.1151L25.6071 39.4511L30.8471 25.5131L29.1881 24.8891L24.0601 38.5281L22.6241 34.2521L23.6541 33.5781L28.8941 19.6401L27.2351 19.0161L22.0971 32.6831L20.7871 28.7831L21.8161 28.1101L27.0561 14.1721L25.3971 13.5481L20.2601 27.2131L18.8801 23.1051L19.9471 22.4071L25.1871 8.47009L23.5281 7.84509L18.3671 21.5741L17.1451 17.9351L18.1911 17.2511L23.4311 3.31308L21.7711 2.69009L16.6231 16.3841L16.4931 15.9951L16.4591 15.8931H15.7791L16.5121 14.9791L17.1551 0.103088L15.3841 0.0270996L14.7421 14.8541L14.7401 14.9031L15.4011 15.8941H14.1001L14.5251 14.7321L10.3901 0.428101L8.68713 0.920105L12.8221 15.2241L13.6901 15.8941H13.0171L13.6971 17.9191L2.03613 9.50409L0.998108 10.9421L13.0331 19.6261L13.0731 19.6551L14.2771 19.6461L15.7231 23.9501L4.03912 15.5181L3.00113 16.9561L15.0361 25.6411L15.0761 25.6701L16.2971 25.6621L17.5711 29.4561L5.86813 21.0111L4.83011 22.4481L16.8651 31.1331L16.9051 31.1621L18.1411 31.1531L19.4881 35.1651L15.3301 32.1651L15.1071 31.6711L14.8231 31.7991L7.79611 26.7281L6.75812 28.1661L13.9081 33.3261L14.9501 35.6391L9.38712 31.6241L8.34912 33.0621L16.4101 38.8791L19.5881 45.9301L19.6081 45.9751L20.6321 46.5551L19.5581 51.6901L13.6561 38.5931L12.0401 39.3211L18.1381 52.8511L18.1581 52.8961L18.2131 52.9271C17.2151 53.0431 16.2471 53.1631 15.3011 53.2851L12.0741 46.1261L10.4581 46.8541L13.4681 53.5321C11.2471 53.8431 9.21912 54.1711 7.44812 54.5101L6.67413 53.8431L5.81613 54.8391C2.23113 55.6111 0.0571289 56.4201 0.0571289 57.1761L7.92014 192.047C7.92014 196.964 25.1661 202.973 48.5121 202.973C71.8581 202.973 89.1031 196.963 89.1031 192.047L96.9661 57.1761C96.9651 54.4741 69.3231 51.1141 48.5111 51.1141ZM29.9621 52.1091L30.2881 51.8091L31.8561 50.3641L32.6511 51.2261L32.1561 51.6821L31.8261 51.9861L28.6531 54.9101L29.2491 53.5851L28.6521 53.3161L29.9621 52.1091ZM29.4611 62.4321L24.3821 73.7141L23.5191 74.2041L23.3131 73.2331L28.2201 62.3341C28.6321 62.3671 29.0461 62.4001 29.4611 62.4321ZM28.3161 62.1191L29.2621 60.0181L30.3311 60.4991L29.5611 62.2081C29.1451 62.1791 28.7271 62.1501 28.3161 62.1191ZM33.7251 73.7621C38.3701 73.4591 43.3591 73.2751 48.5101 73.2751C71.4861 73.2751 91.2891 76.9111 91.2891 78.6741C91.2891 80.4381 71.4861 84.0741 48.5101 84.0741C43.7831 84.0741 39.1951 83.9181 34.8811 83.6581L35.6591 81.9291L34.0431 81.2011L32.9911 83.5371C31.8271 83.4571 30.6861 83.3701 29.5711 83.2761L33.8331 73.8111L33.7251 73.7621ZM5.73212 79.3121C6.79212 80.0371 10.1641 80.8671 14.8381 81.6431L21.9661 87.7841L22.0031 87.8161L23.1821 87.9101L24.5321 93.8821L13.6181 84.4801L12.4611 85.8231L16.6001 89.3891L16.1201 89.7341L24.7861 101.782L24.8141 101.822L25.9611 102.195V107.811L17.6471 96.2531L17.5601 96.1311L16.1211 97.1661L24.7871 109.214L24.8151 109.253L25.9621 109.627V116.345L17.6481 104.785L17.5611 104.664L16.1221 105.699L24.7881 117.747L24.8161 117.786L25.9631 118.16V125.336L17.6491 113.778L17.5621 113.657L16.1231 114.691L24.7891 126.74L24.8171 126.78L25.9641 127.153V128.328L26.6281 129.565L13.9651 123.037L13.8321 122.969L13.0191 124.544L26.2101 131.346L26.2541 131.369L27.4901 131.174L27.8531 131.851C27.5791 132.055 27.3141 132.273 27.0681 132.519L25.6321 133.954L17.6051 129.816L17.4721 129.748L16.6591 131.323L24.3151 135.27L22.3031 137.282L21.3531 136.792L21.2201 136.724L20.4071 138.3L20.9861 138.599L17.7521 141.833C15.0041 144.581 15.0041 149.054 17.7521 151.802L27.0671 161.116C28.3981 162.447 30.1691 163.18 32.0511 163.18C33.9341 163.18 35.7041 162.447 37.0351 161.116L37.3471 160.804L38.8541 162.871L38.8831 162.911L40.0231 163.274V163.573V163.906V168.772V169.134V169.772L47.1231 180.421H48.5901H48.8911H50.6091L48.6831 177.531L48.4221 177.139L43.4491 169.68V154.703L46.3511 151.801C47.6831 150.47 48.4161 148.699 48.4161 146.817C48.4161 144.935 47.6831 143.164 46.3511 141.833L45.2641 140.746L45.7161 137.595L43.9621 137.343L43.6981 139.179L41.5121 136.992L42.3351 131.258L40.5801 131.006L39.9461 135.426L37.5951 133.075L38.7901 124.748L37.0351 124.496L36.0061 131.666C35.3661 131.23 34.6601 130.91 33.9171 130.707L35.2091 121.71L39.2921 116.185L39.3811 116.065L37.9551 115.01L35.2121 118.722L33.8741 118.53L33.5171 121.016L29.3891 126.602V121.865L30.5311 121.508L39.2921 109.654L39.3811 109.534L37.9551 108.479L29.3881 120.072V115.334L30.5311 114.978L39.2921 103.124L39.3811 103.004L37.9551 101.95L29.3871 113.544L29.3861 108.668L30.5301 108.311L39.3811 96.3371L37.9551 95.2831L29.3861 106.878L29.3851 102.138L30.5301 101.781L39.3811 89.8071L37.9551 88.7531L29.3851 100.349V100.175L28.4691 96.1181L29.5501 95.5061L34.7871 83.8741C39.4161 84.1911 44.1211 84.3811 48.5131 84.3811C65.9191 84.3811 88.2311 81.4041 91.2921 79.3121L85.1761 179.409V180.39C85.1761 184.735 69.6931 190.279 48.5131 190.279C27.3331 190.279 11.8501 184.735 11.8501 180.39V179.409L5.73212 79.3121ZM17.6731 62.1681L17.8531 61.3071C18.7531 61.4131 19.6691 61.5181 20.6071 61.6181L20.4981 62.1381L20.4921 62.1701L23.2281 74.2781L23.2661 74.4571L23.3101 74.6651L23.3151 74.6621L23.3221 74.6911L24.7271 80.9091L24.8021 81.2611L24.8061 81.2591L25.1681 82.8591C24.1741 82.7541 23.2111 82.6441 22.2741 82.5311L20.5791 75.0291L20.5251 74.7881L17.6731 62.1681ZM19.7071 72.5771L18.7181 72.4981L7.73914 63.0391L8.50513 62.1501L19.4841 71.6091L19.7071 72.5771ZM17.6131 63.2641L14.9181 60.9421C15.7731 61.0541 16.6531 61.1641 17.5541 61.2721L17.3731 62.1391L17.3671 62.1711L17.6131 63.2641ZM17.6841 63.7211L17.9081 64.6881L16.9181 64.6091L12.2301 60.5701C12.9221 60.6711 13.6411 60.7701 14.3731 60.8681L17.6841 63.7211ZM23.6441 61.7181C22.7561 61.6341 21.8851 61.5471 21.0321 61.4571L22.1251 61.3331L25.0161 58.6681L23.6441 61.7181ZM23.8691 61.9501C24.2781 61.9891 24.6901 62.0271 25.1031 62.0651L22.9031 66.9501L22.0401 67.4401L21.8341 66.4691L23.8691 61.9501ZM21.9951 61.0461L21.0101 61.1581L21.2161 60.1691L26.5581 55.2461L25.3311 57.9721L21.9951 61.0461ZM23.5541 61.9191L21.6811 66.0791L20.7981 62.1691L20.9061 61.6511C21.7761 61.7421 22.6591 61.8321 23.5541 61.9191ZM34.4661 83.8511L29.3141 95.2931L28.4511 95.7831L28.2451 94.8121L33.2201 83.7621C33.6341 83.7931 34.0501 83.8221 34.4661 83.8511ZM33.3111 83.5581L34.1941 81.5971L35.2631 82.0791L34.5611 83.6391C34.1411 83.6131 33.7261 83.5861 33.3111 83.5581ZM28.0861 94.4341L26.6341 88.0041L27.7211 87.3881L29.4921 83.4541C30.6171 83.5551 31.7551 83.6501 32.9021 83.7371L28.0861 94.4341ZM27.4871 87.1751L26.6241 87.6651L26.4181 86.6941L27.9421 83.3101C28.3511 83.3491 28.7631 83.3871 29.1761 83.4251L27.4871 87.1751ZM26.2551 86.3261L25.5181 83.0641C26.2131 83.1381 26.9161 83.2101 27.6271 83.2791L26.2551 86.3261ZM29.0871 100.209V128.328L29.0971 128.346V128.487L29.1621 128.467L30.3441 130.669C29.5361 130.87 28.7711 131.207 28.0811 131.679L26.2621 128.289L26.2591 100.175L23.4941 87.9341H23.5001L23.2641 86.9131L22.3121 82.6991C23.2561 82.8131 24.2211 82.9241 25.2071 83.0301L29.0871 100.209ZM36.6811 132.871L37.2381 133.428L37.5031 133.693L39.8541 136.044L40.1191 136.309L41.1551 137.345L41.4201 137.61L43.6061 139.796L43.8711 140.061L44.9071 141.097L45.1721 141.362L45.9941 142.184C47.2311 143.421 47.9121 145.066 47.9121 146.815C47.9121 148.564 47.2301 150.209 45.9941 151.446L43.2711 154.169L43.0631 154.377L40.3201 157.12L40.0201 157.42L38.3151 159.125L38.1001 159.34L37.2601 160.18L37.0461 160.394L36.6791 160.761C35.4421 161.997 33.7981 162.679 32.0491 162.679C30.2991 162.679 28.6551 161.997 27.4181 160.761L18.1041 151.447C15.5511 148.893 15.5511 144.739 18.1041 142.185L21.4511 138.838L21.6741 138.615L22.5451 137.744L22.7681 137.521L24.7801 135.509L25.0031 135.286L25.8731 134.416L26.0961 134.193L27.4191 132.871C27.6301 132.66 27.8561 132.472 28.0891 132.294C28.1651 132.236 28.2401 132.178 28.3181 132.124C29.0051 131.645 29.7721 131.308 30.5861 131.123C30.6821 131.101 30.7771 131.08 30.8741 131.063C31.2581 130.994 31.6511 130.954 32.0501 130.954C32.0631 130.954 32.0751 130.956 32.0881 130.956C32.1891 130.957 32.2891 130.966 32.3891 130.971C32.7841 130.991 33.1721 131.045 33.5501 131.133C33.6481 131.156 33.7461 131.179 33.8431 131.206C34.5911 131.418 35.2921 131.764 35.9231 132.23C36.0141 132.297 36.1081 132.361 36.1971 132.433C36.3641 132.57 36.5261 132.716 36.6811 132.871ZM36.2771 131.87L37.2861 124.837L38.4471 125.003L37.3261 132.811L37.0331 132.518C36.7971 132.28 36.5411 132.069 36.2771 131.87ZM40.2081 135.691L40.8321 131.346L41.9931 131.512L41.2441 136.727L40.2081 135.691ZM43.9601 139.444L44.2131 137.683L45.3741 137.849L44.9961 140.48L43.9601 139.444ZM48.3871 177.632L48.7241 178.138L50.0461 180.121H48.8671H48.5661H47.2811L40.3211 169.681V168.931V168.569V164.051V163.718V157.829L43.1471 155.003V169.772L48.3871 177.632ZM38.6141 159.535L40.0211 158.128V161.465L38.6141 159.535ZM40.0141 161.964L40.0121 162.956L39.0661 162.655L37.5601 160.589L38.4001 159.749L40.0141 161.964ZM21.2081 138.376L20.8111 138.171L21.3481 137.128L22.0791 137.505L21.2081 138.376ZM24.5371 135.046L17.0621 131.193L17.5991 130.151L25.4071 134.176L24.5371 135.046ZM29.4361 128.381L30.5281 128.04L32.9831 124.718L32.1591 130.458C32.1221 130.458 32.0871 130.453 32.0501 130.453C31.5651 130.453 31.0891 130.503 30.6251 130.598L29.4361 128.381ZM33.6221 130.635C33.2431 130.549 32.8551 130.496 32.4611 130.473L33.3601 124.21L33.4501 123.583L33.8011 121.134L33.8911 120.508L34.1261 118.87L35.0081 118.996L35.2871 119.036L35.2711 119.144L34.9191 121.593L34.8291 122.22L33.6221 130.635ZM33.0731 124.092L30.3451 127.783L29.3971 128.079L29.4021 127.086L33.4241 121.644L33.0731 124.092ZM27.2831 130.901L26.3021 131.055L13.4221 124.414L13.9591 123.372L26.8401 130.013L27.2831 130.901ZM17.0851 89.4101L17.4921 89.1171L18.7081 90.8081L19.4561 91.8481L25.9541 100.881L25.9451 101.873L25.0021 101.566L16.5401 89.8011L16.8351 89.5891L17.0851 89.4101ZM12.8841 85.7911L13.6501 84.9021L24.6291 94.3601L24.8531 95.3271L23.8641 95.2481L19.6791 91.6431L17.6471 88.8191L17.5601 88.6971L16.8511 89.2071L12.8841 85.7911ZM20.4271 92.6851L23.7051 95.5091L23.7421 95.5411L24.9281 95.6351L25.9621 100.209V100.379L20.4271 92.6851ZM17.5921 82.0721L22.8901 86.6361L23.0831 87.4691L23.1141 87.6031L22.1251 87.5251L15.4041 81.7351C16.1081 81.8491 16.8361 81.9621 17.5921 82.0721ZM15.1351 81.5041L11.1451 78.0671L11.9101 77.1781L17.3481 81.8621C16.5771 81.7451 15.8411 81.6251 15.1351 81.5041ZM18.1431 82.1511C19.3731 82.3271 20.6591 82.4981 21.9961 82.6611L22.7841 86.1491L18.1431 82.1511ZM21.0521 78.4821L17.5411 75.4571C18.4171 75.3241 19.3291 75.1941 20.2811 75.0681L21.0521 78.4821ZM21.1191 78.9361L21.3431 79.9031L20.3531 79.8241L15.6341 75.7581L15.3711 75.5311L9.37411 70.3651L10.1401 69.4761L16.8911 75.2921L17.1491 75.5141L21.1191 78.9361ZM20.1951 80.0841L20.2321 80.1161L21.4421 80.2121L21.9581 82.4951C20.5311 82.3201 19.1781 82.1361 17.9041 81.9461L11.8791 76.7561L10.7221 78.0991L14.5611 81.4061C9.05813 80.4341 5.73111 79.3971 5.73111 78.6751C5.73111 77.9231 9.33913 76.8311 15.2511 75.8261L20.1951 80.0841ZM25.9541 108.313L25.9451 109.306L25.0021 108.998L16.5401 97.2331L17.4921 96.5481L25.9541 108.313ZM25.9541 116.847L25.9451 117.839L25.0021 117.531L16.5401 105.766L17.4921 105.08L25.9541 116.847ZM25.9541 125.84L25.9451 126.832L25.0021 126.525L16.5401 114.759L17.4921 114.074L25.9541 125.84ZM35.5471 118.772L38.0161 115.432L38.9591 116.129L35.2961 121.085L35.6271 118.783L35.5471 118.772ZM29.3981 121.549L29.4031 120.556L38.0161 108.902L38.9591 109.599L30.3461 121.252L29.3981 121.549ZM29.3981 115.018L29.4031 114.026L38.0161 102.372L38.9591 103.068L30.3461 114.722L29.3981 115.018ZM29.3981 108.351L29.4031 107.359L38.0161 95.7051L38.9591 96.4021L30.3461 108.056L29.3981 108.351ZM29.3981 101.82L29.4031 100.828L38.0161 89.1741L38.9591 89.8711L30.3461 101.525L29.3981 101.82ZM29.2551 83.2491C28.8401 83.2131 28.4261 83.1781 28.0181 83.1401L32.1931 73.8661L32.3081 73.6111L32.3671 73.4791L32.6111 73.5891L33.0901 73.8051L33.4361 73.9611L29.2551 83.2491ZM27.7031 83.1101C26.9481 83.0401 26.2071 82.9671 25.4801 82.8921L25.0771 81.1061L26.1071 80.5221L28.9881 74.1221C29.9261 74.0411 30.8811 73.9631 31.8541 73.8911L27.7031 83.1101ZM28.7571 73.9021L28.6451 74.1521L25.8731 80.3101L25.0101 80.8001L24.8041 79.8291L27.3041 74.2771L27.4161 74.0271L30.7531 66.6151L31.8221 67.0961L28.7571 73.9021ZM24.6821 79.3651L23.6191 74.6591C24.6981 74.5371 25.8111 74.4191 26.9591 74.3081L24.6821 79.3651ZM23.1921 72.7681L22.0631 67.7701L23.1361 67.1621L25.4181 62.0931C26.2391 62.1671 27.0661 62.2391 27.9001 62.3081L23.1921 72.7681ZM25.1951 61.8601C24.7811 61.8231 24.3671 61.7871 23.9591 61.7491L25.5791 58.1511L25.8931 57.4541L27.1201 54.7281L27.4341 54.0311L27.7841 53.2541L28.1161 53.4031L28.4131 53.5371L28.8541 53.7351L28.0921 55.4271L27.7781 56.1241L25.1951 61.8601ZM29.4821 52.1431L28.3551 53.1821L27.6341 52.8571L26.8721 54.5491L21.3221 59.6641L22.1921 55.5051L23.4521 55.3621L26.7141 52.3561C27.6221 52.2811 28.5461 52.2111 29.4821 52.1431ZM24.3161 52.5641L24.6401 52.2651L33.1821 44.3911L33.9771 45.2531L26.5501 52.0981L26.2281 52.3951L23.3211 55.0741L22.3351 55.1861L22.5271 54.2121L24.3161 52.5641ZM23.8221 52.6111L22.5521 53.7811L22.7761 52.7111C23.1221 52.6781 23.4701 52.6441 23.8221 52.6111ZM34.4281 38.1101L35.2231 38.9721L24.5671 48.7931L23.5811 48.9051L23.7151 48.2241L23.7771 47.9271L34.4281 38.1101ZM25.0101 42.0711L35.6661 32.2501L36.4611 33.1121L25.8051 42.9331L24.8191 43.0451L25.0101 42.0711ZM29.3621 25.2771L30.4601 25.6891L25.3611 39.2551L24.5301 39.7981L24.2631 38.8421L29.3621 25.2771ZM27.4091 19.4051L28.5071 19.8171L23.4081 33.3821L22.5771 33.9251L22.3101 32.9691L27.4091 19.4051ZM25.5711 13.9371L26.6691 14.3491L21.5701 27.9141L20.7391 28.4571L20.4721 27.5011L25.5711 13.9371ZM23.7011 8.2341L24.7991 8.64709L19.7001 22.2121L18.8691 22.7561L18.6021 21.8001L23.7011 8.2341ZM21.9441 3.07809L23.0421 3.49109L17.9431 17.0561L17.1121 17.5991L16.8451 16.6431L21.9441 3.07809ZM15.0421 14.8191L15.6691 0.341095L16.8401 0.39209L16.2131 14.8701L15.5931 15.6441L15.0421 14.8191ZM13.0811 15.0471L9.05612 1.1261L10.1821 0.800079L14.2071 14.7221L13.8671 15.6541L13.0811 15.0471ZM13.1671 19.3551L1.41611 10.8751L2.10211 9.9241L13.8541 18.4041L14.1601 19.3481L13.1671 19.3551ZM15.1701 25.3701L3.41913 16.8901L4.10513 15.9391L15.8571 24.4191L16.1631 25.3631L15.1701 25.3701ZM16.9991 30.8601L5.24811 22.3801L5.93411 21.4291L17.6861 29.9091L17.9921 30.8531L16.9991 30.8601ZM19.6141 35.6251L19.9201 36.5691L18.9271 36.5761L16.5421 34.8551L15.5761 32.7111L19.6141 35.6251ZM20.5191 41.4721L19.0441 40.4081L18.0781 38.2641L21.2051 40.5211L21.5111 41.4651L20.5191 41.4721ZM21.6331 41.7641L21.0061 44.7601L19.2911 40.9561L20.3831 41.7441L20.4231 41.7731L21.6331 41.7641ZM17.8321 37.7161L16.7891 35.4031L18.7921 36.8481L18.8321 36.8771L20.0591 36.8681L21.1471 40.1091L17.8321 37.7161ZM7.17712 28.0971L7.86313 27.1461L14.5071 31.9401L13.4911 32.3981L13.6611 32.7761L7.17712 28.0971ZM8.76813 32.9921L9.45413 32.0411L15.1971 36.1851L16.1631 38.3291L8.76813 32.9921ZM19.8421 45.7601L16.8981 39.2291L16.6511 38.6811L15.6851 36.5371L15.4381 35.9891L14.3961 33.6761L14.1491 33.1281L13.8881 32.5491L14.7881 32.1431L14.9571 32.0671L15.0891 32.3611L16.0551 34.5051L16.3021 35.0531L17.3441 37.3661L17.5911 37.9141L18.5571 40.0581L18.8041 40.6061L20.9021 45.2601L20.6961 46.2451L19.8421 45.7601ZM19.4631 53.6321L19.5871 53.0471L19.6471 52.7631L19.7731 52.1641L19.7671 52.1511L20.9061 46.7071L20.9141 46.7121L21.2241 45.2441L21.2161 45.2251L21.9621 41.6561L21.9701 41.6161L13.4311 16.1941H16.2401L24.7851 41.6341L23.5021 47.7711L23.4961 47.7761L23.4241 48.1421L22.5201 52.4631L22.4621 52.7401L20.9411 60.0121L20.9231 60.0281L20.6981 61.1741L20.6471 61.4151C19.7031 61.3141 18.7881 61.2091 17.8941 61.1011L17.9551 60.8071L18.1901 59.6961L18.1881 59.6931L19.4561 53.6281L19.4631 53.6321ZM12.4361 39.4681L13.5051 38.9861L19.4541 52.1851L19.3261 52.7991L19.2661 53.0831L19.2491 53.1661L19.1301 53.0981L18.7211 52.8661L18.3921 52.6791L12.4361 39.4681ZM18.6211 53.1561L19.1841 53.4751L17.9811 59.2301L15.4241 53.5561C16.4511 53.4181 17.5151 53.2851 18.6211 53.1561ZM10.8541 47.0011L11.9231 46.5191L14.9891 53.3221L15.1121 53.5961L17.8761 59.7281L17.6731 60.7011V60.7031L16.8101 60.2141L13.9031 53.7651L13.7781 53.4871L10.8541 47.0011ZM13.5931 53.8071L16.5561 60.3811L16.5761 60.4261L17.6081 61.0101L17.5961 61.0661C16.5661 60.9411 15.5721 60.8121 14.6151 60.6811L7.75613 54.7721C9.45613 54.4461 11.4151 54.1201 13.5931 53.8071ZM5.94513 55.1441L6.29611 54.7361L6.70413 54.2621L7.07013 54.5771L7.38211 54.8461L14.0661 60.6041C13.3211 60.4991 12.5941 60.3931 11.8991 60.2861L5.93811 55.1511L5.94513 55.1441ZM5.56711 55.2261L11.3371 60.1971C4.68813 59.1401 0.561127 57.9881 0.561127 57.1741C0.560127 56.6311 2.38611 55.9401 5.56711 55.2261ZM88.5971 190.669V191.768C88.5971 196.5 71.5781 202.359 48.5101 202.359C25.4421 202.359 8.42313 196.5 8.42313 191.768V190.669L0.56012 57.8671C1.77312 58.6961 5.94913 59.6321 11.6741 60.4871L16.7601 64.8681L16.7971 64.9001L18.0041 64.9961L19.3911 71.1341L8.58612 61.8241L8.47211 61.7261L7.31512 63.0691L18.5591 72.7561L18.5961 72.7881L19.7861 72.8821L20.2251 74.8261C19.2081 74.9581 18.2271 75.0941 17.2821 75.2341L10.1071 69.0531L8.95013 70.3961L14.9851 75.5951C9.13211 76.5711 5.26712 77.6821 5.26712 78.6731L11.3831 180.67C11.3831 185.184 27.0751 190.866 48.5091 190.866C69.9441 190.866 85.6351 185.184 85.6351 180.67L91.7511 78.6731C91.7511 76.1951 67.6181 72.9661 48.5091 72.9661C43.5861 72.9661 38.3301 73.1821 33.2381 73.5421L32.2151 73.0821L31.9661 73.6351C31.0001 73.7081 30.0451 73.7881 29.0971 73.8711L32.2161 66.9431L30.6001 66.2161L27.0691 74.0581C25.9491 74.1661 24.8501 74.2801 23.7761 74.4001L24.6131 73.9261L29.7761 62.4561C36.0871 62.9351 42.6211 63.2331 48.5081 63.2331C67.4651 63.2331 93.1241 60.1471 96.4581 57.8681L88.5971 190.669ZM48.5111 62.8981C42.0391 62.8981 35.7111 62.6421 29.8801 62.2321L30.7281 60.3491L29.1121 59.6221L27.9991 62.0941C27.1571 62.0291 26.3291 61.9601 25.5121 61.8891L28.3401 55.6081L32.3031 51.9561C37.4481 51.6401 42.9261 51.4501 48.5111 51.4501C73.5351 51.4501 96.4611 55.2541 96.4611 57.1751C96.4611 59.0941 73.5351 62.8981 48.5111 62.8981Z" fill="#ECD3A4"/>
<path d="M61.4561 149.857L72.9351 152.871C73.4671 153.01 74.0131 153.081 74.5581 153.081C77.4511 153.081 79.9861 151.124 80.7211 148.322L83.7341 136.843C84.1671 135.196 83.9311 133.479 83.0721 132.008C82.2131 130.537 80.8331 129.49 79.1851 129.057L67.7061 126.043C67.1741 125.904 66.6281 125.833 66.0831 125.833C63.1901 125.833 60.6551 127.79 59.9201 130.592L56.9071 142.071C56.4741 143.719 56.7101 145.435 57.5691 146.906C58.4291 148.376 59.8091 149.424 61.4561 149.857ZM57.3911 142.198L60.4041 130.719C61.0821 128.137 63.4181 126.333 66.0841 126.333C66.5861 126.333 67.0891 126.398 67.5801 126.527L79.0591 129.541C80.5771 129.938 81.8491 130.904 82.6411 132.26C83.4331 133.615 83.6491 135.198 83.2511 136.716L80.2381 148.195C79.5601 150.777 77.2241 152.581 74.5581 152.581C74.0561 152.581 73.5531 152.515 73.0621 152.387L61.5831 149.373C60.0651 148.975 58.7931 148.01 58.0011 146.654C57.2101 145.298 56.9931 143.716 57.3911 142.198Z" fill="#ECD3A4"/>
<path d="M59.9161 112.042L69.5441 118.123C70.5251 118.743 71.654 119.071 72.81 119.071C74.928 119.071 76.8671 118.003 77.9971 116.215L84.0781 106.587C85.8821 103.73 85.0261 99.9381 82.1691 98.1331L72.5411 92.0521C71.5591 91.4321 70.4301 91.1051 69.2751 91.1051C67.1571 91.1051 65.218 92.1731 64.089 93.9611L58.008 103.589C56.203 106.446 57.0591 110.239 59.9161 112.042ZM58.43 103.857L64.511 94.2291C65.549 92.5861 67.3291 91.6061 69.2751 91.6061C70.3361 91.6061 71.3731 91.9071 72.2751 92.4761L81.9031 98.5571C84.5261 100.214 85.3131 103.696 83.6561 106.32L77.5751 115.948C76.5371 117.591 74.757 118.572 72.811 118.572C71.75 118.572 70.713 118.27 69.811 117.702L60.183 111.621C57.559 109.963 56.773 106.481 58.43 103.857Z" fill="#ECD3A4"/>
<path d="M49.9411 118.945C49.9411 117.484 48.7531 116.295 47.2911 116.295C45.8301 116.295 44.6411 117.485 44.6411 118.945C44.6411 120.406 45.8301 121.595 47.2911 121.595C48.7531 121.596 49.9411 120.406 49.9411 118.945ZM47.2911 121.295C45.9951 121.295 44.9411 120.241 44.9411 118.945C44.9411 117.649 45.9951 116.595 47.2911 116.595C48.5871 116.595 49.6411 117.649 49.6411 118.945C49.6411 120.241 48.5871 121.295 47.2911 121.295Z" fill="#ECD3A4"/>
<path d="M51.0731 110.971C52.5691 110.971 53.7851 109.754 53.7851 108.258C53.7851 106.762 52.5681 105.545 51.0731 105.545C49.5781 105.545 48.3611 106.762 48.3611 108.258C48.3611 109.754 49.5771 110.971 51.0731 110.971ZM51.0731 105.846C52.4031 105.846 53.4861 106.928 53.4861 108.258C53.4861 109.588 52.4041 110.67 51.0731 110.67C49.7421 110.67 48.6601 109.588 48.6601 108.258C48.6601 106.928 49.7431 105.846 51.0731 105.846Z" fill="#ECD3A4"/>
<path d="M45.9411 94.3831C45.9411 93.7141 45.3971 93.17 44.7291 93.17C44.0611 93.17 43.5171 93.7141 43.5171 94.3831C43.5171 95.0521 44.0611 95.5961 44.7291 95.5961C45.3971 95.5961 45.9411 95.0521 45.9411 94.3831ZM43.8161 94.3831C43.8161 93.8801 44.2261 93.4711 44.7291 93.4711C45.2321 93.4711 45.6421 93.8801 45.6421 94.3831C45.6421 94.8861 45.2321 95.295 44.7291 95.295C44.2261 95.295 43.8161 94.8861 43.8161 94.3831Z" fill="#ECD3A4"/>
<path d="M52.0101 88.3461C52.6101 88.3461 53.0971 87.8581 53.0971 87.2581C53.0971 86.6581 52.6091 86.17 52.0101 86.17C51.4101 86.17 50.9231 86.6581 50.9231 87.2581C50.9231 87.8581 51.4111 88.3461 52.0101 88.3461ZM52.0101 86.4711C52.4441 86.4711 52.7981 86.8241 52.7981 87.2581C52.7981 87.6931 52.4441 88.045 52.0101 88.045C51.5761 88.045 51.2221 87.6931 51.2221 87.2581C51.2231 86.8231 51.5761 86.4711 52.0101 86.4711Z" fill="#ECD3A4"/>
<path d="M50.9231 126.701C50.9231 127.262 51.3801 127.72 51.9421 127.72C52.5041 127.72 52.9611 127.262 52.9611 126.701C52.9611 126.139 52.5041 125.681 51.9421 125.681C51.3801 125.682 50.9231 126.14 50.9231 126.701ZM52.6611 126.701C52.6611 127.097 52.3381 127.42 51.9421 127.42C51.5461 127.42 51.2231 127.098 51.2231 126.701C51.2231 126.305 51.5461 125.982 51.9421 125.982C52.3391 125.982 52.6611 126.305 52.6611 126.701Z" fill="#ECD3A4"/>
<path d="M65.856 55.2031L65.644 54.9911L64.025 56.6111V52.8151H63.725V56.6111L62.106 54.9911L61.894 55.2031L63.513 56.8221H60.229V57.1221H63.513L61.894 58.7421L62.106 58.954L63.725 57.334V61.1301H64.025V57.334L65.644 58.954L65.856 58.7421L64.237 57.1221H67.521V56.8221H64.237L65.856 55.2031Z" fill="#ECD3A4"/>
<path d="M59.9561 32.6191H61.8461L60.9431 33.5211L61.1561 33.7331L62.058 32.8311V35.0361H62.358L62.3571 32.8311L63.2601 33.7331L63.4711 33.5211L62.569 32.6191L64.4581 32.6181V32.3181L62.569 32.3191L63.4711 31.4171L63.259 31.2051L62.3571 32.1071V29.9021H62.0571V32.1081L61.1551 31.2061L60.9431 31.4171L61.845 32.3191L59.9561 32.3201V32.6191Z" fill="#ECD3A4"/>
<path d="M46.603 41.4961L49.751 41.4951L48.202 43.0451L48.414 43.2571L49.963 41.7081L49.964 45.3481H50.263L50.262 41.7071L51.813 43.2561L52.025 43.0441L50.474 41.4951L53.622 41.4941V41.1941L50.475 41.1951L52.024 39.6461L51.812 39.4341L50.262 40.9841L50.261 37.3431H49.961L49.962 40.9831L48.413 39.4351L48.201 39.6461L49.75 41.1951L46.603 41.1961V41.4961Z" fill="#ECD3A4"/>
<path d="M8.67192 97.7047L8.37256 97.7241L11.246 141.974L11.5453 141.955L8.67192 97.7047Z" fill="#ECD3A4"/>
<path d="M9.70195 94.1786L9.40259 94.198L12.276 138.448L12.5754 138.428L9.70195 94.1786Z" fill="#ECD3A4"/>
</svg>
