<?xml version="1.0" encoding="utf-8"?>
<!-- Generator: Adobe Illustrator 27.5.0, SVG Export Plug-In . SVG Version: 6.00 Build 0)  -->
<svg version="1.1" xmlns="http://www.w3.org/2000/svg" xmlns:xlink="http://www.w3.org/1999/xlink" x="0px" y="0px"
	 viewBox="0 0 750 500" style="enable-background:new 0 0 750 500;" xml:space="preserve">
<g id="BACKGROUND">
</g>
<g id="OBJECTS">
	<path style="fill:#6A6AE2;" d="M374.98,106.907L374.98,106.907C195.081,106.93,49.264,252.784,49.286,432.682v0l651.469-0.082v0
		C700.732,252.702,554.878,106.885,374.98,106.907z"/>
	<path style="fill:#B3B3FF;" d="M152.342,296.136c0,0-37.943-8.487-34.948-19.221c2.996-10.734,17.39-1.243,17.39-1.243
		s-13.645-13.734-6.656-21.473c6.99-7.738,18.223,9.735,18.223,9.735s-8.238-28.643,3.994-29.424
		c12.232-0.781,9.486,23.433,9.486,23.433s6.74-17.724,16.475-12.481c9.735,5.242-2.746,19.852-2.746,19.852
		s10.578-10.117,15.149-3.626s-7.91,13.984-7.91,13.984s10.977-3,12.229,2.991c1.251,5.991-22.463,17.474-22.463,17.474H152.342z"/>
	<polyline style="fill:none;stroke:#4444AD;stroke-linecap:round;stroke-linejoin:round;stroke-miterlimit:10;" points="
		129.367,432.682 155.151,337.574 180.935,432.682 	"/>
	<g>
		<rect x="105.44" y="396.261" style="fill:#33339E;" width="163.525" height="5.882"/>
		<path style="fill:#33339E;" d="M296.335,395.62h-6.507v7.165h6.507c0.363,0,0.658-0.295,0.658-0.658v-5.848
			C296.994,395.914,296.699,395.62,296.335,395.62z"/>
		<path style="fill:#CACAFF;" d="M263.582,366.076h27.45c0.756,0,1.369,0.613,1.369,1.369v63.513c0,0.756-0.613,1.369-1.369,1.369
			h-27.45c-0.756,0-1.369-0.613-1.369-1.369v-63.513C262.213,366.689,262.826,366.076,263.582,366.076z"/>
		<path style="fill:#33339E;" d="M78.069,402.784h6.507v-7.165h-6.507c-0.364,0-0.658,0.295-0.658,0.658v5.848
			C77.411,402.49,77.705,402.784,78.069,402.784z"/>
		<path style="fill:#CACAFF;" d="M110.822,432.328h-27.45c-0.756,0-1.369-0.613-1.369-1.369v-63.513
			c0-0.756,0.613-1.369,1.369-1.369h27.45c0.756,0,1.369,0.613,1.369,1.369v63.513C112.191,431.715,111.578,432.328,110.822,432.328
			z"/>
		<g>
			
				<line style="fill:none;stroke:#33339E;stroke-linecap:round;stroke-linejoin:round;stroke-miterlimit:10;" x1="279.825" y1="366.076" x2="279.825" y2="432.328"/>
			
				<line style="fill:none;stroke:#33339E;stroke-linecap:round;stroke-linejoin:round;stroke-miterlimit:10;" x1="274.789" y1="366.076" x2="274.789" y2="432.328"/>
		</g>
		<g>
			
				<line style="fill:none;stroke:#33339E;stroke-linecap:round;stroke-linejoin:round;stroke-miterlimit:10;" x1="99.615" y1="366.076" x2="99.615" y2="432.328"/>
			
				<line style="fill:none;stroke:#33339E;stroke-linecap:round;stroke-linejoin:round;stroke-miterlimit:10;" x1="94.58" y1="366.076" x2="94.58" y2="432.328"/>
		</g>
	</g>
	<g>
		<polygon style="fill:#F4CC4D;" points="384.384,398.608 378.738,412.208 358.383,412.208 363.251,394.759 		"/>
		<polygon style="fill:#F4CC4D;" points="217.893,390.505 204.862,396.481 196.625,382.253 208.292,373.985 		"/>
		<path style="fill:#FFCFC0;" d="M408.289,340.989l-22.362,53.904l-1.543,3.715l-21.133-3.849l1.767-6.366l15.082-54.069
			l-13.48-6.53l-6.336-3.07l-15.127-7.324l-28.952-14.019l-11.203,22.287l-3.804,7.564l-4.194,8.342l-1.423,2.846
			c-4.418,8.822-11.728,15.861-20.699,19.98l-50.729,23.245l-6.261,2.861l-9.601-16.52l5.676-4.029l51.313-36.381l2.247-8.402
			l0.944-3.55l1.198-4.478l11.083-41.473l61.408,2.486l23.095,14.513l8.612,5.407l2.142,1.348l23.799,14.948
			C408.753,319.991,412.348,331.239,408.289,340.989z"/>
		<polygon style="fill:#EB4D4B;" points="385.927,394.894 384.384,398.608 363.251,394.759 365.018,388.393 		"/>
		<path style="fill:#FFCFC0;" d="M240.314,187.169c0,0,6.553-8.357,7.489-14.536h-9.735L240.314,187.169z"/>
		<g>
			<rect x="217.474" y="169.128" style="fill:#171659;" width="35.197" height="4.4"/>
			<g>
				<path style="fill:#171659;" d="M203.014,172.545h1.776v-2.434h-1.776c-0.364,0-0.658,0.295-0.658,0.658v1.117
					C202.355,172.251,202.65,172.545,203.014,172.545z"/>
				<path style="fill:#4E4ECE;" d="M218.398,182.581h-13.113c-0.756,0-1.369-0.613-1.369-1.369v-19.767
					c0-0.756,0.613-1.369,1.369-1.369h13.113c0.756,0,1.369,0.613,1.369,1.369v19.767
					C219.767,181.968,219.154,182.581,218.398,182.581z"/>
				<g>
					
						<line style="fill:none;stroke:#4444AD;stroke-linecap:round;stroke-linejoin:round;stroke-miterlimit:10;" x1="213.526" y1="160.076" x2="213.526" y2="182.581"/>
					
						<line style="fill:none;stroke:#4444AD;stroke-linecap:round;stroke-linejoin:round;stroke-miterlimit:10;" x1="210.156" y1="160.076" x2="210.156" y2="182.581"/>
				</g>
				<path style="fill:#171659;" d="M267.131,170.111h-1.776v2.434h1.776c0.363,0,0.658-0.295,0.658-0.658v-1.117
					C267.789,170.406,267.494,170.111,267.131,170.111z"/>
				<path style="fill:#4E4ECE;" d="M251.747,160.076h13.113c0.756,0,1.369,0.613,1.369,1.369v19.767
					c0,0.756-0.613,1.369-1.369,1.369h-13.113c-0.756,0-1.369-0.613-1.369-1.369v-19.767
					C250.378,160.689,250.991,160.076,251.747,160.076z"/>
				<g>
					
						<line style="fill:none;stroke:#4444AD;stroke-linecap:round;stroke-linejoin:round;stroke-miterlimit:10;" x1="256.618" y1="182.581" x2="256.618" y2="160.076"/>
					
						<line style="fill:none;stroke:#4444AD;stroke-linecap:round;stroke-linejoin:round;stroke-miterlimit:10;" x1="259.988" y1="182.581" x2="259.988" y2="160.076"/>
				</g>
			</g>
		</g>
		<linearGradient id="SVGID_1_" gradientUnits="userSpaceOnUse" x1="267.5289" y1="329.3589" x2="305.003" y2="329.3589">
			<stop  offset="0" style="stop-color:#000000"/>
			<stop  offset="1" style="stop-color:#000000"/>
		</linearGradient>
		<polygon style="opacity:0.2;fill:url(#SVGID_1_);" points="305.003,325.667 301.199,333.231 297.005,341.573 267.529,325.173 
			268.473,321.623 269.671,317.145 		"/>
		
			<linearGradient id="SVGID_00000060026767024520276840000006067413887249055117_" gradientUnits="userSpaceOnUse" x1="345.158" y1="310.2325" x2="376.0119" y2="310.2325">
			<stop  offset="0" style="stop-color:#000000"/>
			<stop  offset="1" style="stop-color:#000000"/>
		</linearGradient>
		<polygon style="opacity:0.2;fill:url(#SVGID_00000060026767024520276840000006067413887249055117_);" points="376.012,299.426 
			366.621,327.794 360.285,324.723 345.158,317.399 365.258,292.671 373.87,298.078 		"/>
		<polygon style="fill:#F4CC4D;" points="373.87,298.078 360.285,324.723 355.642,333.83 347.3,328.528 321.089,311.858 
			316.191,328.333 313.45,337.574 301.199,333.231 268.473,321.623 270.33,314.658 280.754,275.672 342.163,278.158 
			369.826,295.532 		"/>
		<path style="fill:#FFCFC0;" d="M403.758,187.169l-5.684,36.576l-30.39-25.881c-4.089-3.49-8.552-6.515-13.3-9.002
			c-5.182-2.726-10.694-4.793-16.43-6.096c-5.647-1.288-12.252-2.172-19.666-2.172c-4.733,0-9.526,0.734-13.929,1.767
			c-4.149,0.973-8.148,2.352-12.012,4.089c-5.557,2.501-10.799,5.766-15.562,9.646l-29.731,24.159l-6.74-33.086l-14.229,1.258
			l1.438,48.572c0.33,11.233,13.33,17.284,22.152,10.32l36.374-28.741l-1.551,27.633h65.153l1.976-28.935l1.214,0.911l39.271,29.491
			c9.93,7.444,24.114,0.509,24.339-11.907l1.535-47.344L403.758,187.169z"/>
		<path style="fill:#FFCFC0;" d="M346.97,156.599l-3.4,1.588c-0.659,8.822-3.729,16.835-16.386,15.202v7.654
			c0.779,0.06,1.528,0.15,2.277,0.24c-0.569,0.434-1.333,0.944-2.277,1.423c-2.202,1.138-5.467,2.187-9.96,2.187
			c-4.029,0-6.635-0.659-8.298-1.423c-1.183-0.539-1.902-1.138-2.322-1.603c0.809-0.165,1.633-0.315,2.456-0.449l1.183-18.093
			c-5.916-3.849-9.84-10.529-9.84-18.123c0-11.937,9.691-21.628,21.628-21.628c11.952,0,21.628,9.69,21.628,21.628
			c0,0.195,0,0.39-0.015,0.569c0,1.573,0.045,3.295,0.075,5.092l3.445,2.067C348.588,153.798,348.483,155.88,346.97,156.599z"/>
		<path style="fill:#171659;" d="M341.32,147.592c0,1.215-0.356,2.2-0.796,2.2c-0.439,0-0.796-0.985-0.796-2.2
			c0-1.215,0.356-2.2,0.796-2.2C340.964,145.392,341.32,146.377,341.32,147.592z"/>
		<path style="fill:#171659;" d="M327.278,138.184c0,0,1.591,22.092-6.272,35.572l-2.996-5.336l-3.932,5.336l-2.902-5.336
			c0,0-0.842,3.838-4.212,5.336c0,0,1.311-8.987-2.34-12.263c-3.651-3.276-16.838-18.979-4.681-27.241
			c0,0-1.685-8.144,10.484-12.263c12.169-4.119,23.309-0.842,29.3,1.123c5.991,1.966,7.957,3.744,7.489,5.804
			c-0.468,2.059-4.212,1.966-4.212,1.966s3.651,1.404,2.995,4.119c-0.655,2.715-6.272,1.498-6.272,1.498
			S344.69,143.146,327.278,138.184z"/>
		<path style="fill:#FFCFC0;" d="M327.497,151.789c0,0-0.062-5.991-4.993-5.617c-4.93,0.374-5.679,5.617-5.117,8.55
			c0.562,2.933,2.996,8.113,10.11,5.18"/>
		<path style="fill:none;stroke:#FF8E77;stroke-linecap:round;stroke-linejoin:round;stroke-miterlimit:10;" d="M319.384,151.227
			c0,0,1.81-2.559,3.807-1.872c1.997,0.686,1.997,5.617,1.997,5.617"/>
		<path style="fill:none;stroke:#FF8E77;stroke-linecap:round;stroke-linejoin:round;stroke-miterlimit:10;" d="M324.048,150.038
			c0,0-2.714,2-0.889,6.307"/>
		<path style="fill:none;stroke:#FF8E77;stroke-linecap:round;stroke-linejoin:round;stroke-miterlimit:10;" d="M335.797,160.37
			c0,0,0.91,2.544,3.932,2.902"/>
		<path style="fill:#F4CC4D;" d="M355.642,281.408c0,0-37.07,11.802-82.003,3.175l1.228-7.938l5.826-37.534l0.809-5.257
			c0,0,6.186,0.973,8.927-18.737c0.419-3.025,0.764-6.56,0.988-10.664c0.39-7.024,0.689-12.986,0.929-18.003
			c1.902-0.854,3.834-1.618,5.811-2.307c1.198-0.404,2.426-0.794,3.669-1.123c0.839-0.24,1.677-0.464,2.531-0.659
			c0.734-0.18,1.483-0.344,2.247-0.494c1.004,1.123,3.744,3.026,10.619,3.026c6.425,0,10.32-2.142,12.237-3.61
			c2.142,0.27,4.164,0.599,6.096,0.974c0.824,0.165,1.617,0.329,2.396,0.509c0.12,0.03,0.255,0.06,0.374,0.09
			c1.887,0.449,3.759,0.974,5.602,1.573c-1.408,10.589-6.845,55.043,0.3,55.043c8.103,0,5.676-23.799,5.676-23.799l2.936,2.441
			v0.075c-0.27,7.204-0.464,15.008-0.494,22.676c-0.06,12.476,0.329,24.563,1.618,33.085
			C354.414,276.915,354.968,279.446,355.642,281.408z"/>
		<g>
			<path style="fill:#EB4D4B;" d="M298.158,184.143c-0.375,8.178-1.827,35.557-4.763,44.753c-2.666,8.313-9.601,9.93-12.701,10.215
				l0.809-5.257c0,0,6.186,0.973,8.927-18.737c0.419-3.025,0.764-6.56,0.988-10.664c0.39-7.024,0.689-12.986,0.929-18.003
				C294.249,185.596,296.181,184.832,298.158,184.143z"/>
			<path style="fill:#EB4D4B;" d="M352.842,218.113v0.075c-0.27,7.204-0.464,15.008-0.494,22.676
				c-2.082,3.894-5.482,6.62-11.024,5.347c-13.375-3.07-4.673-54.129-2.996-63.355c1.887,0.449,3.759,0.974,5.602,1.573
				c-1.408,10.589-6.845,55.043,0.3,55.043c8.103,0,5.676-23.799,5.676-23.799L352.842,218.113z"/>
			<path style="fill:#EB4D4B;" d="M335.557,182.256c-2.172,2.112-8.298,6.95-19.037,6.95c-10.784,0-13.869-4.314-14.693-6.186
				c0.839-0.24,1.677-0.464,2.531-0.659c0.734-0.18,1.483-0.344,2.247-0.494c1.004,1.123,3.744,3.026,10.619,3.026
				c6.425,0,10.32-2.142,12.237-3.61C331.603,181.552,333.625,181.882,335.557,182.256z"/>
			<path style="fill:#EB4D4B;" d="M355.642,281.408c0,0-37.07,11.802-82.003,3.175l1.228-7.938
				c10.365,2.741,43.33,9.571,79.097-2.696C354.414,276.915,354.968,279.446,355.642,281.408z"/>
		</g>
		<path style="fill:none;stroke:#171659;stroke-linecap:round;stroke-linejoin:round;stroke-miterlimit:10;" d="M321.089,311.858
			c-4.888-3.24-9.88-4.363-14.249-12.227"/>
		
			<line style="fill:none;stroke:#171659;stroke-linecap:round;stroke-linejoin:round;stroke-miterlimit:10;" x1="348.996" y1="214.758" x2="353.916" y2="218.994"/>
		<polygon style="fill:#EB4D4B;" points="316.191,328.333 313.45,337.574 301.199,333.231 268.473,321.623 270.33,314.658 		"/>
		<polygon style="fill:#EB4D4B;" points="373.87,298.078 360.285,324.723 355.642,333.83 347.3,328.528 369.826,295.532 		"/>
		<path style="fill:#FFCFC0;" d="M240.314,187.169c0,0,3.593-12.832,3.106-23.81c-0.132-2.973-2.853-5.151-5.788-4.66l-11.121,1.862
			c-2.556,0.428-4.348,2.745-4.128,5.328c0.469,5.506,1.53,14.951,3.702,22.538L240.314,187.169z"/>
		<path style="fill:#FFCFC0;" d="M403.758,187.169c0,0-6.553-8.357-7.489-14.536h9.736L403.758,187.169z"/>
		<g>
			
				<rect x="391.401" y="169.128" transform="matrix(-1 -1.224647e-16 1.224647e-16 -1 818.0005 342.6567)" style="fill:#171659;" width="35.198" height="4.4"/>
			<g>
				<path style="fill:#171659;" d="M441.059,172.545h-1.776v-2.434h1.776c0.364,0,0.658,0.295,0.658,0.658v1.117
					C441.717,172.251,441.422,172.545,441.059,172.545z"/>
				<path style="fill:#4E4ECE;" d="M425.675,182.581h13.113c0.756,0,1.369-0.613,1.369-1.369v-19.767
					c0-0.756-0.613-1.369-1.369-1.369h-13.113c-0.756,0-1.369,0.613-1.369,1.369v19.767
					C424.305,181.968,424.918,182.581,425.675,182.581z"/>
				<g>
					
						<line style="fill:none;stroke:#4444AD;stroke-linecap:round;stroke-linejoin:round;stroke-miterlimit:10;" x1="430.546" y1="160.076" x2="430.546" y2="182.581"/>
					
						<line style="fill:none;stroke:#4444AD;stroke-linecap:round;stroke-linejoin:round;stroke-miterlimit:10;" x1="433.916" y1="160.076" x2="433.916" y2="182.581"/>
				</g>
				<path style="fill:#171659;" d="M376.942,170.111h1.776v2.434h-1.776c-0.364,0-0.658-0.295-0.658-0.658v-1.117
					C376.283,170.406,376.578,170.111,376.942,170.111z"/>
				<path style="fill:#4E4ECE;" d="M392.326,160.076h-13.113c-0.756,0-1.369,0.613-1.369,1.369v19.767
					c0,0.756,0.613,1.369,1.369,1.369h13.113c0.756,0,1.369-0.613,1.369-1.369v-19.767
					C393.695,160.689,393.082,160.076,392.326,160.076z"/>
				<g>
					
						<line style="fill:none;stroke:#4444AD;stroke-linecap:round;stroke-linejoin:round;stroke-miterlimit:10;" x1="387.454" y1="182.581" x2="387.454" y2="160.076"/>
					
						<line style="fill:none;stroke:#4444AD;stroke-linecap:round;stroke-linejoin:round;stroke-miterlimit:10;" x1="384.084" y1="182.581" x2="384.084" y2="160.076"/>
				</g>
			</g>
		</g>
		<path style="fill:#FFCFC0;" d="M403.758,187.169c0,0-3.593-12.832-3.106-23.81c0.132-2.973,2.853-5.151,5.788-4.66l11.121,1.862
			c2.556,0.428,4.348,2.745,4.128,5.328c-0.469,5.506-1.53,14.951-3.702,22.538L403.758,187.169z"/>
		<path style="fill:none;stroke:#FF8E77;stroke-linecap:round;stroke-linejoin:round;stroke-miterlimit:10;" d="M247.054,220.254
			c-3.245,2.991-8.986,5.487-8.986,5.487"/>
		<path style="fill:none;stroke:#FF8E77;stroke-linecap:round;stroke-linejoin:round;stroke-miterlimit:10;" d="M398.074,223.744
			c5.497,3.994,11.875,6.49,11.875,6.49"/>
		<g>
			<path style="fill:#4E4ECE;" d="M419.732,424.07H353.56c0.644-5.557,1.737-12.686,3.46-17.973
				c3.699,0.375,8.148,0.524,13.165,0.06c3.46-0.315,6.575-0.869,9.301-1.498l1.078-5.003c0.24-1.063,0.824-1.992,1.618-2.636
				c0.809-0.644,1.827-1.034,2.921-1.034c1.857,0,3.37,1.513,3.37,3.37v6.74C414.684,413.511,419.223,419.112,419.732,424.07z"/>
			<path style="fill:#FFFFFF;" d="M419.792,425.193c0,5.242,0,7.489,0,7.489h-67.025c0,0,0.225-3.685,0.794-8.612h66.171
				C419.777,424.445,419.792,424.819,419.792,425.193z"/>
			<path style="fill:none;stroke:#171659;stroke-linecap:round;stroke-linejoin:round;stroke-miterlimit:10;" d="M379.487,404.659
				c-0.91,4.059,3.771,7.013,10.604,7.549"/>
			<path style="fill:none;stroke:#171659;stroke-linecap:round;stroke-linejoin:round;stroke-miterlimit:10;" d="M354.911,414.848
				l5.487,0.433c4.729,0.373,8.517,4.07,9.005,8.789l0,0"/>
			<path style="fill:none;stroke:#171659;stroke-linecap:round;stroke-linejoin:round;stroke-miterlimit:10;" d="M414.07,416.229
				h-6.224c-5.055,0-9.586,3.119-11.39,7.841l0,0"/>
		</g>
		<path style="fill:#4E4ECE;" d="M230.444,425.478h-27.409c-3.34,0-6.291-2.142-7.339-5.317l-11.158-34.044l12.626-7.785
			c1.267-0.781,2.93-0.332,3.631,0.98l5.91,11.058l5.362-1.618c0.464-0.135,0.929-0.21,1.393-0.21c1.947,0,3.774,1.183,4.523,3.085
			c0.524,1.348,0.045,2.876-1.153,3.684l-5.257,3.58l4.868,13.315C226.281,412.208,229.471,419.577,230.444,425.478z"/>
		<path style="fill:#FFFFFF;" d="M230.759,432.682H199.53c-5.706,0-10.739-3.7-12.461-9.136l-10.32-32.621l7.788-4.808
			l11.158,34.044c1.048,3.175,3.999,5.317,7.339,5.317h27.409C231.088,429.402,230.759,432.682,230.759,432.682z"/>
		<path style="fill:none;stroke:#171659;stroke-linecap:round;stroke-linejoin:round;stroke-miterlimit:10;" d="M190.016,382.739
			l2.845,8.048c1.098,3.105,0.468,6.56-1.654,9.079l-1.557,1.847"/>
		<path style="fill:none;stroke:#171659;stroke-linecap:round;stroke-linejoin:round;stroke-miterlimit:10;" d="M226.799,416.672
			h-7.846c-3.747,0-7.143,2.203-8.671,5.624l-1.421,3.182"/>
		<path style="fill:none;stroke:#171659;stroke-linecap:round;stroke-linejoin:round;stroke-miterlimit:10;" d="M206.705,390.37
			L206.705,390.37c-1.315,0.568-1.958,2.064-1.465,3.409l4.928,13.44"/>
		<polygon style="fill:#EB4D4B;" points="224.154,387.645 217.893,390.505 208.292,373.985 213.969,369.956 		"/>
	</g>
	<g>
		<g>
			<path style="fill:#171659;" d="M485.25,431.858c0.045,0.404-0.255,0.779-0.659,0.824c-0.389,0.03-0.794-0.255-0.839-0.659
				l-5.751-50.639l-6.47-56.87c-0.389-3.445-3.25-6.051-6.665-6.051h-10.29c-3.265,0-6.051,2.381-6.605,5.661l-9.75,57.26
				l-8.642,50.684c-0.075,0.359-0.389,0.614-0.749,0.614c-0.03,0-0.075,0-0.12-0.015c-0.404-0.06-0.689-0.449-0.614-0.854
				l8.597-50.43l9.81-57.514c0.674-3.984,4.074-6.89,8.073-6.89h10.29c4.179,0,7.683,3.16,8.163,7.354l6.485,57.05L485.25,431.858z"
				/>
			<path style="fill:#22227F;" d="M679.54,381.384h-39.796l9.765-57.26c0.554-3.28,3.34-5.661,6.605-5.661h10.29
				c3.415,0,6.276,2.606,6.665,6.051L679.54,381.384z"/>
			<path style="fill:#33339E;" d="M461.87,316.98v1.483h-7.294c-3.265,0-6.051,2.381-6.605,5.661l-9.75,57.26h39.781h161.744
				l9.765-57.26c0.554-3.28,3.34-5.661,6.605-5.661h9.196v-1.483H461.87z"/>
			<path style="fill:#171659;" d="M686.775,431.858c0.045,0.404-0.24,0.779-0.659,0.824c-0.389,0.03-0.779-0.255-0.824-0.659
				l-5.751-50.639l-6.47-56.87c-0.389-3.445-3.25-6.051-6.665-6.051h-10.29c-3.265,0-6.051,2.381-6.605,5.661l-9.765,57.26
				l-8.642,50.684c-0.06,0.359-0.374,0.614-0.734,0.614c-0.045,0-0.09,0-0.12-0.015c-0.419-0.06-0.689-0.449-0.614-0.854
				l8.597-50.43l9.795-57.514c0.689-3.984,4.089-6.89,8.088-6.89h10.29c4.179,0,7.683,3.16,8.163,7.354l6.47,57.05L686.775,431.858z
				"/>
			<path style="fill:none;stroke:#171659;stroke-width:0.5;stroke-linecap:round;stroke-linejoin:round;stroke-miterlimit:10;" d="
				M551.766,318.463c-3.265,0-6.051,2.381-6.605,5.661l-9.75,57.26"/>
			<rect x="642.471" y="311.723" style="fill:#22227F;" width="38.822" height="7.504"/>
			<rect x="432.289" y="311.723" style="fill:#3F3FBC;" width="210.181" height="7.504"/>
			
				<line style="fill:none;stroke:#171659;stroke-width:0.5;stroke-linecap:round;stroke-linejoin:round;stroke-miterlimit:10;" x1="447.891" y1="319.227" x2="672.018" y2="319.227"/>
			<rect x="476.099" y="369.776" style="fill:#171659;" width="20.969" height="2.996"/>
			<rect x="576.699" y="369.776" style="fill:#171659;" width="20.969" height="2.996"/>
		</g>
		<g>
			<rect x="551.268" y="292.671" style="fill:#171659;" width="12.326" height="19.052"/>
			<path style="fill:#171659;" d="M652.264,297.884H462.599c-1.795,0-3.25-1.455-3.25-3.25V183.168c0-1.422,1.153-2.575,2.575-2.575
				H652.94c1.422,0,2.575,1.153,2.575,2.575v111.465C655.514,296.428,654.06,297.884,652.264,297.884z"/>
			<path style="fill:#FFFFFF;" d="M653.268,184.937v104.739c0,1.663-1.333,2.996-2.995,2.996H464.579
				c-1.648,0-2.98-1.333-2.98-2.996V184.937c0-1.303,1.048-2.352,2.351-2.352h186.966
				C652.204,182.585,653.268,183.634,653.268,184.937z"/>
			<path style="fill:#CACAFF;" d="M653.268,184.937v6.111H461.599v-6.111c0-1.303,1.048-2.352,2.351-2.352h186.966
				C652.204,182.585,653.268,183.634,653.268,184.937z"/>
			<path style="fill:#CACAFF;" d="M573.634,268.213H469.295c-0.967,0-1.75-0.784-1.75-1.75v-68.678c0-0.967,0.783-1.75,1.75-1.75
				h104.339c0.966,0,1.75,0.783,1.75,1.75v68.678C575.384,267.429,574.601,268.213,573.634,268.213z"/>
			<g>
				<polygon style="fill:#171659;" points="506.367,256.328 507.501,259.061 511.59,259.061 510.612,255.555 				"/>
				<polygon style="fill:#171659;" points="539.815,254.701 542.432,255.901 544.087,253.043 541.743,251.382 				"/>
				<polygon style="fill:#22B573;" points="506.057,255.582 506.367,256.328 510.612,255.555 510.257,254.276 				"/>
				<path style="fill:#FFCFC0;" d="M535.31,213.851c0,0-1.316-1.679-1.505-2.92h1.956L535.31,213.851z"/>
				<g>
					
						<rect x="532.828" y="210.226" transform="matrix(-1 -1.224647e-16 1.224647e-16 -1 1072.7267 421.3367)" style="fill:#171659;" width="7.071" height="0.884"/>
					<g>
						<path style="fill:#171659;" d="M542.773,210.913h-0.326v-0.489h0.326c0.09,0,0.163,0.073,0.163,0.163v0.163
							C542.936,210.84,542.863,210.913,542.773,210.913z"/>
						<path style="fill:#4E4ECE;" d="M540.501,212.929h1.058c0.587,0,1.063-0.476,1.063-1.063v-2.395
							c0-0.587-0.476-1.063-1.063-1.063h-1.058c-0.587,0-1.063,0.476-1.063,1.063v2.395
							C539.438,212.453,539.914,212.929,540.501,212.929z"/>
						<g>
							
								<line style="fill:none;stroke:#4444AD;stroke-linecap:round;stroke-linejoin:round;stroke-miterlimit:10;" x1="540.692" y1="208.408" x2="540.692" y2="212.929"/>
							
								<line style="fill:none;stroke:#4444AD;stroke-linecap:round;stroke-linejoin:round;stroke-miterlimit:10;" x1="541.369" y1="208.408" x2="541.369" y2="212.929"/>
						</g>
						<path style="fill:#171659;" d="M529.954,210.424h0.326v0.489h-0.326c-0.09,0-0.163-0.073-0.163-0.163v-0.163
							C529.791,210.497,529.864,210.424,529.954,210.424z"/>
						<path style="fill:#4E4ECE;" d="M532.225,208.408h-1.058c-0.587,0-1.063,0.476-1.063,1.063v2.395
							c0,0.587,0.476,1.063,1.063,1.063h1.058c0.587,0,1.063-0.476,1.063-1.063v-2.395
							C533.289,208.884,532.813,208.408,532.225,208.408z"/>
						<g>
							
								<line style="fill:none;stroke:#4444AD;stroke-linecap:round;stroke-linejoin:round;stroke-miterlimit:10;" x1="532.035" y1="212.929" x2="532.035" y2="208.408"/>
							
								<line style="fill:none;stroke:#4444AD;stroke-linecap:round;stroke-linejoin:round;stroke-miterlimit:10;" x1="531.358" y1="212.929" x2="531.358" y2="208.408"/>
						</g>
					</g>
				</g>
				<path style="fill:#4E4ECE;" d="M531.357,217.437l-0.427,0.602l-2.699,3.788l-0.566,0.797l-1.432-1.264l0.954,10.27
					l-12.337,0.499l-1.643-10.574l-2.768,1.369c-0.174-0.265-0.334-0.524-0.478-0.782c-1.204-2.124-1.471-3.999-1.507-5.061
					c-0.021-0.587,0.027-0.927,0.027-0.927s4.14-3.623,10.89-3.623h0.06c0.611,0.003,1.213,0.045,1.796,0.12
					c0.069,0.009,0.135,0.018,0.205,0.03C527.156,213.505,531.357,217.437,531.357,217.437z"/>
				<path style="fill:#FFCFC0;" d="M519.646,212.53c0.53,0,1.059,0.045,1.58,0.123c-0.584-0.075-1.186-0.117-1.796-0.12
					C519.501,212.53,519.574,212.53,519.646,212.53z"/>
				<path style="fill:#FFCFC0;" d="M521.499,212.695c0.166,0.027,0.331,0.057,0.494,0.09c-0.084,0.093-0.229,0.214-0.466,0.322
					c-0.334,0.153-0.858,0.286-1.667,0.286c-0.903,0-1.559-0.211-2.001-0.439c-0.19-0.096-0.343-0.199-0.457-0.286
					c0.15-0.018,0.301-0.036,0.457-0.048v-1.538c-2.543,0.328-3.159-1.282-3.292-3.054c0.006-0.361-0.015-2.179-0.015-2.494
					c-0.003-0.036-0.003-0.075-0.003-0.114c0-1.026,0.358-1.971,0.954-2.714c0.794-0.993,2.016-1.631,3.391-1.631
					c2.398,0,4.345,1.947,4.345,4.345c0,1.526-0.788,2.868-1.977,3.641L521.499,212.695z"/>
				<path style="fill:#4E4ECE;" d="M523.239,205.419c0,1.526-0.788,2.868-1.977,3.641l-0.144-2.118c0,0-1.559-0.602-1.164-4.062
					c0,0-4.195,1.793-4.45-0.175c0.794-0.993,2.016-1.631,3.391-1.631C521.292,201.075,523.239,203.021,523.239,205.419z"/>
				<path style="fill:#171659;" d="M515.498,206.391c0,0.244,0.072,0.442,0.16,0.442c0.088,0,0.16-0.198,0.16-0.442
					c0-0.244-0.072-0.442-0.16-0.442C515.57,205.949,515.498,206.147,515.498,206.391z"/>
				<path style="fill:#171659;" d="M517.858,206.391c0,0.244,0.071,0.442,0.16,0.442c0.088,0,0.16-0.198,0.16-0.442
					c0-0.244-0.072-0.442-0.16-0.442C517.93,205.949,517.858,206.147,517.858,206.391z"/>
				<path style="fill:#FFCFC0;" d="M520.654,206.743c0,0,0.013-1.204,1.003-1.128c0.99,0.075,1.141,1.128,1.028,1.718
					c-0.113,0.589-0.602,1.63-2.031,1.041"/>
				<path style="fill:none;stroke:#FF8E77;stroke-width:0.5;stroke-linecap:round;stroke-linejoin:round;stroke-miterlimit:10;" d="
					M522.284,206.63c0,0-0.364-0.514-0.765-0.376c-0.401,0.138-0.401,1.128-0.401,1.128"/>
				<path style="fill:none;stroke:#FF8E77;stroke-width:0.5;stroke-linecap:round;stroke-linejoin:round;stroke-miterlimit:10;" d="
					M521.347,206.391c0,0,0.545,0.402,0.178,1.267"/>
				<path style="fill:#FFCFC0;" d="M535.31,213.851c0,0-0.722-2.578-0.624-4.783c0.026-0.597,0.573-1.035,1.163-0.936l2.234,0.374
					c0.513,0.086,0.873,0.551,0.829,1.07c-0.094,1.106-0.307,3.004-0.744,4.528L535.31,213.851z"/>
				<path style="fill:#FFCFC0;" d="M502.475,213.851c0,0,1.316-1.679,1.504-2.92h-1.956L502.475,213.851z"/>
				<g>
					<rect x="497.886" y="210.226" style="fill:#171659;" width="7.071" height="0.884"/>
					<g>
						<path style="fill:#171659;" d="M495.012,210.913h0.326v-0.489h-0.326c-0.09,0-0.163,0.073-0.163,0.163v0.163
							C494.849,210.84,494.922,210.913,495.012,210.913z"/>
						<path style="fill:#4E4ECE;" d="M497.284,212.929h-1.058c-0.587,0-1.063-0.476-1.063-1.063v-2.395
							c0-0.587,0.476-1.063,1.063-1.063h1.058c0.587,0,1.063,0.476,1.063,1.063v2.395
							C498.347,212.453,497.871,212.929,497.284,212.929z"/>
						<g>
							
								<line style="fill:none;stroke:#4444AD;stroke-linecap:round;stroke-linejoin:round;stroke-miterlimit:10;" x1="497.093" y1="208.408" x2="497.093" y2="212.929"/>
							
								<line style="fill:none;stroke:#4444AD;stroke-linecap:round;stroke-linejoin:round;stroke-miterlimit:10;" x1="496.416" y1="208.408" x2="496.416" y2="212.929"/>
						</g>
						<path style="fill:#171659;" d="M507.831,210.424h-0.326v0.489h0.326c0.09,0,0.163-0.073,0.163-0.163v-0.163
							C507.994,210.497,507.921,210.424,507.831,210.424z"/>
						<path style="fill:#4E4ECE;" d="M505.559,208.408h1.058c0.587,0,1.063,0.476,1.063,1.063v2.395
							c0,0.587-0.476,1.063-1.063,1.063h-1.058c-0.587,0-1.063-0.476-1.063-1.063v-2.395
							C504.496,208.884,504.972,208.408,505.559,208.408z"/>
						<g>
							
								<line style="fill:none;stroke:#4444AD;stroke-linecap:round;stroke-linejoin:round;stroke-miterlimit:10;" x1="505.75" y1="212.929" x2="505.75" y2="208.408"/>
							
								<line style="fill:none;stroke:#4444AD;stroke-linecap:round;stroke-linejoin:round;stroke-miterlimit:10;" x1="506.427" y1="212.929" x2="506.427" y2="208.408"/>
						</g>
					</g>
				</g>
				<path style="fill:#FFCFC0;" d="M502.475,213.851c0,0,0.722-2.578,0.624-4.783c-0.026-0.597-0.573-1.035-1.163-0.936
					l-2.234,0.374c-0.513,0.086-0.873,0.551-0.829,1.07c0.094,1.106,0.307,3.004,0.744,4.528L502.475,213.851z"/>
				<path style="fill:#4E4ECE;" d="M537.293,261.727h5.506c0.671,0,1.264-0.43,1.474-1.068l2.242-6.839l-2.536-1.564
					c-0.254-0.157-0.589-0.067-0.729,0.197l-1.187,2.222l-1.077-0.325c-0.093-0.027-0.187-0.042-0.28-0.042
					c-0.391,0-0.758,0.238-0.909,0.62c-0.105,0.271-0.009,0.578,0.232,0.74l1.056,0.719l-0.978,2.675
					C538.13,259.061,537.489,260.541,537.293,261.727z"/>
				<path style="fill:#FFFFFF;" d="M537.23,263.174h6.274c1.146,0,2.157-0.743,2.504-1.835l2.073-6.554l-1.565-0.966l-2.242,6.839
					c-0.211,0.638-0.803,1.068-1.474,1.068h-5.506C537.164,262.515,537.23,263.174,537.23,263.174z"/>
				<path style="fill:none;stroke:#171659;stroke-width:0.5;stroke-linecap:round;stroke-linejoin:round;stroke-miterlimit:10;" d="
					M545.415,253.14l-0.571,1.617c-0.221,0.624-0.094,1.318,0.332,1.824l0.313,0.371"/>
				<path style="fill:none;stroke:#171659;stroke-width:0.5;stroke-linecap:round;stroke-linejoin:round;stroke-miterlimit:10;" d="
					M538.026,259.957h1.576c0.753,0,1.435,0.443,1.742,1.13l0.285,0.639"/>
				<path style="fill:none;stroke:#171659;stroke-width:0.5;stroke-linecap:round;stroke-linejoin:round;stroke-miterlimit:10;" d="
					M542.062,254.673L542.062,254.673c0.264,0.114,0.393,0.415,0.294,0.685l-0.99,2.7"/>
				<polygon style="fill:#22B573;" points="538.557,254.126 539.815,254.701 541.743,251.382 540.603,250.572 				"/>
				<path style="fill:none;stroke:#FF8E77;stroke-width:0.5;stroke-linecap:round;stroke-linejoin:round;stroke-miterlimit:10;" d="
					M517.858,211.082c1.269,0,2.135-0.661,2.52-1.319"/>
				<path style="fill:none;stroke:#FF8E77;stroke-width:0.5;stroke-linecap:round;stroke-linejoin:round;stroke-miterlimit:10;" d="
					M516.607,205.949c0,0,0.075,1.88-1.26,1.709l0.829,0.749"/>
				<path style="fill:none;stroke:#FF8E77;stroke-width:0.5;stroke-linecap:round;stroke-linejoin:round;stroke-miterlimit:10;" d="
					M518.178,208.548c0,0-0.349,0.745-1.44,0.858"/>
				<path style="fill:#171659;" d="M503.617,221.199l-0.811-5.214l-3.11,0.582l0.23,7.048c0.045,2.494,2.895,3.888,4.89,2.392
					l5.145-3.864c-1.204-2.124-1.471-3.999-1.507-5.061L503.617,221.199z"/>
				<polygon style="fill:#FFCFC0;" points="502.474,213.851 499.615,214.103 499.695,216.567 502.806,215.984 				"/>
				<polygon style="fill:#FFCFC0;" points="538.169,214.103 535.311,213.851 535.046,215.149 538.117,215.85 				"/>
				<path style="fill:#171659;" d="M535.046,215.149l-1.089,5.348l-3.027-2.458l-2.699,3.788l5.2,4.107
					c1.772,1.399,4.384,0.184,4.45-2.073l0.237-8.011L535.046,215.149z"/>
				<path style="fill:#171659;" d="M530.294,243.263l-0.451-1.688l-0.19-0.713l-0.241-0.9l-2.227-8.332l-12.337,0.499l-4.64,2.916
					l-1.73,1.086l-0.43,0.271l-4.781,3.003c-1.796,1.128-2.518,3.388-1.703,5.347l2.954,7.12l4.781-1.032l-2.072-7.427l2.708-1.312
					l1.273-0.617l3.039-1.471l5.816-2.816l2.251,4.477l0.764,1.52l0.843,1.676l0.286,0.572c0.888,1.772,2.356,3.187,4.158,4.014
					l6.409,2.937l2.729-4.018L530.294,243.263z"/>
				<polygon style="fill:#FFCFC0;" points="506.057,255.582 506.367,256.328 510.612,255.555 510.257,254.276 509.299,250.841 
					504.518,251.873 				"/>
				<polygon style="fill:#FFCFC0;" points="540.603,250.572 537.504,248.375 534.775,252.393 538.557,254.126 539.815,254.701 
					541.743,251.382 				"/>
				<g>
					<path style="fill:#4E4ECE;" d="M499.266,261.444h13.294c-0.129-1.116-0.349-2.549-0.695-3.611
						c-0.743,0.075-1.637,0.105-2.645,0.012c-0.695-0.063-1.321-0.174-1.869-0.301l-0.217-1.005c-0.048-0.214-0.165-0.4-0.325-0.53
						c-0.163-0.129-0.367-0.208-0.587-0.208c-0.373,0-0.677,0.304-0.677,0.677v1.354
						C500.28,259.322,499.368,260.448,499.266,261.444z"/>
					<path style="fill:#FFFFFF;" d="M499.254,261.669c0,1.053,0,1.504,0,1.504h13.465c0,0-0.045-0.74-0.16-1.73h-13.294
						C499.257,261.519,499.254,261.594,499.254,261.669z"/>
					
						<path style="fill:none;stroke:#171659;stroke-width:0.5;stroke-linecap:round;stroke-linejoin:round;stroke-miterlimit:10;" d="
						M507.351,257.544c0.183,0.815-0.758,1.409-2.13,1.517"/>
					
						<path style="fill:none;stroke:#171659;stroke-width:0.5;stroke-linecap:round;stroke-linejoin:round;stroke-miterlimit:10;" d="
						M512.288,259.591l-1.102,0.087c-0.95,0.075-1.711,0.818-1.809,1.766l0,0"/>
					
						<path style="fill:none;stroke:#171659;stroke-width:0.5;stroke-linecap:round;stroke-linejoin:round;stroke-miterlimit:10;" d="
						M500.403,259.868h1.25c1.016,0,1.926,0.627,2.288,1.575l0,0"/>
				</g>
				<polygon style="fill:none;stroke:#4444AD;stroke-linecap:round;stroke-linejoin:round;stroke-miterlimit:10;" points="
					519.902,218.984 520.99,221.188 523.422,221.541 521.662,223.257 522.078,225.679 519.902,224.536 517.727,225.679 
					518.142,223.257 516.382,221.541 518.814,221.188 				"/>
				
					<line style="fill:none;stroke:#171659;stroke-width:0.5;stroke-linecap:round;stroke-linejoin:round;stroke-miterlimit:10;" x1="485.019" y1="263.174" x2="560.406" y2="263.174"/>
			</g>
			<circle style="fill:#4E4ECE;" cx="469.482" cy="186.49" r="1.937"/>
			<circle style="fill:#FFFFFF;" cx="476.032" cy="186.49" r="1.937"/>
			<path style="fill:#CACAFF;" d="M643.4,287.649h-57.467c-0.966,0-1.75-0.784-1.75-1.75v-88.113c0-0.967,0.784-1.75,1.75-1.75
				H643.4c0.966,0,1.75,0.783,1.75,1.75v88.113C645.15,286.865,644.367,287.649,643.4,287.649z"/>
			<path style="fill:#FFFFFF;" d="M484.52,186.49c0,1.07-0.867,1.937-1.937,1.937c-1.07,0-1.937-0.867-1.937-1.937
				s0.867-1.937,1.937-1.937C483.652,184.553,484.52,185.42,484.52,186.49z"/>
			<g>
				
					<line style="fill:none;stroke:#B3B3FF;stroke-width:0.5;stroke-linecap:round;stroke-linejoin:round;stroke-miterlimit:10;" x1="467.545" y1="273.42" x2="541.03" y2="273.42"/>
				
					<line style="fill:none;stroke:#B3B3FF;stroke-width:0.5;stroke-linecap:round;stroke-linejoin:round;stroke-miterlimit:10;" x1="467.545" y1="278.627" x2="566.897" y2="278.627"/>
				
					<line style="fill:none;stroke:#B3B3FF;stroke-width:0.5;stroke-linecap:round;stroke-linejoin:round;stroke-miterlimit:10;" x1="467.545" y1="283.834" x2="566.897" y2="283.834"/>
			</g>
			<g>
				<defs>
					
						<rect id="SVGID_00000091725450391553889590000009650218840356204701_" x="584.183" y="196.036" width="60.967" height="91.613"/>
				</defs>
				<clipPath id="SVGID_00000177469591315273926300000017104434345622623887_">
					<use xlink:href="#SVGID_00000091725450391553889590000009650218840356204701_"  style="overflow:visible;"/>
				</clipPath>
				<g style="clip-path:url(#SVGID_00000177469591315273926300000017104434345622623887_);">
					<g>
						<rect x="592.522" y="200.325" style="fill:#B3B3FF;" width="44.29" height="29.644"/>
						
							<line style="fill:none;stroke:#4E4ECE;stroke-width:0.5;stroke-linecap:round;stroke-linejoin:round;stroke-miterlimit:10;" x1="592.522" y1="232.527" x2="616.421" y2="232.527"/>
						
							<line style="fill:none;stroke:#4E4ECE;stroke-width:0.5;stroke-linecap:round;stroke-linejoin:round;stroke-miterlimit:10;" x1="592.522" y1="235.085" x2="636.812" y2="235.085"/>
						
							<line style="fill:none;stroke:#4E4ECE;stroke-width:0.5;stroke-linecap:round;stroke-linejoin:round;stroke-miterlimit:10;" x1="592.522" y1="237.643" x2="636.812" y2="237.643"/>
					</g>
					<g>
						<rect x="592.522" y="241.858" style="fill:#B3B3FF;" width="44.29" height="29.644"/>
						
							<line style="fill:none;stroke:#4E4ECE;stroke-width:0.5;stroke-linecap:round;stroke-linejoin:round;stroke-miterlimit:10;" x1="592.522" y1="274.06" x2="616.421" y2="274.06"/>
						
							<line style="fill:none;stroke:#4E4ECE;stroke-width:0.5;stroke-linecap:round;stroke-linejoin:round;stroke-miterlimit:10;" x1="592.522" y1="276.618" x2="636.812" y2="276.618"/>
						
							<line style="fill:none;stroke:#4E4ECE;stroke-width:0.5;stroke-linecap:round;stroke-linejoin:round;stroke-miterlimit:10;" x1="592.522" y1="279.177" x2="636.812" y2="279.177"/>
					</g>
					<g>
						<rect x="592.522" y="283.392" style="fill:#B3B3FF;" width="44.29" height="29.644"/>
						
							<line style="fill:none;stroke:#4E4ECE;stroke-width:0.5;stroke-linecap:round;stroke-linejoin:round;stroke-miterlimit:10;" x1="592.522" y1="315.594" x2="616.421" y2="315.594"/>
						
							<line style="fill:none;stroke:#4E4ECE;stroke-width:0.5;stroke-linecap:round;stroke-linejoin:round;stroke-miterlimit:10;" x1="592.522" y1="318.152" x2="636.812" y2="318.152"/>
						
							<line style="fill:none;stroke:#4E4ECE;stroke-width:0.5;stroke-linecap:round;stroke-linejoin:round;stroke-miterlimit:10;" x1="592.522" y1="320.71" x2="636.812" y2="320.71"/>
					</g>
				</g>
			</g>
			<path style="fill:#171659;" d="M625.733,309.366H486.592c-0.869,0-1.573,0.704-1.573,1.573v0.783h142.288v-0.783
				C627.307,310.071,626.602,309.366,625.733,309.366z"/>
		</g>
	</g>
	<path style="fill:#CACAFF;" d="M175.553,333.83h-40.805c-2.972,0-5.382-2.409-5.382-5.382v-35.777h51.568v35.777
		C180.935,331.42,178.525,333.83,175.553,333.83z"/>
	<rect x="129.367" y="333.83" style="fill:#33339E;" width="51.568" height="5.242"/>
	<g>
		<rect x="84.877" y="125.932" style="fill:#CACAFF;" width="95.756" height="88.359"/>
		<rect x="88.76" y="129.516" style="fill:#B3B3FF;" width="87.989" height="81.191"/>
		<polygon style="fill:none;stroke:#FFFFFF;stroke-linecap:round;stroke-linejoin:round;stroke-miterlimit:10;" points="
			93.56,198.038 112.282,167.415 125.013,184.724 145.981,152.769 169.571,198.038 		"/>
		
			<circle style="fill:none;stroke:#FFFFFF;stroke-linecap:round;stroke-linejoin:round;stroke-miterlimit:10;" cx="114.973" cy="150.789" r="9.057"/>
	</g>
	<g>
		<defs>
			<path id="SVGID_00000076591787469546702990000013062212562933291923_" d="M175.553,333.83h-40.805
				c-2.972,0-5.382-2.409-5.382-5.382v-35.777h51.568v35.777C180.935,331.42,178.525,333.83,175.553,333.83z"/>
		</defs>
		<clipPath id="SVGID_00000004542733272388511800000002799906028923048121_">
			<use xlink:href="#SVGID_00000076591787469546702990000013062212562933291923_"  style="overflow:visible;"/>
		</clipPath>
		<g style="opacity:0.2;clip-path:url(#SVGID_00000004542733272388511800000002799906028923048121_);">
			<path style="fill:none;stroke:#FFFFFF;stroke-linecap:round;stroke-linejoin:round;stroke-miterlimit:10;" d="M135.339,291.794
				c0,1.626-1.914,2.944-4.275,2.944c-2.361,0-4.275-1.318-4.275-2.944c0-1.626,1.914-2.944,4.275-2.944
				C133.425,288.85,135.339,290.168,135.339,291.794z"/>
			
				<ellipse style="fill:none;stroke:#FFFFFF;stroke-linecap:round;stroke-linejoin:round;stroke-miterlimit:10;" cx="131.064" cy="300.261" rx="4.275" ry="2.944"/>
			<path style="fill:none;stroke:#FFFFFF;stroke-linecap:round;stroke-linejoin:round;stroke-miterlimit:10;" d="M135.339,308.729
				c0,1.626-1.914,2.944-4.275,2.944c-2.361,0-4.275-1.318-4.275-2.944c0-1.626,1.914-2.944,4.275-2.944
				C133.425,305.785,135.339,307.103,135.339,308.729z"/>
			
				<ellipse style="fill:none;stroke:#FFFFFF;stroke-linecap:round;stroke-linejoin:round;stroke-miterlimit:10;" cx="131.064" cy="317.196" rx="4.275" ry="2.944"/>
			<path style="fill:none;stroke:#FFFFFF;stroke-linecap:round;stroke-linejoin:round;stroke-miterlimit:10;" d="M135.339,325.664
				c0,1.626-1.914,2.944-4.275,2.944c-2.361,0-4.275-1.318-4.275-2.944c0-1.626,1.914-2.944,4.275-2.944
				C133.425,322.72,135.339,324.038,135.339,325.664z"/>
			
				<ellipse style="fill:none;stroke:#FFFFFF;stroke-linecap:round;stroke-linejoin:round;stroke-miterlimit:10;" cx="131.064" cy="334.131" rx="4.275" ry="2.944"/>
			<path style="fill:none;stroke:#FFFFFF;stroke-linecap:round;stroke-linejoin:round;stroke-miterlimit:10;" d="M147.076,291.794
				c0,1.626-1.914,2.944-4.275,2.944c-2.361,0-4.275-1.318-4.275-2.944c0-1.626,1.914-2.944,4.275-2.944
				C145.162,288.85,147.076,290.168,147.076,291.794z"/>
			<path style="fill:none;stroke:#FFFFFF;stroke-linecap:round;stroke-linejoin:round;stroke-miterlimit:10;" d="M147.076,300.261
				c0,1.626-1.914,2.944-4.275,2.944c-2.361,0-4.275-1.318-4.275-2.944s1.914-2.944,4.275-2.944
				C145.162,297.317,147.076,298.635,147.076,300.261z"/>
			<path style="fill:none;stroke:#FFFFFF;stroke-linecap:round;stroke-linejoin:round;stroke-miterlimit:10;" d="M147.076,308.729
				c0,1.626-1.914,2.944-4.275,2.944c-2.361,0-4.275-1.318-4.275-2.944c0-1.626,1.914-2.944,4.275-2.944
				C145.162,305.785,147.076,307.103,147.076,308.729z"/>
			<path style="fill:none;stroke:#FFFFFF;stroke-linecap:round;stroke-linejoin:round;stroke-miterlimit:10;" d="M147.076,317.196
				c0,1.626-1.914,2.944-4.275,2.944c-2.361,0-4.275-1.318-4.275-2.944c0-1.626,1.914-2.944,4.275-2.944
				C145.162,314.252,147.076,315.57,147.076,317.196z"/>
			<path style="fill:none;stroke:#FFFFFF;stroke-linecap:round;stroke-linejoin:round;stroke-miterlimit:10;" d="M147.076,325.664
				c0,1.626-1.914,2.944-4.275,2.944c-2.361,0-4.275-1.318-4.275-2.944c0-1.626,1.914-2.944,4.275-2.944
				C145.162,322.72,147.076,324.038,147.076,325.664z"/>
			<path style="fill:none;stroke:#FFFFFF;stroke-linecap:round;stroke-linejoin:round;stroke-miterlimit:10;" d="M147.076,334.131
				c0,1.626-1.914,2.944-4.275,2.944c-2.361,0-4.275-1.318-4.275-2.944c0-1.626,1.914-2.944,4.275-2.944
				C145.162,331.187,147.076,332.505,147.076,334.131z"/>
			<path style="fill:none;stroke:#FFFFFF;stroke-linecap:round;stroke-linejoin:round;stroke-miterlimit:10;" d="M158.814,291.794
				c0,1.626-1.914,2.944-4.276,2.944c-2.361,0-4.275-1.318-4.275-2.944c0-1.626,1.914-2.944,4.275-2.944
				C156.899,288.85,158.814,290.168,158.814,291.794z"/>
			<path style="fill:none;stroke:#FFFFFF;stroke-linecap:round;stroke-linejoin:round;stroke-miterlimit:10;" d="M158.814,300.261
				c0,1.626-1.914,2.944-4.276,2.944c-2.361,0-4.275-1.318-4.275-2.944s1.914-2.944,4.275-2.944
				C156.899,297.317,158.814,298.635,158.814,300.261z"/>
			<path style="fill:none;stroke:#FFFFFF;stroke-linecap:round;stroke-linejoin:round;stroke-miterlimit:10;" d="M158.814,308.729
				c0,1.626-1.914,2.944-4.276,2.944c-2.361,0-4.275-1.318-4.275-2.944c0-1.626,1.914-2.944,4.275-2.944
				C156.899,305.785,158.814,307.103,158.814,308.729z"/>
			<path style="fill:none;stroke:#FFFFFF;stroke-linecap:round;stroke-linejoin:round;stroke-miterlimit:10;" d="M158.814,317.196
				c0,1.626-1.914,2.944-4.276,2.944c-2.361,0-4.275-1.318-4.275-2.944c0-1.626,1.914-2.944,4.275-2.944
				C156.899,314.252,158.814,315.57,158.814,317.196z"/>
			<path style="fill:none;stroke:#FFFFFF;stroke-linecap:round;stroke-linejoin:round;stroke-miterlimit:10;" d="M158.814,325.664
				c0,1.626-1.914,2.944-4.276,2.944c-2.361,0-4.275-1.318-4.275-2.944c0-1.626,1.914-2.944,4.275-2.944
				C156.899,322.72,158.814,324.038,158.814,325.664z"/>
			<path style="fill:none;stroke:#FFFFFF;stroke-linecap:round;stroke-linejoin:round;stroke-miterlimit:10;" d="M158.814,334.131
				c0,1.626-1.914,2.944-4.276,2.944c-2.361,0-4.275-1.318-4.275-2.944c0-1.626,1.914-2.944,4.275-2.944
				C156.899,331.187,158.814,332.505,158.814,334.131z"/>
			<path style="fill:none;stroke:#FFFFFF;stroke-linecap:round;stroke-linejoin:round;stroke-miterlimit:10;" d="M170.551,291.794
				c0,1.626-1.914,2.944-4.275,2.944c-2.361,0-4.275-1.318-4.275-2.944c0-1.626,1.914-2.944,4.275-2.944
				C168.636,288.85,170.551,290.168,170.551,291.794z"/>
			
				<ellipse style="fill:none;stroke:#FFFFFF;stroke-linecap:round;stroke-linejoin:round;stroke-miterlimit:10;" cx="166.275" cy="300.261" rx="4.275" ry="2.944"/>
			<path style="fill:none;stroke:#FFFFFF;stroke-linecap:round;stroke-linejoin:round;stroke-miterlimit:10;" d="M170.551,308.729
				c0,1.626-1.914,2.944-4.275,2.944c-2.361,0-4.275-1.318-4.275-2.944c0-1.626,1.914-2.944,4.275-2.944
				C168.636,305.785,170.551,307.103,170.551,308.729z"/>
			
				<ellipse style="fill:none;stroke:#FFFFFF;stroke-linecap:round;stroke-linejoin:round;stroke-miterlimit:10;" cx="166.275" cy="317.196" rx="4.275" ry="2.944"/>
			<path style="fill:none;stroke:#FFFFFF;stroke-linecap:round;stroke-linejoin:round;stroke-miterlimit:10;" d="M170.551,325.664
				c0,1.626-1.914,2.944-4.275,2.944c-2.361,0-4.275-1.318-4.275-2.944c0-1.626,1.914-2.944,4.275-2.944
				C168.636,322.72,170.551,324.038,170.551,325.664z"/>
			
				<ellipse style="fill:none;stroke:#FFFFFF;stroke-linecap:round;stroke-linejoin:round;stroke-miterlimit:10;" cx="166.275" cy="334.131" rx="4.275" ry="2.944"/>
			<path style="fill:none;stroke:#FFFFFF;stroke-linecap:round;stroke-linejoin:round;stroke-miterlimit:10;" d="M182.288,291.794
				c0,1.626-1.914,2.944-4.275,2.944c-2.361,0-4.275-1.318-4.275-2.944c0-1.626,1.914-2.944,4.275-2.944
				C180.374,288.85,182.288,290.168,182.288,291.794z"/>
			
				<ellipse style="fill:none;stroke:#FFFFFF;stroke-linecap:round;stroke-linejoin:round;stroke-miterlimit:10;" cx="178.012" cy="300.261" rx="4.275" ry="2.944"/>
			<path style="fill:none;stroke:#FFFFFF;stroke-linecap:round;stroke-linejoin:round;stroke-miterlimit:10;" d="M182.288,308.729
				c0,1.626-1.914,2.944-4.275,2.944c-2.361,0-4.275-1.318-4.275-2.944c0-1.626,1.914-2.944,4.275-2.944
				C180.374,305.785,182.288,307.103,182.288,308.729z"/>
			
				<ellipse style="fill:none;stroke:#FFFFFF;stroke-linecap:round;stroke-linejoin:round;stroke-miterlimit:10;" cx="178.012" cy="317.196" rx="4.275" ry="2.944"/>
			<path style="fill:none;stroke:#FFFFFF;stroke-linecap:round;stroke-linejoin:round;stroke-miterlimit:10;" d="M182.288,325.664
				c0,1.626-1.914,2.944-4.275,2.944c-2.361,0-4.275-1.318-4.275-2.944c0-1.626,1.914-2.944,4.275-2.944
				C180.374,322.72,182.288,324.038,182.288,325.664z"/>
			
				<ellipse style="fill:none;stroke:#FFFFFF;stroke-linecap:round;stroke-linejoin:round;stroke-miterlimit:10;" cx="178.012" cy="334.131" rx="4.275" ry="2.944"/>
		</g>
	</g>
	<g>
		<g>
			<path style="fill:#4E4ECE;" d="M616.372,129.17h-2.805c-1.556,0-2.818-1.262-2.818-2.818v-2.859h8.44v2.859
				C619.19,127.909,617.928,129.17,616.372,129.17z"/>
			<path style="fill:#6A6AE2;" d="M614.547,72.612h0.832c0.462,0,0.836,0.374,0.836,0.836v1.669h-2.505v-1.669
				C613.711,72.986,614.085,72.612,614.547,72.612z"/>
			<path style="fill:#4E4ECE;" d="M615.913,133.427h-1.886c-1.047,0-1.895-0.848-1.895-1.895v-1.886
				c0-1.047,0.848-1.895,1.895-1.895h1.886c1.047,0,1.895,0.848,1.895,1.895v1.886C617.807,132.579,616.959,133.427,615.913,133.427
				z"/>
			<path style="fill:#6A6AE2;" d="M615.913,72.992h-1.886c-1.047,0-1.895-0.848-1.895-1.895V69.21c0-1.047,0.848-1.895,1.895-1.895
				h1.886c1.047,0,1.895,0.848,1.895,1.895v1.886C617.807,72.143,616.959,72.992,615.913,72.992z"/>
			<path style="fill:#6A6AE2;" d="M629.976,141.914c0,0-12.889-0.71-12.889-9.832h-4.235c0,9.122-12.889,9.832-12.889,9.832v1.75
				h30.013V141.914z"/>
			<g>
				<path style="fill:#6A6AE2;" d="M599.61,119.382c-0.859,0-1.725-0.144-2.565-0.436c-2.297-0.798-4.058-2.577-4.828-4.884
					l-5.134-15.357c-0.867-2.592-0.29-5.349,1.542-7.377c1.832-2.026,4.519-2.878,7.183-2.279l8.537,1.923l-0.535,2.373
					l-8.537-1.922c-1.798-0.407-3.608,0.17-4.844,1.538c-1.235,1.367-1.624,3.227-1.041,4.975l5.134,15.357
					c0.53,1.585,1.74,2.809,3.319,3.357c1.579,0.546,3.287,0.336,4.687-0.579l4.632-3.035l1.333,2.035l-4.632,3.035
					C602.572,118.949,601.1,119.382,599.61,119.382z"/>
				<path style="fill:#6A6AE2;" d="M630.328,119.382c-1.49,0-2.961-0.433-4.251-1.278l-4.633-3.035l1.333-2.035l4.632,3.035
					c1.398,0.915,3.105,1.128,4.687,0.578c1.579-0.548,2.789-1.772,3.319-3.357l5.135-15.357c0.584-1.748,0.195-3.607-1.041-4.975
					c-1.237-1.368-3.049-1.943-4.844-1.538l-8.538,1.922l-0.535-2.373l8.538-1.923c2.663-0.601,5.35,0.251,7.184,2.279
					c1.832,2.028,2.408,4.785,1.542,7.377l-5.135,15.357c-0.771,2.307-2.53,4.087-4.827,4.884
					C632.054,119.237,631.188,119.382,630.328,119.382z"/>
			</g>
			<path style="fill:#4E4ECE;" d="M631.183,84.977h-32.439c2.591-6.422,8.879-10.947,16.226-10.947
				C622.316,74.031,628.592,78.555,631.183,84.977z"/>
			<path style="fill:#6A6AE2;" d="M633.081,84.977l-0.718,4.756l-1.289,8.587v0.012l-2.871,19.023
				c-0.693,4.634-4.683,8.064-9.366,8.064h-7.736c-4.695,0-8.672-3.43-9.365-8.064l-2.858-18.987l-1.314-8.672l-0.706-4.719H633.081
				z"/>
		</g>
		<g>
			<rect x="469.491" y="67.316" style="fill:#B3B3FF;" width="44.215" height="76.002"/>
			<rect x="480.316" y="67.316" style="fill:#4E4ECE;" width="44.215" height="76.002"/>
			<rect x="484.417" y="67.316" style="fill:#B3B3FF;" width="44.215" height="76.002"/>
			<rect x="495.241" y="67.316" style="fill:#4E4ECE;" width="44.215" height="76.002"/>
			<rect x="499.342" y="67.316" style="fill:#B3B3FF;" width="44.215" height="76.002"/>
			<rect x="510.166" y="67.316" style="fill:#4E4ECE;" width="44.215" height="76.002"/>
			<rect x="514.267" y="67.316" style="fill:#B3B3FF;" width="44.215" height="76.002"/>
			<rect x="525.091" y="67.316" style="fill:#4E4ECE;" width="44.215" height="76.002"/>
		</g>
		<path style="fill:none;stroke:#171659;stroke-linecap:round;stroke-linejoin:round;stroke-miterlimit:10;" d="M536.797,143.318
			v-34.42c0-5.699,4.62-10.318,10.318-10.318l0,0c5.699,0,10.318,4.62,10.318,10.318v34.42"/>
		<rect x="451.526" y="143.318" style="fill:#3F3FBC;" width="211.811" height="8.219"/>
	</g>
	<g>
		<path style="fill:#B3B3FF;" d="M429.668,266.43c-4.819,0-4.827,7.489,0,7.489C434.487,273.919,434.495,266.43,429.668,266.43z"/>
		<path style="fill:#B3B3FF;" d="M556.978,405.723c-4.819,0-4.827,7.489,0,7.489C561.797,413.211,561.805,405.723,556.978,405.723z"
			/>
		<path style="fill:#B3B3FF;" d="M238.972,278.632c-4.819,0-4.827,7.489,0,7.489C243.791,286.121,243.799,278.632,238.972,278.632z"
			/>
		<path style="fill:#B3B3FF;" d="M266.412,123.394c-4.819,0-4.827,7.489,0,7.489C271.231,130.883,271.239,123.394,266.412,123.394z"
			/>
		<path style="fill:#B3B3FF;" d="M72.452,315.857c-4.819,0-4.827,7.489,0,7.489C77.27,323.345,77.278,315.857,72.452,315.857z"/>
		<path style="fill:#B3B3FF;" d="M671.557,238.722c-4.819,0-4.827,7.489,0,7.489C676.376,246.211,676.384,238.722,671.557,238.722z"
			/>
		<path style="fill:#B3B3FF;" d="M403.457,290.395c-2.891,0-2.896,4.493,0,4.493C406.349,294.888,406.353,290.395,403.457,290.395z"
			/>
		<path style="fill:#B3B3FF;" d="M445.462,126.385c-2.891,0-2.896,4.493,0,4.493C448.353,130.878,448.358,126.385,445.462,126.385z"
			/>
		<path style="fill:#B3B3FF;" d="M218.484,258.942c-2.891,0-2.896,4.493,0,4.493C221.375,263.435,221.38,258.942,218.484,258.942z"
			/>
		<path style="fill:#B3B3FF;" d="M100.16,331.583c-2.891,0-2.896,4.493,0,4.493C103.051,336.077,103.056,331.583,100.16,331.583z"/>
		<path style="fill:#B3B3FF;" d="M672.306,290.395c-2.891,0-2.896,4.493,0,4.493C675.198,294.888,675.202,290.395,672.306,290.395z"
			/>
		<path style="fill:#B3B3FF;" d="M336.058,373.521c-2.891,0-2.896,4.493,0,4.493C338.949,378.014,338.954,373.521,336.058,373.521z"
			/>
	</g>
	
		<line style="fill:none;stroke:#171659;stroke-linecap:round;stroke-linejoin:round;stroke-miterlimit:10;" x1="40" y1="432.682" x2="710" y2="432.682"/>
	<g>
		<path style="fill:#FFFFFF;" d="M230.444,344.212c0,0,0.223-18.096,18.096-18.096c0,0-18.096-0.223-18.096-18.096
			c0,0-0.223,18.096-18.096,18.096C212.348,326.116,230.444,326.34,230.444,344.212z"/>
		<path style="fill:#FFFFFF;" d="M369.552,143.516c0,0,0.223-18.096,18.096-18.096c0,0-18.096-0.223-18.096-18.096
			c0,0-0.224,18.096-18.096,18.096C351.456,125.42,369.552,125.643,369.552,143.516z"/>
		<path style="fill:#FFFFFF;" d="M398.074,148.135c0,0,0.12-9.752,9.752-9.752c0,0-9.752-0.12-9.752-9.752
			c0,0-0.12,9.752-9.752,9.752C388.322,138.384,398.074,138.504,398.074,148.135z"/>
		<path style="fill:#FFFFFF;" d="M210.156,307.635c0,0,0.12-9.752,9.752-9.752c0,0-9.752-0.12-9.752-9.752
			c0,0-0.12,9.752-9.752,9.752C200.404,297.884,210.156,298.004,210.156,307.635z"/>
	</g>
</g>
</svg>
